<svg width="105" height="125" viewBox="0 0 105 125" fill="none" xmlns="http://www.w3.org/2000/svg">
<path d="M6.79492 114.424C6.79492 89.1997 27.243 68.7516 52.4671 68.7516C77.6911 68.7516 98.1392 89.1997 98.1392 114.424V124.963H6.79492V114.424Z" fill="#BECFE9"/>
<path d="M6.7949 124.963C2.91428 124.963 -0.267286 121.801 0.0177781 117.931C1.98617 91.2076 15.4531 78.7076 34.9008 71.7506L52.467 117.937L70.0332 71.7506C89.481 78.7076 102.948 91.2076 104.916 117.931C105.201 121.801 102.02 124.963 98.1392 124.963H6.7949Z" fill="#387EE9"/>
<path d="M63.0068 114.424L52.467 117.937L70.0332 72.2648L80.573 86.3178L59.4935 103.884L63.0068 114.424Z" fill="#5191F1"/>
<path d="M41.9273 114.424L52.467 117.937L34.9008 72.2648L24.3611 86.3178L45.4405 103.884L41.9273 114.424Z" fill="#5191F1"/>
<path d="M27.8743 37.1324C27.8743 23.5503 38.8848 12.5397 52.467 12.5397C66.0491 12.5397 77.0597 23.5503 77.0597 37.1324V51.1854C77.0597 64.7676 66.0491 75.7781 52.467 75.7781C38.8848 75.7781 27.8743 64.7676 27.8743 51.1854V37.1324Z" fill="#DFE8F5"/>
<path d="M52.4666 9.02649C80.5726 9.02649 77.0595 37.1324 77.0595 37.1324C77.0595 37.1324 48.9538 37.1324 34.9008 23.0795C31.3876 37.1324 27.8742 37.1324 27.8742 37.1324C27.8742 37.1324 24.3607 9.02649 52.4666 9.02649Z" fill="#387EE9"/>
<path d="M24.3611 44.1589V58.2118C24.3611 65.9731 30.6528 72.2648 38.4141 72.2648" stroke="#5191F1" stroke-width="3"/>
<path d="M24.3615 37.1324C24.3615 37.1324 20.8486 2 52.4674 2C84.0862 2 80.5733 37.1324 80.5733 37.1324" stroke="#5191F1" stroke-width="3"/>
<path d="M38.4141 75.7781C36.4738 75.7781 34.9009 74.2051 34.9009 72.2648C34.9009 70.3245 36.4738 68.7516 38.4141 68.7516L45.4406 68.7516C47.3809 68.7516 48.9538 70.3245 48.9538 72.2648C48.9538 74.2051 47.3809 75.7781 45.4406 75.7781L38.4141 75.7781Z" fill="#1F65D1"/>
<path d="M27.8743 54.6986C20.113 54.6986 13.8213 48.4069 13.8213 40.6457C13.8213 32.8844 20.113 26.5927 27.8743 26.5927L27.8743 54.6986Z" fill="#1F65D1"/>
<path d="M77.0596 26.5927C84.8209 26.5927 91.1126 32.8844 91.1126 40.6457C91.1126 48.4069 84.8209 54.6986 77.0596 54.6986V26.5927Z" fill="#1F65D1"/>
</svg>
