<svg width="103" height="171" viewBox="0 0 103 171" fill="none" xmlns="http://www.w3.org/2000/svg">
<path d="M103 23.769L55.4615 0L47.5385 3.96154V91.1154L95.0769 114.885L103 110.923V23.769Z" fill="#BECFE9"/>
<path d="M47.5385 91.1152L95.0769 114.884V27.7306L47.5385 3.96155V91.1152Z" fill="#DFE8F5"/>
<path d="M87.1538 55.4614L39.6153 31.6923L31.6923 35.6539V122.808L79.2307 146.577L87.1538 142.615V55.4614Z" fill="#387EE9"/>
<path d="M31.6923 122.808L79.2307 146.577V59.4229L31.6923 35.6539V122.808Z" fill="#1F65D1"/>
<path d="M71.3077 47.5383L23.7693 23.7692L15.8462 27.7308V114.885L63.3847 138.654L71.3077 134.692V47.5383Z" fill="#BECFE9"/>
<path d="M15.8462 114.884L63.3847 138.654V51.4998L15.8462 27.7308V114.884Z" fill="#DFE8F5"/>
<path d="M55.4615 79.2306L7.92308 55.4615L0 59.4231V146.577L47.5385 170.346L55.4615 166.384V79.2306Z" fill="#387EE9"/>
<path d="M0 146.577L47.5385 170.346V83.1921L0 59.4231V146.577Z" fill="#5191F1"/>
</svg>
