<svg width="50" height="50" viewBox="0 0 50 50" fill="none" xmlns="http://www.w3.org/2000/svg">
<path d="M25 35.2266C24.8906 35.2266 24.7812 35.2031 24.6719 35.1562C24.5781 35.1094 24.4922 35.0547 24.4141 34.9922L16.7031 27.2812C16.2812 26.8594 15.8594 26.2969 15.4375 25.5938C15 24.9062 14.6953 24.1406 14.5234 23.2969C14.3672 22.4531 14.3984 21.5703 14.6172 20.6484C14.8359 19.7266 15.3828 18.8281 16.2578 17.9531C17.4141 16.8125 18.5625 16.2188 19.7031 16.1719C20.8438 16.1094 21.8281 16.2344 22.6562 16.5469C23.1094 16.7188 23.5312 16.9219 23.9219 17.1562C24.3125 17.375 24.6797 17.6172 25.0234 17.8828H25C25.3281 17.6172 25.6797 17.375 26.0547 17.1562C26.4453 16.9219 26.8516 16.7266 27.2734 16.5703L27.3438 16.5469C28.1719 16.2344 29.1562 16.1094 30.2969 16.1719C31.4375 16.2188 32.5859 16.8125 33.7422 17.9531C34.6172 18.8281 35.1641 19.7266 35.3828 20.6484C35.6016 21.5703 35.625 22.4531 35.4531 23.2969C35.2969 24.1406 35 24.9141 34.5625 25.6172C34.1406 26.3047 33.7188 26.8594 33.2969 27.2812L25.5859 34.9922C25.5078 35.0547 25.4141 35.1094 25.3047 35.1562C25.2109 35.2031 25.1094 35.2266 25 35.2266ZM20.4297 17.7891C19.8359 17.7891 19.2812 17.9141 18.7656 18.1641C18.25 18.3984 17.8047 18.7188 17.4297 19.125C16.6328 19.9219 16.1953 20.7266 16.1172 21.5391C16.0547 22.3516 16.1484 23.0938 16.3984 23.7656C16.6484 24.4219 16.9531 24.9609 17.3125 25.3828C17.6562 25.8203 17.8516 26.0547 17.8984 26.0859L25 33.2109L32.1016 26.1094C32.1484 26.0625 32.3438 25.8281 32.6875 25.4062C33.0469 24.9688 33.3516 24.4219 33.6016 23.7656C33.8516 23.1094 33.9375 22.375 33.8594 21.5625C33.7969 20.75 33.3672 19.9375 32.5703 19.125C31.7578 18.3281 30.9453 17.8984 30.1328 17.8359C29.3203 17.7578 28.5859 17.8438 27.9297 18.0938C27.2734 18.3438 26.7266 18.6484 26.2891 19.0078C25.8672 19.3516 25.6328 19.5469 25.5859 19.5938C25.5078 19.6719 25.4141 19.7344 25.3047 19.7812C25.2109 19.8125 25.1094 19.8281 25 19.8281C24.8906 19.8281 24.7812 19.8125 24.6719 19.7812C24.5781 19.7344 24.4922 19.6719 24.4141 19.5938C24.3516 19.5312 23.9375 19.2188 23.1719 18.6562C22.4062 18.0781 21.4922 17.7891 20.4297 17.7891Z" fill="#545454"/>
</svg>
