<svg id="Слой_1" data-name="Слой 1" xmlns="http://www.w3.org/2000/svg" width="50" height="50" viewBox="0 0 50 50">
  <title>arrow-style-circle</title>
  <path d="M25,40.5A15.5,15.5,0,1,1,40.5,25,15.52,15.52,0,0,1,25,40.5Zm0-30A14.5,14.5,0,1,0,39.5,25,14.52,14.52,0,0,0,25,10.5Z" fill="#f1f1f1"/>
  <path d="M21.87,32.44a.59.59,0,0,1-.19-.44.54.54,0,0,1,.05-.24.69.69,0,0,1,.15-.2L28.75,25l-6.87-6.56a.66.66,0,0,1-.15-.2.53.53,0,0,1-.05-.23.59.59,0,0,1,.19-.44.65.65,0,0,1,.46-.18.6.6,0,0,1,.25.05.72.72,0,0,1,.21.14l7.33,7a.7.7,0,0,1,.15.2.54.54,0,0,1,.05.24.53.53,0,0,1-.05.23.67.67,0,0,1-.15.2l-7.33,7a.75.75,0,0,1-.21.14.6.6,0,0,1-.25.05A.65.65,0,0,1,21.87,32.44Z" fill="#777"/>
</svg>
