<svg width="50" height="50" viewBox="0 0 50 50" fill="none" xmlns="http://www.w3.org/2000/svg">
<rect width="50" height="50" fill="white"/>
<path d="M36 29L41 24.5L36 20" stroke="#545454" stroke-width="2" stroke-linecap="round" stroke-linejoin="round"/>
<path d="M14.0225 20.19C14.2645 20.19 14.4588 20.2707 14.6055 20.432C14.7595 20.586 14.8365 20.7877 14.8365 21.037V27.208C14.8365 27.4647 14.7595 27.6737 14.6055 27.835C14.4588 27.989 14.2645 28.066 14.0225 28.066C13.7585 28.066 13.5458 27.9707 13.3845 27.78L9.69947 23.061V27.208C9.69947 27.4647 9.62614 27.6737 9.47947 27.835C9.34014 27.989 9.14947 28.066 8.90747 28.066C8.66547 28.066 8.47114 27.989 8.32447 27.835C8.17781 27.6737 8.10447 27.4647 8.10447 27.208V21.037C8.10447 20.7877 8.17781 20.586 8.32447 20.432C8.47847 20.2707 8.67647 20.19 8.91847 20.19C9.18981 20.19 9.39881 20.2853 9.54547 20.476L13.2305 25.162V21.037C13.2305 20.7877 13.3038 20.586 13.4505 20.432C13.5971 20.2707 13.7878 20.19 14.0225 20.19ZM20.578 26.394C20.7246 26.394 20.842 26.4527 20.93 26.57C21.0253 26.6873 21.073 26.8377 21.073 27.021C21.073 27.1457 21.0363 27.263 20.963 27.373C20.8896 27.4757 20.787 27.5637 20.655 27.637C20.4056 27.769 20.116 27.879 19.786 27.967C19.456 28.0477 19.1516 28.088 18.873 28.088C18.2863 28.088 17.773 27.9743 17.333 27.747C16.9003 27.5197 16.5666 27.197 16.332 26.779C16.0973 26.3537 15.98 25.855 15.98 25.283C15.98 24.733 16.0936 24.2453 16.321 23.82C16.5483 23.3947 16.8636 23.0647 17.267 22.83C17.6703 22.588 18.1286 22.467 18.642 22.467C19.1333 22.467 19.5623 22.577 19.929 22.797C20.303 23.0097 20.5926 23.3177 20.798 23.721C21.0033 24.117 21.106 24.5827 21.106 25.118C21.106 25.2793 21.0656 25.404 20.985 25.492C20.9116 25.5727 20.8053 25.613 20.666 25.613H17.586C17.6373 26.0457 17.7693 26.361 17.982 26.559C18.1946 26.7497 18.499 26.845 18.895 26.845C19.1076 26.845 19.2983 26.8193 19.467 26.768C19.6356 26.7167 19.8226 26.647 20.028 26.559C20.1306 26.515 20.2296 26.4783 20.325 26.449C20.4203 26.4123 20.5046 26.394 20.578 26.394ZM18.686 23.611C18.3706 23.611 18.1176 23.7137 17.927 23.919C17.7363 24.117 17.6226 24.4067 17.586 24.788H19.709C19.687 24.3993 19.588 24.106 19.412 23.908C19.2433 23.71 19.0013 23.611 18.686 23.611ZM26.9272 26.779C27.0885 26.9477 27.1692 27.131 27.1692 27.329C27.1692 27.527 27.0922 27.703 26.9382 27.857C26.7915 28.0037 26.6192 28.077 26.4212 28.077C26.2232 28.077 26.0399 27.989 25.8712 27.813L24.4412 26.273L23.0222 27.813C22.8535 27.989 22.6702 28.077 22.4722 28.077C22.2669 28.077 22.0872 28.0037 21.9332 27.857C21.7865 27.703 21.7132 27.5233 21.7132 27.318C21.7132 27.1273 21.7939 26.9477 21.9552 26.779L23.4402 25.228L22.0542 23.787C21.8929 23.6183 21.8122 23.4387 21.8122 23.248C21.8122 23.0427 21.8855 22.8667 22.0322 22.72C22.1862 22.5733 22.3622 22.5 22.5602 22.5C22.7655 22.5 22.9525 22.588 23.1212 22.764L24.4412 24.172L25.7722 22.764C25.9409 22.588 26.1279 22.5 26.3332 22.5C26.5312 22.5 26.7035 22.5733 26.8502 22.72C27.0042 22.8667 27.0812 23.0427 27.0812 23.248C27.0812 23.4387 27.0005 23.6183 26.8392 23.787L25.4422 25.228L26.9272 26.779ZM31.0526 26.856C31.2726 26.8707 31.434 26.9257 31.5366 27.021C31.6393 27.1163 31.6906 27.2557 31.6906 27.439C31.6906 27.6517 31.6063 27.813 31.4376 27.923C31.269 28.033 31.027 28.077 30.7116 28.055L30.4036 28.033C29.1203 27.9303 28.4786 27.2593 28.4786 26.02V23.842H28.0386C27.7966 23.842 27.6133 23.7907 27.4886 23.688C27.364 23.578 27.3016 23.424 27.3016 23.226C27.3016 23.0207 27.364 22.8667 27.4886 22.764C27.6133 22.654 27.7966 22.599 28.0386 22.599H28.4786V21.741C28.4786 21.499 28.552 21.3083 28.6986 21.169C28.8526 21.0297 29.058 20.96 29.3146 20.96C29.5713 20.96 29.773 21.0297 29.9196 21.169C30.0663 21.3083 30.1396 21.499 30.1396 21.741V22.599H30.9096C31.4083 22.599 31.6576 22.808 31.6576 23.226C31.6576 23.424 31.5953 23.578 31.4706 23.688C31.346 23.7907 31.159 23.842 30.9096 23.842H30.1396V26.141C30.1396 26.361 30.191 26.5297 30.2936 26.647C30.3963 26.757 30.5466 26.8193 30.7446 26.834L31.0526 26.856Z" fill="#545454"/>
</svg>
