<svg width="70" height="30" viewBox="0 0 70 30" fill="none" xmlns="http://www.w3.org/2000/svg">
<circle cx="21" cy="9" r="5" fill="#74A3EE"/>
<path d="M32 10C30.8954 10 30 9.10457 30 8V6C30 4.89543 30.8954 4 32 4H52C53.1046 4 54 4.89543 54 6V8C54 9.10457 53.1046 10 52 10H32Z" fill="#8F959F" fill-opacity="0.2"/>
<path d="M32 18C30.8954 18 30 17.1045 30 16V14C30 12.8954 30.8954 12 32 12H46C47.1046 12 48 12.8954 48 14V16C48 17.1045 47.1046 18 46 18H32Z" fill="#8F959F" fill-opacity="0.2"/>
<path d="M32 26C30.8954 26 30 25.1046 30 24V22C30 20.8954 30.8954 20 32 20H52C53.1046 20 54 20.8954 54 22V24C54 25.1046 53.1046 26 52 26H32Z" fill="#8F959F" fill-opacity="0.2"/>
</svg>
