<svg height="512pt" viewBox="0 -19 512 512" width="512pt" xmlns="http://www.w3.org/2000/svg"><path d="m461.015625 333c-2.90625 0-5.785156-1.261719-7.761719-3.691406-3.484375-4.285156-2.839844-10.582032 1.445313-14.066406 23.703125-19.289063 37.300781-47.800782 37.300781-78.222657 0-30.425781-13.597656-58.9375-37.300781-78.222656-4.285157-3.488281-4.933594-9.785156-1.445313-14.070313 3.484375-4.285156 9.78125-4.929687 14.066406-1.445312 28.394532 23.105469 44.679688 57.269531 44.679688 93.738281s-16.285156 70.632813-44.679688 93.738281c-1.851562 1.507813-4.085937 2.242188-6.304687 2.242188zm0 0"/><path d="m435.835938 307.816406c-3.070313 0-6.101563-1.410156-8.0625-4.074218-3.273438-4.445313-2.324219-10.707032 2.125-13.980469 16.75-12.332031 26.75-32.050781 26.75-52.742188 0-20.695312-10-40.410156-26.75-52.746093-4.449219-3.273438-5.398438-9.53125-2.125-13.980469 3.273437-4.445313 9.535156-5.398438 13.980468-2.121094 21.851563 16.085937 34.894532 41.824219 34.894532 68.847656 0 27.023438-13.042969 52.761719-34.894532 68.847657-1.785156 1.316406-3.859375 1.949218-5.917968 1.949218zm0 0"/><path d="m50.984375 333c-2.21875 0-4.449219-.734375-6.304687-2.246094-28.394532-23.101562-44.679688-57.265625-44.679688-93.734375s16.285156-70.632812 44.679688-93.738281c4.285156-3.484375 10.582031-2.835938 14.066406 1.445312 3.484375 4.285157 2.839844 10.582032-1.445313 14.070313-23.703125 19.285156-37.300781 47.796875-37.300781 78.222656 0 30.421875 13.597656 58.933594 37.300781 78.222657 4.285157 3.484374 4.933594 9.785156 1.445313 14.066406-1.976563 2.429687-4.855469 3.691406-7.761719 3.691406zm0 0"/><path d="m76.164062 307.816406c-2.058593 0-4.132812-.632812-5.917968-1.949218-21.851563-16.085938-34.894532-41.824219-34.894532-68.847657 0-27.023437 13.042969-52.761719 34.894532-68.847656 4.445312-3.277344 10.707031-2.324219 13.980468 2.121094 3.273438 4.449219 2.324219 10.707031-2.125 13.980469-16.75 12.335937-26.75 32.050781-26.75 52.746093 0 20.691407 10 40.410157 26.75 52.742188 4.449219 3.273437 5.398438 9.535156 2.125 13.980469-1.960937 2.664062-4.992187 4.074218-8.0625 4.074218zm0 0"/><path d="m375.042969 474.039062h-238.085938c-19.15625 0-34.738281-15.585937-34.738281-34.738281v-404.5625c0-19.152343 15.582031-34.738281 34.738281-34.738281h238.085938c19.15625 0 34.738281 15.582031 34.738281 34.738281v404.5625c0 19.152344-15.582031 34.738281-34.738281 34.738281zm-238.085938-454.039062c-8.128906 0-14.738281 6.609375-14.738281 14.738281v404.5625c0 8.125 6.609375 14.738281 14.738281 14.738281h238.085938c8.128906 0 14.738281-6.613281 14.738281-14.738281v-404.5625c0-8.125-6.609375-14.738281-14.738281-14.738281zm0 0"/><path d="m256 184.757812c-37.785156 0-68.523438-30.738281-68.523438-68.523437 0-37.78125 30.738282-68.519531 68.523438-68.519531s68.523438 30.738281 68.523438 68.519531c0 37.785156-30.738282 68.523437-68.523438 68.523437zm0-117.042968c-26.757812 0-48.523438 21.765625-48.523438 48.519531 0 26.757813 21.765626 48.523437 48.523438 48.523437s48.523438-21.765624 48.523438-48.523437c0-26.753906-21.765626-48.519531-48.523438-48.519531zm0 0"/><path d="m256 439.246094c-56.933594 0-103.25-46.316406-103.25-103.25 0-56.929688 46.316406-103.246094 103.25-103.246094s103.25 46.316406 103.25 103.246094c0 56.933594-46.316406 103.25-103.25 103.25zm0-186.5c-45.902344 0-83.25 37.347656-83.25 83.25 0 45.90625 37.347656 83.25 83.25 83.25s83.25-37.34375 83.25-83.25c0-45.902344-37.347656-83.25-83.25-83.25zm0 0"/><path d="m256 392.066406c-30.917969 0-56.070312-25.152344-56.070312-56.070312 0-30.917969 25.152343-56.070313 56.070312-56.070313s56.070312 25.152344 56.070312 56.070313c0 30.917968-25.152343 56.070312-56.070312 56.070312zm0-92.140625c-19.890625 0-36.070312 16.183594-36.070312 36.070313 0 19.890625 16.179687 36.074218 36.070312 36.074218s36.070312-16.183593 36.070312-36.074218c0-19.886719-16.179687-36.070313-36.070312-36.070313zm0 0"/><path d="m369.046875 51.246094h-6.457031c-5.523438 0-10-4.476563-10-10 0-5.519532 4.476562-10 10-10h6.457031c5.523437 0 10 4.480468 10 10 0 5.523437-4.476563 10-10 10zm0 0"/><path d="m149.410156 51.246094h-6.457031c-5.523437 0-10-4.476563-10-10 0-5.519532 4.476563-10 10-10h6.457031c5.523438 0 10 4.480468 10 10 0 5.523437-4.476562 10-10 10zm0 0"/><path d="m369.046875 443.179688h-6.457031c-5.523438 0-10-4.476563-10-10 0-5.523438 4.476562-10 10-10h6.457031c5.523437 0 10 4.476562 10 10 0 5.523437-4.476563 10-10 10zm0 0"/><path d="m149.410156 443.179688h-6.457031c-5.523437 0-10-4.476563-10-10 0-5.523438 4.476563-10 10-10h6.457031c5.523438 0 10 4.476562 10 10 0 5.523437-4.476562 10-10 10zm0 0"/><path d="m324.507812 217.929688h-178.082031c-5.523437 0-10-4.476563-10-10 0-5.523438 4.476563-10 10-10h178.082031c5.523438 0 10 4.476562 10 10 0 5.523437-4.476562 10-10 10zm0 0"/><path d="m365.578125 217.929688c-.65625 0-1.308594-.0625-1.957031-.191407-.640625-.128906-1.269532-.320312-1.871094-.570312s-1.179688-.558594-1.730469-.917969c-.539062-.371094-1.058593-.789062-1.519531-1.25s-.878906-.972656-1.238281-1.519531c-.363281-.542969-.671875-1.121094-.921875-1.722657-.25-.609374-.441406-1.238281-.570313-1.867187-.128906-.652344-.199219-1.3125-.199219-1.960937 0-2.628907 1.070313-5.210938 2.929688-7.070313.460938-.460937.980469-.878906 1.519531-1.242187.550781-.359376 1.132813-.667969 1.730469-.917969.601562-.25 1.230469-.441407 1.871094-.570313 1.289062-.261718 2.621094-.261718 3.910156 0 .640625.128906 1.269531.320313 1.867188.570313.601562.25 1.183593.558593 1.722656.917969.550781.363281 1.058594.78125 1.527344 1.242187 1.863281 1.859375 2.933593 4.441406 2.933593 7.070313 0 .648437-.070312 1.308593-.199219 1.960937-.132812.628906-.320312 1.257813-.570312 1.867187-.25.601563-.5625 1.179688-.921875 1.722657-.371094.546875-.78125 1.058593-1.238281 1.519531-.472656.460938-.980469.878906-1.53125 1.25-.539063.359375-1.117188.667969-1.71875.917969-.601563.25-1.230469.441406-1.871094.570312-.652344.128907-1.300781.191407-1.953125.191407zm0 0"/></svg>