<svg height="512pt" viewBox="-10 0 512 512" width="512pt" xmlns="http://www.w3.org/2000/svg"><path d="m463.46875 322.558594c-.652344 0-1.3125-.070313-1.960938-.199219-.628906-.128906-1.261718-.320313-1.871093-.570313-.601563-.25-1.179688-.558593-1.71875-.917968-.550781-.359375-1.0625-.78125-1.519531-1.242188-.460938-.457031-.882813-.96875-1.25-1.519531-.363282-.539063-.671876-1.121094-.921876-1.730469-.25-.597656-.441406-1.230468-.570312-1.867187-.128906-.640625-.1875-1.300781-.1875-1.953125 0-.648438.058594-1.308594.1875-1.960938.128906-.628906.320312-1.257812.570312-1.867187.25-.601563.558594-1.179688.921876-1.722657.367187-.546874.789062-1.058593 1.25-1.519531.457031-.46875.96875-.878906 1.519531-1.25.539062-.359375 1.117187-.667969 1.71875-.917969.609375-.25 1.242187-.441406 1.871093-.570312 1.289063-.261719 2.621094-.261719 3.910157 0 .640625.128906 1.269531.320312 1.867187.570312.613282.25 1.191406.558594 1.730469.917969.550781.371094 1.0625.78125 1.519531 1.25.460938.460938.882813.972657 1.242188 1.519531.359375.542969.667968 1.121094.917968 1.722657.25.609375.441407 1.238281.570313 1.867187.132813.652344.203125 1.3125.203125 1.960938 0 .652344-.070312 1.308594-.203125 1.953125-.128906.636719-.320313 1.269531-.570313 1.867187-.25.609375-.558593 1.191406-.917968 1.730469-.359375.550781-.78125 1.0625-1.242188 1.519531-.457031.460938-.96875.882813-1.519531 1.242188-.539063.359375-1.117187.667968-1.730469.917968-.597656.25-1.226562.441407-1.867187.570313s-1.300781.199219-1.949219.199219zm0 0"/><path d="m149.660156 276.894531c-2.21875 0-4.449218-.734375-6.304687-2.242187-4.285157-3.484375-4.929688-9.785156-1.445313-14.066406 25.574219-31.441407 63.394532-49.472657 103.765625-49.472657 26.726563 0 52.546875 7.898438 74.664063 22.839844 4.578125 3.09375 5.78125 9.308594 2.691406 13.886719-3.09375 4.574218-9.308594 5.777344-13.886719 2.6875-18.796875-12.699219-40.746093-19.414063-63.46875-19.414063-34.324219 0-66.492187 15.34375-88.25 42.089844-1.976562 2.429687-4.859375 3.691406-7.765625 3.691406zm0 0"/><path d="m341.6875 276.890625c-.652344 0-1.308594-.0625-1.949219-.191406-.640625-.128907-1.269531-.320313-1.871093-.570313-.609376-.25-1.191407-.558594-1.730469-.917968-.550781-.371094-1.058594-.78125-1.519531-1.25-.460938-.460938-.878907-.972657-1.238282-1.519532-.363281-.542968-.671875-1.121094-.921875-1.722656-.25-.597656-.449219-1.230469-.570312-1.867188-.128907-.652343-.199219-1.300781-.199219-1.960937 0-.652344.070312-1.3125.199219-1.949219.121093-.640625.320312-1.269531.570312-1.871094.25-.601562.558594-1.179687.921875-1.730468.359375-.539063.777344-1.058594 1.238282-1.519532.460937-.460937.96875-.878906 1.519531-1.242187.539062-.359375 1.121093-.667969 1.730469-.917969.601562-.25 1.230468-.441406 1.871093-.570312 3.25-.648438 6.699219.410156 9.019531 2.730468.460938.460938.878907.980469 1.238282 1.519532.359375.550781.671875 1.128906.921875 1.730468.25.601563.449219 1.230469.570312 1.871094.128907.636719.199219 1.296875.199219 1.949219 0 .660156-.070312 1.308594-.199219 1.960937-.121093.636719-.320312 1.269532-.570312 1.867188-.25.601562-.5625 1.179688-.921875 1.722656-.359375.546875-.777344 1.058594-1.238282 1.519532-.460937.46875-.972656.878906-1.519531 1.25-.542969.359374-1.121093.667968-1.730469.917968-.601562.25-1.230468.441406-1.871093.570313-.640625.128906-1.300781.191406-1.949219.191406zm0 0"/><path d="m313.574219 305.019531c-3.070313 0-6.101563-1.40625-8.0625-4.070312-13.992188-19.007813-36.359375-30.355469-59.835938-30.355469-23.476562 0-45.84375 11.347656-59.832031 30.355469-3.273438 4.449219-9.535156 5.398437-13.984375 2.125-4.445313-3.273438-5.398437-9.535157-2.125-13.980469 17.746094-24.105469 46.132813-38.5 75.941406-38.5 29.808594 0 58.199219 14.394531 75.941407 38.5 3.273437 4.445312 2.324218 10.707031-2.125 13.980469-1.78125 1.3125-3.859376 1.945312-5.917969 1.945312zm0 0"/><path d="m287.707031 333.5625c-3.070312 0-6.101562-1.410156-8.0625-4.074219-7.945312-10.792969-20.640625-17.238281-33.96875-17.238281-13.324219 0-26.023437 6.445312-33.96875 17.238281-3.273437 4.449219-9.53125 5.402344-13.980469 2.125-4.449218-3.273437-5.398437-9.53125-2.125-13.980469 11.699219-15.894531 30.417969-25.382812 50.074219-25.382812 19.660157 0 38.378907 9.488281 50.078125 25.382812 3.273438 4.445313 2.320313 10.707032-2.125 13.980469-1.785156 1.316407-3.863281 1.949219-5.921875 1.949219zm0 0"/><path d="m51.996094 176.296875c1.335937-.082031 2.675781-.222656 4.011718-.417969 14.066407-2.039062 26.449219-10.085937 33.976563-22.070312 33.824219-53.855469 92.027344-86.007813 155.691406-86.007813 63.667969 0 121.871094 32.152344 155.695313 86.007813 7.527344 11.984375 19.910156 20.03125 33.976562 22.070312 1.335938.195313 2.675782.332032 4.007813.417969 9.363281 24.015625 14.109375 49.375 14.109375 75.429687v24.886719c0 5.523438 4.476562 10 10 10 5.523437 0 10-4.476562 10-10v-24.886719c0-27.03125-4.664063-53.386718-13.871094-78.464843 5.457031-2.058594 10.566406-5.101563 15.054688-9.050781 3.242187-2.855469 4.289062-7.464844 2.589843-11.4375-12.597656-29.484376-30.632812-56.078126-53.59375-79.042969-47.554687-47.566407-110.726562-73.730469-177.964843-73.730469-.246094 0-.503907 0-.75 0-33.945313.0976562-66.953126 6.898438-98.109376 20.214844-31.125 13.304687-58.863281 32.449218-82.441406 56.90625-21.375 22.175781-38.285156 47.628906-50.261718 75.652344-1.699219 3.96875-.652344 8.582031 2.585937 11.4375 4.492187 3.949218 9.597656 6.992187 15.058594 9.050781-9.207031 25.082031-13.871094 51.433593-13.871094 78.464843v103.390626h-7.890625c-5.523438 0-10 4.476562-10 10v62.695312c0 5.523438 4.476562 10 10 10h16.679688c3.660156 13.964844 14.808593 24.933594 28.875 28.339844 4.257812 25.96875 26.859374 45.847656 54.011718 45.847656 30.183594 0 54.738282-24.558594 54.738282-54.746094v-121.578125c0-30.1875-24.554688-54.746093-54.738282-54.746093-27.152344 0-49.75 19.875-54.011718 45.847656-6.722657 1.625-12.777344 4.980468-17.664063 9.5625v-84.613282c0-26.054687 4.742187-51.414062 14.105469-75.429687zm26.78125-85.292969c43.324218-44.945312 103.90625-70.824218 166.210937-71.003906h.6875c61.894531 0 120.050781 24.089844 163.824219 67.871094 19.210938 19.210937 34.664062 41.164062 46.023438 65.351562-5.273438 2.703125-11.304688 3.738282-17.304688 2.867188-8.25-1.199219-15.507812-5.90625-19.914062-12.917969-18.15625-28.910156-43.523438-52.984375-73.355469-69.613281-30.226563-16.851563-64.554688-25.757813-99.273438-25.757813-34.714843 0-69.046875 8.90625-99.273437 25.757813-29.832032 16.628906-55.199219 40.703125-73.355469 69.613281-4.402344 7.007813-11.660156 11.71875-19.914063 12.914063-5.996093.871093-12.027343-.160157-17.304687-2.867188 10.746094-22.871094 25.167969-43.769531 42.949219-62.214844zm-58.777344 284.109375h5.394531v42.699219h-5.394531zm89.566406-74.183593c19.15625 0 34.738282 15.585937 34.738282 34.746093v121.578125c0 19.160156-15.582032 34.746094-34.738282 34.746094-19.152344 0-34.738281-15.585938-34.738281-34.746094v-121.578125c0-19.160156 15.585937-34.746093 34.738281-34.746093zm-54.738281 47.519531v96.027343c-5.648437-3.402343-9.433594-9.597656-9.433594-16.664062v-62.695312c0-7.066407 3.785157-13.261719 9.433594-16.667969zm0 0"/><path d="m481.355469 355.113281h-16.667969c-1.746094-6.707031-5.25-12.855469-10.277344-17.886719-5.210937-5.210937-11.621094-8.785156-18.609375-10.460937-4.269531-25.964844-26.867187-45.835937-54.015625-45.835937-30.183594 0-54.738281 24.558593-54.738281 54.742187v121.582031c0 30.1875 24.558594 54.746094 54.738281 54.746094 27.15625 0 49.753906-19.878906 54.015625-45.847656 14.066407-3.40625 25.214844-14.375 28.875-28.339844h16.679688c5.523437 0 10-4.476562 10-10v-62.699219c0-5.519531-4.476563-10-10-10zm-99.570313 136.886719c-19.152344 0-34.738281-15.585938-34.738281-34.746094v-121.578125c0-19.160156 15.585937-34.746093 34.738281-34.746093 19.128906 0 34.695313 15.546874 34.738282 34.667968v.078125 121.578125.078125c-.042969 19.121094-15.609376 34.667969-34.738282 34.667969zm64.175782-64.1875c0 7.066406-3.789063 13.261719-9.4375 16.667969v-96.042969c1.347656.808594 2.601562 1.789062 3.742187 2.929688 3.671875 3.671874 5.695313 8.554687 5.695313 13.75zm25.394531-10h-5.394531v-42.695312h5.394531zm0 0"/></svg>