<svg height="512pt" viewBox="-57 0 512 512.001" width="512pt" xmlns="http://www.w3.org/2000/svg"><path d="m88.542969 71.980469c-.660157 0-1.308594-.070313-1.960938-.199219-.640625-.132812-1.269531-.320312-1.871093-.570312-.597657-.25-1.179688-.5625-1.71875-.921876-.550782-.359374-1.058594-.777343-1.519532-1.238281-.46875-.472656-.878906-.980469-1.25-1.519531-.359375-.550781-.671875-1.132812-.921875-1.730469-.25-.601562-.4375-1.230469-.566406-1.871093-.132813-.648438-.191406-1.300782-.191406-1.949219 0-.660157.058593-1.308594.191406-1.960938.128906-.640625.316406-1.269531.566406-1.871093.25-.597657.5625-1.179688.921875-1.726563.371094-.542969.78125-1.0625 1.25-1.523437.460938-.457032.96875-.878907 1.519532-1.238282.539062-.359375 1.121093-.671875 1.71875-.921875.601562-.25 1.230468-.4375 1.871093-.566406 1.289063-.261719 2.621094-.261719 3.910157 0 .640624.128906 1.269531.316406 1.871093.566406.597657.25 1.1875.5625 1.730469.921875.546875.359375 1.058594.78125 1.519531 1.238282.460938.460937.878907.980468 1.238281 1.523437.359376.546875.671876 1.128906.921876 1.726563.25.601562.4375 1.230468.570312 1.871093.128906.652344.199219 1.300781.199219 1.960938 0 .648437-.070313 1.300781-.199219 1.949219-.132812.640624-.320312 1.269531-.570312 1.871093-.25.597657-.5625 1.179688-.921876 1.730469-.359374.539062-.777343 1.046875-1.238281 1.519531-.460937.460938-.972656.878907-1.519531 1.238281-.542969.359376-1.132812.671876-1.730469.921876-.601562.25-1.230469.4375-1.871093.570312-.648438.128906-1.300782.199219-1.949219.199219zm0 0"/><path d="m352.097656 0h-306.753906c-25 0-45.34375 20.34375-45.34375 45.34375v421.3125c0 25.003906 20.339844 45.34375 45.34375 45.34375h306.753906c25.003906 0 45.347656-20.339844 45.347656-45.34375v-421.3125c0-25-20.34375-45.34375-45.347656-45.34375zm-306.753906 20h306.757812c13.972657 0 25.34375 11.371094 25.34375 25.34375v6.632812h-241.085937c-5.523437 0-10 4.476563-10 10 0 5.519532 4.476563 10 10 10h241.085937v358.035157h-357.445312v-358.035157h26.359375c5.523437 0 10-4.480468 10-10 0-5.523437-4.476563-10-10-10h-26.359375v-6.632812c0-13.972656 11.371094-25.34375 25.34375-25.34375zm332.101562 446.65625c0 13.972656-11.371093 25.34375-25.34375 25.34375h-306.757812c-13.972656 0-25.34375-11.371094-25.34375-25.34375v-16.644531h357.445312zm0 0"/><path d="m121.5 225.617188h-70.566406c-5.523438 0-10-4.476563-10-10v-70.566407c0-5.523437 4.476562-10 10-10h70.566406c5.523438 0 10 4.476563 10 10v70.566407c0 5.523437-4.476562 10-10 10zm-60.566406-20h50.566406v-50.566407h-50.566406zm0 0"/><path d="m121.5 336.925781h-70.566406c-5.523438 0-10-4.476562-10-10v-70.570312c0-5.519531 4.476562-10 10-10h70.566406c5.523438 0 10 4.480469 10 10v70.570312c0 5.523438-4.476562 10-10 10zm-60.566406-20h50.566406v-50.570312h-50.566406zm0 0"/><path d="m234.007812 225.617188h-70.570312c-5.523438 0-10-4.476563-10-10v-70.566407c0-5.523437 4.476562-10 10-10h70.570312c5.523438 0 10 4.476563 10 10v70.566407c0 5.523437-4.476562 10-10 10zm-60.570312-20h50.570312v-50.566407h-50.570312zm0 0"/><path d="m234.007812 336.925781h-70.570312c-5.523438 0-10-4.476562-10-10v-70.570312c0-5.519531 4.476562-10 10-10h70.570312c5.523438 0 10 4.480469 10 10v70.570312c0 5.523438-4.476562 10-10 10zm-60.570312-20h50.570312v-50.570312h-50.570312zm0 0"/><path d="m346.511719 225.617188h-70.566407c-5.523437 0-10-4.476563-10-10v-70.566407c0-5.523437 4.476563-10 10-10h70.566407c5.523437 0 10 4.476563 10 10v70.566407c0 5.523437-4.476563 10-10 10zm-60.566407-20h50.566407v-50.566407h-50.566407zm0 0"/><path d="m346.511719 336.925781h-70.566407c-5.523437 0-10-4.476562-10-10v-70.570312c0-5.519531 4.476563-10 10-10h70.566407c5.523437 0 10 4.480469 10 10v70.570312c0 5.523438-4.476563 10-10 10zm-60.566407-20h50.566407v-50.570312h-50.566407zm0 0"/><path d="m211.054688 481.003906h-24.667969c-5.519531 0-10-4.476562-10-10 0-5.523437 4.480469-10 10-10h24.667969c5.523437 0 10 4.476563 10 10 0 5.523438-4.476563 10-10 10zm0 0"/><path d="m231.722656 391.007812h-66c-5.523437 0-10-4.480468-10-10 0-5.523437 4.476563-10 10-10h66c5.523438 0 10 4.476563 10 10 0 5.519532-4.476562 10-10 10zm0 0"/></svg>