<svg height="512pt" viewBox="0 -47 512 512" width="512pt" xmlns="http://www.w3.org/2000/svg"><path d="m355.019531 191.046875c-2.640625 0-5.210937-1.070313-7.070312-2.929687-1.871094-1.859376-2.929688-4.441407-2.929688-7.070313 0-.648437.058594-1.308594.191407-1.949219.128906-.640625.320312-1.269531.570312-1.871094.25-.609374.558594-1.191406.917969-1.730468.371093-.550782.78125-1.058594 1.25-1.519532.460937-.460937.972656-.878906 1.519531-1.238281.542969-.359375 1.121094-.671875 1.722656-.921875.609375-.25 1.238282-.4375 1.867188-.570312 1.292968-.257813 2.621094-.257813 3.910156 0 .640625.132812 1.269531.320312 1.871094.570312.609375.25 1.191406.5625 1.730468.921875.550782.359375 1.058594.777344 1.519532 1.238281.460937.460938.878906.96875 1.238281 1.519532.363281.539062.671875 1.121094.921875 1.730468.25.601563.441406 1.230469.570312 1.871094.128907.640625.199219 1.300782.199219 1.949219s-.070312 1.308594-.199219 1.949219c-.128906.640625-.320312 1.269531-.570312 1.882812-.25.597656-.558594 1.179688-.921875 1.71875-.359375.550782-.777344 1.058594-1.238281 1.519532-.460938.460937-.96875.878906-1.519532 1.25-.539062.359374-1.121093.660156-1.730468.910156-.601563.25-1.230469.449218-1.871094.578125-.640625.132812-1.296875.191406-1.949219.191406zm0 0"/><path d="m478.828125 210.570312c-21.277344-22.875-50.09375-36.78125-81.136719-39.15625-5.507812-.425781-10.3125 3.699219-10.730468 9.207032-.421876 5.507812 3.699218 10.3125 9.207031 10.734375 53.738281 4.109375 95.832031 49.625 95.832031 103.613281 0 57.304688-46.597656 103.925781-103.875 103.925781-38.277344 0-73.34375-20.96875-91.515625-54.722656-1.742187-3.238281-5.125-5.257813-8.804687-5.257813h-63.609376c-3.679687 0-7.058593 2.019532-8.804687 5.257813-18.171875 33.753906-53.238281 54.722656-91.515625 54.722656-57.277344 0-103.875-46.621093-103.875-103.925781 0-57.300781 46.597656-103.921875 103.875-103.921875h68.90625v3.988281c0 17.554688 14.277344 31.832032 31.828125 31.832032h62.78125c17.550781 0 31.828125-14.277344 31.828125-31.832032v-13.988281c0-5.523437-4.476562-10-10-10h-41.882812c-.003907-5.777344-.007813-11.492187.003906-12.726563.609375-7.988281 6.121094-13.546874 13.460937-13.546874h120.277344c19.644531 0 35.625-15.988282 35.625-35.644532 0-19.652344-15.980469-35.640625-35.625-35.640625h-164.9375c-9.398437 0-17.039063-7.652343-17.039063-17.058593s7.640626-17.058594 17.039063-17.058594h131.636719v16.109375c0 5.523437 4.476562 10 10 10h35.6875c5.523437 0 10-4.476563 10-10v-.039063h25.6875c5.523437 0 10-4.476562 10-10v-25.398437c0-5.523438-4.476563-10-10-10h-25.6875v-.042969c0-5.523438-4.476563-10-10-10h-35.6875c-5.523438 0-10 4.476562-10 10v9.371094h-131.636719c-20.425781 0-37.039063 16.625-37.039063 37.058594 0 20.433593 16.613282 37.058593 37.039063 37.058593h164.9375c8.617187 0 15.625 7.015625 15.625 15.640625 0 8.628906-7.007813 15.644532-15.625 15.644532h-120.277344c-17.847656 0-32.21875 13.949218-33.433593 32.441406-.019532.351562-.046876.746094-.03125 13.832031h-123.460938c-68.304688 0-123.875 55.59375-123.875 123.921875 0 68.332031 55.570312 123.925781 123.875 123.925781 43.621094 0 83.746094-22.832031 106.128906-59.980469h51.992188c22.382812 37.148438 62.507812 59.980469 106.128906 59.980469 68.304688 0 123.875-55.59375 123.875-123.925781 0-31.429688-11.78125-61.402344-33.171875-84.398438zm-39.675781-180.527343v5.398437h-15.6875v-5.398437zm-51.375-10.042969h15.6875v25.480469h-15.6875zm-88.558594 171.046875v3.988281c0 6.523438-5.304688 11.832032-11.828125 11.832032h-62.78125c-6.523437 0-11.828125-5.308594-11.828125-11.832032v-3.988281zm0 0"/><path d="m119.675781 366.269531c-17.167969 0-31.125-13.964843-31.125-31.128906v-9.210937h-9.207031c-17.15625 0-31.113281-13.960938-31.113281-31.125 0-17.164063 13.957031-31.128907 31.113281-31.128907h9.207031v-9.210937c0-17.164063 13.957031-31.128906 31.113281-31.128906 17.164063 0 31.125 13.964843 31.125 31.128906v9.210937h9.203126c17.15625 0 31.113281 13.964844 31.113281 31.128907 0 17.164062-13.957031 31.125-31.113281 31.125h-9.203126v9.210937c0 17.164063-13.957031 31.128906-31.113281 31.128906zm-40.332031-82.59375c-6.128906 0-11.113281 4.992188-11.113281 11.128907 0 6.132812 4.984375 11.125 11.113281 11.125h19.207031c5.523438 0 10 4.476562 10 10v19.210937c0 6.136719 4.984375 11.128906 11.113281 11.128906 6.140626 0 11.125-4.992187 11.125-11.128906v-19.210937c0-5.523438 4.476563-10 10-10h19.203126c6.128906 0 11.113281-4.992188 11.113281-11.125 0-6.136719-4.984375-11.128907-11.113281-11.128907h-19.203126c-5.523437 0-10-4.476562-10-10v-19.210937c0-6.136719-4.984374-11.128906-11.113281-11.128906-6.140625 0-11.125 4.992187-11.125 11.128906v19.210937c0 5.523438-4.476562 10-10 10zm0 0"/><path d="m396.929688 361.679688c-36.855469 0-66.839844-30-66.839844-66.875 0-36.878907 29.984375-66.878907 66.839844-66.878907 36.855468 0 66.839843 30 66.839843 66.878907 0 36.875-29.984375 66.875-66.839843 66.875zm0-113.753907c-25.828126 0-46.839844 21.027344-46.839844 46.878907 0 25.847656 21.011718 46.875 46.839844 46.875 25.828124 0 46.839843-21.027344 46.839843-46.875 0-25.851563-21.011719-46.878907-46.839843-46.878907zm0 0"/><path d="m396.929688 328.222656c-18.417969 0-33.40625-14.992187-33.40625-33.417968 0-18.429688 14.984374-33.421876 33.40625-33.421876 18.417968 0 33.40625 14.992188 33.40625 33.421876 0 18.425781-14.988282 33.417968-33.40625 33.417968zm0-46.839844c-7.394532 0-13.40625 6.019532-13.40625 13.421876 0 7.398437 6.011718 13.417968 13.40625 13.417968 7.390624 0 13.40625-6.019531 13.40625-13.417968 0-7.402344-6.015626-13.421876-13.40625-13.421876zm0 0"/><path d="m277.328125 275.765625h-42.65625c-5.523437 0-10-4.476563-10-10s4.476563-10 10-10h42.65625c5.523437 0 10 4.476563 10 10s-4.476563 10-10 10zm0 0"/><path d="m277.328125 307.414062h-42.65625c-5.523437 0-10-4.476562-10-10 0-5.523437 4.476563-10 10-10h42.65625c5.523437 0 10 4.476563 10 10 0 5.523438-4.476563 10-10 10zm0 0"/></svg>