<svg width="30" height="32" viewBox="0 0 30 32" fill="none" xmlns="http://www.w3.org/2000/svg">
<path d="M22.1739 24.75C21.8139 24.75 21.5217 25.03 21.5217 25.375C21.5217 25.72 21.8139 26 22.1739 26C22.5339 26 22.8261 25.72 22.8261 25.375C22.8261 25.03 22.5339 24.75 22.1739 24.75Z" fill="#333333"/>
<path d="M23.7797 22.7289L20.6799 21.7389L19.5671 19.606C20.5696 18.6281 21.2657 17.3343 21.5004 15.9847L21.6392 15.1875H22.8261C23.9049 15.1875 24.7826 14.3464 24.7826 13.3125V9.375C24.7826 4.20563 20.3941 0 15 0C9.59204 0 5.21739 4.19356 5.21739 9.375V13.3125C5.21739 14.1273 5.76267 14.822 6.52174 15.08V15.8125C6.52174 16.8464 7.39943 17.6875 8.47826 17.6875H9.051C9.33372 18.2761 9.69965 18.8212 10.145 19.3109C10.2373 19.4126 10.3336 19.5112 10.4323 19.6072L9.32009 21.7389L6.22024 22.729C2.616 23.8808 0 27.5169 0 31.375C0 31.7202 0.291978 32 0.652174 32H29.3478C29.708 32 30 31.7202 30 31.375C30 27.5169 27.3841 23.8807 23.7797 22.7289ZM23.4783 13.3125C23.4783 13.6571 23.1857 13.9375 22.8261 13.9375H21.8307C21.9965 12.7069 22.107 11.3973 22.1514 10.1075C22.1527 10.0711 22.1538 10.0358 22.1549 10H23.4783V13.3125ZM7.17391 13.9375C6.8143 13.9375 6.52174 13.6571 6.52174 13.3125V10H7.84552C7.84767 10.0652 7.84996 10.1307 7.8525 10.1966C7.85257 10.1989 7.8527 10.2011 7.85276 10.2033C7.85276 10.2035 7.85276 10.2037 7.85276 10.2039C7.89841 11.4584 8.00746 12.7339 8.16946 13.9374H7.17391V13.9375ZM8.47826 16.4375C8.11865 16.4375 7.82609 16.1571 7.82609 15.8125V15.1875H8.36074L8.49952 15.9849C8.526 16.1365 8.55854 16.2875 8.59617 16.4375H8.47826ZM7.8272 8.75H6.54652C6.87685 4.56119 10.5246 1.25 15 1.25C19.4555 1.25 23.1193 4.56075 23.4534 8.75H22.1729C22.1259 5.29831 19.1929 2.5 15.5838 2.5H14.4164C10.8073 2.5 7.87409 5.29831 7.8272 8.75ZM14.4163 3.75H15.5837C18.506 3.75 20.8713 6.04069 20.8696 8.83813C20.8696 9.03481 20.8679 9.20606 20.8645 9.36187C20.8645 9.36387 20.8644 9.36594 20.8644 9.368L20.0487 9.25631C17.8326 8.95306 15.7402 7.95044 14.1568 6.43306C14.0345 6.31588 13.8686 6.25 13.6957 6.25C11.9442 6.25 10.2676 7.01475 9.15926 8.30675C9.43239 5.76181 11.6774 3.75 14.4163 3.75ZM9.94826 16.4375C9.62178 15.3967 9.24822 12.3342 9.16565 10.3717L10.0434 9.25006C10.8496 8.22031 12.1038 7.5805 13.4379 7.50706C15.1934 9.10806 17.4644 10.1653 19.8642 10.4937L20.8244 10.6252C20.7602 11.9305 20.629 13.2404 20.4412 14.4451C20.4411 14.4454 20.441 14.4459 20.441 14.4463C20.3812 14.8336 20.3341 15.0829 20.2139 15.7791C19.8685 17.7644 18.3227 19.5597 16.2821 20.0486C15.4423 20.2496 14.5576 20.2495 13.7182 20.0486C12.4441 19.7434 11.2758 18.8985 10.5218 17.6875H11.8513C12.1205 18.4149 12.8454 18.9375 13.6957 18.9375H15C16.081 18.9375 16.9565 18.0985 16.9565 17.0625C16.9565 16.0286 16.0788 15.1875 15 15.1875H13.6957C12.8265 15.1875 12.1123 15.7255 11.8502 16.4375H9.94826ZM13.6408 21.3135C14.0881 21.4038 14.5442 21.45 15 21.45C15.3568 21.45 15.7137 21.4214 16.0665 21.3659L14.9141 22.5338L13.6408 21.3135ZM14.0175 23.4424L11.9489 25.5388C11.3795 24.4942 10.8901 23.407 10.4888 22.294L11.2656 20.8051L14.0175 23.4424ZM18.6239 20.5934L19.5111 22.2939C19.1091 23.4088 18.6196 24.4964 18.0507 25.5397L15.8367 23.418L18.6239 20.5934ZM13.0435 17.0625C13.0435 16.7174 13.3355 16.4375 13.6957 16.4375H15C15.3596 16.4375 15.6522 16.7179 15.6522 17.0625C15.6522 17.4076 15.3601 17.6875 15 17.6875H13.6957C13.336 17.6875 13.0435 17.4071 13.0435 17.0625ZM1.33043 30.75C1.58889 27.6538 3.73904 24.8396 6.63274 23.9148L9.378 23.0381C9.88096 24.3709 10.504 25.6663 11.2343 26.8968C11.2355 26.8989 11.2367 26.9011 11.2379 26.9031L11.238 26.9032C11.7715 27.8026 12.3721 28.6814 13.0231 29.5157L13.8254 30.75H1.33043ZM15 30.1929L14.1155 28.8321C14.1056 28.8168 14.095 28.802 14.0838 28.7876C13.5557 28.1125 13.063 27.4064 12.6143 26.6838L14.9402 24.3266L17.3909 26.6752C16.9392 27.4032 16.4449 28.1122 15.9163 28.7875C15.8843 28.8283 15.9297 28.764 15 30.1929ZM16.1746 30.75L16.9768 29.5158C17.6307 28.6783 18.2356 27.7924 18.7745 26.8825C18.7777 26.877 18.7808 26.8714 18.784 26.8659C18.7844 26.8652 18.7848 26.8646 18.7852 26.8639C19.5062 25.6451 20.1228 24.3609 20.622 23.0381L23.3672 23.9148C26.261 24.8396 28.4111 27.6538 28.6696 30.75H16.1746Z" fill="#333333"/>
<path d="M26.7095 28.2207C26.2737 27.3846 25.6353 26.6419 24.8633 26.0728C24.5778 25.8622 24.1683 25.9134 23.9487 26.187C23.7291 26.4606 23.7825 26.853 24.068 27.0635C24.6845 27.5181 25.1944 28.1114 25.5426 28.7793C25.7039 29.0886 26.0958 29.2131 26.4175 29.0591C26.7397 28.9049 26.8704 28.5295 26.7095 28.2207Z" fill="#333333"/>
</svg>
