<svg width="28" height="33" viewBox="0 0 28 33" fill="none" xmlns="http://www.w3.org/2000/svg">
<path d="M19.9354 5.62966C19.6972 2.48447 17.1262 0 14 0C10.8738 0 8.3027 2.48447 8.06456 5.62966C3.15481 7.98922 0 13.059 0 18.6391C0 22.4751 1.45629 26.0813 4.10052 28.7938C6.74474 31.5062 10.2605 33 14 33C17.7395 33 21.2552 31.5062 23.8995 28.7938C26.5438 26.0814 28 22.4751 28 18.6391C28 13.059 24.8452 7.98916 19.9354 5.62966ZM19.8962 7.07689C20.4686 7.38427 21.0125 7.73289 21.5247 8.11884C20.818 8.65245 20.0654 9.10678 19.2725 9.47732C19.5744 8.72599 19.7971 7.92277 19.8962 7.07689ZM14 1.31471C16.576 1.31471 18.6718 3.46448 18.6718 6.10693C18.6718 10.0711 15.1628 13.292 14 14.2503C12.837 13.2919 9.3282 10.0712 9.3282 6.10693C9.3282 3.46455 11.424 1.31471 14 1.31471ZM18.1216 19.2965C18.0859 21.6396 17.8416 23.8699 17.4142 25.8093C16.3041 25.5227 15.1573 25.3736 14 25.3736C12.8427 25.3736 11.6959 25.5226 10.5858 25.8093C10.1584 23.8698 9.91419 21.6395 9.8785 19.2965H18.1216ZM9.88101 17.9818C9.91689 16.016 10.1004 14.1232 10.4206 12.4071C11.8852 14.3373 13.5079 15.5275 13.6312 15.6165C13.7418 15.6963 13.8709 15.7362 14.0001 15.7362C14.1292 15.7362 14.2582 15.6963 14.369 15.6165C14.4922 15.5275 16.1151 14.3371 17.5797 12.4068C17.8999 14.123 18.0832 16.0171 18.1192 17.9818H9.88101ZM8.10376 7.07689C8.20285 7.92271 8.4256 8.72592 8.72745 9.47699C7.93449 9.10645 7.18187 8.65219 6.47537 8.11877C6.98753 7.73289 7.53141 7.38427 8.10376 7.07689ZM5.45452 8.97555C6.64257 9.91689 7.95554 10.649 9.36779 11.1563C8.90477 13.2082 8.64212 15.545 8.59908 17.9818H1.29827C1.46942 14.4908 2.99685 11.2655 5.45452 8.97555ZM1.29783 19.2965H8.59676C8.63339 21.7696 8.89591 24.1316 9.35641 26.1886C7.97326 26.6873 6.66714 27.4075 5.49341 28.3288C3.05742 26.0764 1.47175 22.8742 1.29783 19.2965ZM6.51973 29.1833C7.49139 28.4585 8.55654 27.8813 9.67906 27.4657C9.78733 27.847 9.90281 28.215 10.0258 28.5674C10.4365 29.7428 10.917 30.7006 11.4491 31.4215C9.63665 31.0415 7.96377 30.2641 6.51973 29.1833ZM14 31.6853C13.046 31.6853 12.0114 30.3539 11.2324 28.1239C11.1161 27.7912 11.0071 27.4433 10.9049 27.0824C11.9113 26.8231 12.9508 26.6884 14 26.6884C15.0491 26.6884 16.0886 26.8231 17.0951 27.0824C16.9929 27.4432 16.8838 27.7912 16.7676 28.1239C15.9886 30.3539 14.9541 31.6853 14 31.6853ZM16.5509 31.4215C17.083 30.7006 17.5636 29.7428 17.9742 28.5674C18.0972 28.215 18.2127 27.847 18.3209 27.4657C19.4435 27.8814 20.5085 28.4586 21.4802 29.1833C20.0362 30.2642 18.3633 31.0415 16.5509 31.4215ZM22.5066 28.329C21.3329 27.4077 20.0268 26.6875 18.6436 26.1887C19.1042 24.1317 19.3667 21.7698 19.4033 19.2965H22.98C23.3339 19.2965 23.6208 19.0021 23.6208 18.6391C23.6208 18.2761 23.3339 17.9818 22.98 17.9818H19.4009C19.3578 15.5458 19.0949 13.2077 18.6319 11.1559C20.044 10.6488 21.357 9.91721 22.5454 8.97548C25.1567 11.4085 26.7182 14.8976 26.7182 18.6391C26.7183 22.4807 25.0909 25.9393 22.5066 28.329Z" fill="#333333"/>
<path d="M25.3081 17.9818H25.031C24.6771 17.9818 24.3901 18.2761 24.3901 18.6391C24.3901 19.0021 24.6771 19.2965 25.031 19.2965H25.3081C25.662 19.2965 25.949 19.0021 25.949 18.6391C25.949 18.2761 25.6621 17.9818 25.3081 17.9818Z" fill="#333333"/>
<path d="M14 3.05701C12.3605 3.05701 11.0267 4.42522 11.0267 6.10693C11.0267 7.78864 12.3605 9.15679 14 9.15679C15.6395 9.15679 16.9733 7.78858 16.9733 6.10693C16.9733 4.42522 15.6395 3.05701 14 3.05701ZM14 7.84208C13.0672 7.84208 12.3084 7.06368 12.3084 6.10693C12.3084 5.15013 13.0672 4.37173 14 4.37173C14.9328 4.37173 15.6916 5.15013 15.6916 6.10693C15.6916 7.06374 14.9328 7.84208 14 7.84208Z" fill="#333333"/>
</svg>
