<svg width="300" height="200" viewBox="0 0 300 200" fill="none" xmlns="http://www.w3.org/2000/svg">
<rect width="300" height="200" fill="white"/>
<rect x="70" y="180" width="50" height="50" rx="3" transform="rotate(-90 70 180)" fill="#DFE8F5"/>
<path d="M96.6458 152.193C96.6458 151.141 97.518 150.263 98.625 150.263C99.732 150.263 100.604 151.141 100.604 152.193C100.604 152.428 100.562 152.651 100.484 152.858C100.381 153.13 100.516 153.434 100.785 153.537C101.054 153.64 101.355 153.504 101.457 153.232C101.579 152.908 101.646 152.558 101.646 152.193C101.646 150.532 100.279 149.211 98.625 149.211C96.9705 149.211 95.6042 150.532 95.6042 152.193C95.6042 152.558 95.6707 152.908 95.7927 153.232C95.895 153.504 96.1958 153.64 96.4647 153.537C96.7335 153.434 96.8686 153.13 96.7663 152.858C96.6885 152.651 96.6458 152.428 96.6458 152.193Z" fill="#74A3EE"/>
<path d="M92.7751 153.61C92.6776 153.492 92.5336 153.423 92.3813 153.421C92.2289 153.419 92.0834 153.485 91.983 153.601L88.3372 157.811C88.1478 158.03 88.1697 158.363 88.3862 158.554C88.6027 158.745 88.9317 158.723 89.1211 158.504L92.3653 154.758L94.5791 157.442C94.7606 157.662 95.0831 157.695 95.3045 157.516L97.5719 155.683L100.89 158.557C101.109 158.747 101.437 158.721 101.625 158.5C101.812 158.28 101.787 157.947 101.568 157.758L97.9223 154.6C97.7323 154.436 97.4534 154.431 97.258 154.589L95.0525 156.372L92.7751 153.61Z" fill="#74A3EE"/>
<path fill-rule="evenodd" clip-rule="evenodd" d="M84.5625 145C83.6996 145 83 145.707 83 146.579V163.421C83 164.293 83.6996 165 84.5625 165H106.437C107.3 165 108 164.293 108 163.421V146.579C108 145.707 107.3 145 106.437 145H84.5625ZM84.0417 146.579C84.0417 146.288 84.2749 146.053 84.5625 146.053H106.437C106.725 146.053 106.958 146.288 106.958 146.579V163.421C106.958 163.712 106.725 163.947 106.437 163.947H84.5625C84.2749 163.947 84.0417 163.712 84.0417 163.421V146.579Z" fill="#74A3EE"/>
<rect x="125" y="180" width="50" height="50" rx="3" transform="rotate(-90 125 180)" fill="#DFE8F5"/>
<path d="M151.646 152.193C151.646 151.141 152.518 150.263 153.625 150.263C154.732 150.263 155.604 151.141 155.604 152.193C155.604 152.428 155.562 152.651 155.484 152.858C155.381 153.13 155.516 153.434 155.785 153.537C156.054 153.64 156.355 153.504 156.457 153.232C156.579 152.908 156.646 152.558 156.646 152.193C156.646 150.532 155.279 149.211 153.625 149.211C151.971 149.211 150.604 150.532 150.604 152.193C150.604 152.558 150.671 152.908 150.793 153.232C150.895 153.504 151.196 153.64 151.465 153.537C151.734 153.434 151.869 153.13 151.766 152.858C151.688 152.651 151.646 152.428 151.646 152.193Z" fill="#74A3EE"/>
<path d="M147.775 153.61C147.678 153.492 147.534 153.423 147.381 153.421C147.229 153.419 147.083 153.485 146.983 153.601L143.337 157.811C143.148 158.03 143.17 158.363 143.386 158.554C143.603 158.745 143.932 158.723 144.121 158.504L147.365 154.758L149.579 157.442C149.761 157.662 150.083 157.695 150.305 157.516L152.572 155.683L155.89 158.557C156.109 158.747 156.437 158.721 156.625 158.5C156.812 158.28 156.787 157.947 156.568 157.758L152.922 154.6C152.732 154.436 152.453 154.431 152.258 154.589L150.052 156.372L147.775 153.61Z" fill="#74A3EE"/>
<path fill-rule="evenodd" clip-rule="evenodd" d="M139.562 145C138.7 145 138 145.707 138 146.579V163.421C138 164.293 138.7 165 139.562 165H161.437C162.3 165 163 164.293 163 163.421V146.579C163 145.707 162.3 145 161.437 145H139.562ZM139.042 146.579C139.042 146.288 139.275 146.053 139.562 146.053H161.437C161.725 146.053 161.958 146.288 161.958 146.579V163.421C161.958 163.712 161.725 163.947 161.437 163.947H139.562C139.275 163.947 139.042 163.712 139.042 163.421V146.579Z" fill="#74A3EE"/>
<rect x="180" y="180" width="50" height="50" rx="3" transform="rotate(-90 180 180)" fill="#DFE8F5"/>
<path d="M206.646 152.193C206.646 151.141 207.518 150.263 208.625 150.263C209.732 150.263 210.604 151.141 210.604 152.193C210.604 152.428 210.562 152.651 210.484 152.858C210.381 153.13 210.516 153.434 210.785 153.537C211.054 153.64 211.355 153.504 211.457 153.232C211.579 152.908 211.646 152.558 211.646 152.193C211.646 150.532 210.279 149.211 208.625 149.211C206.971 149.211 205.604 150.532 205.604 152.193C205.604 152.558 205.671 152.908 205.793 153.232C205.895 153.504 206.196 153.64 206.465 153.537C206.734 153.434 206.869 153.13 206.766 152.858C206.688 152.651 206.646 152.428 206.646 152.193Z" fill="#74A3EE"/>
<path d="M202.775 153.61C202.678 153.492 202.534 153.423 202.381 153.421C202.229 153.419 202.083 153.485 201.983 153.601L198.337 157.811C198.148 158.03 198.17 158.363 198.386 158.554C198.603 158.745 198.932 158.723 199.121 158.504L202.365 154.758L204.579 157.442C204.761 157.662 205.083 157.695 205.305 157.516L207.572 155.683L210.89 158.557C211.109 158.747 211.437 158.721 211.625 158.5C211.812 158.28 211.787 157.947 211.568 157.758L207.922 154.6C207.732 154.436 207.453 154.431 207.258 154.589L205.052 156.372L202.775 153.61Z" fill="#74A3EE"/>
<path fill-rule="evenodd" clip-rule="evenodd" d="M194.562 145C193.7 145 193 145.707 193 146.579V163.421C193 164.293 193.7 165 194.562 165H216.437C217.3 165 218 164.293 218 163.421V146.579C218 145.707 217.3 145 216.437 145H194.562ZM194.042 146.579C194.042 146.288 194.275 146.053 194.562 146.053H216.437C216.725 146.053 216.958 146.288 216.958 146.579V163.421C216.958 163.712 216.725 163.947 216.437 163.947H194.562C194.275 163.947 194.042 163.712 194.042 163.421V146.579Z" fill="#74A3EE"/>
<rect x="70" y="125" width="105" height="160" rx="3" transform="rotate(-90 70 125)" fill="#DFE8F5"/>
<path d="M151.646 70.1931C151.646 69.1411 152.518 68.2632 153.625 68.2632C154.732 68.2632 155.604 69.1411 155.604 70.1931C155.604 70.4275 155.562 70.6512 155.484 70.858C155.381 71.1297 155.516 71.4337 155.785 71.537C156.054 71.6404 156.355 71.5039 156.457 71.2323C156.579 70.9082 156.646 70.5578 156.646 70.1931C156.646 68.532 155.279 67.2105 153.625 67.2105C151.971 67.2105 150.604 68.532 150.604 70.1931C150.604 70.5578 150.671 70.9082 150.793 71.2323C150.895 71.5039 151.196 71.6404 151.465 71.537C151.734 71.4337 151.869 71.1297 151.766 70.858C151.688 70.6512 151.646 70.4275 151.646 70.1931Z" fill="#74A3EE"/>
<path d="M147.775 71.6104C147.678 71.4921 147.534 71.4229 147.381 71.4211C147.229 71.4192 147.083 71.4849 146.983 71.6008L143.337 75.8113C143.148 76.0301 143.17 76.3626 143.386 76.554C143.603 76.7454 143.932 76.7232 144.121 76.5045L147.365 72.7578L149.579 75.4422C149.761 75.6623 150.083 75.6953 150.305 75.5162L152.572 73.6833L155.89 76.5575C156.109 76.7467 156.437 76.7211 156.625 76.5004C156.812 76.2797 156.787 75.9474 156.568 75.7583L152.922 72.6004C152.732 72.4358 152.453 72.431 152.258 72.589L150.052 74.372L147.775 71.6104Z" fill="#74A3EE"/>
<path fill-rule="evenodd" clip-rule="evenodd" d="M139.562 63C138.7 63 138 63.7069 138 64.5789V81.4211C138 82.2931 138.7 83 139.562 83H161.437C162.3 83 163 82.2931 163 81.4211V64.5789C163 63.7069 162.3 63 161.437 63L139.562 63ZM139.042 64.5789C139.042 64.2883 139.275 64.0526 139.562 64.0526H161.437C161.725 64.0526 161.958 64.2883 161.958 64.5789V81.4211C161.958 81.7117 161.725 81.9474 161.437 81.9474H139.562C139.275 81.9474 139.042 81.7117 139.042 81.4211V64.5789Z" fill="#74A3EE"/>
</svg>
