<svg width="300" height="200" viewBox="0 0 300 200" fill="none" xmlns="http://www.w3.org/2000/svg">
<rect width="300" height="200" fill="white"/>
<rect x="70" y="95" width="75" height="160" rx="3" transform="rotate(-90 70 95)" fill="#DFE8F5"/>
<path d="M151.646 55.1931C151.646 54.1411 152.518 53.2632 153.625 53.2632C154.732 53.2632 155.604 54.1411 155.604 55.1931C155.604 55.4275 155.562 55.6512 155.484 55.858C155.381 56.1297 155.516 56.4337 155.785 56.537C156.054 56.6404 156.355 56.5039 156.457 56.2323C156.579 55.9082 156.646 55.5578 156.646 55.1931C156.646 53.532 155.279 52.2105 153.625 52.2105C151.971 52.2105 150.604 53.532 150.604 55.1931C150.604 55.5578 150.671 55.9082 150.793 56.2323C150.895 56.5039 151.196 56.6404 151.465 56.537C151.734 56.4337 151.869 56.1297 151.766 55.858C151.688 55.6512 151.646 55.4275 151.646 55.1931Z" fill="#74A3EE"/>
<path d="M147.775 56.6104C147.678 56.4921 147.534 56.4229 147.381 56.4211C147.229 56.4192 147.083 56.4849 146.983 56.6008L143.337 60.8113C143.148 61.0301 143.17 61.3626 143.386 61.554C143.603 61.7454 143.932 61.7232 144.121 61.5045L147.365 57.7578L149.579 60.4422C149.761 60.6623 150.083 60.6953 150.305 60.5162L152.572 58.6833L155.89 61.5575C156.109 61.7467 156.437 61.7211 156.625 61.5004C156.812 61.2797 156.787 60.9474 156.568 60.7583L152.922 57.6004C152.732 57.4358 152.453 57.431 152.258 57.589L150.052 59.372L147.775 56.6104Z" fill="#74A3EE"/>
<path fill-rule="evenodd" clip-rule="evenodd" d="M139.562 48C138.7 48 138 48.7069 138 49.5789V66.4211C138 67.2931 138.7 68 139.562 68H161.437C162.3 68 163 67.2931 163 66.4211V49.5789C163 48.7069 162.3 48 161.437 48L139.562 48ZM139.042 49.5789C139.042 49.2883 139.275 49.0526 139.562 49.0526L161.437 49.0526C161.725 49.0526 161.958 49.2883 161.958 49.5789V66.4211C161.958 66.7117 161.725 66.9474 161.437 66.9474H139.562C139.275 66.9474 139.042 66.7117 139.042 66.4211V49.5789Z" fill="#74A3EE"/>
<rect x="70" y="180" width="75" height="75" rx="3" transform="rotate(-90 70 180)" fill="#DFE8F5"/>
<path d="M108.646 140.193C108.646 139.141 109.518 138.263 110.625 138.263C111.732 138.263 112.604 139.141 112.604 140.193C112.604 140.428 112.562 140.651 112.484 140.858C112.381 141.13 112.516 141.434 112.785 141.537C113.054 141.64 113.355 141.504 113.457 141.232C113.579 140.908 113.646 140.558 113.646 140.193C113.646 138.532 112.279 137.211 110.625 137.211C108.971 137.211 107.604 138.532 107.604 140.193C107.604 140.558 107.671 140.908 107.793 141.232C107.895 141.504 108.196 141.64 108.465 141.537C108.734 141.434 108.869 141.13 108.766 140.858C108.688 140.651 108.646 140.428 108.646 140.193Z" fill="#74A3EE"/>
<path d="M104.775 141.61C104.678 141.492 104.534 141.423 104.381 141.421C104.229 141.419 104.083 141.485 103.983 141.601L100.337 145.811C100.148 146.03 100.17 146.363 100.386 146.554C100.603 146.745 100.932 146.723 101.121 146.504L104.365 142.758L106.579 145.442C106.761 145.662 107.083 145.695 107.305 145.516L109.572 143.683L112.89 146.557C113.109 146.747 113.437 146.721 113.625 146.5C113.812 146.28 113.787 145.947 113.568 145.758L109.922 142.6C109.732 142.436 109.453 142.431 109.258 142.589L107.052 144.372L104.775 141.61Z" fill="#74A3EE"/>
<path fill-rule="evenodd" clip-rule="evenodd" d="M96.5625 133C95.6996 133 95 133.707 95 134.579V151.421C95 152.293 95.6996 153 96.5625 153H118.437C119.3 153 120 152.293 120 151.421V134.579C120 133.707 119.3 133 118.437 133H96.5625ZM96.0417 134.579C96.0417 134.288 96.2749 134.053 96.5625 134.053H118.437C118.725 134.053 118.958 134.288 118.958 134.579V151.421C118.958 151.712 118.725 151.947 118.437 151.947H96.5625C96.2749 151.947 96.0417 151.712 96.0417 151.421V134.579Z" fill="#74A3EE"/>
<rect x="155" y="180" width="75" height="75" rx="3" transform="rotate(-90 155 180)" fill="#DFE8F5"/>
<path d="M193.646 140.193C193.646 139.141 194.518 138.263 195.625 138.263C196.732 138.263 197.604 139.141 197.604 140.193C197.604 140.428 197.562 140.651 197.484 140.858C197.381 141.13 197.516 141.434 197.785 141.537C198.054 141.64 198.355 141.504 198.457 141.232C198.579 140.908 198.646 140.558 198.646 140.193C198.646 138.532 197.279 137.211 195.625 137.211C193.971 137.211 192.604 138.532 192.604 140.193C192.604 140.558 192.671 140.908 192.793 141.232C192.895 141.504 193.196 141.64 193.465 141.537C193.734 141.434 193.869 141.13 193.766 140.858C193.688 140.651 193.646 140.428 193.646 140.193Z" fill="#74A3EE"/>
<path d="M189.775 141.61C189.678 141.492 189.534 141.423 189.381 141.421C189.229 141.419 189.083 141.485 188.983 141.601L185.337 145.811C185.148 146.03 185.17 146.363 185.386 146.554C185.603 146.745 185.932 146.723 186.121 146.504L189.365 142.758L191.579 145.442C191.761 145.662 192.083 145.695 192.305 145.516L194.572 143.683L197.89 146.557C198.109 146.747 198.437 146.721 198.625 146.5C198.812 146.28 198.787 145.947 198.568 145.758L194.922 142.6C194.732 142.436 194.453 142.431 194.258 142.589L192.052 144.372L189.775 141.61Z" fill="#74A3EE"/>
<path fill-rule="evenodd" clip-rule="evenodd" d="M181.562 133C180.7 133 180 133.707 180 134.579V151.421C180 152.293 180.7 153 181.562 153H203.437C204.3 153 205 152.293 205 151.421V134.579C205 133.707 204.3 133 203.437 133H181.562ZM181.042 134.579C181.042 134.288 181.275 134.053 181.562 134.053H203.437C203.725 134.053 203.958 134.288 203.958 134.579V151.421C203.958 151.712 203.725 151.947 203.437 151.947H181.562C181.275 151.947 181.042 151.712 181.042 151.421V134.579Z" fill="#74A3EE"/>
</svg>
