<svg width="300" height="200" viewBox="0 0 300 200" fill="none" xmlns="http://www.w3.org/2000/svg">
<rect width="300" height="200" fill="white"/>
<rect x="70" y="95" width="75" height="160" rx="3" transform="rotate(-90 70 95)" fill="#DFE8F5"/>
<path d="M151.646 55.1931C151.646 54.1411 152.518 53.2632 153.625 53.2632C154.732 53.2632 155.604 54.1411 155.604 55.1931C155.604 55.4275 155.562 55.6512 155.484 55.858C155.381 56.1297 155.516 56.4337 155.785 56.537C156.054 56.6404 156.355 56.5039 156.457 56.2323C156.579 55.9082 156.646 55.5578 156.646 55.1931C156.646 53.532 155.279 52.2105 153.625 52.2105C151.971 52.2105 150.604 53.532 150.604 55.1931C150.604 55.5578 150.671 55.9082 150.793 56.2323C150.895 56.5039 151.196 56.6404 151.465 56.537C151.734 56.4337 151.869 56.1297 151.766 55.858C151.688 55.6512 151.646 55.4275 151.646 55.1931Z" fill="#74A3EE"/>
<path d="M147.775 56.6104C147.678 56.4921 147.534 56.4229 147.381 56.4211C147.229 56.4192 147.083 56.4849 146.983 56.6008L143.337 60.8113C143.148 61.0301 143.17 61.3626 143.386 61.554C143.603 61.7454 143.932 61.7232 144.121 61.5045L147.365 57.7578L149.579 60.4422C149.761 60.6623 150.083 60.6953 150.305 60.5162L152.572 58.6833L155.89 61.5575C156.109 61.7467 156.437 61.7211 156.625 61.5004C156.812 61.2797 156.787 60.9474 156.568 60.7583L152.922 57.6004C152.732 57.4358 152.453 57.431 152.258 57.589L150.052 59.372L147.775 56.6104Z" fill="#74A3EE"/>
<path fill-rule="evenodd" clip-rule="evenodd" d="M139.562 48C138.7 48 138 48.7069 138 49.5789V66.4211C138 67.2931 138.7 68 139.562 68H161.437C162.3 68 163 67.2931 163 66.4211V49.5789C163 48.7069 162.3 48 161.437 48L139.562 48ZM139.042 49.5789C139.042 49.2883 139.275 49.0526 139.562 49.0526L161.437 49.0526C161.725 49.0526 161.958 49.2883 161.958 49.5789V66.4211C161.958 66.7117 161.725 66.9474 161.437 66.9474H139.562C139.275 66.9474 139.042 66.7117 139.042 66.4211V49.5789Z" fill="#74A3EE"/>
<rect x="70" y="180" width="75" height="160" rx="3" transform="rotate(-90 70 180)" fill="#DFE8F5"/>
<path d="M151.646 140.193C151.646 139.141 152.518 138.263 153.625 138.263C154.732 138.263 155.604 139.141 155.604 140.193C155.604 140.428 155.562 140.651 155.484 140.858C155.381 141.13 155.516 141.434 155.785 141.537C156.054 141.64 156.355 141.504 156.457 141.232C156.579 140.908 156.646 140.558 156.646 140.193C156.646 138.532 155.279 137.211 153.625 137.211C151.971 137.211 150.604 138.532 150.604 140.193C150.604 140.558 150.671 140.908 150.793 141.232C150.895 141.504 151.196 141.64 151.465 141.537C151.734 141.434 151.869 141.13 151.766 140.858C151.688 140.651 151.646 140.428 151.646 140.193Z" fill="#74A3EE"/>
<path d="M147.775 141.61C147.678 141.492 147.534 141.423 147.381 141.421C147.229 141.419 147.083 141.485 146.983 141.601L143.337 145.811C143.148 146.03 143.17 146.363 143.386 146.554C143.603 146.745 143.932 146.723 144.121 146.504L147.365 142.758L149.579 145.442C149.761 145.662 150.083 145.695 150.305 145.516L152.572 143.683L155.89 146.557C156.109 146.747 156.437 146.721 156.625 146.5C156.812 146.28 156.787 145.947 156.568 145.758L152.922 142.6C152.732 142.436 152.453 142.431 152.258 142.589L150.052 144.372L147.775 141.61Z" fill="#74A3EE"/>
<path fill-rule="evenodd" clip-rule="evenodd" d="M139.562 133C138.7 133 138 133.707 138 134.579V151.421C138 152.293 138.7 153 139.562 153H161.437C162.3 153 163 152.293 163 151.421V134.579C163 133.707 162.3 133 161.437 133H139.562ZM139.042 134.579C139.042 134.288 139.275 134.053 139.562 134.053H161.437C161.725 134.053 161.958 134.288 161.958 134.579V151.421C161.958 151.712 161.725 151.947 161.437 151.947H139.562C139.275 151.947 139.042 151.712 139.042 151.421V134.579Z" fill="#74A3EE"/>
</svg>
