<svg width="300" height="200" viewBox="0 0 300 200" fill="none" xmlns="http://www.w3.org/2000/svg">
<rect width="300" height="200" fill="white"/>
<rect x="70" y="70" width="50" height="160" rx="3" transform="rotate(-90 70 70)" fill="#DFE8F5"/>
<path d="M151.646 42.1931C151.646 41.1411 152.518 40.2632 153.625 40.2632C154.732 40.2632 155.604 41.1411 155.604 42.1931C155.604 42.4275 155.562 42.6512 155.484 42.858C155.381 43.1297 155.516 43.4337 155.785 43.537C156.054 43.6404 156.355 43.5039 156.457 43.2323C156.579 42.9082 156.646 42.5578 156.646 42.1931C156.646 40.532 155.279 39.2105 153.625 39.2105C151.971 39.2105 150.604 40.532 150.604 42.1931C150.604 42.5578 150.671 42.9082 150.793 43.2323C150.895 43.5039 151.196 43.6404 151.465 43.537C151.734 43.4337 151.869 43.1297 151.766 42.858C151.688 42.6512 151.646 42.4275 151.646 42.1931Z" fill="#74A3EE"/>
<path d="M147.775 43.6104C147.678 43.4921 147.534 43.4229 147.381 43.4211C147.229 43.4192 147.083 43.4849 146.983 43.6008L143.337 47.8113C143.148 48.0301 143.17 48.3626 143.386 48.554C143.603 48.7454 143.932 48.7232 144.121 48.5045L147.365 44.7578L149.579 47.4422C149.761 47.6623 150.083 47.6953 150.305 47.5162L152.572 45.6833L155.89 48.5575C156.109 48.7467 156.437 48.7211 156.625 48.5004C156.812 48.2797 156.787 47.9474 156.568 47.7583L152.922 44.6004C152.732 44.4358 152.453 44.431 152.258 44.589L150.052 46.372L147.775 43.6104Z" fill="#74A3EE"/>
<path fill-rule="evenodd" clip-rule="evenodd" d="M139.562 35C138.7 35 138 35.7069 138 36.5789V53.4211C138 54.2931 138.7 55 139.562 55H161.437C162.3 55 163 54.2931 163 53.4211V36.5789C163 35.7069 162.3 35 161.437 35L139.562 35ZM139.042 36.5789C139.042 36.2883 139.275 36.0526 139.562 36.0526L161.437 36.0526C161.725 36.0526 161.958 36.2883 161.958 36.5789V53.4211C161.958 53.7117 161.725 53.9474 161.437 53.9474H139.562C139.275 53.9474 139.042 53.7117 139.042 53.4211V36.5789Z" fill="#74A3EE"/>
<rect x="70" y="180" width="50" height="160" rx="3" transform="rotate(-90 70 180)" fill="#DFE8F5"/>
<path d="M151.646 152.193C151.646 151.141 152.518 150.263 153.625 150.263C154.732 150.263 155.604 151.141 155.604 152.193C155.604 152.428 155.562 152.651 155.484 152.858C155.381 153.13 155.516 153.434 155.785 153.537C156.054 153.64 156.355 153.504 156.457 153.232C156.579 152.908 156.646 152.558 156.646 152.193C156.646 150.532 155.279 149.211 153.625 149.211C151.971 149.211 150.604 150.532 150.604 152.193C150.604 152.558 150.671 152.908 150.793 153.232C150.895 153.504 151.196 153.64 151.465 153.537C151.734 153.434 151.869 153.13 151.766 152.858C151.688 152.651 151.646 152.428 151.646 152.193Z" fill="#74A3EE"/>
<path d="M147.775 153.61C147.678 153.492 147.534 153.423 147.381 153.421C147.229 153.419 147.083 153.485 146.983 153.601L143.337 157.811C143.148 158.03 143.17 158.363 143.386 158.554C143.603 158.745 143.932 158.723 144.121 158.504L147.365 154.758L149.579 157.442C149.761 157.662 150.083 157.695 150.305 157.516L152.572 155.683L155.89 158.557C156.109 158.747 156.437 158.721 156.625 158.5C156.812 158.28 156.787 157.947 156.568 157.758L152.922 154.6C152.732 154.436 152.453 154.431 152.258 154.589L150.052 156.372L147.775 153.61Z" fill="#74A3EE"/>
<path fill-rule="evenodd" clip-rule="evenodd" d="M139.562 145C138.7 145 138 145.707 138 146.579V163.421C138 164.293 138.7 165 139.562 165H161.437C162.3 165 163 164.293 163 163.421V146.579C163 145.707 162.3 145 161.437 145H139.562ZM139.042 146.579C139.042 146.288 139.275 146.053 139.562 146.053H161.437C161.725 146.053 161.958 146.288 161.958 146.579V163.421C161.958 163.712 161.725 163.947 161.437 163.947H139.562C139.275 163.947 139.042 163.712 139.042 163.421V146.579Z" fill="#74A3EE"/>
<rect x="70" y="125" width="50" height="75" rx="3" transform="rotate(-90 70 125)" fill="#DFE8F5"/>
<path d="M108.646 97.1931C108.646 96.1411 109.518 95.2632 110.625 95.2632C111.732 95.2632 112.604 96.1411 112.604 97.1931C112.604 97.4275 112.562 97.6512 112.484 97.858C112.381 98.1297 112.516 98.4337 112.785 98.537C113.054 98.6404 113.355 98.5039 113.457 98.2323C113.579 97.9082 113.646 97.5578 113.646 97.1931C113.646 95.532 112.279 94.2105 110.625 94.2105C108.971 94.2105 107.604 95.532 107.604 97.1931C107.604 97.5578 107.671 97.9082 107.793 98.2323C107.895 98.5039 108.196 98.6404 108.465 98.537C108.734 98.4337 108.869 98.1297 108.766 97.858C108.688 97.6512 108.646 97.4275 108.646 97.1931Z" fill="#74A3EE"/>
<path d="M104.775 98.6104C104.678 98.4921 104.534 98.4229 104.381 98.4211C104.229 98.4192 104.083 98.4849 103.983 98.6008L100.337 102.811C100.148 103.03 100.17 103.363 100.386 103.554C100.603 103.745 100.932 103.723 101.121 103.504L104.365 99.7578L106.579 102.442C106.761 102.662 107.083 102.695 107.305 102.516L109.572 100.683L112.89 103.557C113.109 103.747 113.437 103.721 113.625 103.5C113.812 103.28 113.787 102.947 113.568 102.758L109.922 99.6004C109.732 99.4358 109.453 99.431 109.258 99.589L107.052 101.372L104.775 98.6104Z" fill="#74A3EE"/>
<path fill-rule="evenodd" clip-rule="evenodd" d="M96.5625 90C95.6996 90 95 90.7069 95 91.5789V108.421C95 109.293 95.6996 110 96.5625 110H118.438C119.3 110 120 109.293 120 108.421V91.5789C120 90.7069 119.3 90 118.438 90H96.5625ZM96.0417 91.5789C96.0417 91.2883 96.2749 91.0526 96.5625 91.0526H118.438C118.725 91.0526 118.958 91.2883 118.958 91.5789V108.421C118.958 108.712 118.725 108.947 118.438 108.947H96.5625C96.2749 108.947 96.0417 108.712 96.0417 108.421V91.5789Z" fill="#74A3EE"/>
<rect x="155" y="125" width="50" height="75" rx="3" transform="rotate(-90 155 125)" fill="#DFE8F5"/>
<path d="M193.646 97.1931C193.646 96.1411 194.518 95.2632 195.625 95.2632C196.732 95.2632 197.604 96.1411 197.604 97.1931C197.604 97.4275 197.562 97.6512 197.484 97.858C197.381 98.1297 197.516 98.4337 197.785 98.537C198.054 98.6404 198.355 98.5039 198.457 98.2323C198.579 97.9082 198.646 97.5578 198.646 97.1931C198.646 95.532 197.279 94.2105 195.625 94.2105C193.971 94.2105 192.604 95.532 192.604 97.1931C192.604 97.5578 192.671 97.9082 192.793 98.2323C192.895 98.5039 193.196 98.6404 193.465 98.537C193.734 98.4337 193.869 98.1297 193.766 97.858C193.688 97.6512 193.646 97.4275 193.646 97.1931Z" fill="#74A3EE"/>
<path d="M189.775 98.6104C189.678 98.4921 189.534 98.4229 189.381 98.4211C189.229 98.4192 189.083 98.4849 188.983 98.6008L185.337 102.811C185.148 103.03 185.17 103.363 185.386 103.554C185.603 103.745 185.932 103.723 186.121 103.504L189.365 99.7578L191.579 102.442C191.761 102.662 192.083 102.695 192.305 102.516L194.572 100.683L197.89 103.557C198.109 103.747 198.437 103.721 198.625 103.5C198.812 103.28 198.787 102.947 198.568 102.758L194.922 99.6004C194.732 99.4358 194.453 99.431 194.258 99.589L192.052 101.372L189.775 98.6104Z" fill="#74A3EE"/>
<path fill-rule="evenodd" clip-rule="evenodd" d="M181.562 90C180.7 90 180 90.7069 180 91.5789V108.421C180 109.293 180.7 110 181.562 110H203.437C204.3 110 205 109.293 205 108.421V91.5789C205 90.7069 204.3 90 203.437 90H181.562ZM181.042 91.5789C181.042 91.2883 181.275 91.0526 181.562 91.0526H203.437C203.725 91.0526 203.958 91.2883 203.958 91.5789V108.421C203.958 108.712 203.725 108.947 203.437 108.947H181.562C181.275 108.947 181.042 108.712 181.042 108.421V91.5789Z" fill="#74A3EE"/>
</svg>
