<svg width="300" height="200" viewBox="0 0 300 200" fill="none" xmlns="http://www.w3.org/2000/svg">
<rect width="300" height="200" fill="white"/>
<rect x="45" y="20" width="50" height="50" rx="3" fill="#DFE8F5"/>
<path d="M71.6458 42.1931C71.6458 41.1411 72.518 40.2632 73.625 40.2632C74.732 40.2632 75.6042 41.1411 75.6042 42.1931C75.6042 42.4275 75.5615 42.6512 75.4837 42.858C75.3814 43.1297 75.5165 43.4337 75.7853 43.537C76.0542 43.6404 76.355 43.5039 76.4573 43.2323C76.5793 42.9082 76.6458 42.5578 76.6458 42.1931C76.6458 40.532 75.2795 39.2105 73.625 39.2105C71.9705 39.2105 70.6042 40.532 70.6042 42.1931C70.6042 42.5578 70.6707 42.9082 70.7927 43.2323C70.895 43.5039 71.1958 43.6404 71.4647 43.537C71.7335 43.4337 71.8686 43.1297 71.7663 42.858C71.6885 42.6512 71.6458 42.4275 71.6458 42.1931Z" fill="#74A3EE"/>
<path d="M67.7751 43.6104C67.6776 43.4921 67.5336 43.4229 67.3813 43.4211C67.2289 43.4192 67.0834 43.4849 66.983 43.6008L63.3372 47.8113C63.1478 48.0301 63.1697 48.3626 63.3862 48.554C63.6027 48.7454 63.9317 48.7232 64.1211 48.5045L67.3653 44.7578L69.5791 47.4422C69.7606 47.6623 70.0831 47.6953 70.3045 47.5162L72.5719 45.6833L75.8902 48.5575C76.1086 48.7467 76.4374 48.7211 76.6246 48.5004C76.8118 48.2797 76.7865 47.9474 76.5681 47.7583L72.9223 44.6004C72.7323 44.4358 72.4534 44.431 72.258 44.589L70.0525 46.372L67.7751 43.6104Z" fill="#74A3EE"/>
<path fill-rule="evenodd" clip-rule="evenodd" d="M59.5625 35C58.6996 35 58 35.7069 58 36.5789V53.4211C58 54.2931 58.6996 55 59.5625 55H81.4375C82.3004 55 83 54.2931 83 53.4211V36.5789C83 35.7069 82.3004 35 81.4375 35H59.5625ZM59.0417 36.5789C59.0417 36.2883 59.2749 36.0526 59.5625 36.0526H81.4375C81.7251 36.0526 81.9583 36.2883 81.9583 36.5789V53.4211C81.9583 53.7117 81.7251 53.9474 81.4375 53.9474H59.5625C59.2749 53.9474 59.0417 53.7117 59.0417 53.4211V36.5789Z" fill="#74A3EE"/>
<rect x="45" y="75" width="50" height="50" rx="3" fill="#DFE8F5"/>
<path d="M71.6458 97.1931C71.6458 96.1411 72.518 95.2632 73.625 95.2632C74.732 95.2632 75.6042 96.1411 75.6042 97.1931C75.6042 97.4275 75.5615 97.6512 75.4837 97.858C75.3814 98.1297 75.5165 98.4337 75.7853 98.537C76.0542 98.6404 76.355 98.5039 76.4573 98.2323C76.5793 97.9082 76.6458 97.5578 76.6458 97.1931C76.6458 95.532 75.2795 94.2105 73.625 94.2105C71.9705 94.2105 70.6042 95.532 70.6042 97.1931C70.6042 97.5578 70.6707 97.9082 70.7927 98.2323C70.895 98.5039 71.1958 98.6404 71.4647 98.537C71.7335 98.4337 71.8686 98.1297 71.7663 97.858C71.6885 97.6512 71.6458 97.4275 71.6458 97.1931Z" fill="#74A3EE"/>
<path d="M67.7751 98.6104C67.6776 98.4921 67.5336 98.4229 67.3813 98.4211C67.2289 98.4192 67.0834 98.4849 66.983 98.6008L63.3372 102.811C63.1478 103.03 63.1697 103.363 63.3862 103.554C63.6027 103.745 63.9317 103.723 64.1211 103.504L67.3653 99.7578L69.5791 102.442C69.7606 102.662 70.0831 102.695 70.3045 102.516L72.5719 100.683L75.8902 103.557C76.1086 103.747 76.4374 103.721 76.6246 103.5C76.8118 103.28 76.7865 102.947 76.5681 102.758L72.9223 99.6004C72.7323 99.4358 72.4534 99.431 72.258 99.589L70.0525 101.372L67.7751 98.6104Z" fill="#74A3EE"/>
<path fill-rule="evenodd" clip-rule="evenodd" d="M59.5625 90C58.6996 90 58 90.7069 58 91.5789V108.421C58 109.293 58.6996 110 59.5625 110H81.4375C82.3004 110 83 109.293 83 108.421V91.5789C83 90.7069 82.3004 90 81.4375 90H59.5625ZM59.0417 91.5789C59.0417 91.2883 59.2749 91.0526 59.5625 91.0526H81.4375C81.7251 91.0526 81.9583 91.2883 81.9583 91.5789V108.421C81.9583 108.712 81.7251 108.947 81.4375 108.947H59.5625C59.2749 108.947 59.0417 108.712 59.0417 108.421V91.5789Z" fill="#74A3EE"/>
<rect x="45" y="130" width="50" height="50" rx="3" fill="#DFE8F5"/>
<path d="M71.6458 152.193C71.6458 151.141 72.518 150.263 73.625 150.263C74.732 150.263 75.6042 151.141 75.6042 152.193C75.6042 152.428 75.5615 152.651 75.4837 152.858C75.3814 153.13 75.5165 153.434 75.7853 153.537C76.0542 153.64 76.355 153.504 76.4573 153.232C76.5793 152.908 76.6458 152.558 76.6458 152.193C76.6458 150.532 75.2795 149.211 73.625 149.211C71.9705 149.211 70.6042 150.532 70.6042 152.193C70.6042 152.558 70.6707 152.908 70.7927 153.232C70.895 153.504 71.1958 153.64 71.4647 153.537C71.7335 153.434 71.8686 153.13 71.7663 152.858C71.6885 152.651 71.6458 152.428 71.6458 152.193Z" fill="#74A3EE"/>
<path d="M67.7751 153.61C67.6776 153.492 67.5336 153.423 67.3813 153.421C67.2289 153.419 67.0834 153.485 66.983 153.601L63.3372 157.811C63.1478 158.03 63.1697 158.363 63.3862 158.554C63.6027 158.745 63.9317 158.723 64.1211 158.504L67.3653 154.758L69.5791 157.442C69.7606 157.662 70.0831 157.695 70.3045 157.516L72.5719 155.683L75.8902 158.557C76.1086 158.747 76.4374 158.721 76.6246 158.5C76.8118 158.28 76.7865 157.947 76.5681 157.758L72.9223 154.6C72.7323 154.436 72.4534 154.431 72.258 154.589L70.0525 156.372L67.7751 153.61Z" fill="#74A3EE"/>
<path fill-rule="evenodd" clip-rule="evenodd" d="M59.5625 145C58.6996 145 58 145.707 58 146.579V163.421C58 164.293 58.6996 165 59.5625 165H81.4375C82.3004 165 83 164.293 83 163.421V146.579C83 145.707 82.3004 145 81.4375 145H59.5625ZM59.0417 146.579C59.0417 146.288 59.2749 146.053 59.5625 146.053H81.4375C81.7251 146.053 81.9583 146.288 81.9583 146.579V163.421C81.9583 163.712 81.7251 163.947 81.4375 163.947H59.5625C59.2749 163.947 59.0417 163.712 59.0417 163.421V146.579Z" fill="#74A3EE"/>
<rect x="100" y="20" width="155" height="160" rx="3" fill="#DFE8F5"/>
<path d="M178.646 97.1931C178.646 96.1411 179.518 95.2632 180.625 95.2632C181.732 95.2632 182.604 96.1411 182.604 97.1931C182.604 97.4275 182.562 97.6512 182.484 97.858C182.381 98.1297 182.516 98.4337 182.785 98.537C183.054 98.6404 183.355 98.5039 183.457 98.2323C183.579 97.9082 183.646 97.5578 183.646 97.1931C183.646 95.532 182.279 94.2105 180.625 94.2105C178.971 94.2105 177.604 95.532 177.604 97.1931C177.604 97.5578 177.671 97.9082 177.793 98.2323C177.895 98.5039 178.196 98.6404 178.465 98.537C178.734 98.4337 178.869 98.1297 178.766 97.858C178.688 97.6512 178.646 97.4275 178.646 97.1931Z" fill="#74A3EE"/>
<path d="M174.775 98.6104C174.678 98.4921 174.534 98.4229 174.381 98.4211C174.229 98.4192 174.083 98.4849 173.983 98.6008L170.337 102.811C170.148 103.03 170.17 103.363 170.386 103.554C170.603 103.745 170.932 103.723 171.121 103.504L174.365 99.7578L176.579 102.442C176.761 102.662 177.083 102.695 177.305 102.516L179.572 100.683L182.89 103.557C183.109 103.747 183.437 103.721 183.625 103.5C183.812 103.28 183.787 102.947 183.568 102.758L179.922 99.6004C179.732 99.4358 179.453 99.431 179.258 99.589L177.052 101.372L174.775 98.6104Z" fill="#74A3EE"/>
<path fill-rule="evenodd" clip-rule="evenodd" d="M166.562 90C165.7 90 165 90.7069 165 91.5789V108.421C165 109.293 165.7 110 166.562 110H188.437C189.3 110 190 109.293 190 108.421V91.5789C190 90.7069 189.3 90 188.437 90H166.562ZM166.042 91.5789C166.042 91.2883 166.275 91.0526 166.562 91.0526H188.437C188.725 91.0526 188.958 91.2883 188.958 91.5789V108.421C188.958 108.712 188.725 108.947 188.437 108.947H166.562C166.275 108.947 166.042 108.712 166.042 108.421V91.5789Z" fill="#74A3EE"/>
</svg>
