<svg width="300" height="200" viewBox="0 0 300 200" fill="none" xmlns="http://www.w3.org/2000/svg">
<rect width="300" height="200" fill="white"/>
<rect x="70" y="180" width="160" height="160" rx="3" transform="rotate(-90 70 180)" fill="#DFE8F5"/>
<path d="M151.646 97.1931C151.646 96.1411 152.518 95.2632 153.625 95.2632C154.732 95.2632 155.604 96.1411 155.604 97.1931C155.604 97.4275 155.562 97.6512 155.484 97.858C155.381 98.1297 155.516 98.4337 155.785 98.537C156.054 98.6404 156.355 98.5039 156.457 98.2323C156.579 97.9082 156.646 97.5578 156.646 97.1931C156.646 95.532 155.279 94.2105 153.625 94.2105C151.971 94.2105 150.604 95.532 150.604 97.1931C150.604 97.5578 150.671 97.9082 150.793 98.2323C150.895 98.5039 151.196 98.6404 151.465 98.537C151.734 98.4337 151.869 98.1297 151.766 97.858C151.688 97.6512 151.646 97.4275 151.646 97.1931Z" fill="#74A3EE"/>
<path d="M147.775 98.6104C147.678 98.4921 147.534 98.4229 147.381 98.4211C147.229 98.4192 147.083 98.4849 146.983 98.6008L143.337 102.811C143.148 103.03 143.17 103.363 143.386 103.554C143.603 103.745 143.932 103.723 144.121 103.504L147.365 99.7578L149.579 102.442C149.761 102.662 150.083 102.695 150.305 102.516L152.572 100.683L155.89 103.557C156.109 103.747 156.437 103.721 156.625 103.5C156.812 103.28 156.787 102.947 156.568 102.758L152.922 99.6004C152.732 99.4358 152.453 99.431 152.258 99.589L150.052 101.372L147.775 98.6104Z" fill="#74A3EE"/>
<path fill-rule="evenodd" clip-rule="evenodd" d="M139.562 90C138.7 90 138 90.7069 138 91.5789V108.421C138 109.293 138.7 110 139.562 110H161.437C162.3 110 163 109.293 163 108.421V91.5789C163 90.7069 162.3 90 161.437 90H139.562ZM139.042 91.5789C139.042 91.2883 139.275 91.0526 139.562 91.0526H161.437C161.725 91.0526 161.958 91.2883 161.958 91.5789V108.421C161.958 108.712 161.725 108.947 161.437 108.947H139.562C139.275 108.947 139.042 108.712 139.042 108.421V91.5789Z" fill="#74A3EE"/>
</svg>
