<svg width="70" height="50" viewBox="0 0 70 50" fill="none" xmlns="http://www.w3.org/2000/svg">
<path d="M34 38V12C34 11.4477 34.4477 11 35 11C35.5523 11 36 11.4477 36 12V38C36 38.5523 35.5523 39 35 39C34.4477 39 34 38.5523 34 38Z" fill="#8F959F" fill-opacity="0.2"/>
<path d="M25 22C23.8954 22 23 21.1046 23 20V18C23 16.8954 23.8954 16 25 16H45C46.1046 16 47 16.8954 47 18V20C47 21.1046 46.1046 22 45 22H25Z" fill="#74A3EE"/>
<path d="M28 34C26.8954 34 26 33.1045 26 32V30C26 28.8954 26.8954 28 28 28H42C43.1046 28 44 28.8954 44 30V32C44 33.1045 43.1046 34 42 34H28Z" fill="#74A3EE"/>
</svg>
