<svg width="70" height="50" viewBox="0 0 70 50" fill="none" xmlns="http://www.w3.org/2000/svg">
<path d="M42 22C43.1046 22 44 21.1046 44 20V18C44 16.8954 43.1046 16 42 16H22C20.8954 16 20 16.8954 20 18V20C20 21.1046 20.8954 22 22 22H42Z" fill="#74A3EE"/>
<path d="M42 34C43.1046 34 44 33.1045 44 32V30C44 28.8954 43.1046 28 42 28H28C26.8954 28 26 28.8954 26 30V32C26 33.1045 26.8954 34 28 34H42Z" fill="#74A3EE"/>
<path d="M50 38V12C50 11.4477 49.5523 11 49 11C48.4477 11 48 11.4477 48 12V38C48 38.5523 48.4477 39 49 39C49.5523 39 50 38.5523 50 38Z" fill="#8F959F" fill-opacity="0.2"/>
</svg>
