<svg width="50" height="50" viewBox="0 0 50 50" fill="none" xmlns="http://www.w3.org/2000/svg">
<path d="M34.7734 34.6406C34.7422 34.5625 34.5156 34.1562 34.0938 33.4219C33.6562 32.6875 33.0312 31.8906 32.2188 31.0312C31.4062 30.1719 30.3906 29.3906 29.1719 28.6875C27.9688 27.9844 26.5703 27.6328 24.9766 27.6328C23.3828 27.6328 21.9844 27.9844 20.7812 28.6875C19.5781 29.3906 18.5703 30.1719 17.7578 31.0312C16.9453 31.8906 16.3281 32.6875 15.9062 33.4219C15.4844 34.1719 15.2578 34.5781 15.2266 34.6406C15.1953 34.7031 15.1719 34.7656 15.1562 34.8281C15.1562 34.875 15.1562 34.9297 15.1562 34.9922C15.1562 35.2266 15.2344 35.4297 15.3906 35.6016C15.5469 35.7578 15.7422 35.8359 15.9766 35.8359C16.1484 35.8359 16.2969 35.7969 16.4219 35.7188C16.5625 35.625 16.6641 35.5078 16.7266 35.3672V35.3438C16.7422 35.3281 16.9297 35.0078 17.2891 34.3828C17.6484 33.7422 18.1719 33.0469 18.8594 32.2969C19.5625 31.5469 20.4219 30.8594 21.4375 30.2344C22.4688 29.6094 23.6484 29.2969 24.9766 29.2969C26.3047 29.2969 27.4844 29.6094 28.5156 30.2344C29.5469 30.8594 30.4141 31.5547 31.1172 32.3203C31.8203 33.0703 32.3516 33.7578 32.7109 34.3828C33.0859 35.0234 33.2734 35.3516 33.2734 35.3672C33.3359 35.5078 33.4375 35.625 33.5781 35.7188C33.7188 35.8125 33.875 35.8594 34.0469 35.8594C34.2656 35.8594 34.4531 35.7812 34.6094 35.625C34.7812 35.4531 34.8672 35.2578 34.8672 35.0391C34.8672 34.9609 34.8594 34.8906 34.8438 34.8281C34.8281 34.7656 34.8047 34.7031 34.7734 34.6406ZM25 27.1172C25.7969 27.1172 26.5469 26.9688 27.25 26.6719C27.9688 26.3594 28.5859 25.9453 29.1016 25.4297C29.6328 24.8984 30.0469 24.2812 30.3438 23.5781C30.6562 22.875 30.8125 22.1172 30.8125 21.3047C30.8125 20.5078 30.6562 19.7578 30.3438 19.0547C30.0469 18.3516 29.6328 17.7344 29.1016 17.2031C28.5859 16.6719 27.9688 16.2578 27.25 15.9609C26.5469 15.6484 25.7969 15.4922 25 15.4922C24.2031 15.4922 23.4531 15.6484 22.75 15.9609C22.0312 16.2578 21.4062 16.6719 20.875 17.2031C20.3594 17.7344 19.9531 18.3516 19.6562 19.0547C19.3438 19.7578 19.1875 20.5078 19.1875 21.3047C19.1875 22.1172 19.3438 22.875 19.6562 23.5781C19.9531 24.2812 20.3594 24.8984 20.875 25.4297C21.4062 25.9453 22.0312 26.3594 22.75 26.6719C23.4531 26.9688 24.2031 27.1172 25 27.1172ZM25 17.1562C26.1406 17.1562 27.1172 17.5625 27.9297 18.375C28.7422 19.1875 29.1484 20.1641 29.1484 21.3047C29.1484 22.4453 28.7422 23.4219 27.9297 24.2344C27.1172 25.0469 26.1406 25.4531 25 25.4531C23.8594 25.4531 22.8828 25.0469 22.0703 24.2344C21.2578 23.4219 20.8516 22.4453 20.8516 21.3047C20.8516 20.1641 21.2578 19.1953 22.0703 18.3984C22.8828 17.5859 23.8594 17.1719 25 17.1562Z" fill="#545454"/>
</svg>
