<svg width="50" height="50" viewBox="0 0 50 50" fill="none" xmlns="http://www.w3.org/2000/svg">
<path d="M35.8047 19.6641H14.1953C13.8672 19.6641 13.5859 19.5469 13.3516 19.3125C13.1172 19.0781 13 18.7969 13 18.4688C13 18.1406 13.1172 17.8594 13.3516 17.625C13.5859 17.3906 13.8672 17.2734 14.1953 17.2734H35.8047C36.1328 17.2734 36.4141 17.3906 36.6484 17.625C36.8828 17.8594 37 18.1406 37 18.4688C37 18.7969 36.8828 19.0781 36.6484 19.3125C36.4141 19.5469 36.1328 19.6641 35.8047 19.6641ZM35.8047 26.8594H14.1953C13.8672 26.8594 13.5859 26.7422 13.3516 26.5078C13.1172 26.2734 13 25.9922 13 25.6641C13 25.3359 13.1172 25.0547 13.3516 24.8203C13.5859 24.5859 13.8672 24.4688 14.1953 24.4688H35.8047C36.1328 24.4688 36.4141 24.5859 36.6484 24.8203C36.8828 25.0547 37 25.3359 37 25.6641C37 25.9922 36.8828 26.2734 36.6484 26.5078C36.4141 26.7422 36.1328 26.8594 35.8047 26.8594ZM35.8047 34.0781H14.1953C13.8672 34.0781 13.5859 33.9609 13.3516 33.7266C13.1172 33.4922 13 33.2031 13 32.8594C13 32.5312 13.1172 32.25 13.3516 32.0156C13.5859 31.7812 13.8672 31.6641 14.1953 31.6641H35.8047C36.1328 31.6641 36.4141 31.7812 36.6484 32.0156C36.8828 32.25 37 32.5312 37 32.8594C37 33.2031 36.8828 33.4922 36.6484 33.7266C36.4141 33.9609 36.1328 34.0781 35.8047 34.0781Z" fill="#545454"/>
</svg>
