<svg width="50" height="50" viewBox="0 0 50 50" fill="none" xmlns="http://www.w3.org/2000/svg">
<path d="M22.7262 14.5838C22.8424 14.2352 23.1687 14 23.5362 14H25.4638C25.8313 14 26.1576 14.2352 26.2739 14.5838C26.823 16.2314 28.7041 17.0106 30.2575 16.2339C30.5862 16.0696 30.9832 16.134 31.2431 16.3939L32.6062 17.757C32.866 18.0168 32.9304 18.4138 32.7661 18.7425C31.9894 20.2959 32.7686 22.177 34.4162 22.7262C34.7648 22.8424 35 23.1687 35 23.5362V25.4638C35 25.8313 34.7648 26.1576 34.4161 26.2739C32.7686 26.823 31.9894 28.7041 32.7661 30.2575C32.9304 30.5862 32.866 30.9832 32.6061 31.243L31.243 32.6062C30.9832 32.866 30.5862 32.9304 30.2575 32.7661C28.7041 31.9894 26.823 32.7686 26.2738 34.4162C26.1576 34.7648 25.8313 35 25.4638 35H23.5362C23.1687 35 22.8424 34.7648 22.7261 34.4162C22.177 32.7686 20.2959 31.9894 18.7425 32.7661C18.4138 32.9304 18.0168 32.866 17.7569 32.6061L16.3938 31.243C16.134 30.9832 16.0696 30.5862 16.2339 30.2575C17.0106 28.7041 16.2314 26.823 14.5838 26.2738C14.2352 26.1576 14 25.8313 14 25.4638V23.5362C14 23.1687 14.2352 22.8424 14.5839 22.7261C16.2314 22.177 17.0106 20.2959 16.2339 18.7425C16.0696 18.4138 16.134 18.0168 16.3939 17.757L17.757 16.3938C18.0168 16.134 18.4138 16.0696 18.7425 16.2339C20.2959 17.0106 22.177 16.2314 22.7262 14.5838Z" stroke="#545454" stroke-width="2"/>
<circle cx="24.5" cy="24.5" r="3.5" stroke="#545454" stroke-width="2"/>
</svg>
