<svg width="50" height="50" viewBox="0 0 50 50" fill="none" xmlns="http://www.w3.org/2000/svg">
<path d="M5 11C5 9.34315 6.34315 8 8 8H42C43.6569 8 45 9.34315 45 11V39C45 40.6569 43.6569 42 42 42H8C6.34315 42 5 40.6569 5 39V11Z" fill="#DFE8F5"/>
<path d="M21 32V21M21 32H23M21 32H19M16 21V19C16 18.4477 16.4477 18 17 18H25C25.5523 18 26 18.4477 26 19V21M30 25H33V28M33 31V32M33 31V28M33 31C33 31 32 32 31 32C30 32 29 32 29 30C29 28 31 28 31 28H33" stroke="#74A3EE" stroke-width="2" stroke-linecap="round" stroke-linejoin="round"/>
</svg>
