<svg width="50" height="50" viewBox="0 0 50 50" fill="none" xmlns="http://www.w3.org/2000/svg">
<rect width="50" height="50" fill="white"/>
<path d="M23.7043 19.099C22.7656 19.099 22.047 18.758 21.5483 18.076C21.057 17.394 20.8113 16.4077 20.8113 15.117C20.8113 13.8337 21.057 12.851 21.5483 12.169C22.047 11.487 22.7656 11.146 23.7043 11.146C24.643 11.146 25.358 11.487 25.8493 12.169C26.348 12.851 26.5973 13.8337 26.5973 15.117C26.5973 16.4077 26.348 17.394 25.8493 18.076C25.358 18.758 24.643 19.099 23.7043 19.099ZM23.7043 17.79C24.1296 17.79 24.4376 17.5773 24.6283 17.152C24.8263 16.7267 24.9253 16.0483 24.9253 15.117C24.9253 14.1783 24.8263 13.5 24.6283 13.082C24.4376 12.664 24.1296 12.455 23.7043 12.455C23.279 12.455 22.9673 12.6677 22.7693 13.093C22.5786 13.511 22.4833 14.1857 22.4833 15.117C22.4833 16.0483 22.5786 16.7267 22.7693 17.152C22.9673 17.5773 23.279 17.79 23.7043 17.79ZM32.566 17.625C33.1013 17.625 33.369 17.8523 33.369 18.307C33.369 18.769 33.1013 19 32.566 19H28.804C28.2613 19 27.99 18.769 27.99 18.307C27.99 17.8523 28.2613 17.625 28.804 17.625H29.827V13.126L28.859 13.709C28.749 13.775 28.639 13.808 28.529 13.808C28.3457 13.808 28.188 13.731 28.056 13.577C27.9313 13.423 27.869 13.2507 27.869 13.06C27.869 12.8033 27.9827 12.609 28.21 12.477L29.948 11.432C30.2047 11.278 30.4613 11.201 30.718 11.201C30.96 11.201 31.158 11.278 31.312 11.432C31.466 11.5787 31.543 11.7803 31.543 12.037V17.625H32.566Z" fill="#545454"/>
<rect x="19" y="8" width="14" height="2" rx="1" transform="rotate(90 19 8)" fill="#545454"/>
<path opacity="0.5" d="M23.6989 39.099C22.7603 39.099 22.0416 38.758 21.5429 38.076C21.0516 37.394 20.8059 36.4077 20.8059 35.117C20.8059 33.8337 21.0516 32.851 21.5429 32.169C22.0416 31.487 22.7603 31.146 23.6989 31.146C24.6376 31.146 25.3526 31.487 25.8439 32.169C26.3426 32.851 26.5919 33.8337 26.5919 35.117C26.5919 36.4077 26.3426 37.394 25.8439 38.076C25.3526 38.758 24.6376 39.099 23.6989 39.099ZM23.6989 37.79C24.1243 37.79 24.4323 37.5773 24.6229 37.152C24.8209 36.7267 24.9199 36.0483 24.9199 35.117C24.9199 34.1783 24.8209 33.5 24.6229 33.082C24.4323 32.664 24.1243 32.455 23.6989 32.455C23.2736 32.455 22.9619 32.6677 22.7639 33.093C22.5733 33.511 22.4779 34.1857 22.4779 35.117C22.4779 36.0483 22.5733 36.7267 22.7639 37.152C22.9619 37.5773 23.2736 37.79 23.6989 37.79ZM32.4066 37.625C32.9493 37.625 33.2206 37.8523 33.2206 38.307C33.2206 38.769 32.9493 39 32.4066 39H28.3146C28.0873 39 27.904 38.934 27.7646 38.802C27.6326 38.6627 27.5666 38.4903 27.5666 38.285C27.5666 38.021 27.673 37.779 27.8856 37.559L30.3056 34.996C30.8483 34.424 31.1196 33.896 31.1196 33.412C31.1196 33.1113 31.0353 32.884 30.8666 32.73C30.698 32.5687 30.4523 32.488 30.1296 32.488C29.851 32.488 29.5943 32.5357 29.3596 32.631C29.125 32.7263 28.8536 32.8657 28.5456 33.049C28.421 33.1223 28.3256 33.1737 28.2596 33.203C28.1936 33.2323 28.1166 33.247 28.0286 33.247C27.8746 33.247 27.7426 33.1773 27.6326 33.038C27.5226 32.8913 27.4676 32.7227 27.4676 32.532C27.4676 32.3927 27.4896 32.279 27.5336 32.191C27.585 32.0957 27.6656 32.0113 27.7756 31.938C28.1056 31.696 28.4833 31.5053 28.9086 31.366C29.3413 31.2193 29.774 31.146 30.2066 31.146C30.7273 31.146 31.182 31.234 31.5706 31.41C31.9666 31.586 32.271 31.839 32.4836 32.169C32.6963 32.4917 32.8026 32.8657 32.8026 33.291C32.8026 33.7383 32.7073 34.1527 32.5166 34.534C32.3333 34.9153 32.0216 35.3407 31.5816 35.81L29.8546 37.625H32.4066Z" fill="#545454"/>
<rect opacity="0.5" x="19" y="28" width="14" height="2" rx="1" transform="rotate(90 19 28)" fill="#545454"/>
</svg>
