<svg width="50" height="50" viewBox="0 0 50 50" fill="none" xmlns="http://www.w3.org/2000/svg">
<rect width="50" height="50" fill="white"/>
<path d="M5.7043 29.099C4.76563 29.099 4.04696 28.758 3.5483 28.076C3.05696 27.394 2.8113 26.4077 2.8113 25.117C2.8113 23.8337 3.05696 22.851 3.5483 22.169C4.04696 21.487 4.76563 21.146 5.7043 21.146C6.64296 21.146 7.35796 21.487 7.8493 22.169C8.34796 22.851 8.5973 23.8337 8.5973 25.117C8.5973 26.4077 8.34796 27.394 7.8493 28.076C7.35796 28.758 6.64296 29.099 5.7043 29.099ZM5.7043 27.79C6.12963 27.79 6.43763 27.5773 6.6283 27.152C6.8263 26.7267 6.9253 26.0483 6.9253 25.117C6.9253 24.1783 6.8263 23.5 6.6283 23.082C6.43763 22.664 6.12963 22.455 5.7043 22.455C5.27896 22.455 4.9673 22.6677 4.7693 23.093C4.57863 23.511 4.4833 24.1857 4.4833 25.117C4.4833 26.0483 4.57863 26.7267 4.7693 27.152C4.9673 27.5773 5.27896 27.79 5.7043 27.79ZM14.566 27.625C15.1013 27.625 15.369 27.8523 15.369 28.307C15.369 28.769 15.1013 29 14.566 29H10.804C10.2613 29 9.99 28.769 9.99 28.307C9.99 27.8523 10.2613 27.625 10.804 27.625H11.827V23.126L10.859 23.709C10.749 23.775 10.639 23.808 10.529 23.808C10.3457 23.808 10.188 23.731 10.056 23.577C9.93133 23.423 9.869 23.2507 9.869 23.06C9.869 22.8033 9.98267 22.609 10.21 22.477L11.948 21.432C12.2047 21.278 12.4613 21.201 12.718 21.201C12.96 21.201 13.158 21.278 13.312 21.432C13.466 21.5787 13.543 21.7803 13.543 22.037V27.625H14.566Z" fill="#545454"/>
<rect x="16" y="24" width="8" height="2" rx="1" fill="#545454"/>
<path opacity="0.5" d="M29.6989 29.099C28.7603 29.099 28.0416 28.758 27.5429 28.076C27.0516 27.394 26.8059 26.4077 26.8059 25.117C26.8059 23.8337 27.0516 22.851 27.5429 22.169C28.0416 21.487 28.7603 21.146 29.6989 21.146C30.6376 21.146 31.3526 21.487 31.8439 22.169C32.3426 22.851 32.5919 23.8337 32.5919 25.117C32.5919 26.4077 32.3426 27.394 31.8439 28.076C31.3526 28.758 30.6376 29.099 29.6989 29.099ZM29.6989 27.79C30.1243 27.79 30.4323 27.5773 30.6229 27.152C30.8209 26.7267 30.9199 26.0483 30.9199 25.117C30.9199 24.1783 30.8209 23.5 30.6229 23.082C30.4323 22.664 30.1243 22.455 29.6989 22.455C29.2736 22.455 28.9619 22.6677 28.7639 23.093C28.5733 23.511 28.4779 24.1857 28.4779 25.117C28.4779 26.0483 28.5733 26.7267 28.7639 27.152C28.9619 27.5773 29.2736 27.79 29.6989 27.79ZM38.4066 27.625C38.9493 27.625 39.2206 27.8523 39.2206 28.307C39.2206 28.769 38.9493 29 38.4066 29H34.3146C34.0873 29 33.904 28.934 33.7646 28.802C33.6326 28.6627 33.5666 28.4903 33.5666 28.285C33.5666 28.021 33.673 27.779 33.8856 27.559L36.3056 24.996C36.8483 24.424 37.1196 23.896 37.1196 23.412C37.1196 23.1113 37.0353 22.884 36.8666 22.73C36.698 22.5687 36.4523 22.488 36.1296 22.488C35.851 22.488 35.5943 22.5357 35.3596 22.631C35.125 22.7263 34.8536 22.8657 34.5456 23.049C34.421 23.1223 34.3256 23.1737 34.2596 23.203C34.1936 23.2323 34.1166 23.247 34.0286 23.247C33.8746 23.247 33.7426 23.1773 33.6326 23.038C33.5226 22.8913 33.4676 22.7227 33.4676 22.532C33.4676 22.3927 33.4896 22.279 33.5336 22.191C33.585 22.0957 33.6656 22.0113 33.7756 21.938C34.1056 21.696 34.4833 21.5053 34.9086 21.366C35.3413 21.2193 35.774 21.146 36.2066 21.146C36.7273 21.146 37.182 21.234 37.5706 21.41C37.9666 21.586 38.271 21.839 38.4836 22.169C38.6963 22.4917 38.8026 22.8657 38.8026 23.291C38.8026 23.7383 38.7073 24.1527 38.5166 24.534C38.3333 24.9153 38.0216 25.3407 37.5816 25.81L35.8546 27.625H38.4066Z" fill="#545454"/>
<rect opacity="0.5" x="40" y="24" width="8" height="2" rx="1" fill="#545454"/>
</svg>
