<svg width="50" height="50" viewBox="0 0 50 50" fill="none" xmlns="http://www.w3.org/2000/svg">
<path d="M9.72517 29.066C9.46117 29.066 9.25217 28.989 9.09817 28.835C8.94417 28.681 8.86717 28.472 8.86717 28.208V22.037C8.86717 21.7803 8.94417 21.575 9.09817 21.421C9.25217 21.267 9.46117 21.19 9.72517 21.19C9.98917 21.19 10.1982 21.267 10.3522 21.421C10.5062 21.575 10.5832 21.7803 10.5832 22.037V28.208C10.5832 28.472 10.5062 28.681 10.3522 28.835C10.1982 28.989 9.98917 29.066 9.72517 29.066ZM15.3781 23.467C16.0234 23.467 16.5037 23.6577 16.8191 24.039C17.1344 24.413 17.2921 24.9813 17.2921 25.744V28.285C17.2921 28.527 17.2151 28.7177 17.0611 28.857C16.9144 28.9963 16.7127 29.066 16.4561 29.066C16.1994 29.066 15.9977 28.9963 15.8511 28.857C15.7044 28.7177 15.6311 28.527 15.6311 28.285V25.821C15.6311 25.4543 15.5614 25.1867 15.4221 25.018C15.2901 24.8493 15.0811 24.765 14.7951 24.765C14.4504 24.765 14.1717 24.875 13.9591 25.095C13.7537 25.315 13.6511 25.6083 13.6511 25.975V28.285C13.6511 28.527 13.5777 28.7177 13.4311 28.857C13.2844 28.9963 13.0827 29.066 12.8261 29.066C12.5694 29.066 12.3641 28.9963 12.2101 28.857C12.0634 28.7177 11.9901 28.527 11.9901 28.285V24.248C11.9901 24.0207 12.0671 23.8373 12.2211 23.698C12.3824 23.5587 12.5877 23.489 12.8371 23.489C13.0644 23.489 13.2477 23.5587 13.3871 23.698C13.5337 23.83 13.6071 24.0023 13.6071 24.215V24.369C13.7977 24.0757 14.0434 23.852 14.3441 23.698C14.6521 23.544 14.9967 23.467 15.3781 23.467ZM21.953 23.467C23.207 23.467 23.834 24.226 23.834 25.744V28.285C23.834 28.527 23.757 28.7177 23.603 28.857C23.4564 28.9963 23.2547 29.066 22.998 29.066C22.7414 29.066 22.5397 28.9963 22.393 28.857C22.2464 28.7177 22.173 28.527 22.173 28.285V25.722C22.173 25.3993 22.1034 25.161 21.964 25.007C21.832 24.8457 21.623 24.765 21.337 24.765C20.9924 24.765 20.7137 24.875 20.501 25.095C20.2957 25.315 20.193 25.6083 20.193 25.975V28.285C20.193 28.527 20.1197 28.7177 19.973 28.857C19.8264 28.9963 19.6247 29.066 19.368 29.066C19.1114 29.066 18.906 28.9963 18.752 28.857C18.6054 28.7177 18.532 28.527 18.532 28.285V21.949C18.532 21.7217 18.609 21.5383 18.763 21.399C18.9244 21.2597 19.1334 21.19 19.39 21.19C19.632 21.19 19.8264 21.256 19.973 21.388C20.1197 21.52 20.193 21.696 20.193 21.916V24.314C20.3837 24.0353 20.6294 23.8263 20.93 23.687C21.2307 23.5403 21.5717 23.467 21.953 23.467ZM29.408 27.394C29.5547 27.394 29.672 27.4527 29.76 27.57C29.8554 27.6873 29.903 27.8377 29.903 28.021C29.903 28.1457 29.8664 28.263 29.793 28.373C29.7197 28.4757 29.617 28.5637 29.485 28.637C29.2357 28.769 28.946 28.879 28.616 28.967C28.286 29.0477 27.9817 29.088 27.703 29.088C27.1164 29.088 26.603 28.9743 26.163 28.747C25.7304 28.5197 25.3967 28.197 25.162 27.779C24.9274 27.3537 24.81 26.855 24.81 26.283C24.81 25.733 24.9237 25.2453 25.151 24.82C25.3784 24.3947 25.6937 24.0647 26.097 23.83C26.5004 23.588 26.9587 23.467 27.472 23.467C27.9634 23.467 28.3924 23.577 28.759 23.797C29.133 24.0097 29.4227 24.3177 29.628 24.721C29.8334 25.117 29.936 25.5827 29.936 26.118C29.936 26.2793 29.8957 26.404 29.815 26.492C29.7417 26.5727 29.6354 26.613 29.496 26.613H26.416C26.4674 27.0457 26.5994 27.361 26.812 27.559C27.0247 27.7497 27.329 27.845 27.725 27.845C27.9377 27.845 28.1284 27.8193 28.297 27.768C28.4657 27.7167 28.6527 27.647 28.858 27.559C28.9607 27.515 29.0597 27.4783 29.155 27.449C29.2504 27.4123 29.3347 27.394 29.408 27.394ZM27.516 24.611C27.2007 24.611 26.9477 24.7137 26.757 24.919C26.5664 25.117 26.4527 25.4067 26.416 25.788H28.539C28.517 25.3993 28.418 25.106 28.242 24.908C28.0734 24.71 27.8314 24.611 27.516 24.611ZM34.1623 23.489C34.3823 23.4743 34.5546 23.5257 34.6793 23.643C34.8113 23.753 34.8773 23.9217 34.8773 24.149C34.8773 24.391 34.8186 24.5707 34.7013 24.688C34.5839 24.8053 34.3749 24.8787 34.0743 24.908L33.7443 24.941C33.3409 24.985 33.0476 25.117 32.8643 25.337C32.6883 25.557 32.6003 25.8393 32.6003 26.184V28.285C32.6003 28.5417 32.5196 28.736 32.3583 28.868C32.2043 29 32.0099 29.066 31.7753 29.066C31.5333 29.066 31.3316 29 31.1703 28.868C31.0163 28.736 30.9393 28.5417 30.9393 28.285V24.248C30.9393 24.006 31.0199 23.819 31.1813 23.687C31.3426 23.555 31.5369 23.489 31.7643 23.489C31.9843 23.489 32.1676 23.555 32.3143 23.687C32.4609 23.8117 32.5343 23.9877 32.5343 24.215V24.512C32.6663 24.1967 32.8643 23.9547 33.1283 23.786C33.3996 23.6173 33.6929 23.522 34.0083 23.5L34.1623 23.489ZM36.1903 29.066C35.9483 29.066 35.7466 29 35.5853 28.868C35.4313 28.736 35.3543 28.5417 35.3543 28.285V24.27C35.3543 24.0133 35.435 23.819 35.5963 23.687C35.7576 23.555 35.9556 23.489 36.1903 23.489C36.425 23.489 36.6193 23.555 36.7733 23.687C36.9346 23.819 37.0153 24.0133 37.0153 24.27V28.285C37.0153 28.5417 36.9346 28.736 36.7733 28.868C36.6193 29 36.425 29.066 36.1903 29.066ZM36.1903 22.609C35.897 22.609 35.666 22.5357 35.4973 22.389C35.3286 22.235 35.2443 22.0297 35.2443 21.773C35.2443 21.5163 35.3286 21.3147 35.4973 21.168C35.666 21.0213 35.897 20.948 36.1903 20.948C36.4763 20.948 36.7036 21.025 36.8723 21.179C37.0483 21.3257 37.1363 21.5237 37.1363 21.773C37.1363 22.0297 37.052 22.235 36.8833 22.389C36.7146 22.5357 36.4836 22.609 36.1903 22.609ZM41.2899 27.856C41.5099 27.8707 41.6713 27.9257 41.7739 28.021C41.8766 28.1163 41.9279 28.2557 41.9279 28.439C41.9279 28.6517 41.8436 28.813 41.6749 28.923C41.5063 29.033 41.2643 29.077 40.9489 29.055L40.6409 29.033C39.3576 28.9303 38.7159 28.2593 38.7159 27.02V24.842H38.2759C38.0339 24.842 37.8506 24.7907 37.7259 24.688C37.6013 24.578 37.5389 24.424 37.5389 24.226C37.5389 24.0207 37.6013 23.8667 37.7259 23.764C37.8506 23.654 38.0339 23.599 38.2759 23.599H38.7159V22.741C38.7159 22.499 38.7893 22.3083 38.9359 22.169C39.0899 22.0297 39.2953 21.96 39.5519 21.96C39.8086 21.96 40.0103 22.0297 40.1569 22.169C40.3036 22.3083 40.3769 22.499 40.3769 22.741V23.599H41.1469C41.6456 23.599 41.8949 23.808 41.8949 24.226C41.8949 24.424 41.8326 24.578 41.7079 24.688C41.5833 24.7907 41.3963 24.842 41.1469 24.842H40.3769V27.141C40.3769 27.361 40.4283 27.5297 40.5309 27.647C40.6336 27.757 40.7839 27.8193 40.9819 27.834L41.2899 27.856Z" fill="#74A3EE"/>
<path d="M5 11C5 9.34314 6.34315 8 8 8H42C43.6569 8 45 9.34315 45 11V38C45 39.6569 43.6569 41 42 41H8C6.34315 41 5 39.6569 5 38V11Z" stroke="#74A3EE"/>
</svg>
