<svg width="208" height="64" viewBox="0 0 208 64" fill="none" xmlns="http://www.w3.org/2000/svg">
<rect width="64" height="64" fill="#439665"/>
<path opacity="0.1" d="M64 19.9353V64.0001H0V12.2646C2.61025 12.9941 5.26497 13.9109 8.0692 14.8793C16.7405 17.8739 26.8414 21.3621 41.478 21.3335C50.0877 21.3166 58.0131 20.6442 64 19.9353Z" fill="white"/>
<path opacity="0.1" d="M64 51.4304V64H0V46.7872C5.92043 43.2974 19.5575 36.9257 32.7619 42.6668C45.7837 48.3285 58.3848 50.6244 64 51.4304Z" fill="white"/>
<path d="M24 10H14V54H24V38H38V54H48V28H24V10Z" fill="white"/>
<path d="M38 20H48V10H38V20Z" fill="white"/>
<path d="M75.8125 50.2855V16.1522H84.5896V29.3666H96.7801V16.1522H105.557V50.2855H96.7801V37.1685H84.5896V50.2855H75.8125Z" fill="#333333"/>
<path d="M118.344 19.3217C116.816 19.3217 115.63 18.9641 114.784 18.2489C113.939 17.5012 113.517 16.461 113.517 15.1282C113.517 13.9254 113.939 12.9339 114.784 12.1537C115.662 11.3735 116.849 10.9834 118.344 10.9834C119.872 10.9834 121.058 11.3572 121.904 12.1049C122.781 12.8201 123.22 13.8278 123.22 15.1282C123.22 16.3635 122.781 17.3712 121.904 18.1514C121.058 18.9316 119.872 19.3217 118.344 19.3217ZM114.248 50.2855V24.3442H122.489V50.2855H114.248Z" fill="#333333"/>
<path d="M132.292 50.2855V31.5122H127.806V24.3442H132.292V17.8101H140.582V24.3442H145.409V31.5122H140.582V50.2855H132.292Z" fill="#333333"/>
<path d="M162.548 50.7731C159.655 50.7731 157.136 50.2042 154.99 49.0665C152.877 47.8962 151.236 46.3033 150.065 44.2878C148.895 42.2723 148.31 39.9805 148.31 37.4124C148.31 34.7467 148.879 32.4061 150.017 30.3906C151.154 28.3426 152.715 26.7335 154.698 25.5632C156.681 24.3929 158.94 23.8078 161.476 23.8078C163.914 23.8078 166.076 24.3767 167.961 25.5144C169.847 26.6522 171.309 28.2126 172.35 30.1956C173.39 32.1786 173.894 34.4379 173.861 36.9735L173.813 39.0703H156.307C156.73 40.4681 157.542 41.5734 158.745 42.3861C159.98 43.1988 161.557 43.6051 163.475 43.6051C164.548 43.6051 165.49 43.4588 166.303 43.1663C167.148 42.8412 168.042 42.3048 168.985 41.5571L172.837 47.0185C171.212 48.3513 169.538 49.3103 167.815 49.8954C166.092 50.4805 164.336 50.7731 162.548 50.7731ZM161.622 30.6344C158.664 30.6344 156.86 31.9673 156.209 34.6329H166.254V34.5842C166.189 33.4464 165.718 32.5037 164.84 31.756C163.995 31.0083 162.922 30.6344 161.622 30.6344Z" fill="#333333"/>
<path d="M179.222 50.2855V14.2017H187.512V33.1213L195.996 24.3442H206.87L194.875 35.5594L206.529 50.2855H196.825L189.511 40.6306L187.512 42.4836V50.2855H179.222Z" fill="#333333"/>
</svg>
