<svg width="264" height="50" viewBox="0 0 264 50" fill="none" xmlns="http://www.w3.org/2000/svg">
<rect x="7" y="10" width="86" height="30" rx="3" fill="#74A3EE"/>
<path d="M39.4878 28.06C39.2545 28.06 39.0645 27.99 38.9178 27.85C38.7778 27.7033 38.7078 27.5133 38.7078 27.28V21.68C38.7078 21.4467 38.7711 21.2667 38.8978 21.14C39.0245 21.0133 39.2045 20.95 39.4378 20.95H42.8778C43.1311 20.95 43.3178 21 43.4378 21.1C43.5578 21.2 43.6178 21.3567 43.6178 21.57C43.6178 21.7767 43.5578 21.93 43.4378 22.03C43.3178 22.13 43.1311 22.18 42.8778 22.18H40.2478V23.8H42.6778C42.9311 23.8 43.1178 23.85 43.2378 23.95C43.3578 24.05 43.4178 24.2067 43.4178 24.42C43.4178 24.6267 43.3578 24.78 43.2378 24.88C43.1178 24.98 42.9311 25.03 42.6778 25.03H40.2478V27.28C40.2478 27.52 40.1778 27.71 40.0378 27.85C39.9045 27.99 39.7211 28.06 39.4878 28.06ZM45.1605 28C44.9271 28 44.7471 27.9367 44.6205 27.81C44.4938 27.6833 44.4305 27.5033 44.4305 27.27V21.67C44.4305 21.4367 44.5005 21.25 44.6405 21.11C44.7805 20.97 44.9705 20.9 45.2105 20.9C45.4505 20.9 45.6405 20.97 45.7805 21.11C45.9205 21.25 45.9905 21.4367 45.9905 21.67V26.73H48.5505C49.0371 26.73 49.2805 26.9433 49.2805 27.37C49.2805 27.79 49.0371 28 48.5505 28H45.1605ZM50.7952 28C50.5619 28 50.3819 27.9367 50.2552 27.81C50.1286 27.6833 50.0652 27.5033 50.0652 27.27V21.68C50.0652 21.4467 50.1286 21.2667 50.2552 21.14C50.3819 21.0133 50.5619 20.95 50.7952 20.95H54.3352C54.8286 20.95 55.0752 21.15 55.0752 21.55C55.0752 21.9567 54.8286 22.16 54.3352 22.16H51.5852V23.81H54.1352C54.6286 23.81 54.8752 24.0133 54.8752 24.42C54.8752 24.82 54.6286 25.02 54.1352 25.02H51.5852V26.79H54.3352C54.8286 26.79 55.0752 26.9933 55.0752 27.4C55.0752 27.8 54.8286 28 54.3352 28H50.7952ZM61.5641 26.88C61.6908 27.0267 61.7541 27.18 61.7541 27.34C61.7541 27.5333 61.6775 27.7033 61.5241 27.85C61.3775 27.99 61.2075 28.06 61.0141 28.06C60.8141 28.06 60.6441 27.9767 60.5041 27.81L58.6241 25.51L56.7241 27.81C56.5775 27.9767 56.4075 28.06 56.2141 28.06C56.0275 28.06 55.8575 27.99 55.7041 27.85C55.5575 27.7033 55.4841 27.5333 55.4841 27.34C55.4841 27.1733 55.5441 27.02 55.6641 26.88L57.7141 24.44L55.7341 22.07C55.6075 21.9233 55.5441 21.77 55.5441 21.61C55.5441 21.4167 55.6175 21.25 55.7641 21.11C55.9175 20.9633 56.0875 20.89 56.2741 20.89C56.4741 20.89 56.6475 20.9767 56.7941 21.15L58.6241 23.36L60.4341 21.15C60.5808 20.9767 60.7541 20.89 60.9541 20.89C61.1408 20.89 61.3075 20.9633 61.4541 21.11C61.6075 21.25 61.6841 21.4167 61.6841 21.61C61.6841 21.7767 61.6241 21.93 61.5041 22.07L59.5241 24.44L61.5641 26.88Z" fill="#DFE8F5"/>
<path d="M85.5 21.5L88.5 24.5L85.5 27.5" stroke="#DFE8F5" stroke-linecap="round" stroke-linejoin="round"/>
<path d="M14.5 21.5L11.5 24.5L14.5 27.5" stroke="#DFE8F5" stroke-linecap="round" stroke-linejoin="round"/>
<rect x="98" y="10" width="68" height="30" rx="3" fill="#DFE8F5"/>
<path d="M109.47 28.09C108.777 28.09 108.17 27.9433 107.65 27.65C107.13 27.3567 106.73 26.9367 106.45 26.39C106.17 25.8433 106.03 25.2033 106.03 24.47C106.03 23.7367 106.17 23.1 106.45 22.56C106.73 22.0133 107.13 21.5933 107.65 21.3C108.17 21.0067 108.777 20.86 109.47 20.86C110.344 20.86 111.097 21.1 111.73 21.58C111.83 21.66 111.9 21.74 111.94 21.82C111.98 21.9 112 22 112 22.12C112 22.2933 111.95 22.4433 111.85 22.57C111.757 22.69 111.64 22.75 111.5 22.75C111.407 22.75 111.324 22.74 111.25 22.72C111.184 22.6933 111.107 22.65 111.02 22.59C110.754 22.4167 110.507 22.2933 110.28 22.22C110.054 22.14 109.81 22.1 109.55 22.1C108.91 22.1 108.427 22.3 108.1 22.7C107.78 23.0933 107.62 23.6833 107.62 24.47C107.62 26.0567 108.264 26.85 109.55 26.85C109.797 26.85 110.03 26.8133 110.25 26.74C110.47 26.66 110.727 26.5333 111.02 26.36C111.12 26.3 111.204 26.26 111.27 26.24C111.337 26.2133 111.414 26.2 111.5 26.2C111.64 26.2 111.757 26.2633 111.85 26.39C111.95 26.51 112 26.6567 112 26.83C112 26.95 111.977 27.0533 111.93 27.14C111.89 27.22 111.824 27.2967 111.73 27.37C111.097 27.85 110.344 28.09 109.47 28.09ZM113.738 28C113.504 28 113.324 27.9367 113.198 27.81C113.071 27.6833 113.008 27.5033 113.008 27.27V21.68C113.008 21.4467 113.071 21.2667 113.198 21.14C113.324 21.0133 113.504 20.95 113.738 20.95H117.278C117.771 20.95 118.018 21.15 118.018 21.55C118.018 21.9567 117.771 22.16 117.278 22.16H114.528V23.81H117.078C117.571 23.81 117.818 24.0133 117.818 24.42C117.818 24.82 117.571 25.02 117.078 25.02H114.528V26.79H117.278C117.771 26.79 118.018 26.9933 118.018 27.4C118.018 27.8 117.771 28 117.278 28H113.738ZM124.315 20.9C124.535 20.9 124.712 20.9733 124.845 21.12C124.985 21.26 125.055 21.4433 125.055 21.67V27.28C125.055 27.5133 124.985 27.7033 124.845 27.85C124.712 27.99 124.535 28.06 124.315 28.06C124.075 28.06 123.882 27.9733 123.735 27.8L120.385 23.51V27.28C120.385 27.5133 120.319 27.7033 120.185 27.85C120.059 27.99 119.885 28.06 119.665 28.06C119.445 28.06 119.269 27.99 119.135 27.85C119.002 27.7033 118.935 27.5133 118.935 27.28V21.67C118.935 21.4433 119.002 21.26 119.135 21.12C119.275 20.9733 119.455 20.9 119.675 20.9C119.922 20.9 120.112 20.9867 120.245 21.16L123.595 25.42V21.67C123.595 21.4433 123.662 21.26 123.795 21.12C123.929 20.9733 124.102 20.9 124.315 20.9ZM128.865 28.05C128.632 28.05 128.442 27.98 128.295 27.84C128.155 27.7 128.085 27.5133 128.085 27.28V22.22H126.465C125.972 22.22 125.725 22.0067 125.725 21.58C125.725 21.16 125.972 20.95 126.465 20.95H131.265C131.758 20.95 132.005 21.16 132.005 21.58C132.005 22.0067 131.758 22.22 131.265 22.22H129.645V27.28C129.645 27.5133 129.575 27.7 129.435 27.84C129.295 27.98 129.105 28.05 128.865 28.05ZM133.406 28C133.172 28 132.992 27.9367 132.866 27.81C132.739 27.6833 132.676 27.5033 132.676 27.27V21.68C132.676 21.4467 132.739 21.2667 132.866 21.14C132.992 21.0133 133.172 20.95 133.406 20.95H136.946C137.439 20.95 137.686 21.15 137.686 21.55C137.686 21.9567 137.439 22.16 136.946 22.16H134.196V23.81H136.746C137.239 23.81 137.486 24.0133 137.486 24.42C137.486 24.82 137.239 25.02 136.746 25.02H134.196V26.79H136.946C137.439 26.79 137.686 26.9933 137.686 27.4C137.686 27.8 137.439 28 136.946 28H133.406ZM144.383 27.01C144.483 27.1567 144.533 27.3 144.533 27.44C144.533 27.6267 144.457 27.78 144.303 27.9C144.157 28.02 143.983 28.08 143.783 28.08C143.657 28.08 143.533 28.05 143.413 27.99C143.293 27.93 143.193 27.8367 143.113 27.71L141.793 25.75C141.68 25.5767 141.56 25.4533 141.433 25.38C141.307 25.3 141.147 25.26 140.953 25.26H140.143V27.28C140.143 27.52 140.073 27.71 139.933 27.85C139.8 27.99 139.617 28.06 139.383 28.06C139.143 28.06 138.953 27.99 138.813 27.85C138.673 27.71 138.603 27.52 138.603 27.28V21.68C138.603 21.4467 138.667 21.2667 138.793 21.14C138.92 21.0133 139.1 20.95 139.333 20.95H141.843C142.67 20.95 143.293 21.1333 143.713 21.5C144.14 21.86 144.353 22.3833 144.353 23.07C144.353 23.61 144.203 24.06 143.903 24.42C143.603 24.78 143.18 25.0167 142.633 25.13C142.833 25.17 143.01 25.25 143.163 25.37C143.323 25.4833 143.477 25.65 143.623 25.87L144.383 27.01ZM141.613 24.08C142.06 24.08 142.383 24.0033 142.583 23.85C142.783 23.69 142.883 23.4433 142.883 23.11C142.883 22.77 142.783 22.5233 142.583 22.37C142.383 22.2167 142.06 22.14 141.613 22.14H140.123V24.08H141.613ZM146.345 28C146.112 28 145.932 27.9367 145.805 27.81C145.678 27.6833 145.615 27.5033 145.615 27.27V21.68C145.615 21.4467 145.678 21.2667 145.805 21.14C145.932 21.0133 146.112 20.95 146.345 20.95H149.885C150.378 20.95 150.625 21.15 150.625 21.55C150.625 21.9567 150.378 22.16 149.885 22.16H147.135V23.81H149.685C150.178 23.81 150.425 24.0133 150.425 24.42C150.425 24.82 150.178 25.02 149.685 25.02H147.135V26.79H149.885C150.378 26.79 150.625 26.9933 150.625 27.4C150.625 27.8 150.378 28 149.885 28H146.345ZM152.273 28C152.039 28 151.859 27.9367 151.733 27.81C151.606 27.6833 151.543 27.5033 151.543 27.27V21.68C151.543 21.4467 151.606 21.2667 151.733 21.14C151.859 21.0133 152.039 20.95 152.273 20.95H154.283C155.049 20.95 155.709 21.09 156.263 21.37C156.816 21.65 157.239 22.0533 157.533 22.58C157.826 23.1067 157.973 23.7367 157.973 24.47C157.973 25.2033 157.826 25.8367 157.533 26.37C157.246 26.8967 156.826 27.3 156.273 27.58C155.719 27.86 155.056 28 154.283 28H152.273ZM154.173 26.74C155.673 26.74 156.423 25.9833 156.423 24.47C156.423 22.9633 155.673 22.21 154.173 22.21H153.103V26.74H154.173Z" fill="#74A3EE"/>
<rect x="171" y="10" width="86" height="30" rx="3" fill="#74A3EE"/>
<path d="M203.488 28.06C203.254 28.06 203.064 27.99 202.918 27.85C202.778 27.7033 202.708 27.5133 202.708 27.28V21.68C202.708 21.4467 202.771 21.2667 202.898 21.14C203.024 21.0133 203.204 20.95 203.438 20.95H206.878C207.131 20.95 207.318 21 207.438 21.1C207.558 21.2 207.618 21.3567 207.618 21.57C207.618 21.7767 207.558 21.93 207.438 22.03C207.318 22.13 207.131 22.18 206.878 22.18H204.248V23.8H206.678C206.931 23.8 207.118 23.85 207.238 23.95C207.358 24.05 207.418 24.2067 207.418 24.42C207.418 24.6267 207.358 24.78 207.238 24.88C207.118 24.98 206.931 25.03 206.678 25.03H204.248V27.28C204.248 27.52 204.178 27.71 204.038 27.85C203.904 27.99 203.721 28.06 203.488 28.06ZM209.16 28C208.927 28 208.747 27.9367 208.62 27.81C208.494 27.6833 208.43 27.5033 208.43 27.27V21.67C208.43 21.4367 208.5 21.25 208.64 21.11C208.78 20.97 208.97 20.9 209.21 20.9C209.45 20.9 209.64 20.97 209.78 21.11C209.92 21.25 209.99 21.4367 209.99 21.67V26.73H212.55C213.037 26.73 213.28 26.9433 213.28 27.37C213.28 27.79 213.037 28 212.55 28H209.16ZM214.795 28C214.562 28 214.382 27.9367 214.255 27.81C214.129 27.6833 214.065 27.5033 214.065 27.27V21.68C214.065 21.4467 214.129 21.2667 214.255 21.14C214.382 21.0133 214.562 20.95 214.795 20.95H218.335C218.829 20.95 219.075 21.15 219.075 21.55C219.075 21.9567 218.829 22.16 218.335 22.16H215.585V23.81H218.135C218.629 23.81 218.875 24.0133 218.875 24.42C218.875 24.82 218.629 25.02 218.135 25.02H215.585V26.79H218.335C218.829 26.79 219.075 26.9933 219.075 27.4C219.075 27.8 218.829 28 218.335 28H214.795ZM225.564 26.88C225.691 27.0267 225.754 27.18 225.754 27.34C225.754 27.5333 225.677 27.7033 225.524 27.85C225.377 27.99 225.207 28.06 225.014 28.06C224.814 28.06 224.644 27.9767 224.504 27.81L222.624 25.51L220.724 27.81C220.577 27.9767 220.407 28.06 220.214 28.06C220.027 28.06 219.857 27.99 219.704 27.85C219.557 27.7033 219.484 27.5333 219.484 27.34C219.484 27.1733 219.544 27.02 219.664 26.88L221.714 24.44L219.734 22.07C219.607 21.9233 219.544 21.77 219.544 21.61C219.544 21.4167 219.617 21.25 219.764 21.11C219.917 20.9633 220.087 20.89 220.274 20.89C220.474 20.89 220.647 20.9767 220.794 21.15L222.624 23.36L224.434 21.15C224.581 20.9767 224.754 20.89 224.954 20.89C225.141 20.89 225.307 20.9633 225.454 21.11C225.607 21.25 225.684 21.4167 225.684 21.61C225.684 21.7767 225.624 21.93 225.504 22.07L223.524 24.44L225.564 26.88Z" fill="#DFE8F5"/>
<path d="M249.5 21.5L252.5 24.5L249.5 27.5" stroke="#DFE8F5" stroke-linecap="round" stroke-linejoin="round"/>
<path d="M178.5 21.5L175.5 24.5L178.5 27.5" stroke="#DFE8F5" stroke-linecap="round" stroke-linejoin="round"/>
</svg>
