<svg width="264" height="50" viewBox="0 0 264 50" fill="none" xmlns="http://www.w3.org/2000/svg">
<rect x="7" y="10" width="46" height="30" rx="3" fill="#DFE8F5"/>
<rect x="57" y="10" width="116" height="30" rx="3" fill="#74A3EE"/>
<rect x="177" y="10" width="80" height="30" rx="3" fill="#DFE8F5"/>
<path d="M104.488 28.06C104.254 28.06 104.064 27.99 103.918 27.85C103.778 27.7033 103.708 27.5133 103.708 27.28V21.68C103.708 21.4467 103.771 21.2667 103.898 21.14C104.024 21.0133 104.204 20.95 104.438 20.95H107.878C108.131 20.95 108.318 21 108.438 21.1C108.558 21.2 108.618 21.3567 108.618 21.57C108.618 21.7767 108.558 21.93 108.438 22.03C108.318 22.13 108.131 22.18 107.878 22.18H105.248V23.8H107.678C107.931 23.8 108.118 23.85 108.238 23.95C108.358 24.05 108.418 24.2067 108.418 24.42C108.418 24.6267 108.358 24.78 108.238 24.88C108.118 24.98 107.931 25.03 107.678 25.03H105.248V27.28C105.248 27.52 105.178 27.71 105.038 27.85C104.904 27.99 104.721 28.06 104.488 28.06ZM110.16 28C109.927 28 109.747 27.9367 109.62 27.81C109.494 27.6833 109.43 27.5033 109.43 27.27V21.67C109.43 21.4367 109.5 21.25 109.64 21.11C109.78 20.97 109.97 20.9 110.21 20.9C110.45 20.9 110.64 20.97 110.78 21.11C110.92 21.25 110.99 21.4367 110.99 21.67V26.73H113.55C114.037 26.73 114.28 26.9433 114.28 27.37C114.28 27.79 114.037 28 113.55 28H110.16ZM115.795 28C115.562 28 115.382 27.9367 115.255 27.81C115.129 27.6833 115.065 27.5033 115.065 27.27V21.68C115.065 21.4467 115.129 21.2667 115.255 21.14C115.382 21.0133 115.562 20.95 115.795 20.95H119.335C119.829 20.95 120.075 21.15 120.075 21.55C120.075 21.9567 119.829 22.16 119.335 22.16H116.585V23.81H119.135C119.629 23.81 119.875 24.0133 119.875 24.42C119.875 24.82 119.629 25.02 119.135 25.02H116.585V26.79H119.335C119.829 26.79 120.075 26.9933 120.075 27.4C120.075 27.8 119.829 28 119.335 28H115.795ZM126.564 26.88C126.691 27.0267 126.754 27.18 126.754 27.34C126.754 27.5333 126.677 27.7033 126.524 27.85C126.377 27.99 126.207 28.06 126.014 28.06C125.814 28.06 125.644 27.9767 125.504 27.81L123.624 25.51L121.724 27.81C121.577 27.9767 121.407 28.06 121.214 28.06C121.027 28.06 120.857 27.99 120.704 27.85C120.557 27.7033 120.484 27.5333 120.484 27.34C120.484 27.1733 120.544 27.02 120.664 26.88L122.714 24.44L120.734 22.07C120.607 21.9233 120.544 21.77 120.544 21.61C120.544 21.4167 120.617 21.25 120.764 21.11C120.917 20.9633 121.087 20.89 121.274 20.89C121.474 20.89 121.647 20.9767 121.794 21.15L123.624 23.36L125.434 21.15C125.581 20.9767 125.754 20.89 125.954 20.89C126.141 20.89 126.307 20.9633 126.454 21.11C126.607 21.25 126.684 21.4167 126.684 21.61C126.684 21.7767 126.624 21.93 126.504 22.07L124.524 24.44L126.564 26.88Z" fill="#DFE8F5"/>
<path d="M19.4878 28.06C19.2545 28.06 19.0645 27.99 18.9178 27.85C18.7778 27.7033 18.7078 27.5133 18.7078 27.28V21.68C18.7078 21.4467 18.7711 21.2667 18.8978 21.14C19.0245 21.0133 19.2045 20.95 19.4378 20.95H22.8778C23.1311 20.95 23.3178 21 23.4378 21.1C23.5578 21.2 23.6178 21.3567 23.6178 21.57C23.6178 21.7767 23.5578 21.93 23.4378 22.03C23.3178 22.13 23.1311 22.18 22.8778 22.18H20.2478V23.8H22.6778C22.9311 23.8 23.1178 23.85 23.2378 23.95C23.3578 24.05 23.4178 24.2067 23.4178 24.42C23.4178 24.6267 23.3578 24.78 23.2378 24.88C23.1178 24.98 22.9311 25.03 22.6778 25.03H20.2478V27.28C20.2478 27.52 20.1778 27.71 20.0378 27.85C19.9045 27.99 19.7211 28.06 19.4878 28.06ZM25.1605 28C24.9271 28 24.7471 27.9367 24.6205 27.81C24.4938 27.6833 24.4305 27.5033 24.4305 27.27V21.67C24.4305 21.4367 24.5005 21.25 24.6405 21.11C24.7805 20.97 24.9705 20.9 25.2105 20.9C25.4505 20.9 25.6405 20.97 25.7805 21.11C25.9205 21.25 25.9905 21.4367 25.9905 21.67V26.73H28.5505C29.0371 26.73 29.2805 26.9433 29.2805 27.37C29.2805 27.79 29.0371 28 28.5505 28H25.1605ZM30.7952 28C30.5619 28 30.3819 27.9367 30.2552 27.81C30.1286 27.6833 30.0652 27.5033 30.0652 27.27V21.68C30.0652 21.4467 30.1286 21.2667 30.2552 21.14C30.3819 21.0133 30.5619 20.95 30.7952 20.95H34.3352C34.8286 20.95 35.0752 21.15 35.0752 21.55C35.0752 21.9567 34.8286 22.16 34.3352 22.16H31.5852V23.81H34.1352C34.6286 23.81 34.8752 24.0133 34.8752 24.42C34.8752 24.82 34.6286 25.02 34.1352 25.02H31.5852V26.79H34.3352C34.8286 26.79 35.0752 26.9933 35.0752 27.4C35.0752 27.8 34.8286 28 34.3352 28H30.7952ZM41.5641 26.88C41.6908 27.0267 41.7541 27.18 41.7541 27.34C41.7541 27.5333 41.6775 27.7033 41.5241 27.85C41.3775 27.99 41.2075 28.06 41.0141 28.06C40.8141 28.06 40.6441 27.9767 40.5041 27.81L38.6241 25.51L36.7241 27.81C36.5775 27.9767 36.4075 28.06 36.2141 28.06C36.0275 28.06 35.8575 27.99 35.7041 27.85C35.5575 27.7033 35.4841 27.5333 35.4841 27.34C35.4841 27.1733 35.5441 27.02 35.6641 26.88L37.7141 24.44L35.7341 22.07C35.6075 21.9233 35.5441 21.77 35.5441 21.61C35.5441 21.4167 35.6175 21.25 35.7641 21.11C35.9175 20.9633 36.0875 20.89 36.2741 20.89C36.4741 20.89 36.6475 20.9767 36.7941 21.15L38.6241 23.36L40.4341 21.15C40.5808 20.9767 40.7541 20.89 40.9541 20.89C41.1408 20.89 41.3075 20.9633 41.4541 21.11C41.6075 21.25 41.6841 21.4167 41.6841 21.61C41.6841 21.7767 41.6241 21.93 41.5041 22.07L39.5241 24.44L41.5641 26.88Z" fill="#74A3EE"/>
<path d="M206.488 28.06C206.254 28.06 206.064 27.99 205.918 27.85C205.778 27.7033 205.708 27.5133 205.708 27.28V21.68C205.708 21.4467 205.771 21.2667 205.898 21.14C206.024 21.0133 206.204 20.95 206.438 20.95H209.878C210.131 20.95 210.318 21 210.438 21.1C210.558 21.2 210.618 21.3567 210.618 21.57C210.618 21.7767 210.558 21.93 210.438 22.03C210.318 22.13 210.131 22.18 209.878 22.18H207.248V23.8H209.678C209.931 23.8 210.118 23.85 210.238 23.95C210.358 24.05 210.418 24.2067 210.418 24.42C210.418 24.6267 210.358 24.78 210.238 24.88C210.118 24.98 209.931 25.03 209.678 25.03H207.248V27.28C207.248 27.52 207.178 27.71 207.038 27.85C206.904 27.99 206.721 28.06 206.488 28.06ZM212.16 28C211.927 28 211.747 27.9367 211.62 27.81C211.494 27.6833 211.43 27.5033 211.43 27.27V21.67C211.43 21.4367 211.5 21.25 211.64 21.11C211.78 20.97 211.97 20.9 212.21 20.9C212.45 20.9 212.64 20.97 212.78 21.11C212.92 21.25 212.99 21.4367 212.99 21.67V26.73H215.55C216.037 26.73 216.28 26.9433 216.28 27.37C216.28 27.79 216.037 28 215.55 28H212.16ZM217.795 28C217.562 28 217.382 27.9367 217.255 27.81C217.129 27.6833 217.065 27.5033 217.065 27.27V21.68C217.065 21.4467 217.129 21.2667 217.255 21.14C217.382 21.0133 217.562 20.95 217.795 20.95H221.335C221.829 20.95 222.075 21.15 222.075 21.55C222.075 21.9567 221.829 22.16 221.335 22.16H218.585V23.81H221.135C221.629 23.81 221.875 24.0133 221.875 24.42C221.875 24.82 221.629 25.02 221.135 25.02H218.585V26.79H221.335C221.829 26.79 222.075 26.9933 222.075 27.4C222.075 27.8 221.829 28 221.335 28H217.795ZM228.564 26.88C228.691 27.0267 228.754 27.18 228.754 27.34C228.754 27.5333 228.677 27.7033 228.524 27.85C228.377 27.99 228.207 28.06 228.014 28.06C227.814 28.06 227.644 27.9767 227.504 27.81L225.624 25.51L223.724 27.81C223.577 27.9767 223.407 28.06 223.214 28.06C223.027 28.06 222.857 27.99 222.704 27.85C222.557 27.7033 222.484 27.5333 222.484 27.34C222.484 27.1733 222.544 27.02 222.664 26.88L224.714 24.44L222.734 22.07C222.607 21.9233 222.544 21.77 222.544 21.61C222.544 21.4167 222.617 21.25 222.764 21.11C222.917 20.9633 223.087 20.89 223.274 20.89C223.474 20.89 223.647 20.9767 223.794 21.15L225.624 23.36L227.434 21.15C227.581 20.9767 227.754 20.89 227.954 20.89C228.141 20.89 228.307 20.9633 228.454 21.11C228.607 21.25 228.684 21.4167 228.684 21.61C228.684 21.7767 228.624 21.93 228.504 22.07L226.524 24.44L228.564 26.88Z" fill="#74A3EE"/>
<path d="M165.5 21.5L168.5 24.5L165.5 27.5" stroke="#DFE8F5" stroke-linecap="round" stroke-linejoin="round"/>
<path d="M64.5 21.5L61.5 24.5L64.5 27.5" stroke="#DFE8F5" stroke-linecap="round" stroke-linejoin="round"/>
</svg>
