<svg width="55" height="55" viewBox="0 0 55 55" fill="none" xmlns="http://www.w3.org/2000/svg">
<mask id="mask0" mask-type="alpha" maskUnits="userSpaceOnUse" x="0" y="0" width="55" height="55">
<circle r="27.5" transform="matrix(-1 0 0 1 27.5 27.5)" fill="url(#paint0_linear)"/>
</mask>
<g mask="url(#mask0)">
<circle r="27.5" transform="matrix(-1 0 0 1 27.5 27.5)" fill="url(#paint1_linear)"/>
<path d="M1.46368 56.5957H60.3516C60.3516 56.5957 69.0828 30.4922 60.3516 18.3965C48.8114 2.40936 28.1393 22.9412 9.95691 15.3146C2.82576 12.3235 -0.0260391 2.96453 -7.15947 5.35772C-18.9444 9.31145 1.46368 56.5957 1.46368 56.5957Z" fill="url(#paint2_radial)"/>
<path d="M-1.05493 59.3704H57.833C57.833 59.3704 70.4481 28.335 57.833 18.6582C44.1146 8.135 28.5287 38.066 8.4814 34.9211C1.04813 33.7551 -2.63947 26.3641 -9.7729 28.7573C-21.5578 32.7111 -1.05493 59.3704 -1.05493 59.3704Z" fill="url(#paint3_radial)"/>
<path d="M-1.99137 60.6895H56.8966C56.8966 60.6895 71.3124 26.7014 56.8966 20.8619C42.5033 15.0315 44.1245 45.337 29.1121 49.3102C13.1269 53.5409 -5.95702 20.3172 -11.0948 36.0343C-14.2839 45.7901 -1.99137 60.6895 -1.99137 60.6895Z" fill="url(#paint4_radial)"/>
<path d="M0 27.5C0 42.6878 12.3122 55 27.5 55C42.6878 55 55 42.6878 55 27.5C55 12.3122 42.6878 0 27.5 0C12.3122 0 0 12.3122 0 27.5Z" fill="url(#paint5_radial)" fill-opacity="0.8"/>
</g>
<defs>
<linearGradient id="paint0_linear" x1="30.1442" y1="25.0321" x2="9.95994" y2="48.5657" gradientUnits="userSpaceOnUse">
<stop stop-color="#2F4077"/>
<stop offset="1" stop-color="#132253"/>
</linearGradient>
<linearGradient id="paint1_linear" x1="30.1442" y1="25.0321" x2="9.95994" y2="48.5657" gradientUnits="userSpaceOnUse">
<stop stop-color="#DC4B0D"/>
<stop offset="1" stop-color="#8C2E06"/>
</linearGradient>
<radialGradient id="paint2_radial" cx="0" cy="0" r="1" gradientUnits="userSpaceOnUse" gradientTransform="translate(25.4612 16.2155) rotate(78.5841) scale(20.1222 91.6486)">
<stop stop-color="#C53D1F"/>
<stop offset="1" stop-color="#B74E37" stop-opacity="0"/>
<stop offset="1" stop-color="#C53D1F" stop-opacity="0"/>
</radialGradient>
<radialGradient id="paint3_radial" cx="0" cy="0" r="1" gradientUnits="userSpaceOnUse" gradientTransform="translate(23.7344 25.7639) rotate(76.0462) scale(16.9145 92.9261)">
<stop stop-color="#C53D1F"/>
<stop offset="1" stop-color="#C53D1F" stop-opacity="0"/>
</radialGradient>
<radialGradient id="paint4_radial" cx="0" cy="0" r="1" gradientUnits="userSpaceOnUse" gradientTransform="translate(20.056 32.7628) rotate(56.6147) scale(32.1396 181.585)">
<stop stop-color="#C53D1F"/>
<stop offset="1" stop-color="#C53D1F" stop-opacity="0"/>
</radialGradient>
<radialGradient id="paint5_radial" cx="0" cy="0" r="1" gradientUnits="userSpaceOnUse" gradientTransform="translate(35.3571 20.2321) rotate(138.225) scale(39.509 43.9146)">
<stop stop-color="#4CADF6" stop-opacity="0"/>
<stop offset="0.409621" stop-color="#4BB4F5" stop-opacity="0"/>
<stop offset="1" stop-color="#4DB0F6"/>
</radialGradient>
</defs>
</svg>
