<svg width="359" height="291" viewBox="0 0 359 291" fill="none" xmlns="http://www.w3.org/2000/svg">
<mask id="mask0" mask-type="alpha" maskUnits="userSpaceOnUse" x="106" y="72" width="146" height="146">
<ellipse rx="72.5275" ry="72.5" transform="matrix(0.866025 0.5 0.499555 -0.866282 178.587 145.003)" fill="url(#paint0_linear)"/>
</mask>
<g mask="url(#mask0)">
<circle r="72.5151" transform="matrix(-0.96566 0.258818 -0.259317 -0.966058 178.583 145)" fill="url(#paint1_linear)"/>
<circle r="72.5151" transform="matrix(-0.96566 0.258818 -0.259317 -0.966058 178.583 145)" fill="url(#paint2_radial)"/>
<path d="M108.558 163.768C98.1731 125.079 121.105 85.3119 159.779 74.9465C198.453 64.5811 238.223 87.5425 248.608 126.232C258.994 164.922 236.061 204.689 197.388 215.054C158.714 225.419 118.944 202.458 108.558 163.768Z" fill="url(#paint3_radial)"/>
</g>
<path d="M188.246 128.255C248.953 163.304 293.841 199.215 288.507 208.465C285.165 214.26 262.901 208.214 231.807 194.27L235.636 189.78C252.865 196.698 264.523 199.242 266.523 195.772C270.524 188.835 234.397 160.481 185.832 132.442C137.267 104.403 94.654 87.2966 90.6534 94.234C88.6521 97.7045 96.6935 106.535 111.311 118.005L109.327 123.556C81.7006 103.598 65.3278 87.337 68.6697 81.5416C74.0037 72.2919 127.54 93.2062 188.246 128.255Z" fill="url(#paint4_linear)"/>
<path d="M193.599 120.183C272.517 165.747 330.007 213.931 322.006 227.805C316.096 238.054 276.106 226.716 223.802 201.727L230.066 196.079C264.47 211.513 289.526 218.071 293.427 211.305C299.428 200.899 253.112 162.914 189.977 126.464C126.843 90.013 70.7972 68.8994 64.7964 79.3054C60.9393 85.994 78.697 104.077 108.643 125.823L106.893 134.115C59.7005 101.604 30.3503 72.9798 36.2176 62.8054C44.2186 48.9308 114.68 74.6196 193.599 120.183Z" fill="url(#paint5_linear)"/>
<g opacity="0.5">
<path d="M107.583 131.42C66.6087 102.705 41.5038 77.8356 46.6854 68.8502C54.0197 56.1318 119.254 80.052 192.391 122.277C265.528 164.503 318.871 209.044 311.537 221.762C306.314 230.82 271.722 221.294 225.823 199.807M108.303 127.57C72.5214 102.376 50.7581 81.1456 55.0602 73.6853C61.3943 62.7013 121.834 85.7274 190.057 125.116C258.279 164.504 308.449 205.339 302.115 216.323C297.813 223.784 268.546 215.552 228.832 197.16M109.885 122.065C86.5612 104.779 73.0396 90.9018 75.9971 85.7732C80.9977 77.1016 131.217 96.7257 188.166 129.605C245.114 162.484 287.226 196.167 282.225 204.839C279.227 210.038 259.972 205.065 232.758 193.162M110.713 119.72C91.0924 105.064 79.8631 93.5875 82.2781 89.3996C86.612 81.8842 133.245 100.687 186.435 131.396C239.625 162.106 279.231 193.093 274.897 200.608C272.482 204.796 256.933 200.812 234.435 191.15" stroke="url(#paint6_linear)"/>
<path d="M107.583 131.42C66.6087 102.705 41.5038 77.8356 46.6854 68.8502C54.0197 56.1318 119.254 80.052 192.391 122.277C265.528 164.503 318.871 209.044 311.537 221.762C306.314 230.82 271.722 221.294 225.823 199.807M108.303 127.57C72.5214 102.376 50.7581 81.1456 55.0602 73.6853C61.3943 62.7013 121.834 85.7274 190.057 125.116C258.279 164.504 308.449 205.339 302.115 216.323C297.813 223.784 268.546 215.552 228.832 197.16M109.885 122.065C86.5612 104.779 73.0396 90.9018 75.9971 85.7732C80.9977 77.1016 131.217 96.7257 188.166 129.605C245.114 162.484 287.226 196.167 282.225 204.839C279.227 210.038 259.972 205.065 232.758 193.162M110.713 119.72C91.0924 105.064 79.8631 93.5875 82.2781 89.3996C86.612 81.8842 133.245 100.687 186.435 131.396C239.625 162.106 279.231 193.093 274.897 200.608C272.482 204.796 256.933 200.812 234.435 191.15" stroke="url(#paint7_radial)"/>
<path d="M107.583 131.42C66.6087 102.705 41.5038 77.8356 46.6854 68.8502C54.0197 56.1318 119.254 80.052 192.391 122.277C265.528 164.503 318.871 209.044 311.537 221.762C306.314 230.82 271.722 221.294 225.823 199.807M108.303 127.57C72.5214 102.376 50.7581 81.1456 55.0602 73.6853C61.3943 62.7013 121.834 85.7274 190.057 125.116C258.279 164.504 308.449 205.339 302.115 216.323C297.813 223.784 268.546 215.552 228.832 197.16M109.885 122.065C86.5612 104.779 73.0396 90.9018 75.9971 85.7732C80.9977 77.1016 131.217 96.7257 188.166 129.605C245.114 162.484 287.226 196.167 282.225 204.839C279.227 210.038 259.972 205.065 232.758 193.162M110.713 119.72C91.0924 105.064 79.8631 93.5875 82.2781 89.3996C86.612 81.8842 133.245 100.687 186.435 131.396C239.625 162.106 279.231 193.093 274.897 200.608C272.482 204.796 256.933 200.812 234.435 191.15" stroke="url(#paint8_radial)"/>
</g>
<defs>
<linearGradient id="paint0_linear" x1="79.5013" y1="65.9936" x2="26.2912" y2="128.057" gradientUnits="userSpaceOnUse">
<stop stop-color="#2F4077"/>
<stop offset="1" stop-color="#132253"/>
</linearGradient>
<linearGradient id="paint1_linear" x1="144.819" y1="-0.306279" x2="-0.306322" y2="144.819" gradientUnits="userSpaceOnUse">
<stop stop-color="#EBAA49"/>
<stop offset="1" stop-color="#E65130"/>
</linearGradient>
<radialGradient id="paint2_radial" cx="0" cy="0" r="1" gradientUnits="userSpaceOnUse" gradientTransform="translate(144.819 -0.306284) rotate(131.526) scale(161.703 481.58)">
<stop stop-color="#F5ECDE" stop-opacity="0"/>
<stop offset="0.535219" stop-color="#F5ECDE"/>
<stop offset="0.60891" stop-color="#F5ECDE" stop-opacity="0"/>
<stop offset="0.85751" stop-color="#F09D6E" stop-opacity="0.83"/>
<stop offset="0.88979" stop-color="#F09D6E" stop-opacity="0.87"/>
<stop offset="1" stop-color="#DD3E29"/>
</radialGradient>
<radialGradient id="paint3_radial" cx="0" cy="0" r="1" gradientUnits="userSpaceOnUse" gradientTransform="translate(206.676 137.583) rotate(-150.453) scale(195.486 157.894)">
<stop offset="0.175479" stop-color="#CF1D1D" stop-opacity="0"/>
<stop offset="0.81772" stop-color="#2051FF"/>
</radialGradient>
<linearGradient id="paint4_linear" x1="345.022" y1="91.1032" x2="53.8956" y2="148.471" gradientUnits="userSpaceOnUse">
<stop stop-color="#EBAA49"/>
<stop offset="0.494792" stop-color="#E65130"/>
<stop offset="0.859375" stop-color="#9F3B65"/>
<stop offset="1" stop-color="#5B3B9F"/>
</linearGradient>
<linearGradient id="paint5_linear" x1="345.022" y1="91.1032" x2="53.8956" y2="148.471" gradientUnits="userSpaceOnUse">
<stop stop-color="#EBAA49"/>
<stop offset="0.494792" stop-color="#E65130"/>
<stop offset="0.859375" stop-color="#9F3B65"/>
<stop offset="1" stop-color="#5B3B9F"/>
</linearGradient>
<linearGradient id="paint6_linear" x1="-53.2947" y1="70.4253" x2="344.491" y2="229.432" gradientUnits="userSpaceOnUse">
<stop stop-color="#9F3B65"/>
<stop offset="1" stop-color="#FFBA69"/>
</linearGradient>
<radialGradient id="paint7_radial" cx="0" cy="0" r="1" gradientUnits="userSpaceOnUse" gradientTransform="translate(102.535 122.024) rotate(-0.961988) scale(42.2766 42.2882)">
<stop stop-color="#B64354"/>
<stop offset="1" stop-color="#C94846" stop-opacity="0"/>
</radialGradient>
<radialGradient id="paint8_radial" cx="0" cy="0" r="1" gradientUnits="userSpaceOnUse" gradientTransform="translate(236.753 200.212) rotate(-116.102) scale(42.2479 42.2218)">
<stop stop-color="#E8743B"/>
<stop offset="1" stop-color="#E8743B" stop-opacity="0"/>
</radialGradient>
</defs>
</svg>
