<svg width="20" height="20" viewBox="0 0 20 20" fill="none" xmlns="http://www.w3.org/2000/svg">
<path d="M19.4401 0.558528C18.007 -0.878218 14.1386 0.548516 9.99961 3.78745C5.86565 0.548516 1.99727 -0.878218 0.559153 0.558528C-0.878964 1.99527 0.549131 5.86497 3.78615 10C0.549131 14.135 -0.878964 18.0047 0.559153 19.4415C1.99727 20.8782 5.86565 19.4515 9.99961 16.2125C14.1336 19.4515 18.002 20.8782 19.4401 19.4415C20.8782 18.0047 19.4501 14.135 16.2131 10C19.4551 5.85997 20.8782 1.99527 19.4401 0.558528ZM14.5445 8.0276C14.1436 7.58707 13.7277 7.14653 13.2918 6.711C12.8207 6.24043 12.3447 5.78488 11.8637 5.35435C13.8429 3.92262 15.6318 3.09161 16.7893 3.10162C16.7994 4.25802 15.9726 6.0502 14.5445 8.0276ZM8.03536 5.45448C7.5944 5.85496 7.15345 6.27547 6.71249 6.711C6.24147 7.18157 5.79049 7.65715 5.36457 8.13273C3.93146 6.15533 3.09966 4.35814 3.11469 3.20174C4.26719 3.19673 6.05607 4.02274 8.03536 5.45448ZM3.10968 16.7933C3.09966 15.6368 3.92645 13.8447 5.35956 11.8623C5.79049 12.3378 6.23646 12.8134 6.70748 13.284C7.14342 13.7245 7.58438 14.14 8.03035 14.5405C6.05607 15.9723 4.26719 16.8033 3.10968 16.7933ZM9.89439 13.0637C9.38829 12.6182 8.87718 12.1426 8.36607 11.632C7.8249 11.0913 7.3188 10.5407 6.84277 10C7.31379 9.45934 7.81989 8.90867 8.36607 8.36802C8.87217 7.8624 9.38328 7.38182 9.89439 6.93628C10.4406 7.41185 10.9918 7.92248 11.5379 8.46814C12.044 8.97876 12.5251 9.48938 12.9711 10C12.5251 10.5106 12.044 11.0262 11.5379 11.5319C10.9868 12.0775 10.4406 12.5881 9.89439 13.0637ZM16.7893 16.8934C15.6318 16.9034 13.8429 16.0724 11.8637 14.6406C12.3397 14.2101 12.8207 13.7596 13.2918 13.284C13.7277 12.8485 14.1436 12.4079 14.5445 11.9674C15.9726 13.9498 16.7994 15.737 16.7893 16.8934Z" fill="black" fill-opacity="0.2"/>
</svg>
