<svg width="300" height="200" viewBox="0 0 300 200" fill="none" xmlns="http://www.w3.org/2000/svg">
<rect width="300" height="200" fill="white"/>
<rect x="45" y="20" width="125" height="160" rx="3" fill="#74A3EE"/>
<path d="M108.646 97.1931C108.646 96.1411 109.518 95.2632 110.625 95.2632C111.732 95.2632 112.604 96.1411 112.604 97.1931C112.604 97.4275 112.562 97.6512 112.484 97.858C112.381 98.1297 112.516 98.4337 112.785 98.537C113.054 98.6404 113.355 98.5039 113.457 98.2323C113.579 97.9082 113.646 97.5578 113.646 97.1931C113.646 95.532 112.279 94.2105 110.625 94.2105C108.971 94.2105 107.604 95.532 107.604 97.1931C107.604 97.5578 107.671 97.9082 107.793 98.2323C107.895 98.5039 108.196 98.6404 108.465 98.537C108.734 98.4337 108.869 98.1297 108.766 97.858C108.688 97.6512 108.646 97.4275 108.646 97.1931Z" fill="#DFE8F5"/>
<path d="M104.775 98.6104C104.678 98.4921 104.534 98.4229 104.381 98.4211C104.229 98.4192 104.083 98.4849 103.983 98.6008L100.337 102.811C100.148 103.03 100.17 103.363 100.386 103.554C100.603 103.745 100.932 103.723 101.121 103.504L104.365 99.7578L106.579 102.442C106.761 102.662 107.083 102.695 107.305 102.516L109.572 100.683L112.89 103.557C113.109 103.747 113.437 103.721 113.625 103.5C113.812 103.28 113.787 102.947 113.568 102.758L109.922 99.6004C109.732 99.4358 109.453 99.431 109.258 99.589L107.052 101.372L104.775 98.6104Z" fill="#DFE8F5"/>
<path fill-rule="evenodd" clip-rule="evenodd" d="M96.5625 90C95.6996 90 95 90.7069 95 91.5789V108.421C95 109.293 95.6996 110 96.5625 110H118.437C119.3 110 120 109.293 120 108.421V91.5789C120 90.7069 119.3 90 118.437 90H96.5625ZM96.0417 91.5789C96.0417 91.2883 96.2749 91.0526 96.5625 91.0526H118.437C118.725 91.0526 118.958 91.2883 118.958 91.5789V108.421C118.958 108.712 118.725 108.947 118.437 108.947H96.5625C96.2749 108.947 96.0417 108.712 96.0417 108.421V91.5789Z" fill="#DFE8F5"/>
<rect x="180" y="20" width="75" height="160" rx="3" fill="#DFE8F5"/>
</svg>
