<svg width="300" height="200" viewBox="0 0 300 200" fill="none" xmlns="http://www.w3.org/2000/svg">
<rect width="300" height="200" fill="white"/>
<rect x="45" y="35" width="100" height="130" rx="3" fill="#74A3EE"/>
<path d="M96.6458 97.1931C96.6458 96.1411 97.518 95.2632 98.625 95.2632C99.732 95.2632 100.604 96.1411 100.604 97.1931C100.604 97.4275 100.562 97.6512 100.484 97.858C100.381 98.1297 100.516 98.4337 100.785 98.537C101.054 98.6404 101.355 98.5039 101.457 98.2323C101.579 97.9082 101.646 97.5578 101.646 97.1931C101.646 95.532 100.279 94.2105 98.625 94.2105C96.9705 94.2105 95.6042 95.532 95.6042 97.1931C95.6042 97.5578 95.6707 97.9082 95.7927 98.2323C95.895 98.5039 96.1958 98.6404 96.4647 98.537C96.7335 98.4337 96.8686 98.1297 96.7663 97.858C96.6885 97.6512 96.6458 97.4275 96.6458 97.1931Z" fill="#DFE8F5"/>
<path d="M92.7751 98.6104C92.6776 98.4921 92.5336 98.4229 92.3813 98.4211C92.2289 98.4192 92.0834 98.4849 91.983 98.6008L88.3372 102.811C88.1478 103.03 88.1697 103.363 88.3862 103.554C88.6027 103.745 88.9317 103.723 89.1211 103.504L92.3653 99.7578L94.5791 102.442C94.7606 102.662 95.0831 102.695 95.3045 102.516L97.5719 100.683L100.89 103.557C101.109 103.747 101.437 103.721 101.625 103.5C101.812 103.28 101.787 102.947 101.568 102.758L97.9223 99.6004C97.7323 99.4358 97.4534 99.431 97.258 99.589L95.0525 101.372L92.7751 98.6104Z" fill="#DFE8F5"/>
<path fill-rule="evenodd" clip-rule="evenodd" d="M84.5625 90C83.6996 90 83 90.7069 83 91.5789V108.421C83 109.293 83.6996 110 84.5625 110H106.437C107.3 110 108 109.293 108 108.421V91.5789C108 90.7069 107.3 90 106.437 90H84.5625ZM84.0417 91.5789C84.0417 91.2883 84.2749 91.0526 84.5625 91.0526H106.437C106.725 91.0526 106.958 91.2883 106.958 91.5789V108.421C106.958 108.712 106.725 108.947 106.437 108.947H84.5625C84.2749 108.947 84.0417 108.712 84.0417 108.421V91.5789Z" fill="#DFE8F5"/>
<rect x="155" y="35" width="100" height="130" rx="3" fill="#DFE8F5"/>
</svg>
