<svg width="300" height="200" viewBox="0 0 300 200" fill="none" xmlns="http://www.w3.org/2000/svg">
<rect width="300" height="200" fill="white"/>
<rect x="45" y="50" width="75" height="100" rx="3" fill="#74A3EE"/>
<path d="M83.6458 97.1931C83.6458 96.1411 84.518 95.2632 85.625 95.2632C86.732 95.2632 87.6042 96.1411 87.6042 97.1931C87.6042 97.4275 87.5615 97.6512 87.4837 97.858C87.3814 98.1297 87.5165 98.4337 87.7853 98.537C88.0542 98.6404 88.355 98.5039 88.4573 98.2323C88.5793 97.9082 88.6458 97.5578 88.6458 97.1931C88.6458 95.532 87.2795 94.2105 85.625 94.2105C83.9705 94.2105 82.6042 95.532 82.6042 97.1931C82.6042 97.5578 82.6707 97.9082 82.7927 98.2323C82.895 98.5039 83.1958 98.6404 83.4647 98.537C83.7335 98.4337 83.8686 98.1297 83.7663 97.858C83.6885 97.6512 83.6458 97.4275 83.6458 97.1931Z" fill="#DFE8F5"/>
<path d="M79.7751 98.6104C79.6776 98.4921 79.5336 98.4229 79.3813 98.4211C79.2289 98.4192 79.0834 98.4849 78.983 98.6008L75.3372 102.811C75.1478 103.03 75.1697 103.363 75.3862 103.554C75.6027 103.745 75.9317 103.723 76.1211 103.504L79.3653 99.7578L81.5791 102.442C81.7606 102.662 82.0831 102.695 82.3045 102.516L84.5719 100.683L87.8902 103.557C88.1086 103.747 88.4374 103.721 88.6246 103.5C88.8118 103.28 88.7865 102.947 88.5681 102.758L84.9223 99.6004C84.7323 99.4358 84.4534 99.431 84.258 99.589L82.0525 101.372L79.7751 98.6104Z" fill="#DFE8F5"/>
<path fill-rule="evenodd" clip-rule="evenodd" d="M71.5625 90C70.6996 90 70 90.7069 70 91.5789V108.421C70 109.293 70.6996 110 71.5625 110H93.4375C94.3004 110 95 109.293 95 108.421V91.5789C95 90.7069 94.3004 90 93.4375 90H71.5625ZM71.0417 91.5789C71.0417 91.2883 71.2749 91.0526 71.5625 91.0526H93.4375C93.7251 91.0526 93.9583 91.2883 93.9583 91.5789V108.421C93.9583 108.712 93.7251 108.947 93.4375 108.947H71.5625C71.2749 108.947 71.0417 108.712 71.0417 108.421V91.5789Z" fill="#DFE8F5"/>
<rect x="130" y="50" width="125" height="100" rx="3" fill="#DFE8F5"/>
</svg>
