<svg width="158" height="55" viewBox="0 0 158 55" fill="none" xmlns="http://www.w3.org/2000/svg">
<path d="M84.68 20.36L75.59 41.36H70.79L61.73 20.36H66.98L73.37 35.36L79.85 20.36H84.68Z" fill="white"/>
<path d="M105.093 37.46V41.36H88.8333V20.36H104.703V24.26H93.6633V28.82H103.413V32.6H93.6633V37.46H105.093Z" fill="white"/>
<path d="M125.492 30.53H129.932V39.05C128.792 39.91 127.472 40.57 125.972 41.03C124.472 41.49 122.962 41.72 121.442 41.72C119.262 41.72 117.302 41.26 115.562 40.34C113.822 39.4 112.452 38.11 111.452 36.47C110.472 34.81 109.982 32.94 109.982 30.86C109.982 28.78 110.472 26.92 111.452 25.28C112.452 23.62 113.832 22.33 115.592 21.41C117.352 20.47 119.332 20 121.532 20C123.372 20 125.042 20.31 126.542 20.93C128.042 21.55 129.302 22.45 130.322 23.63L127.202 26.51C125.702 24.93 123.892 24.14 121.772 24.14C120.432 24.14 119.242 24.42 118.202 24.98C117.162 25.54 116.352 26.33 115.772 27.35C115.192 28.37 114.902 29.54 114.902 30.86C114.902 32.16 115.192 33.32 115.772 34.34C116.352 35.36 117.152 36.16 118.172 36.74C119.212 37.3 120.392 37.58 121.712 37.58C123.112 37.58 124.372 37.28 125.492 36.68V30.53Z" fill="white"/>
<path d="M150.676 36.86H140.926L139.066 41.36H134.086L143.446 20.36H148.246L157.636 41.36H152.536L150.676 36.86ZM149.146 33.17L145.816 25.13L142.486 33.17H149.146Z" fill="white"/>
<path d="M34.4575 54.1122C32.2354 54.6916 29.9036 55 27.5 55C12.3123 55 0 42.6878 0 27.5C0 17.743 5.08154 9.17273 12.7422 4.29126L34.4575 54.1122Z" fill="#439665"/>
<path d="M22.5032 0.45285L40.3655 41.9714L52.0378 15.0714C47.499 6.12839 38.2151 0 27.5 0C25.7937 0 24.1235 0.155426 22.5032 0.45285Z" fill="#439665"/>
<path opacity="0.1" d="M27.5 55C29.9036 55 32.2354 54.6916 34.4575 54.1122L27.6416 38.4746C24.6255 36.9737 21.4612 36.0787 18.5 36.5C13.9123 37.1527 9.41638 41.0211 6.06537 44.7296C11.106 50.9924 18.835 55 27.5 55Z" fill="white"/>
<g opacity="0.1">
<path d="M49.1875 21.6404C45.8885 20.6317 42.5241 19.9563 39.5 20.0001C36.5252 20.0431 34.0083 20.7915 31.7372 21.916L40.3655 41.9714L49.1875 21.6404Z" fill="white"/>
<path d="M0.352173 31.9127C2.46349 45.0027 13.8143 55 27.5 55C29.9036 55 32.2354 54.6916 34.4575 54.1122L23.0551 27.9519C19.2237 30.8884 15.2035 33.5112 9.50002 33.5001C6.66951 33.4945 3.4515 32.8301 0.352173 31.9127Z" fill="white"/>
</g>
<g opacity="0.1">
<path d="M6.69407 9.51709C9.51456 11.5078 12.5737 13.2244 15.5 14C16.053 14.1465 16.5928 14.2576 17.1212 14.3379L34.4575 54.1122C32.2354 54.6916 29.9036 55 27.5 55C12.3123 55 0 42.6878 0 27.5C0 20.6245 2.52322 14.3385 6.69407 9.51709Z" fill="white"/>
<path d="M27.8653 12.9164C30.8369 12.1512 33.8857 11.5792 37.5 12.5C41.8185 13.6001 46.8877 16.7942 50.2563 19.177L40.3655 41.9714L27.8653 12.9164Z" fill="white"/>
</g>
</svg>
