<svg width="120" height="30" viewBox="0 0 120 30" fill="none" xmlns="http://www.w3.org/2000/svg">
<rect x="30" y="4" width="60" height="22" rx="3" fill="#8F959F" fill-opacity="0.2"/>
<circle cx="41" cy="15" r="5" fill="#74A3EE"/>
<path d="M56.1844 14.445C56.4691 14.529 56.6884 14.676 56.8424 14.886C57.0011 15.0913 57.0804 15.3457 57.0804 15.649C57.0804 16.0643 56.9264 16.3933 56.6184 16.636C56.3151 16.8787 55.8951 17 55.3584 17H53.5244C53.3611 17 53.2351 16.9557 53.1464 16.867C53.0578 16.7783 53.0134 16.6523 53.0134 16.489V12.576C53.0134 12.4127 53.0578 12.2867 53.1464 12.198C53.2351 12.1093 53.3611 12.065 53.5244 12.065H55.2884C55.8018 12.065 56.2078 12.1793 56.5064 12.408C56.8098 12.6367 56.9614 12.9493 56.9614 13.346C56.9614 13.6027 56.8914 13.829 56.7514 14.025C56.6161 14.2163 56.4271 14.3563 56.1844 14.445ZM54.0774 14.074H55.1064C55.3864 14.074 55.5918 14.0273 55.7224 13.934C55.8578 13.836 55.9254 13.689 55.9254 13.493C55.9254 13.2877 55.8578 13.1383 55.7224 13.045C55.5918 12.947 55.3864 12.898 55.1064 12.898H54.0774V14.074ZM55.2324 16.167C55.5218 16.167 55.7318 16.118 55.8624 16.02C55.9931 15.922 56.0584 15.7633 56.0584 15.544C56.0584 15.3247 55.9931 15.1637 55.8624 15.061C55.7318 14.9583 55.5218 14.907 55.2324 14.907H54.0774V16.167H55.2324ZM60.2826 17.063C59.5919 17.063 59.0646 16.8857 58.7006 16.531C58.3413 16.1717 58.1616 15.649 58.1616 14.963V12.569C58.1616 12.4057 58.2106 12.275 58.3086 12.177C58.4066 12.079 58.5373 12.03 58.7006 12.03C58.8639 12.03 58.9923 12.079 59.0856 12.177C59.1836 12.275 59.2326 12.4057 59.2326 12.569V15.012C59.2326 15.404 59.3213 15.7027 59.4986 15.908C59.6806 16.1133 59.9419 16.216 60.2826 16.216C60.6233 16.216 60.8846 16.1133 61.0666 15.908C61.2486 15.698 61.3396 15.3993 61.3396 15.012V12.569C61.3396 12.4057 61.3863 12.275 61.4796 12.177C61.5776 12.079 61.7083 12.03 61.8716 12.03C62.0349 12.03 62.1656 12.079 62.2636 12.177C62.3616 12.275 62.4106 12.4057 62.4106 12.569V14.963C62.4106 15.6443 62.2286 16.1647 61.8646 16.524C61.5006 16.8833 60.9733 17.063 60.2826 17.063ZM65.4014 17.035C65.2381 17.035 65.1051 16.986 65.0024 16.888C64.9044 16.79 64.8554 16.6593 64.8554 16.496V12.954H63.7214C63.3761 12.954 63.2034 12.8047 63.2034 12.506C63.2034 12.212 63.3761 12.065 63.7214 12.065H67.0814C67.4267 12.065 67.5994 12.212 67.5994 12.506C67.5994 12.8047 67.4267 12.954 67.0814 12.954H65.9474V16.496C65.9474 16.6593 65.8984 16.79 65.8004 16.888C65.7024 16.986 65.5694 17.035 65.4014 17.035ZM70.1059 17.035C69.9426 17.035 69.8096 16.986 69.7069 16.888C69.6089 16.79 69.5599 16.6593 69.5599 16.496V12.954H68.4259C68.0806 12.954 67.9079 12.8047 67.9079 12.506C67.9079 12.212 68.0806 12.065 68.4259 12.065H71.7859C72.1312 12.065 72.3039 12.212 72.3039 12.506C72.3039 12.8047 72.1312 12.954 71.7859 12.954H70.6519V16.496C70.6519 16.6593 70.6029 16.79 70.5049 16.888C70.4069 16.986 70.2739 17.035 70.1059 17.035ZM75.1111 17.063C74.6211 17.063 74.1941 16.9603 73.8301 16.755C73.4708 16.545 73.1931 16.251 72.9971 15.873C72.8011 15.4903 72.7031 15.0423 72.7031 14.529C72.7031 14.0157 72.8011 13.57 72.9971 13.192C73.1931 12.8093 73.4708 12.5153 73.8301 12.31C74.1941 12.1047 74.6211 12.002 75.1111 12.002C75.6011 12.002 76.0258 12.1047 76.3851 12.31C76.7491 12.5153 77.0291 12.8093 77.2251 13.192C77.4211 13.57 77.5191 14.0157 77.5191 14.529C77.5191 15.0423 77.4211 15.4903 77.2251 15.873C77.0291 16.251 76.7491 16.545 76.3851 16.755C76.0258 16.9603 75.6011 17.063 75.1111 17.063ZM75.1111 16.216C75.5218 16.216 75.8438 16.0713 76.0771 15.782C76.3151 15.4927 76.4341 15.075 76.4341 14.529C76.4341 13.983 76.3175 13.5677 76.0841 13.283C75.8508 12.9937 75.5265 12.849 75.1111 12.849C74.6958 12.849 74.3715 12.9937 74.1381 13.283C73.9095 13.5677 73.7951 13.983 73.7951 14.529C73.7951 15.075 73.9118 15.4927 74.1451 15.782C74.3785 16.0713 74.7005 16.216 75.1111 16.216ZM82.4689 12.03C82.6229 12.03 82.7466 12.0813 82.8399 12.184C82.9379 12.282 82.9869 12.4103 82.9869 12.569V16.496C82.9869 16.6593 82.9379 16.7923 82.8399 16.895C82.7466 16.993 82.6229 17.042 82.4689 17.042C82.3009 17.042 82.1656 16.9813 82.0629 16.86L79.7179 13.857V16.496C79.7179 16.6593 79.6712 16.7923 79.5779 16.895C79.4892 16.993 79.3679 17.042 79.2139 17.042C79.0599 17.042 78.9362 16.993 78.8429 16.895C78.7496 16.7923 78.7029 16.6593 78.7029 16.496V12.569C78.7029 12.4103 78.7496 12.282 78.8429 12.184C78.9409 12.0813 79.0669 12.03 79.2209 12.03C79.3936 12.03 79.5266 12.0907 79.6199 12.212L81.9649 15.194V12.569C81.9649 12.4103 82.0116 12.282 82.1049 12.184C82.1982 12.0813 82.3196 12.03 82.4689 12.03Z" fill="#74A3EE"/>
</svg>
