<svg width="120" height="30" viewBox="0 0 120 30" fill="none" xmlns="http://www.w3.org/2000/svg">
<rect x="30" y="4" width="60" height="22" rx="3" fill="#8F959F" fill-opacity="0.2"/>
<circle cx="79" cy="15" r="5" fill="#74A3EE"/>
<path d="M40.1844 14.445C40.4691 14.529 40.6884 14.676 40.8424 14.886C41.0011 15.0913 41.0804 15.3457 41.0804 15.649C41.0804 16.0643 40.9264 16.3933 40.6184 16.636C40.3151 16.8787 39.8951 17 39.3584 17H37.5244C37.3611 17 37.2351 16.9557 37.1464 16.867C37.0578 16.7783 37.0134 16.6523 37.0134 16.489V12.576C37.0134 12.4127 37.0578 12.2867 37.1464 12.198C37.2351 12.1093 37.3611 12.065 37.5244 12.065H39.2884C39.8018 12.065 40.2078 12.1793 40.5064 12.408C40.8098 12.6367 40.9614 12.9493 40.9614 13.346C40.9614 13.6027 40.8914 13.829 40.7514 14.025C40.6161 14.2163 40.4271 14.3563 40.1844 14.445ZM38.0774 14.074H39.1064C39.3864 14.074 39.5918 14.0273 39.7224 13.934C39.8578 13.836 39.9254 13.689 39.9254 13.493C39.9254 13.2877 39.8578 13.1383 39.7224 13.045C39.5918 12.947 39.3864 12.898 39.1064 12.898H38.0774V14.074ZM39.2324 16.167C39.5218 16.167 39.7318 16.118 39.8624 16.02C39.9931 15.922 40.0584 15.7633 40.0584 15.544C40.0584 15.3247 39.9931 15.1637 39.8624 15.061C39.7318 14.9583 39.5218 14.907 39.2324 14.907H38.0774V16.167H39.2324ZM44.2826 17.063C43.5919 17.063 43.0646 16.8857 42.7006 16.531C42.3413 16.1717 42.1616 15.649 42.1616 14.963V12.569C42.1616 12.4057 42.2106 12.275 42.3086 12.177C42.4066 12.079 42.5373 12.03 42.7006 12.03C42.8639 12.03 42.9923 12.079 43.0856 12.177C43.1836 12.275 43.2326 12.4057 43.2326 12.569V15.012C43.2326 15.404 43.3213 15.7027 43.4986 15.908C43.6806 16.1133 43.9419 16.216 44.2826 16.216C44.6233 16.216 44.8846 16.1133 45.0666 15.908C45.2486 15.698 45.3396 15.3993 45.3396 15.012V12.569C45.3396 12.4057 45.3863 12.275 45.4796 12.177C45.5776 12.079 45.7083 12.03 45.8716 12.03C46.0349 12.03 46.1656 12.079 46.2636 12.177C46.3616 12.275 46.4106 12.4057 46.4106 12.569V14.963C46.4106 15.6443 46.2286 16.1647 45.8646 16.524C45.5006 16.8833 44.9733 17.063 44.2826 17.063ZM49.4014 17.035C49.2381 17.035 49.1051 16.986 49.0024 16.888C48.9044 16.79 48.8554 16.6593 48.8554 16.496V12.954H47.7214C47.3761 12.954 47.2034 12.8047 47.2034 12.506C47.2034 12.212 47.3761 12.065 47.7214 12.065H51.0814C51.4267 12.065 51.5994 12.212 51.5994 12.506C51.5994 12.8047 51.4267 12.954 51.0814 12.954H49.9474V16.496C49.9474 16.6593 49.8984 16.79 49.8004 16.888C49.7024 16.986 49.5694 17.035 49.4014 17.035ZM54.1059 17.035C53.9426 17.035 53.8096 16.986 53.7069 16.888C53.6089 16.79 53.5599 16.6593 53.5599 16.496V12.954H52.4259C52.0806 12.954 51.9079 12.8047 51.9079 12.506C51.9079 12.212 52.0806 12.065 52.4259 12.065H55.7859C56.1312 12.065 56.3039 12.212 56.3039 12.506C56.3039 12.8047 56.1312 12.954 55.7859 12.954H54.6519V16.496C54.6519 16.6593 54.6029 16.79 54.5049 16.888C54.4069 16.986 54.2739 17.035 54.1059 17.035ZM59.1111 17.063C58.6211 17.063 58.1941 16.9603 57.8301 16.755C57.4708 16.545 57.1931 16.251 56.9971 15.873C56.8011 15.4903 56.7031 15.0423 56.7031 14.529C56.7031 14.0157 56.8011 13.57 56.9971 13.192C57.1931 12.8093 57.4708 12.5153 57.8301 12.31C58.1941 12.1047 58.6211 12.002 59.1111 12.002C59.6011 12.002 60.0258 12.1047 60.3851 12.31C60.7491 12.5153 61.0291 12.8093 61.2251 13.192C61.4211 13.57 61.5191 14.0157 61.5191 14.529C61.5191 15.0423 61.4211 15.4903 61.2251 15.873C61.0291 16.251 60.7491 16.545 60.3851 16.755C60.0258 16.9603 59.6011 17.063 59.1111 17.063ZM59.1111 16.216C59.5218 16.216 59.8438 16.0713 60.0771 15.782C60.3151 15.4927 60.4341 15.075 60.4341 14.529C60.4341 13.983 60.3175 13.5677 60.0841 13.283C59.8508 12.9937 59.5265 12.849 59.1111 12.849C58.6958 12.849 58.3715 12.9937 58.1381 13.283C57.9095 13.5677 57.7951 13.983 57.7951 14.529C57.7951 15.075 57.9118 15.4927 58.1451 15.782C58.3785 16.0713 58.7005 16.216 59.1111 16.216ZM66.4689 12.03C66.6229 12.03 66.7466 12.0813 66.8399 12.184C66.9379 12.282 66.9869 12.4103 66.9869 12.569V16.496C66.9869 16.6593 66.9379 16.7923 66.8399 16.895C66.7466 16.993 66.6229 17.042 66.4689 17.042C66.3009 17.042 66.1656 16.9813 66.0629 16.86L63.7179 13.857V16.496C63.7179 16.6593 63.6712 16.7923 63.5779 16.895C63.4892 16.993 63.3679 17.042 63.2139 17.042C63.0599 17.042 62.9362 16.993 62.8429 16.895C62.7496 16.7923 62.7029 16.6593 62.7029 16.496V12.569C62.7029 12.4103 62.7496 12.282 62.8429 12.184C62.9409 12.0813 63.0669 12.03 63.2209 12.03C63.3936 12.03 63.5266 12.0907 63.6199 12.212L65.9649 15.194V12.569C65.9649 12.4103 66.0116 12.282 66.1049 12.184C66.1982 12.0813 66.3196 12.03 66.4689 12.03Z" fill="#74A3EE"/>
</svg>
