<svg width="70" height="50" viewBox="0 0 70 50" fill="none" xmlns="http://www.w3.org/2000/svg">
<path d="M50 38V12C50 11.4477 49.5523 11 49 11C48.4477 11 48 11.4477 48 12V38C48 38.5523 48.4477 39 49 39C49.5523 39 50 38.5523 50 38Z" fill="#8F959F" fill-opacity="0.2"/>
<path d="M44 22C45.1046 22 46 21.1046 46 20V18C46 16.8954 45.1046 16 44 16H26C24.8954 16 24 16.8954 24 18V20C24 21.1046 24.8954 22 26 22H44Z" fill="#74A3EE"/>
<path d="M44 34C45.1046 34 46 33.1046 46 32V30C46 28.8955 45.1046 28 44 28H26C24.8954 28 24 28.8955 24 30V32C24 33.1046 24.8954 34 26 34H44Z" fill="#74A3EE"/>
<path d="M20 38V12C20 11.4477 20.4477 11 21 11C21.5523 11 22 11.4477 22 12V38C22 38.5523 21.5523 39 21 39C20.4477 39 20 38.5523 20 38Z" fill="#8F959F" fill-opacity="0.2"/>
</svg>
