<svg width="70" height="50" viewBox="0 0 70 50" fill="none" xmlns="http://www.w3.org/2000/svg">
<path d="M29 22C27.8954 22 27 21.1046 27 20V18C27 16.8954 27.8954 16 29 16H49C50.1046 16 51 16.8954 51 18V20C51 21.1046 50.1046 22 49 22H29Z" fill="#74A3EE"/>
<path d="M29 34C27.8954 34 27 33.1045 27 32V30C27 28.8954 27.8954 28 29 28H43C44.1046 28 45 28.8954 45 30V32C45 33.1045 44.1046 34 43 34H29Z" fill="#74A3EE"/>
<path d="M21 38V12C21 11.4477 21.4477 11 22 11C22.5523 11 23 11.4477 23 12V38C23 38.5523 22.5523 39 22 39C21.4477 39 21 38.5523 21 38Z" fill="#8F959F" fill-opacity="0.2"/>
</svg>
