<svg width="70" height="40" viewBox="0 0 70 40" fill="none" xmlns="http://www.w3.org/2000/svg">
<rect x="20" y="5" width="30" height="30" rx="3" fill="#74A3EE"/>
<path d="M42.5 12.5H27.5C26.9477 12.5 26.5 12.9477 26.5 13.5V26.5C26.5 27.0523 26.9477 27.5 27.5 27.5H42.5C43.0523 27.5 43.5 27.0523 43.5 26.5V13.5C43.5 12.9477 43.0523 12.5 42.5 12.5Z" stroke="#DFE8F5"/>
<path d="M29.5 23.5001L32.5 19.5001L35.5 22.5001L37.5 20.5001L40.5 23.5001M35.5755 19.643C35.4935 19.3908 35.4487 19.1181 35.4487 18.8336C35.4487 17.5448 36.3671 16.5001 37.5 16.5001C38.6329 16.5001 39.5513 17.5448 39.5513 18.8336C39.5513 19.1181 39.5065 19.3908 39.4245 19.643" stroke="#DFE8F5" stroke-linecap="round" stroke-linejoin="round"/>
</svg>
