<?xml version="1.0" encoding="UTF-8"?> <svg xmlns="http://www.w3.org/2000/svg" height="512px" viewBox="0 0 512 512" width="512px" class=""><g><path d="m392 256h16v16h-16z" data-original="#000000" class="active-path" data-old_color="#000000" fill="#FFFFFF"></path><path d="m440 256h16v16h-16z" data-original="#000000" class="active-path" data-old_color="#000000" fill="#FFFFFF"></path><path d="m64 120h16v16h-16z" data-original="#000000" class="active-path" data-old_color="#000000" fill="#FFFFFF"></path><path d="m96 136h16v16h-16z" data-original="#000000" class="active-path" data-old_color="#000000" fill="#FFFFFF"></path><path d="m496 288a8 8 0 0 0 -8-8h-8v-40a8 8 0 0 0 -8-8h-120.019a7.982 7.982 0 0 0 -7.981 8l.019 8h-138.6l-29.988-74.969a8 8 0 0 0 -7.431-5.031h-9.442l-14.714-73.57a8 8 0 0 0 -7.844-6.43h-112a8 8 0 0 0 -8 8 8 8 0 0 0 8 8h8v64h-8a8 8 0 0 0 -8 8 8 8 0 0 0 8 8h8v64h-8a8 8 0 0 0 -8 8 8 8 0 0 0 8 8h8v64h-8a8 8 0 0 0 -8 8 8 8 0 0 0 8 8h8v64h-8a8 8 0 0 0 -8 8 8 8 0 0 0 8 8h464a8 8 0 0 0 8-8 8 8 0 0 0 -8-8h-8v-48h8a8 8 0 0 0 8-8 8 8 0 0 0 -8-8h-8v-48h8a8 8 0 0 0 8-8zm-32-40v32h-101.56l-2.44-24.406v-7.594zm0 96h-8v-24a8 8 0 0 0 -8-8 8 8 0 0 0 -8 8v24h-15.16l-.84-8.406v-15.594a8 8 0 0 0 -8-8 8 8 0 0 0 -8 8v8h-16v-8a8 8 0 0 0 -8-8 8 8 0 0 0 -8 8v8h-8.759l-3.2-32h99.959zm-88 16a24.027 24.027 0 0 0 -24 24v24h-16v-24a23.955 23.955 0 0 0 -37.163-20.03l-2-19.97h111.925l6.4 64h-15.162v-24a24.027 24.027 0 0 0 -24-24zm-56-32h-16v-24a8 8 0 0 1 16 0zm24.759-64 2.479 24.8 3.921 39.2h-15.159v-24a24 24 0 0 0 -48 0v24h-16v-24a23.927 23.927 0 0 0 -41.5-16.308l-4.742-23.692zm-152.759 64h-16v-24a8 8 0 0 1 16 0zm-8-48a24.027 24.027 0 0 0 -24 24v24h-16v-24a24 24 0 0 0 -48 0v24h-16v-24a24.027 24.027 0 0 0 -24-24 23.731 23.731 0 0 0 -8 1.474v-17.474h161.441l12.8 64h-14.241v-24a24.027 24.027 0 0 0 -24-24zm-56 48h-16v-24a8 8 0 0 1 16 0zm-80-24a8 8 0 0 1 16 0v24h-16zm0-80a8 8 0 0 1 16 0v24h-16zm80 24h-16v-24a8 8 0 0 1 16 0zm128 80h-16v-24a8 8 0 0 1 16 0zm-67.816-80h-44.184v-24a24 24 0 0 0 -48 0v24h-16v-24a24.027 24.027 0 0 0 -24-24 23.731 23.731 0 0 0 -8 1.474v-17.474h114.582zm-58.743-144 12.8 64h-94.241v-64zm-81.441 304v-24a8 8 0 0 1 16 0v24zm64 0v-24a8 8 0 0 1 16 0v24zm64 0v-24a8 8 0 0 1 16 0v24zm64 0v-24a8 8 0 0 1 16 0v24zm32 0v-24a24 24 0 0 0 -48 0v24h-16v-24a24 24 0 0 0 -48 0v24h-16v-24a24 24 0 0 0 -48 0v24h-16v-24a24.027 24.027 0 0 0 -24-24 23.731 23.731 0 0 0 -8 1.474v-17.474h232.762l6.4 64zm32 0v-24a8 8 0 0 1 16 0v24zm64 0v-24a8 8 0 0 1 16 0v24zm88 0v-24a8 8 0 0 0 -8-8 8 8 0 0 0 -8 8v24h-8.759l-4.8-48h37.559v48z" data-original="#000000" class="active-path" data-old_color="#000000" fill="#FFFFFF"></path></g></svg> 