<?xml version="1.0" encoding="UTF-8"?> <svg xmlns="http://www.w3.org/2000/svg" viewBox="0 0 512 512" width="512px" height="512px" class=""><g><g id="outline"><path d="M472,448a24.027,24.027,0,0,0-24,24v8H432V462.526A23.96,23.96,0,0,0,448,440V424a24,24,0,0,0-48,0v16a23.959,23.959,0,0,0,16,22.525V480h-3.584l-27.854-44.238C374.056,419.071,364.211,401.7,355.123,384H360a8,8,0,0,0,8-8V344a8,8,0,0,0-8-8H332.906c-7.69-18.364-14.593-37.147-20.626-56.057A7.97,7.97,0,0,0,320,272V240a8,8,0,0,0-8-8H298.828A680.785,680.785,0,0,1,280.1,79.98,7.989,7.989,0,0,0,288,72V40a8,8,0,0,0-8-8H264V16H248V32H232a8,8,0,0,0-8,8V72a7.989,7.989,0,0,0,7.9,7.98A680.785,680.785,0,0,1,213.172,232H200a8,8,0,0,0-8,8v32a7.97,7.97,0,0,0,7.72,7.943c-6.033,18.91-12.936,37.693-20.626,56.057H152a8,8,0,0,0-8,8v32a8,8,0,0,0,8,8h4.877c-9.088,17.7-18.933,35.071-29.44,51.762L99.584,480H64V462.526A23.96,23.96,0,0,0,80,440V424a24,24,0,0,0-48,0v16a23.959,23.959,0,0,0,16,22.525V480H16v16H496V472A24.027,24.027,0,0,0,472,448Zm-56-24a8,8,0,0,1,16,0v16a8,8,0,0,1-16,0ZM48,424a8,8,0,0,1,16,0v16a8,8,0,0,1-16,0ZM253.767,280h4.466L276.9,336H235.1Zm40,56L275.1,280h20.353c5.863,18.852,12.594,37.617,20.086,56ZM240,48h32V64H240Zm7.969,32h16.062a696.7,696.7,0,0,0,18.285,152H229.684A696.7,696.7,0,0,0,247.969,80ZM208,248h96v16H208Zm8.547,32H236.9l-18.667,56H196.461C203.953,317.617,210.684,298.852,216.547,280ZM160,352H352v16H160Zm130.455,32,10.736,28.631a87.157,87.157,0,0,0-90.382,0L221.545,384ZM140.977,444.285c12.2-19.383,23.589-39.64,33.886-60.285h29.592l-19.716,52.574A87.376,87.376,0,0,0,168.405,480H118.492ZM184.441,480a72.005,72.005,0,0,1,143.118,0ZM343.6,480a87.376,87.376,0,0,0-16.334-43.426L307.545,384h29.592c10.3,20.645,21.683,40.9,33.886,60.285L393.508,480ZM464,480v-8a8,8,0,0,1,16,0v8Z" data-original="#000000" class="active-path" data-old_color="#000000" fill="#FFFFFF"></path></g></g></svg> 