<?xml version="1.0" encoding="UTF-8"?> <svg xmlns="http://www.w3.org/2000/svg" height="512px" viewBox="0 0 512 512" width="512px"><g><path d="m456 416h16v16h-16z" data-original="#000000" class="active-path" data-old_color="#000000" fill="#FFFFFF"></path><path d="m456 384h16v16h-16z" data-original="#000000" class="active-path" data-old_color="#000000" fill="#FFFFFF"></path><path d="m456 352h16v16h-16z" data-original="#000000" class="active-path" data-old_color="#000000" fill="#FFFFFF"></path><path d="m480 288v8h-32v-8a8 8 0 0 0 -8-8 8 8 0 0 0 -8 8v13.083l-18.273 21.7a121.049 121.049 0 0 1 -24.4 21.871 120.927 120.927 0 0 1 -16.015-.8 119.68 119.68 0 0 1 -93.195-65.5l-120.117-240.241v-14.113a8 8 0 0 0 -8-8 8 8 0 0 0 -8 8v8h-112v-8a8 8 0 0 0 -8-8 8 8 0 0 0 -8 8v464a8 8 0 0 0 8 8h464a8 8 0 0 0 8-8v-200a8 8 0 0 0 -8-8 8 8 0 0 0 -8 8zm-80 160v-87.982a135.413 135.413 0 0 0 32-6.833v94.815zm-240-198.185 32 46.662v151.523h-32zm48 69.992 2.117 3.088a136.567 136.567 0 0 0 29.883 31.049v94.056h-32zm32 13.278a121.2 121.2 0 0 1 -16.711-19.269l-15.289-22.297v-121.619l32 64zm16 31.472a134.5 134.5 0 0 0 32 12.516v70.927h-32zm48 15.57c3.818.5 7.634 1.021 11.531 1.2q3.3.153 6.594.156a137.616 137.616 0 0 0 13.875-.747v67.264h-32zm0-48.044a135.309 135.309 0 0 0 32 18.47v13.959a121.2 121.2 0 0 1 -19.719.836 122.425 122.425 0 0 1 -12.281-1.283zm48 46.1a133.959 133.959 0 0 0 32-11.766v81.583h-32zm96-31.831a135.47 135.47 0 0 0 32-22.1v123.748h-32zm21.733-34.352a119.826 119.826 0 0 1 -21.733 16.258v-16.258zm-43.772 21.086 6.039-7.171v10.217a119.6 119.6 0 0 1 -12.945 4.311c2.345-2.403 4.72-4.761 6.906-7.357zm-73.961 28.48v-5.626c3.445.927 6.924 1.762 10.463 2.42q-5.151 1.84-10.463 3.206zm-64-44.149v43.177a118.315 118.315 0 0 1 -32-14.938v-79.756l9.805 19.61a136.3 136.3 0 0 0 22.195 31.907zm-96-179.523v130.291l-32-46.669v-147.624zm-48-89.894v400h-16v-88a8 8 0 0 0 -8-8h-64a8 8 0 0 0 -8 8v88h-16v-400zm-32 400h-48v-80h48zm368 32h-448v-16h448z" data-original="#000000" class="active-path" data-old_color="#000000" fill="#FFFFFF"></path><path d="m56 240h64a8 8 0 0 0 8-8v-64a8 8 0 0 0 -8-8h-64a8 8 0 0 0 -8 8v64a8 8 0 0 0 8 8zm8-64h48v48h-48z" data-original="#000000" class="active-path" data-old_color="#000000" fill="#FFFFFF"></path><path d="m56 144h64a8 8 0 0 0 8-8v-64a8 8 0 0 0 -8-8h-64a8 8 0 0 0 -8 8v64a8 8 0 0 0 8 8zm8-64h48v48h-48z" data-original="#000000" class="active-path" data-old_color="#000000" fill="#FFFFFF"></path><path d="m56 336h64a8 8 0 0 0 8-8v-64a8 8 0 0 0 -8-8h-64a8 8 0 0 0 -8 8v64a8 8 0 0 0 8 8zm8-64h48v48h-48z" data-original="#000000" class="active-path" data-old_color="#000000" fill="#FFFFFF"></path></g></svg> 