<?xml version="1.0" encoding="UTF-8"?> <svg xmlns="http://www.w3.org/2000/svg" viewBox="0 0 512 512" width="512px" height="512px"><g><g id="outline"><path d="M371.578,264.845l-32-16a8,8,0,0,0-10.733,3.577L320,270.112V251.777A39.782,39.782,0,0,0,297.889,216l-21.231-10.616A32.043,32.043,0,0,0,296,176V152h16V136H295.016l8.412-21.029-14.856-5.942L277.784,136H272V104H256v32h-5.784l-10.788-26.971-14.856,5.942L232.984,136H216v16h16v24a31.95,31.95,0,0,0,.9,7.5l-10.786-5.393L188.424,104H192a8,8,0,0,0,8-8V72a8,8,0,0,0-8-8H152a8,8,0,0,0-8,8v32a8.013,8.013,0,0,0,.308,2.2L176,217.121V448h-8a8,8,0,0,0-8,8v32a8,8,0,0,0,8,8H328a8,8,0,0,0,8-8V456a8,8,0,0,0-8-8h-8V316.944l20.422,10.211a7.993,7.993,0,0,0,10.733-3.577l24-48A8,8,0,0,0,371.578,264.845ZM280,152v24a16,16,0,0,1-32,0V152Zm24,99.777V380.686l-10.907-10.907,5.878-2.351a8,8,0,0,0,4.98-8.311L289.575,229.732l1.157.579A23.868,23.868,0,0,1,304,251.777Zm-47.871,34.792-16,88a8,8,0,0,0,1.215,5.869l10.53,15.8L192,420.184V355.722a294.208,294.208,0,0,0,74.1-94.028l8.943-17.887,12.337,111.026-29.546,11.819,14.04-77.221Zm-18.454-82.787L232.311,216.3A87.336,87.336,0,0,1,192,259.731V219.314l25.58-25.58ZM192,277.36A103.27,103.27,0,0,0,247.018,222.6l4.993-11.652,17.256,8.628-17.481,34.961A278.093,278.093,0,0,1,192,334.383ZM160,80h24v8h-8a8,8,0,0,0-7.283,11.311l37.706,82.952-18.466,18.466L160,102.879Zm32,357.416,37.486-14.994L225.223,448H192ZM320,480H176V464H320Zm-33.754-32-6.485-25.94-15.522,3.88L269.754,448h-28.31l5.422-32.53,20.1-8.042a8,8,0,0,0,3.685-11.866l-8.846-13.27,15.12-6.048L304,403.314V448Zm54.176-138.733-17.689-8.845,16.845-33.689,17.689,8.845Z" data-original="#000000" class="active-path" data-old_color="#000000" fill="#FFFFFF"></path><path d="M200,40V38.627a7.946,7.946,0,0,1,2.344-5.657l3.313-3.313A8,8,0,0,0,200,16H176a24,24,0,1,0,24,24Zm-16-1.373V40a8,8,0,1,1-8-8h8.922A24.1,24.1,0,0,0,184,38.627Z" data-original="#000000" class="active-path" data-old_color="#000000" fill="#FFFFFF"></path></g></g></svg> 