<svg width="70" height="40" viewBox="0 0 70 40" fill="none" xmlns="http://www.w3.org/2000/svg">
<path d="M32 13.894C31.3015 14.2157 30.5498 14.4327 29.7611 14.5298C30.5664 14.0303 31.1839 13.2389 31.4751 12.2949C30.7218 12.7582 29.888 13.0943 28.9998 13.2757C28.2889 12.4908 27.2757 12 26.1546 12C24.002 12 22.2568 13.8085 22.2568 16.0394C22.2568 16.3555 22.2912 16.6636 22.3579 16.9598C19.1181 16.7911 16.2455 15.1833 14.3229 12.7394C13.9874 13.3357 13.7953 14.0295 13.7953 14.7704C13.7953 16.1717 14.4833 17.4082 15.5293 18.1324C14.8906 18.1112 14.2893 17.9294 13.7637 17.6268C13.7633 17.6436 13.7633 17.6608 13.7633 17.678C13.7633 19.6347 15.107 21.2669 16.8904 21.6386C16.5633 21.7305 16.2189 21.7801 15.8633 21.7801C15.6119 21.7801 15.3677 21.7549 15.1298 21.7073C15.6261 23.312 17.0655 24.4802 18.771 24.5126C17.4369 25.596 15.7565 26.2419 13.9299 26.2419C13.6156 26.2419 13.3051 26.2227 13 26.1851C14.7256 27.3318 16.7743 28 18.9754 28C26.1457 28 30.0662 21.8452 30.0662 16.5074C30.0662 16.3323 30.0627 16.1577 30.0554 15.9842C30.8167 15.4159 31.4778 14.7041 32 13.894Z" fill="#C4C4C4"/>
<path d="M57 13.894C56.3015 14.2157 55.5498 14.4327 54.7611 14.5298C55.5664 14.0303 56.1839 13.2389 56.4751 12.2949C55.7218 12.7582 54.888 13.0943 53.9998 13.2757C53.2889 12.4908 52.2757 12 51.1546 12C49.002 12 47.2568 13.8085 47.2568 16.0394C47.2568 16.3555 47.2912 16.6636 47.3579 16.9598C44.1181 16.7911 41.2455 15.1833 39.3229 12.7394C38.9874 13.3357 38.7953 14.0295 38.7953 14.7704C38.7953 16.1717 39.4833 17.4082 40.5293 18.1324C39.8906 18.1112 39.2893 17.9294 38.7637 17.6268C38.7633 17.6436 38.7633 17.6608 38.7633 17.678C38.7633 19.6347 40.107 21.2669 41.8904 21.6386C41.5633 21.7305 41.2189 21.7801 40.8633 21.7801C40.6119 21.7801 40.3677 21.7549 40.1298 21.7073C40.6261 23.312 42.0655 24.4802 43.771 24.5126C42.4369 25.596 40.7565 26.2419 38.9299 26.2419C38.6156 26.2419 38.3051 26.2227 38 26.1851C39.7256 27.3318 41.7743 28 43.9754 28C51.1457 28 55.0662 21.8452 55.0662 16.5074C55.0662 16.3323 55.0627 16.1577 55.0554 15.9842C55.8167 15.4159 56.4778 14.7041 57 13.894Z" fill="#C4C4C4" fill-opacity="0.5"/>
<path d="M57.5 34C57.5 34 57.4491 37.5 53.5 37.5C50.2245 37.5 46.879 32.3404 45.833 30.5802C45.6289 30.2367 45.6936 29.8064 45.9761 29.5239C46.2807 29.2193 46.758 29.172 47.1165 29.411L49.5 31V23.5C49.5 22 51.5 22 51.5 23.5V25.5C51.5 24 53.5 24 53.5 25.5V26.5C53.5 25 55.5 25 55.5 26.5V27.5C55.5 26 57.5 26 57.5 27.5V34Z" fill="white"/>
<path d="M51.5 29.5V25.5M51.5 25.5C51.5 25.5 51.5 24.9999 51.5 23.5C51.5 22 49.5 22 49.5 23.5C49.5 24.9999 49.5 31 49.5 31L47.1165 29.411C46.758 29.172 46.2807 29.2193 45.9761 29.5239V29.5239C45.6936 29.8064 45.6289 30.2367 45.833 30.5802C46.879 32.3404 50.2245 37.5 53.5 37.5C57.4491 37.5 57.5 34 57.5 34C57.5 34 57.5 27.6731 57.5 27.5C57.5 26 55.5 26 55.5 27.5M51.5 25.5C51.5 24 53.5 24 53.5 25.5C53.5 25.6731 53.5 26.5 53.5 26.5M53.5 29.5V26.5M53.5 26.5C53.5 25 55.5 25 55.5 26.5C55.5 26.6731 55.5 27.5 55.5 27.5M55.5 29.5V27.5" stroke="#545454" stroke-linecap="round" stroke-linejoin="round"/>
</svg>
