<svg width="70" height="40" viewBox="0 0 70 40" fill="none" xmlns="http://www.w3.org/2000/svg">
<rect x="11" y="8" width="23" height="23" rx="11.5" fill="#F1F1F1"/>
<path d="M29 16.1837C28.5221 16.3848 28.0078 16.5205 27.4681 16.5812C28.0191 16.2689 28.4416 15.7743 28.6408 15.1843C28.1255 15.4738 27.5549 15.6839 26.9472 15.7973C26.4609 15.3067 25.7676 15 25.0005 15C23.5277 15 22.3336 16.1303 22.3336 17.5246C22.3336 17.7222 22.3571 17.9148 22.4028 18.0999C20.1861 17.9945 18.2206 16.9896 16.9051 15.4621C16.6756 15.8348 16.5441 16.2684 16.5441 16.7315C16.5441 17.6073 17.0149 18.3801 17.7306 18.8327C17.2936 18.8195 16.8822 18.7059 16.5225 18.5168C16.5222 18.5273 16.5222 18.538 16.5222 18.5487C16.5222 19.7717 17.4416 20.7918 18.6619 21.0241C18.4381 21.0816 18.2024 21.1126 17.9591 21.1126C17.7871 21.1126 17.62 21.0968 17.4572 21.0671C17.7968 22.07 18.7817 22.8001 19.9486 22.8204C19.0358 23.4975 17.886 23.9012 16.6362 23.9012C16.4212 23.9012 16.2087 23.8892 16 23.8657C17.1806 24.5824 18.5824 25 20.0884 25C24.9944 25 27.6769 21.1533 27.6769 17.8171C27.6769 17.7077 27.6745 17.5985 27.6695 17.4901C28.1904 17.1349 28.6427 16.6901 29 16.1837Z" fill="#C4C4C4"/>
<rect x="36" y="8" width="23" height="23" rx="11.5" fill="#74A3EE"/>
<path d="M54 16.1837C53.5221 16.3848 53.0078 16.5205 52.4681 16.5812C53.0191 16.2689 53.4416 15.7743 53.6408 15.1843C53.1255 15.4738 52.5549 15.6839 51.9472 15.7973C51.4609 15.3067 50.7676 15 50.0005 15C48.5277 15 47.3336 16.1303 47.3336 17.5246C47.3336 17.7222 47.3571 17.9148 47.4028 18.0999C45.1861 17.9945 43.2206 16.9896 41.9051 15.4621C41.6756 15.8348 41.5441 16.2684 41.5441 16.7315C41.5441 17.6073 42.0149 18.3801 42.7306 18.8327C42.2936 18.8195 41.8822 18.7059 41.5225 18.5168C41.5222 18.5273 41.5222 18.538 41.5222 18.5487C41.5222 19.7717 42.4416 20.7918 43.6619 21.0241C43.4381 21.0816 43.2024 21.1126 42.9591 21.1126C42.7871 21.1126 42.62 21.0968 42.4572 21.0671C42.7968 22.07 43.7817 22.8001 44.9486 22.8204C44.0358 23.4975 42.886 23.9012 41.6362 23.9012C41.4212 23.9012 41.2087 23.8892 41 23.8657C42.1806 24.5824 43.5824 25 45.0884 25C49.9944 25 52.6769 21.1533 52.6769 17.8171C52.6769 17.7077 52.6745 17.5985 52.6695 17.4901C53.1904 17.1349 53.6427 16.6901 54 16.1837Z" fill="white"/>
<path d="M57.5 34C57.5 34 57.4491 37.5 53.5 37.5C50.2245 37.5 46.879 32.3404 45.833 30.5802C45.6289 30.2367 45.6936 29.8064 45.9761 29.5239C46.2807 29.2193 46.758 29.172 47.1165 29.411L49.5 31V23.5C49.5 22 51.5 22 51.5 23.5V25.5C51.5 24 53.5 24 53.5 25.5V26.5C53.5 25 55.5 25 55.5 26.5V27.5C55.5 26 57.5 26 57.5 27.5V34Z" fill="white"/>
<path d="M51.5 29.5V25.5M51.5 25.5C51.5 25.5 51.5 24.9999 51.5 23.5C51.5 22 49.5 22 49.5 23.5C49.5 24.9999 49.5 31 49.5 31L47.1165 29.411C46.758 29.172 46.2807 29.2193 45.9761 29.5239V29.5239C45.6936 29.8064 45.6289 30.2367 45.833 30.5802C46.879 32.3404 50.2245 37.5 53.5 37.5C57.4491 37.5 57.5 34 57.5 34C57.5 34 57.5 27.6731 57.5 27.5C57.5 26 55.5 26 55.5 27.5M51.5 25.5C51.5 24 53.5 24 53.5 25.5C53.5 25.6731 53.5 26.5 53.5 26.5M53.5 29.5V26.5M53.5 26.5C53.5 25 55.5 25 55.5 26.5C55.5 26.6731 55.5 27.5 55.5 27.5M55.5 29.5V27.5" stroke="#545454" stroke-linecap="round" stroke-linejoin="round"/>
</svg>
