<svg width="29" height="13" viewBox="0 0 29 13" fill="none" xmlns="http://www.w3.org/2000/svg">
<path d="M15.5 4.5V6.5M15.5 8.5V6.5M15.5 6.5L17.5 8.5M15.5 6.5L17.5 4.5M12 4.5C11.0237 4.5 10.5 5.52369 10.5 6.5C10.5 7.47631 11.0237 8.5 12 8.5C12.9763 8.5 13.5 7.47631 13.5 6.5C13.5 5.52369 12.9763 4.5 12 4.5ZM1.5 12.5H27.5C28.0523 12.5 28.5 12.0523 28.5 11.5V1.5C28.5 0.947715 28.0523 0.5 27.5 0.5H1.5C0.947715 0.5 0.5 0.947715 0.5 1.5V11.5C0.5 12.0523 0.947715 12.5 1.5 12.5Z" stroke="#74A3EE" stroke-linecap="round" stroke-linejoin="round"/>
</svg>
