<svg width="24" height="16" viewBox="0 0 24 16" fill="none" xmlns="http://www.w3.org/2000/svg">
<path d="M6.5 2.5H23.5M23.5 8.5H6.5M23.5 14.5H6.5M1.5 15.5H2.5C3.05228 15.5 3.5 15.0523 3.5 14.5V13.5C3.5 12.9477 3.05228 12.5 2.5 12.5H1.5C0.947715 12.5 0.5 12.9477 0.5 13.5V14.5C0.5 15.0523 0.947715 15.5 1.5 15.5ZM1.5 9.5H2.5C3.05228 9.5 3.5 9.05228 3.5 8.5V7.5C3.5 6.94772 3.05228 6.5 2.5 6.5H1.5C0.947715 6.5 0.5 6.94772 0.5 7.5V8.5C0.5 9.05228 0.947715 9.5 1.5 9.5ZM3.5 1.5V2.5C3.5 3.05228 3.05228 3.5 2.5 3.5H1.5C0.947715 3.5 0.5 3.05228 0.5 2.5V1.5C0.5 0.947715 0.947715 0.5 1.5 0.5H2.5C3.05228 0.5 3.5 0.947715 3.5 1.5Z" stroke="#74A3EE" stroke-linecap="round" stroke-linejoin="round"/>
</svg>
