<svg width="25" height="25" viewBox="0 0 25 25" fill="none" xmlns="http://www.w3.org/2000/svg">
<path d="M24.5 12.5C24.5 19.1274 19.1274 24.5 12.5 24.5C6.22909 24.5 0.5 18.7879 0.5 12.5C0.5 5.87258 5.87258 0.5 12.5 0.5C19.1274 0.5 24.5 5.87258 24.5 12.5Z" stroke="#74A3EE" stroke-linecap="round" stroke-linejoin="round"/>
<path d="M10 8.5H12.5V18.5M12.5 18.5H15M12.5 18.5H10M12 5.5C11.7239 5.5 11.5 5.72386 11.5 6C11.5 6.27614 11.7239 6.5 12 6.5C12.2761 6.5 12.5 6.27614 12.5 6C12.5 5.72386 12.2761 5.5 12 5.5Z" stroke="#74A3EE" stroke-linecap="round" stroke-linejoin="round"/>
</svg>
