<svg width="31" height="21" viewBox="0 0 31 21" fill="none" xmlns="http://www.w3.org/2000/svg">
<path d="M6.5 3C6.22386 3 6 3.22386 6 3.5C6 3.77614 6.22386 4 6.5 4V3ZM10.5 4C10.7761 4 11 3.77614 11 3.5C11 3.22386 10.7761 3 10.5 3V4ZM13.5 3C13.2239 3 13 3.22386 13 3.5C13 3.77614 13.2239 4 13.5 4V3ZM17.5 4C17.7761 4 18 3.77614 18 3.5C18 3.22386 17.7761 3 17.5 3V4ZM20.5 3C20.2239 3 20 3.22386 20 3.5C20 3.77614 20.2239 4 20.5 4V3ZM24.5 4C24.7761 4 25 3.77614 25 3.5C25 3.22386 24.7761 3 24.5 3V4ZM14.5 11.5V12C14.7045 12 14.8883 11.8755 14.9642 11.6857L14.5 11.5ZM12 11.5V11C11.7848 11 11.5937 11.1377 11.5257 11.3419C11.4576 11.5461 11.5278 11.7709 11.7 11.9L12 11.5ZM14 13L14.4743 13.1581C14.5424 12.9539 14.4722 12.7291 14.3 12.6L14 13ZM13 16L12.5257 15.8419C12.4556 16.0521 12.5322 16.2834 12.714 16.4101C12.8958 16.5369 13.1393 16.5289 13.3123 16.3904L13 16ZM15.5 14L15.8123 13.6096C15.6297 13.4635 15.3703 13.4635 15.1877 13.6096L15.5 14ZM18 16L17.6877 16.3904C17.8607 16.5289 18.1042 16.5369 18.286 16.4101C18.4678 16.2834 18.5444 16.0521 18.4743 15.8419L18 16ZM17 13L16.7 12.6C16.5278 12.7291 16.4576 12.9539 16.5256 13.1581L17 13ZM19 11.5L19.3 11.9C19.4722 11.7709 19.5424 11.5461 19.4743 11.3419C19.4063 11.1377 19.2152 11 19 11V11.5ZM16.5 11.5L16.0358 11.6857C16.1117 11.8755 16.2955 12 16.5 12V11.5ZM15.5 9L15.9642 8.8143C15.8883 8.62448 15.7045 8.5 15.5 8.5C15.2955 8.5 15.1117 8.62448 15.0358 8.8143L15.5 9ZM6.5 4H10.5V3H6.5V4ZM13.5 4H17.5V3H13.5V4ZM20.5 4H24.5V3H20.5V4ZM0 6.5V19.5H1V6.5H0ZM0 19.5C0 20.3284 0.671579 21 1.5 21V20C1.22385 20 1 19.7762 1 19.5H0ZM1.5 21H29.5V20H1.5V21ZM29.5 21C30.3284 21 31 20.3284 31 19.5H30C30 19.7762 29.7762 20 29.5 20V21ZM31 19.5V6.5H30V19.5H31ZM30.5 6H0.5V7H30.5V6ZM1 6.5V1.5H0V6.5H1ZM1 1.5C1 1.22386 1.22386 1 1.5 1V0C0.671573 0 0 0.671573 0 1.5H1ZM1.5 1H29.5V0H1.5V1ZM29.5 1C29.7762 1 30 1.22385 30 1.5H31C31 0.671577 30.3284 0 29.5 0V1ZM30 1.5V6.5H31V1.5H30ZM14.5 11H12V12H14.5V11ZM11.7 11.9L13.7 13.4L14.3 12.6L12.3 11.1L11.7 11.9ZM13.5257 12.8419L12.5257 15.8419L13.4743 16.1581L14.4743 13.1581L13.5257 12.8419ZM13.3123 16.3904L15.8123 14.3904L15.1877 13.6096L12.6877 15.6096L13.3123 16.3904ZM15.1877 14.3904L17.6877 16.3904L18.3123 15.6096L15.8123 13.6096L15.1877 14.3904ZM18.4743 15.8419L17.4743 12.8419L16.5256 13.1581L17.5257 16.1581L18.4743 15.8419ZM17.3 13.4L19.3 11.9L18.7 11.1L16.7 12.6L17.3 13.4ZM19 11H16.5V12H19V11ZM16.9642 11.3143L15.9642 8.8143L15.0358 9.1857L16.0358 11.6857L16.9642 11.3143ZM15.0358 8.8143L14.0358 11.3143L14.9642 11.6857L15.9642 9.1857L15.0358 8.8143Z" fill="#74A3EE"/>
</svg>
