<svg width="29" height="27" viewBox="0 0 29 27" fill="none" xmlns="http://www.w3.org/2000/svg">
<path d="M5.5 0.5H3.5C2.94772 0.5 2.5 0.947715 2.5 1.5V3.5M8.5 0.5H10.5M13.5 0.5H15.5M18.5 0.5H20.5M23.5 0.5H25.5C26.0523 0.5 26.5 0.947715 26.5 1.5V3.5M26.5 6.5V8.5M26.5 11.5V13.5C26.5 14.0523 26.0523 14.5 25.5 14.5H23.5M20.5 14.5H18.5M15.5 14.5H13.5M10.5 14.5H8.5M5.5 14.5H3.5C2.94772 14.5 2.5 14.0523 2.5 13.5V11.5M2.5 8.5V6.5M0.5 22.5H28.5M0.5 22.5L4 19M0.5 22.5L4 26M28.5 22.5L25 19M28.5 22.5L25 26" stroke="#74A3EE" stroke-linecap="round" stroke-linejoin="round"/>
</svg>
