<svg width="70" height="40" viewBox="0 0 70 40" fill="none" xmlns="http://www.w3.org/2000/svg">
<rect y="1" width="70" height="38" rx="2" fill="#8F959F" fill-opacity="0.2"/>
<path d="M16.1679 28.4453C15.8616 28.9048 15.9858 29.5257 16.4453 29.8321C16.9048 30.1384 17.5257 30.0142 17.8321 29.5547L16.1679 28.4453ZM25 17L25.6585 16.2474C25.4418 16.0578 25.1539 15.9708 24.8684 16.0087C24.5829 16.0466 24.3277 16.2057 24.1679 16.4453L25 17ZM33 24L32.3415 24.7526C32.6471 25.02 33.084 25.076 33.4472 24.8944L33 24ZM41 20L41.7474 19.3356C41.447 18.9977 40.9572 18.9034 40.5528 19.1056L41 20ZM48.2526 29.6644C48.6195 30.0771 49.2516 30.1143 49.6644 29.7474C50.0771 29.3805 50.1143 28.7484 49.7474 28.3356L48.2526 29.6644ZM17.8321 29.5547L25.8321 17.5547L24.1679 16.4453L16.1679 28.4453L17.8321 29.5547ZM24.3415 17.7526L32.3415 24.7526L33.6585 23.2474L25.6585 16.2474L24.3415 17.7526ZM33.4472 24.8944L41.4472 20.8944L40.5528 19.1056L32.5528 23.1056L33.4472 24.8944ZM40.2526 20.6644L48.2526 29.6644L49.7474 28.3356L41.7474 19.3356L40.2526 20.6644Z" fill="#8F959F" fill-opacity="0.2"/>
<path d="M34 17.5C34 12.8056 37.8056 9 42.5 9C47.1944 9 51 12.8056 51 17.5C51 19.3689 50.3969 21.0969 49.3746 22.5" stroke="#8F959F" stroke-opacity="0.2" stroke-width="2" stroke-linecap="round" stroke-linejoin="round"/>
<path d="M6 17C4.89543 17 4 16.1046 4 15V13C4 11.8954 4.89543 11 6 11H26C27.1046 11 28 11.8954 28 13V15C28 16.1046 27.1046 17 26 17H6Z" fill="#74A3EE"/>
<path d="M9 29C7.89543 29 7 28.1045 7 27V25C7 23.8954 7.89543 23 9 23H23C24.1046 23 25 23.8954 25 25V27C25 28.1045 24.1046 29 23 29H9Z" fill="#74A3EE"/>
</svg>
