<svg width="590" height="110" viewBox="0 0 590 110" fill="none" xmlns="http://www.w3.org/2000/svg">
<rect width="590" height="110" rx="3" fill="white"/>
<path d="M0 70.5H590M0 96.5H590" stroke="#DFE8F5"/>
<rect x="150.5" y="34.5" width="286" height="19" rx="2.5" stroke="#DFE8F5"/>
<rect x="465" y="39" width="50" height="10" rx="3" fill="#DFE8F5"/>
<rect x="161" y="79" width="25" height="10" rx="3" fill="#DFE8F5"/>
<rect x="191" y="79" width="25" height="10" rx="3" fill="#DFE8F5"/>
<rect x="221" y="79" width="25" height="10" rx="3" fill="#DFE8F5"/>
<rect x="251" y="79" width="25" height="10" rx="3" fill="#DFE8F5"/>
<rect x="281" y="79" width="25" height="10" rx="3" fill="#DFE8F5"/>
<rect x="311" y="79" width="25" height="10" rx="3" fill="#DFE8F5"/>
<rect x="465" y="79" width="50" height="10" rx="3" fill="#DFE8F5"/>
<rect x="520" y="79" width="50" height="10" rx="3" fill="#DFE8F5"/>
<rect x="525" y="34" width="20" height="20" rx="3" fill="#DFE8F5"/>
<rect x="550" y="34" width="20" height="20" rx="3" fill="#DFE8F5"/>
<path d="M0 3C0 1.34315 1.34315 0 3 0H587C588.657 0 590 1.34315 590 3V20H0V3Z" fill="#74A3EE"/>
<rect x="20" y="70" width="130" height="27" rx="3" fill="#74A3EE"/>
<path d="M28.5 80.5H36.5M28.5 83.5H36.5M28.5 86.5H36.5" stroke="#DFE8F5" stroke-linecap="round" stroke-linejoin="round"/>
<path d="M142.5 82.5L139.5 85.5L136.5 82.5" stroke="#DFE8F5" stroke-linecap="round" stroke-linejoin="round"/>
<circle cx="30.5" cy="44.5" r="10.5" fill="#DFE8F5"/>
<path d="M31.0352 49C30.7085 49 30.4565 48.9113 30.2792 48.734C30.1019 48.5567 30.0132 48.3047 30.0132 47.978V40.138C30.0132 39.8113 30.1112 39.55 30.3072 39.354C30.5032 39.158 30.7692 39.06 31.1052 39.06C31.4412 39.06 31.7072 39.158 31.9032 39.354C32.0992 39.55 32.1972 39.8113 32.1972 40.138V47.222H35.7812C36.4625 47.222 36.8032 47.5207 36.8032 48.118C36.8032 48.706 36.4625 49 35.7812 49H31.0352ZM40.9695 49.112C40.2415 49.112 39.6022 48.9673 39.0515 48.678C38.5008 48.3793 38.0762 47.964 37.7775 47.432C37.4788 46.8907 37.3295 46.256 37.3295 45.528C37.3295 44.8 37.4788 44.17 37.7775 43.638C38.0762 43.0967 38.5008 42.6813 39.0515 42.392C39.6022 42.1027 40.2415 41.958 40.9695 41.958C41.6975 41.958 42.3368 42.1027 42.8875 42.392C43.4382 42.6813 43.8628 43.0967 44.1615 43.638C44.4602 44.17 44.6095 44.8 44.6095 45.528C44.6095 46.256 44.4602 46.8907 44.1615 47.432C43.8628 47.964 43.4382 48.3793 42.8875 48.678C42.3368 48.9673 41.6975 49.112 40.9695 49.112ZM40.9695 47.502C41.9962 47.502 42.5095 46.844 42.5095 45.528C42.5095 44.8653 42.3742 44.3707 42.1035 44.044C41.8422 43.7173 41.4642 43.554 40.9695 43.554C39.9428 43.554 39.4295 44.212 39.4295 45.528C39.4295 46.844 39.9428 47.502 40.9695 47.502ZM51.86 41.986C52.1773 41.986 52.4293 42.0793 52.616 42.266C52.812 42.4433 52.91 42.6813 52.91 42.98V48.258C52.91 49.3687 52.588 50.2087 51.944 50.778C51.3 51.3473 50.3573 51.632 49.116 51.632C48.0707 51.632 47.212 51.4453 46.54 51.072C46.372 50.9787 46.2413 50.862 46.148 50.722C46.0547 50.5913 46.008 50.442 46.008 50.274C46.008 50.0407 46.064 49.8493 46.176 49.7C46.288 49.5507 46.4373 49.476 46.624 49.476C46.7267 49.476 46.848 49.4947 46.988 49.532C47.128 49.5787 47.2727 49.63 47.422 49.686C47.7207 49.798 47.996 49.8867 48.248 49.952C48.5 50.0173 48.7707 50.05 49.06 50.05C49.6573 50.05 50.1007 49.9147 50.39 49.644C50.6793 49.3733 50.824 48.9627 50.824 48.412V47.656C50.628 48.0107 50.334 48.2907 49.942 48.496C49.55 48.7013 49.1113 48.804 48.626 48.804C48.0287 48.804 47.4967 48.664 47.03 48.384C46.5727 48.104 46.2133 47.7073 45.952 47.194C45.6907 46.6713 45.56 46.0693 45.56 45.388C45.56 44.7067 45.6907 44.1093 45.952 43.596C46.2133 43.0733 46.5727 42.672 47.03 42.392C47.4967 42.1027 48.0287 41.958 48.626 41.958C49.102 41.958 49.5313 42.0607 49.914 42.266C50.306 42.462 50.6047 42.7373 50.81 43.092V42.952C50.81 42.6533 50.9033 42.42 51.09 42.252C51.286 42.0747 51.5427 41.986 51.86 41.986ZM49.242 47.194C49.7367 47.194 50.1193 47.0353 50.39 46.718C50.67 46.4007 50.81 45.9573 50.81 45.388C50.81 44.8187 50.67 44.3753 50.39 44.058C50.1193 43.7313 49.7367 43.568 49.242 43.568C48.7473 43.568 48.36 43.7313 48.08 44.058C47.8 44.3753 47.66 44.8187 47.66 45.388C47.66 45.9573 47.8 46.4007 48.08 46.718C48.36 47.0353 48.7473 47.194 49.242 47.194ZM57.8406 49.112C57.1126 49.112 56.4733 48.9673 55.9226 48.678C55.3719 48.3793 54.9473 47.964 54.6486 47.432C54.3499 46.8907 54.2006 46.256 54.2006 45.528C54.2006 44.8 54.3499 44.17 54.6486 43.638C54.9473 43.0967 55.3719 42.6813 55.9226 42.392C56.4733 42.1027 57.1126 41.958 57.8406 41.958C58.5686 41.958 59.2079 42.1027 59.7586 42.392C60.3093 42.6813 60.7339 43.0967 61.0326 43.638C61.3313 44.17 61.4806 44.8 61.4806 45.528C61.4806 46.256 61.3313 46.8907 61.0326 47.432C60.7339 47.964 60.3093 48.3793 59.7586 48.678C59.2079 48.9673 58.5686 49.112 57.8406 49.112ZM57.8406 47.502C58.8673 47.502 59.3806 46.844 59.3806 45.528C59.3806 44.8653 59.2453 44.3707 58.9746 44.044C58.7133 43.7173 58.3353 43.554 57.8406 43.554C56.8139 43.554 56.3006 44.212 56.3006 45.528C56.3006 46.844 56.8139 47.502 57.8406 47.502ZM66.5207 47.544C66.8007 47.5627 67.0061 47.6327 67.1367 47.754C67.2674 47.8753 67.3327 48.0527 67.3327 48.286C67.3327 48.5567 67.2254 48.762 67.0107 48.902C66.7961 49.042 66.4881 49.098 66.0867 49.07L65.6947 49.042C64.0614 48.9113 63.2447 48.0573 63.2447 46.48V43.708H62.6847C62.3767 43.708 62.1434 43.6427 61.9847 43.512C61.8261 43.372 61.7467 43.176 61.7467 42.924C61.7467 42.6627 61.8261 42.4667 61.9847 42.336C62.1434 42.196 62.3767 42.126 62.6847 42.126H63.2447V41.034C63.2447 40.726 63.3381 40.4833 63.5247 40.306C63.7207 40.1287 63.9821 40.04 64.3087 40.04C64.6354 40.04 64.8921 40.1287 65.0787 40.306C65.2654 40.4833 65.3587 40.726 65.3587 41.034V42.126H66.3387C66.9734 42.126 67.2907 42.392 67.2907 42.924C67.2907 43.176 67.2114 43.372 67.0527 43.512C66.8941 43.6427 66.6561 43.708 66.3387 43.708H65.3587V46.634C65.3587 46.914 65.4241 47.1287 65.5547 47.278C65.6854 47.418 65.8767 47.4973 66.1287 47.516L66.5207 47.544ZM72.9395 42.588C73.0235 42.392 73.1402 42.2473 73.2895 42.154C73.4482 42.0607 73.6162 42.014 73.7935 42.014C74.0642 42.014 74.3022 42.1027 74.5075 42.28C74.7128 42.448 74.8155 42.6533 74.8155 42.896C74.8155 43.0267 74.7828 43.1573 74.7175 43.288L70.9515 51.016C70.8582 51.212 70.7322 51.3567 70.5735 51.45C70.4148 51.5527 70.2468 51.604 70.0695 51.604C69.8082 51.604 69.5795 51.52 69.3835 51.352C69.1875 51.184 69.0895 50.9787 69.0895 50.736C69.0895 50.5867 69.1222 50.4467 69.1875 50.316L70.1115 48.398L67.6195 43.288C67.5635 43.1573 67.5355 43.0313 67.5355 42.91C67.5355 42.658 67.6428 42.4433 67.8575 42.266C68.0815 42.0887 68.3335 42 68.6135 42C68.8002 42 68.9728 42.0513 69.1315 42.154C69.2902 42.2473 69.4162 42.392 69.5095 42.588L71.2455 46.368L72.9395 42.588ZM79.984 41.958C80.572 41.958 81.0947 42.112 81.552 42.42C82.0187 42.7187 82.378 43.1433 82.63 43.694C82.8913 44.2353 83.022 44.8607 83.022 45.57C83.022 46.2793 82.8913 46.9047 82.63 47.446C82.378 47.978 82.0233 48.3887 81.566 48.678C81.1087 48.9673 80.5813 49.112 79.984 49.112C79.5173 49.112 79.0927 49.0187 78.71 48.832C78.3367 48.636 78.0473 48.3653 77.842 48.02V50.666C77.842 50.946 77.7487 51.17 77.562 51.338C77.3753 51.506 77.128 51.59 76.82 51.59C76.4933 51.59 76.2273 51.5013 76.022 51.324C75.826 51.1467 75.728 50.9133 75.728 50.624V42.98C75.728 42.6813 75.8213 42.4433 76.008 42.266C76.204 42.0793 76.4607 41.986 76.778 41.986C77.0953 41.986 77.3473 42.0793 77.534 42.266C77.7207 42.4433 77.814 42.6813 77.814 42.98V43.092C78.0193 42.7373 78.3133 42.462 78.696 42.266C79.0787 42.0607 79.508 41.958 79.984 41.958ZM79.368 47.502C79.8627 47.502 80.2453 47.3387 80.516 47.012C80.7867 46.676 80.922 46.1953 80.922 45.57C80.922 44.9353 80.7867 44.4453 80.516 44.1C80.2453 43.7453 79.8627 43.568 79.368 43.568C78.8733 43.568 78.4907 43.7407 78.22 44.086C77.9493 44.422 77.814 44.9073 77.814 45.542C77.814 46.1673 77.9493 46.6527 78.22 46.998C78.4907 47.334 78.8733 47.502 79.368 47.502ZM89.83 46.956C90.0166 46.956 90.166 47.0307 90.278 47.18C90.3993 47.3293 90.46 47.5207 90.46 47.754C90.46 47.9127 90.4133 48.062 90.32 48.202C90.2266 48.3327 90.096 48.4447 89.928 48.538C89.6106 48.706 89.242 48.846 88.822 48.958C88.402 49.0607 88.0146 49.112 87.66 49.112C86.9133 49.112 86.26 48.9673 85.7 48.678C85.1493 48.3887 84.7246 47.978 84.426 47.446C84.1273 46.9047 83.978 46.27 83.978 45.542C83.978 44.842 84.1226 44.2213 84.412 43.68C84.7013 43.1387 85.1026 42.7187 85.616 42.42C86.1293 42.112 86.7126 41.958 87.366 41.958C87.9913 41.958 88.5373 42.098 89.004 42.378C89.48 42.6487 89.8486 43.0407 90.11 43.554C90.3713 44.058 90.502 44.6507 90.502 45.332C90.502 45.5373 90.4506 45.696 90.348 45.808C90.2546 45.9107 90.1193 45.962 89.942 45.962H86.022C86.0873 46.5127 86.2553 46.914 86.526 47.166C86.7966 47.4087 87.184 47.53 87.688 47.53C87.9586 47.53 88.2013 47.4973 88.416 47.432C88.6306 47.3667 88.8686 47.278 89.13 47.166C89.2606 47.11 89.3866 47.0633 89.508 47.026C89.6293 46.9793 89.7366 46.956 89.83 46.956ZM87.422 43.414C87.0206 43.414 86.6986 43.5447 86.456 43.806C86.2133 44.058 86.0686 44.4267 86.022 44.912H88.724C88.696 44.4173 88.57 44.044 88.346 43.792C88.1313 43.54 87.8233 43.414 87.422 43.414Z" fill="#74A3EE"/>
</svg>
