<svg width="590" height="60" viewBox="0 0 590 60" fill="none" xmlns="http://www.w3.org/2000/svg">
<rect width="590" height="60" rx="3" fill="white"/>
<rect x="160" y="36" width="25" height="10" rx="3" fill="#DFE8F5"/>
<rect x="190" y="36" width="25" height="10" rx="3" fill="#DFE8F5"/>
<rect x="220" y="36" width="25" height="10" rx="3" fill="#DFE8F5"/>
<rect x="345" y="36" width="25" height="10" rx="3" fill="#DFE8F5"/>
<rect x="375" y="36" width="25" height="10" rx="3" fill="#DFE8F5"/>
<rect x="405" y="36" width="25" height="10" rx="3" fill="#DFE8F5"/>
<rect x="524" y="31" width="20" height="20" rx="3" fill="#DFE8F5"/>
<rect x="550" y="31" width="20" height="20" rx="3" fill="#DFE8F5"/>
<rect x="20" y="31" width="20" height="20" rx="3" fill="#DFE8F5"/>
<rect x="46" y="31" width="20" height="20" rx="3" fill="#DFE8F5"/>
<circle cx="269.5" cy="40.5" r="10.5" fill="#DFE8F5"/>
<path d="M270.035 45C269.709 45 269.457 44.9113 269.279 44.734C269.102 44.5567 269.013 44.3047 269.013 43.978V36.138C269.013 35.8113 269.111 35.55 269.307 35.354C269.503 35.158 269.769 35.06 270.105 35.06C270.441 35.06 270.707 35.158 270.903 35.354C271.099 35.55 271.197 35.8113 271.197 36.138V43.222H274.781C275.463 43.222 275.803 43.5207 275.803 44.118C275.803 44.706 275.463 45 274.781 45H270.035ZM279.97 45.112C279.242 45.112 278.602 44.9673 278.052 44.678C277.501 44.3793 277.076 43.964 276.778 43.432C276.479 42.8907 276.33 42.256 276.33 41.528C276.33 40.8 276.479 40.17 276.778 39.638C277.076 39.0967 277.501 38.6813 278.052 38.392C278.602 38.1027 279.242 37.958 279.97 37.958C280.698 37.958 281.337 38.1027 281.888 38.392C282.438 38.6813 282.863 39.0967 283.162 39.638C283.46 40.17 283.61 40.8 283.61 41.528C283.61 42.256 283.46 42.8907 283.162 43.432C282.863 43.964 282.438 44.3793 281.888 44.678C281.337 44.9673 280.698 45.112 279.97 45.112ZM279.97 43.502C280.996 43.502 281.51 42.844 281.51 41.528C281.51 40.8653 281.374 40.3707 281.104 40.044C280.842 39.7173 280.464 39.554 279.97 39.554C278.943 39.554 278.43 40.212 278.43 41.528C278.43 42.844 278.943 43.502 279.97 43.502ZM290.86 37.986C291.177 37.986 291.429 38.0793 291.616 38.266C291.812 38.4433 291.91 38.6813 291.91 38.98V44.258C291.91 45.3687 291.588 46.2087 290.944 46.778C290.3 47.3473 289.357 47.632 288.116 47.632C287.071 47.632 286.212 47.4453 285.54 47.072C285.372 46.9787 285.241 46.862 285.148 46.722C285.055 46.5913 285.008 46.442 285.008 46.274C285.008 46.0407 285.064 45.8493 285.176 45.7C285.288 45.5507 285.437 45.476 285.624 45.476C285.727 45.476 285.848 45.4947 285.988 45.532C286.128 45.5787 286.273 45.63 286.422 45.686C286.721 45.798 286.996 45.8867 287.248 45.952C287.5 46.0173 287.771 46.05 288.06 46.05C288.657 46.05 289.101 45.9147 289.39 45.644C289.679 45.3733 289.824 44.9627 289.824 44.412V43.656C289.628 44.0107 289.334 44.2907 288.942 44.496C288.55 44.7013 288.111 44.804 287.626 44.804C287.029 44.804 286.497 44.664 286.03 44.384C285.573 44.104 285.213 43.7073 284.952 43.194C284.691 42.6713 284.56 42.0693 284.56 41.388C284.56 40.7067 284.691 40.1093 284.952 39.596C285.213 39.0733 285.573 38.672 286.03 38.392C286.497 38.1027 287.029 37.958 287.626 37.958C288.102 37.958 288.531 38.0607 288.914 38.266C289.306 38.462 289.605 38.7373 289.81 39.092V38.952C289.81 38.6533 289.903 38.42 290.09 38.252C290.286 38.0747 290.543 37.986 290.86 37.986ZM288.242 43.194C288.737 43.194 289.119 43.0353 289.39 42.718C289.67 42.4007 289.81 41.9573 289.81 41.388C289.81 40.8187 289.67 40.3753 289.39 40.058C289.119 39.7313 288.737 39.568 288.242 39.568C287.747 39.568 287.36 39.7313 287.08 40.058C286.8 40.3753 286.66 40.8187 286.66 41.388C286.66 41.9573 286.8 42.4007 287.08 42.718C287.36 43.0353 287.747 43.194 288.242 43.194ZM296.841 45.112C296.113 45.112 295.473 44.9673 294.923 44.678C294.372 44.3793 293.947 43.964 293.649 43.432C293.35 42.8907 293.201 42.256 293.201 41.528C293.201 40.8 293.35 40.17 293.649 39.638C293.947 39.0967 294.372 38.6813 294.923 38.392C295.473 38.1027 296.113 37.958 296.841 37.958C297.569 37.958 298.208 38.1027 298.759 38.392C299.309 38.6813 299.734 39.0967 300.033 39.638C300.331 40.17 300.481 40.8 300.481 41.528C300.481 42.256 300.331 42.8907 300.033 43.432C299.734 43.964 299.309 44.3793 298.759 44.678C298.208 44.9673 297.569 45.112 296.841 45.112ZM296.841 43.502C297.867 43.502 298.381 42.844 298.381 41.528C298.381 40.8653 298.245 40.3707 297.975 40.044C297.713 39.7173 297.335 39.554 296.841 39.554C295.814 39.554 295.301 40.212 295.301 41.528C295.301 42.844 295.814 43.502 296.841 43.502ZM305.521 43.544C305.801 43.5627 306.006 43.6327 306.137 43.754C306.267 43.8753 306.333 44.0527 306.333 44.286C306.333 44.5567 306.225 44.762 306.011 44.902C305.796 45.042 305.488 45.098 305.087 45.07L304.695 45.042C303.061 44.9113 302.245 44.0573 302.245 42.48V39.708H301.685C301.377 39.708 301.143 39.6427 300.985 39.512C300.826 39.372 300.747 39.176 300.747 38.924C300.747 38.6627 300.826 38.4667 300.985 38.336C301.143 38.196 301.377 38.126 301.685 38.126H302.245V37.034C302.245 36.726 302.338 36.4833 302.525 36.306C302.721 36.1287 302.982 36.04 303.309 36.04C303.635 36.04 303.892 36.1287 304.079 36.306C304.265 36.4833 304.359 36.726 304.359 37.034V38.126H305.339C305.973 38.126 306.291 38.392 306.291 38.924C306.291 39.176 306.211 39.372 306.053 39.512C305.894 39.6427 305.656 39.708 305.339 39.708H304.359V42.634C304.359 42.914 304.424 43.1287 304.555 43.278C304.685 43.418 304.877 43.4973 305.129 43.516L305.521 43.544ZM311.94 38.588C312.024 38.392 312.14 38.2473 312.29 38.154C312.448 38.0607 312.616 38.014 312.794 38.014C313.064 38.014 313.302 38.1027 313.507 38.28C313.713 38.448 313.816 38.6533 313.816 38.896C313.816 39.0267 313.783 39.1573 313.718 39.288L309.952 47.016C309.858 47.212 309.732 47.3567 309.574 47.45C309.415 47.5527 309.247 47.604 309.07 47.604C308.808 47.604 308.58 47.52 308.384 47.352C308.188 47.184 308.09 46.9787 308.09 46.736C308.09 46.5867 308.122 46.4467 308.188 46.316L309.112 44.398L306.62 39.288C306.564 39.1573 306.536 39.0313 306.536 38.91C306.536 38.658 306.643 38.4433 306.858 38.266C307.082 38.0887 307.334 38 307.614 38C307.8 38 307.973 38.0513 308.132 38.154C308.29 38.2473 308.416 38.392 308.51 38.588L310.246 42.368L311.94 38.588ZM318.984 37.958C319.572 37.958 320.095 38.112 320.552 38.42C321.019 38.7187 321.378 39.1433 321.63 39.694C321.891 40.2353 322.022 40.8607 322.022 41.57C322.022 42.2793 321.891 42.9047 321.63 43.446C321.378 43.978 321.023 44.3887 320.566 44.678C320.109 44.9673 319.581 45.112 318.984 45.112C318.517 45.112 318.093 45.0187 317.71 44.832C317.337 44.636 317.047 44.3653 316.842 44.02V46.666C316.842 46.946 316.749 47.17 316.562 47.338C316.375 47.506 316.128 47.59 315.82 47.59C315.493 47.59 315.227 47.5013 315.022 47.324C314.826 47.1467 314.728 46.9133 314.728 46.624V38.98C314.728 38.6813 314.821 38.4433 315.008 38.266C315.204 38.0793 315.461 37.986 315.778 37.986C316.095 37.986 316.347 38.0793 316.534 38.266C316.721 38.4433 316.814 38.6813 316.814 38.98V39.092C317.019 38.7373 317.313 38.462 317.696 38.266C318.079 38.0607 318.508 37.958 318.984 37.958ZM318.368 43.502C318.863 43.502 319.245 43.3387 319.516 43.012C319.787 42.676 319.922 42.1953 319.922 41.57C319.922 40.9353 319.787 40.4453 319.516 40.1C319.245 39.7453 318.863 39.568 318.368 39.568C317.873 39.568 317.491 39.7407 317.22 40.086C316.949 40.422 316.814 40.9073 316.814 41.542C316.814 42.1673 316.949 42.6527 317.22 42.998C317.491 43.334 317.873 43.502 318.368 43.502ZM328.83 42.956C329.017 42.956 329.166 43.0307 329.278 43.18C329.399 43.3293 329.46 43.5207 329.46 43.754C329.46 43.9127 329.413 44.062 329.32 44.202C329.227 44.3327 329.096 44.4447 328.928 44.538C328.611 44.706 328.242 44.846 327.822 44.958C327.402 45.0607 327.015 45.112 326.66 45.112C325.913 45.112 325.26 44.9673 324.7 44.678C324.149 44.3887 323.725 43.978 323.426 43.446C323.127 42.9047 322.978 42.27 322.978 41.542C322.978 40.842 323.123 40.2213 323.412 39.68C323.701 39.1387 324.103 38.7187 324.616 38.42C325.129 38.112 325.713 37.958 326.366 37.958C326.991 37.958 327.537 38.098 328.004 38.378C328.48 38.6487 328.849 39.0407 329.11 39.554C329.371 40.058 329.502 40.6507 329.502 41.332C329.502 41.5373 329.451 41.696 329.348 41.808C329.255 41.9107 329.119 41.962 328.942 41.962H325.022C325.087 42.5127 325.255 42.914 325.526 43.166C325.797 43.4087 326.184 43.53 326.688 43.53C326.959 43.53 327.201 43.4973 327.416 43.432C327.631 43.3667 327.869 43.278 328.13 43.166C328.261 43.11 328.387 43.0633 328.508 43.026C328.629 42.9793 328.737 42.956 328.83 42.956ZM326.422 39.414C326.021 39.414 325.699 39.5447 325.456 39.806C325.213 40.058 325.069 40.4267 325.022 40.912H327.724C327.696 40.4173 327.57 40.044 327.346 39.792C327.131 39.54 326.823 39.414 326.422 39.414Z" fill="#74A3EE"/>
<path d="M0 3C0 1.34315 1.34315 0 3 0H587C588.657 0 590 1.34315 590 3V20H0V3Z" fill="#74A3EE"/>
</svg>
