<svg width="590" height="110" viewBox="0 0 590 110" fill="none" xmlns="http://www.w3.org/2000/svg">
<rect width="590" height="110" rx="3" fill="white"/>
<path d="M222 81C222 79.3431 223.343 78 225 78H244C245.657 78 247 79.3431 247 81V85C247 86.6569 245.657 88 244 88H225C223.343 88 222 86.6569 222 85V81Z" fill="#DFE8F5"/>
<path d="M252 81C252 79.3431 253.343 78 255 78H274C275.657 78 277 79.3431 277 81V85C277 86.6569 275.657 88 274 88H255C253.343 88 252 86.6569 252 85V81Z" fill="#DFE8F5"/>
<path d="M282 81C282 79.3431 283.343 78 285 78H304C305.657 78 307 79.3431 307 81V85C307 86.6569 305.657 88 304 88H285C283.343 88 282 86.6569 282 85V81Z" fill="#DFE8F5"/>
<path d="M312 81C312 79.3431 313.343 78 315 78H334C335.657 78 337 79.3431 337 81V85C337 86.6569 335.657 88 334 88H315C313.343 88 312 86.6569 312 85V81Z" fill="#DFE8F5"/>
<path d="M342 81C342 79.3431 343.343 78 345 78H364C365.657 78 367 79.3431 367 81V85C367 86.6569 365.657 88 364 88H345C343.343 88 342 86.6569 342 85V81Z" fill="#DFE8F5"/>
<rect x="465" y="36" width="50" height="10" rx="3" fill="#DFE8F5"/>
<rect x="20" y="36" width="140" height="10" rx="3" fill="#DFE8F5"/>
<rect x="525" y="31" width="20" height="20" rx="3" fill="#DFE8F5"/>
<rect x="550" y="31" width="20" height="20" rx="3" fill="#DFE8F5"/>
<circle cx="265.5" cy="40.5" r="10.5" fill="#DFE8F5"/>
<path d="M266.035 45C265.709 45 265.457 44.9113 265.279 44.734C265.102 44.5567 265.013 44.3047 265.013 43.978V36.138C265.013 35.8113 265.111 35.55 265.307 35.354C265.503 35.158 265.769 35.06 266.105 35.06C266.441 35.06 266.707 35.158 266.903 35.354C267.099 35.55 267.197 35.8113 267.197 36.138V43.222H270.781C271.463 43.222 271.803 43.5207 271.803 44.118C271.803 44.706 271.463 45 270.781 45H266.035ZM275.97 45.112C275.242 45.112 274.602 44.9673 274.052 44.678C273.501 44.3793 273.076 43.964 272.778 43.432C272.479 42.8907 272.33 42.256 272.33 41.528C272.33 40.8 272.479 40.17 272.778 39.638C273.076 39.0967 273.501 38.6813 274.052 38.392C274.602 38.1027 275.242 37.958 275.97 37.958C276.698 37.958 277.337 38.1027 277.888 38.392C278.438 38.6813 278.863 39.0967 279.162 39.638C279.46 40.17 279.61 40.8 279.61 41.528C279.61 42.256 279.46 42.8907 279.162 43.432C278.863 43.964 278.438 44.3793 277.888 44.678C277.337 44.9673 276.698 45.112 275.97 45.112ZM275.97 43.502C276.996 43.502 277.51 42.844 277.51 41.528C277.51 40.8653 277.374 40.3707 277.104 40.044C276.842 39.7173 276.464 39.554 275.97 39.554C274.943 39.554 274.43 40.212 274.43 41.528C274.43 42.844 274.943 43.502 275.97 43.502ZM286.86 37.986C287.177 37.986 287.429 38.0793 287.616 38.266C287.812 38.4433 287.91 38.6813 287.91 38.98V44.258C287.91 45.3687 287.588 46.2087 286.944 46.778C286.3 47.3473 285.357 47.632 284.116 47.632C283.071 47.632 282.212 47.4453 281.54 47.072C281.372 46.9787 281.241 46.862 281.148 46.722C281.055 46.5913 281.008 46.442 281.008 46.274C281.008 46.0407 281.064 45.8493 281.176 45.7C281.288 45.5507 281.437 45.476 281.624 45.476C281.727 45.476 281.848 45.4947 281.988 45.532C282.128 45.5787 282.273 45.63 282.422 45.686C282.721 45.798 282.996 45.8867 283.248 45.952C283.5 46.0173 283.771 46.05 284.06 46.05C284.657 46.05 285.101 45.9147 285.39 45.644C285.679 45.3733 285.824 44.9627 285.824 44.412V43.656C285.628 44.0107 285.334 44.2907 284.942 44.496C284.55 44.7013 284.111 44.804 283.626 44.804C283.029 44.804 282.497 44.664 282.03 44.384C281.573 44.104 281.213 43.7073 280.952 43.194C280.691 42.6713 280.56 42.0693 280.56 41.388C280.56 40.7067 280.691 40.1093 280.952 39.596C281.213 39.0733 281.573 38.672 282.03 38.392C282.497 38.1027 283.029 37.958 283.626 37.958C284.102 37.958 284.531 38.0607 284.914 38.266C285.306 38.462 285.605 38.7373 285.81 39.092V38.952C285.81 38.6533 285.903 38.42 286.09 38.252C286.286 38.0747 286.543 37.986 286.86 37.986ZM284.242 43.194C284.737 43.194 285.119 43.0353 285.39 42.718C285.67 42.4007 285.81 41.9573 285.81 41.388C285.81 40.8187 285.67 40.3753 285.39 40.058C285.119 39.7313 284.737 39.568 284.242 39.568C283.747 39.568 283.36 39.7313 283.08 40.058C282.8 40.3753 282.66 40.8187 282.66 41.388C282.66 41.9573 282.8 42.4007 283.08 42.718C283.36 43.0353 283.747 43.194 284.242 43.194ZM292.841 45.112C292.113 45.112 291.473 44.9673 290.923 44.678C290.372 44.3793 289.947 43.964 289.649 43.432C289.35 42.8907 289.201 42.256 289.201 41.528C289.201 40.8 289.35 40.17 289.649 39.638C289.947 39.0967 290.372 38.6813 290.923 38.392C291.473 38.1027 292.113 37.958 292.841 37.958C293.569 37.958 294.208 38.1027 294.759 38.392C295.309 38.6813 295.734 39.0967 296.033 39.638C296.331 40.17 296.481 40.8 296.481 41.528C296.481 42.256 296.331 42.8907 296.033 43.432C295.734 43.964 295.309 44.3793 294.759 44.678C294.208 44.9673 293.569 45.112 292.841 45.112ZM292.841 43.502C293.867 43.502 294.381 42.844 294.381 41.528C294.381 40.8653 294.245 40.3707 293.975 40.044C293.713 39.7173 293.335 39.554 292.841 39.554C291.814 39.554 291.301 40.212 291.301 41.528C291.301 42.844 291.814 43.502 292.841 43.502ZM301.521 43.544C301.801 43.5627 302.006 43.6327 302.137 43.754C302.267 43.8753 302.333 44.0527 302.333 44.286C302.333 44.5567 302.225 44.762 302.011 44.902C301.796 45.042 301.488 45.098 301.087 45.07L300.695 45.042C299.061 44.9113 298.245 44.0573 298.245 42.48V39.708H297.685C297.377 39.708 297.143 39.6427 296.985 39.512C296.826 39.372 296.747 39.176 296.747 38.924C296.747 38.6627 296.826 38.4667 296.985 38.336C297.143 38.196 297.377 38.126 297.685 38.126H298.245V37.034C298.245 36.726 298.338 36.4833 298.525 36.306C298.721 36.1287 298.982 36.04 299.309 36.04C299.635 36.04 299.892 36.1287 300.079 36.306C300.265 36.4833 300.359 36.726 300.359 37.034V38.126H301.339C301.973 38.126 302.291 38.392 302.291 38.924C302.291 39.176 302.211 39.372 302.053 39.512C301.894 39.6427 301.656 39.708 301.339 39.708H300.359V42.634C300.359 42.914 300.424 43.1287 300.555 43.278C300.685 43.418 300.877 43.4973 301.129 43.516L301.521 43.544ZM307.94 38.588C308.024 38.392 308.14 38.2473 308.29 38.154C308.448 38.0607 308.616 38.014 308.794 38.014C309.064 38.014 309.302 38.1027 309.507 38.28C309.713 38.448 309.816 38.6533 309.816 38.896C309.816 39.0267 309.783 39.1573 309.718 39.288L305.952 47.016C305.858 47.212 305.732 47.3567 305.574 47.45C305.415 47.5527 305.247 47.604 305.07 47.604C304.808 47.604 304.58 47.52 304.384 47.352C304.188 47.184 304.09 46.9787 304.09 46.736C304.09 46.5867 304.122 46.4467 304.188 46.316L305.112 44.398L302.62 39.288C302.564 39.1573 302.536 39.0313 302.536 38.91C302.536 38.658 302.643 38.4433 302.858 38.266C303.082 38.0887 303.334 38 303.614 38C303.8 38 303.973 38.0513 304.132 38.154C304.29 38.2473 304.416 38.392 304.51 38.588L306.246 42.368L307.94 38.588ZM314.984 37.958C315.572 37.958 316.095 38.112 316.552 38.42C317.019 38.7187 317.378 39.1433 317.63 39.694C317.891 40.2353 318.022 40.8607 318.022 41.57C318.022 42.2793 317.891 42.9047 317.63 43.446C317.378 43.978 317.023 44.3887 316.566 44.678C316.109 44.9673 315.581 45.112 314.984 45.112C314.517 45.112 314.093 45.0187 313.71 44.832C313.337 44.636 313.047 44.3653 312.842 44.02V46.666C312.842 46.946 312.749 47.17 312.562 47.338C312.375 47.506 312.128 47.59 311.82 47.59C311.493 47.59 311.227 47.5013 311.022 47.324C310.826 47.1467 310.728 46.9133 310.728 46.624V38.98C310.728 38.6813 310.821 38.4433 311.008 38.266C311.204 38.0793 311.461 37.986 311.778 37.986C312.095 37.986 312.347 38.0793 312.534 38.266C312.721 38.4433 312.814 38.6813 312.814 38.98V39.092C313.019 38.7373 313.313 38.462 313.696 38.266C314.079 38.0607 314.508 37.958 314.984 37.958ZM314.368 43.502C314.863 43.502 315.245 43.3387 315.516 43.012C315.787 42.676 315.922 42.1953 315.922 41.57C315.922 40.9353 315.787 40.4453 315.516 40.1C315.245 39.7453 314.863 39.568 314.368 39.568C313.873 39.568 313.491 39.7407 313.22 40.086C312.949 40.422 312.814 40.9073 312.814 41.542C312.814 42.1673 312.949 42.6527 313.22 42.998C313.491 43.334 313.873 43.502 314.368 43.502ZM324.83 42.956C325.017 42.956 325.166 43.0307 325.278 43.18C325.399 43.3293 325.46 43.5207 325.46 43.754C325.46 43.9127 325.413 44.062 325.32 44.202C325.227 44.3327 325.096 44.4447 324.928 44.538C324.611 44.706 324.242 44.846 323.822 44.958C323.402 45.0607 323.015 45.112 322.66 45.112C321.913 45.112 321.26 44.9673 320.7 44.678C320.149 44.3887 319.725 43.978 319.426 43.446C319.127 42.9047 318.978 42.27 318.978 41.542C318.978 40.842 319.123 40.2213 319.412 39.68C319.701 39.1387 320.103 38.7187 320.616 38.42C321.129 38.112 321.713 37.958 322.366 37.958C322.991 37.958 323.537 38.098 324.004 38.378C324.48 38.6487 324.849 39.0407 325.11 39.554C325.371 40.058 325.502 40.6507 325.502 41.332C325.502 41.5373 325.451 41.696 325.348 41.808C325.255 41.9107 325.119 41.962 324.942 41.962H321.022C321.087 42.5127 321.255 42.914 321.526 43.166C321.797 43.4087 322.184 43.53 322.688 43.53C322.959 43.53 323.201 43.4973 323.416 43.432C323.631 43.3667 323.869 43.278 324.13 43.166C324.261 43.11 324.387 43.0633 324.508 43.026C324.629 42.9793 324.737 42.956 324.83 42.956ZM322.422 39.414C322.021 39.414 321.699 39.5447 321.456 39.806C321.213 40.058 321.069 40.4267 321.022 40.912H323.724C323.696 40.4173 323.57 40.044 323.346 39.792C323.131 39.54 322.823 39.414 322.422 39.414Z" fill="#74A3EE"/>
<path d="M0 3C0 1.34315 1.34315 0 3 0H587C588.657 0 590 1.34315 590 3V20H0V3Z" fill="#74A3EE"/>
<path d="M0 69.5H590M0 95.5H590" stroke="#DFE8F5"/>
</svg>
