<svg width="590" height="60" viewBox="0 0 590 60" fill="none" xmlns="http://www.w3.org/2000/svg">
<rect width="590" height="60" rx="3" fill="white"/>
<rect x="207" y="36" width="25" height="10" rx="3" fill="#DFE8F5"/>
<rect x="237" y="36" width="25" height="10" rx="3" fill="#DFE8F5"/>
<rect x="267" y="36" width="25" height="10" rx="3" fill="#DFE8F5"/>
<rect x="297" y="36" width="25" height="10" rx="3" fill="#DFE8F5"/>
<rect x="327" y="36" width="25" height="10" rx="3" fill="#DFE8F5"/>
<rect x="357" y="36" width="25" height="10" rx="3" fill="#DFE8F5"/>
<rect x="440" y="36" width="50" height="10" rx="3" fill="#DFE8F5"/>
<rect x="525" y="31" width="20" height="20" rx="3" fill="#DFE8F5"/>
<rect x="550" y="31" width="20" height="20" rx="3" fill="#DFE8F5"/>
<rect x="500" y="31" width="20" height="20" rx="3" fill="#DFE8F5"/>
<circle cx="30.5" cy="40.5" r="10.5" fill="#DFE8F5"/>
<path d="M31.0352 45C30.7085 45 30.4565 44.9113 30.2792 44.734C30.1019 44.5567 30.0132 44.3047 30.0132 43.978V36.138C30.0132 35.8113 30.1112 35.55 30.3072 35.354C30.5032 35.158 30.7692 35.06 31.1052 35.06C31.4412 35.06 31.7072 35.158 31.9032 35.354C32.0992 35.55 32.1972 35.8113 32.1972 36.138V43.222H35.7812C36.4625 43.222 36.8032 43.5207 36.8032 44.118C36.8032 44.706 36.4625 45 35.7812 45H31.0352ZM40.9695 45.112C40.2415 45.112 39.6022 44.9673 39.0515 44.678C38.5008 44.3793 38.0762 43.964 37.7775 43.432C37.4788 42.8907 37.3295 42.256 37.3295 41.528C37.3295 40.8 37.4788 40.17 37.7775 39.638C38.0762 39.0967 38.5008 38.6813 39.0515 38.392C39.6022 38.1027 40.2415 37.958 40.9695 37.958C41.6975 37.958 42.3368 38.1027 42.8875 38.392C43.4382 38.6813 43.8628 39.0967 44.1615 39.638C44.4602 40.17 44.6095 40.8 44.6095 41.528C44.6095 42.256 44.4602 42.8907 44.1615 43.432C43.8628 43.964 43.4382 44.3793 42.8875 44.678C42.3368 44.9673 41.6975 45.112 40.9695 45.112ZM40.9695 43.502C41.9962 43.502 42.5095 42.844 42.5095 41.528C42.5095 40.8653 42.3742 40.3707 42.1035 40.044C41.8422 39.7173 41.4642 39.554 40.9695 39.554C39.9428 39.554 39.4295 40.212 39.4295 41.528C39.4295 42.844 39.9428 43.502 40.9695 43.502ZM51.86 37.986C52.1773 37.986 52.4293 38.0793 52.616 38.266C52.812 38.4433 52.91 38.6813 52.91 38.98V44.258C52.91 45.3687 52.588 46.2087 51.944 46.778C51.3 47.3473 50.3573 47.632 49.116 47.632C48.0707 47.632 47.212 47.4453 46.54 47.072C46.372 46.9787 46.2413 46.862 46.148 46.722C46.0547 46.5913 46.008 46.442 46.008 46.274C46.008 46.0407 46.064 45.8493 46.176 45.7C46.288 45.5507 46.4373 45.476 46.624 45.476C46.7267 45.476 46.848 45.4947 46.988 45.532C47.128 45.5787 47.2727 45.63 47.422 45.686C47.7207 45.798 47.996 45.8867 48.248 45.952C48.5 46.0173 48.7707 46.05 49.06 46.05C49.6573 46.05 50.1007 45.9147 50.39 45.644C50.6793 45.3733 50.824 44.9627 50.824 44.412V43.656C50.628 44.0107 50.334 44.2907 49.942 44.496C49.55 44.7013 49.1113 44.804 48.626 44.804C48.0287 44.804 47.4967 44.664 47.03 44.384C46.5727 44.104 46.2133 43.7073 45.952 43.194C45.6907 42.6713 45.56 42.0693 45.56 41.388C45.56 40.7067 45.6907 40.1093 45.952 39.596C46.2133 39.0733 46.5727 38.672 47.03 38.392C47.4967 38.1027 48.0287 37.958 48.626 37.958C49.102 37.958 49.5313 38.0607 49.914 38.266C50.306 38.462 50.6047 38.7373 50.81 39.092V38.952C50.81 38.6533 50.9033 38.42 51.09 38.252C51.286 38.0747 51.5427 37.986 51.86 37.986ZM49.242 43.194C49.7367 43.194 50.1193 43.0353 50.39 42.718C50.67 42.4007 50.81 41.9573 50.81 41.388C50.81 40.8187 50.67 40.3753 50.39 40.058C50.1193 39.7313 49.7367 39.568 49.242 39.568C48.7473 39.568 48.36 39.7313 48.08 40.058C47.8 40.3753 47.66 40.8187 47.66 41.388C47.66 41.9573 47.8 42.4007 48.08 42.718C48.36 43.0353 48.7473 43.194 49.242 43.194ZM57.8406 45.112C57.1126 45.112 56.4733 44.9673 55.9226 44.678C55.3719 44.3793 54.9473 43.964 54.6486 43.432C54.3499 42.8907 54.2006 42.256 54.2006 41.528C54.2006 40.8 54.3499 40.17 54.6486 39.638C54.9473 39.0967 55.3719 38.6813 55.9226 38.392C56.4733 38.1027 57.1126 37.958 57.8406 37.958C58.5686 37.958 59.2079 38.1027 59.7586 38.392C60.3093 38.6813 60.7339 39.0967 61.0326 39.638C61.3313 40.17 61.4806 40.8 61.4806 41.528C61.4806 42.256 61.3313 42.8907 61.0326 43.432C60.7339 43.964 60.3093 44.3793 59.7586 44.678C59.2079 44.9673 58.5686 45.112 57.8406 45.112ZM57.8406 43.502C58.8673 43.502 59.3806 42.844 59.3806 41.528C59.3806 40.8653 59.2453 40.3707 58.9746 40.044C58.7133 39.7173 58.3353 39.554 57.8406 39.554C56.8139 39.554 56.3006 40.212 56.3006 41.528C56.3006 42.844 56.8139 43.502 57.8406 43.502ZM66.5207 43.544C66.8007 43.5627 67.0061 43.6327 67.1367 43.754C67.2674 43.8753 67.3327 44.0527 67.3327 44.286C67.3327 44.5567 67.2254 44.762 67.0107 44.902C66.7961 45.042 66.4881 45.098 66.0867 45.07L65.6947 45.042C64.0614 44.9113 63.2447 44.0573 63.2447 42.48V39.708H62.6847C62.3767 39.708 62.1434 39.6427 61.9847 39.512C61.8261 39.372 61.7467 39.176 61.7467 38.924C61.7467 38.6627 61.8261 38.4667 61.9847 38.336C62.1434 38.196 62.3767 38.126 62.6847 38.126H63.2447V37.034C63.2447 36.726 63.3381 36.4833 63.5247 36.306C63.7207 36.1287 63.9821 36.04 64.3087 36.04C64.6354 36.04 64.8921 36.1287 65.0787 36.306C65.2654 36.4833 65.3587 36.726 65.3587 37.034V38.126H66.3387C66.9734 38.126 67.2907 38.392 67.2907 38.924C67.2907 39.176 67.2114 39.372 67.0527 39.512C66.8941 39.6427 66.6561 39.708 66.3387 39.708H65.3587V42.634C65.3587 42.914 65.4241 43.1287 65.5547 43.278C65.6854 43.418 65.8767 43.4973 66.1287 43.516L66.5207 43.544ZM72.9395 38.588C73.0235 38.392 73.1402 38.2473 73.2895 38.154C73.4482 38.0607 73.6162 38.014 73.7935 38.014C74.0642 38.014 74.3022 38.1027 74.5075 38.28C74.7128 38.448 74.8155 38.6533 74.8155 38.896C74.8155 39.0267 74.7828 39.1573 74.7175 39.288L70.9515 47.016C70.8582 47.212 70.7322 47.3567 70.5735 47.45C70.4148 47.5527 70.2468 47.604 70.0695 47.604C69.8082 47.604 69.5795 47.52 69.3835 47.352C69.1875 47.184 69.0895 46.9787 69.0895 46.736C69.0895 46.5867 69.1222 46.4467 69.1875 46.316L70.1115 44.398L67.6195 39.288C67.5635 39.1573 67.5355 39.0313 67.5355 38.91C67.5355 38.658 67.6428 38.4433 67.8575 38.266C68.0815 38.0887 68.3335 38 68.6135 38C68.8002 38 68.9728 38.0513 69.1315 38.154C69.2902 38.2473 69.4162 38.392 69.5095 38.588L71.2455 42.368L72.9395 38.588ZM79.984 37.958C80.572 37.958 81.0947 38.112 81.552 38.42C82.0187 38.7187 82.378 39.1433 82.63 39.694C82.8913 40.2353 83.022 40.8607 83.022 41.57C83.022 42.2793 82.8913 42.9047 82.63 43.446C82.378 43.978 82.0233 44.3887 81.566 44.678C81.1087 44.9673 80.5813 45.112 79.984 45.112C79.5173 45.112 79.0927 45.0187 78.71 44.832C78.3367 44.636 78.0473 44.3653 77.842 44.02V46.666C77.842 46.946 77.7487 47.17 77.562 47.338C77.3753 47.506 77.128 47.59 76.82 47.59C76.4933 47.59 76.2273 47.5013 76.022 47.324C75.826 47.1467 75.728 46.9133 75.728 46.624V38.98C75.728 38.6813 75.8213 38.4433 76.008 38.266C76.204 38.0793 76.4607 37.986 76.778 37.986C77.0953 37.986 77.3473 38.0793 77.534 38.266C77.7207 38.4433 77.814 38.6813 77.814 38.98V39.092C78.0193 38.7373 78.3133 38.462 78.696 38.266C79.0787 38.0607 79.508 37.958 79.984 37.958ZM79.368 43.502C79.8627 43.502 80.2453 43.3387 80.516 43.012C80.7867 42.676 80.922 42.1953 80.922 41.57C80.922 40.9353 80.7867 40.4453 80.516 40.1C80.2453 39.7453 79.8627 39.568 79.368 39.568C78.8733 39.568 78.4907 39.7407 78.22 40.086C77.9493 40.422 77.814 40.9073 77.814 41.542C77.814 42.1673 77.9493 42.6527 78.22 42.998C78.4907 43.334 78.8733 43.502 79.368 43.502ZM89.83 42.956C90.0166 42.956 90.166 43.0307 90.278 43.18C90.3993 43.3293 90.46 43.5207 90.46 43.754C90.46 43.9127 90.4133 44.062 90.32 44.202C90.2266 44.3327 90.096 44.4447 89.928 44.538C89.6106 44.706 89.242 44.846 88.822 44.958C88.402 45.0607 88.0146 45.112 87.66 45.112C86.9133 45.112 86.26 44.9673 85.7 44.678C85.1493 44.3887 84.7246 43.978 84.426 43.446C84.1273 42.9047 83.978 42.27 83.978 41.542C83.978 40.842 84.1226 40.2213 84.412 39.68C84.7013 39.1387 85.1026 38.7187 85.616 38.42C86.1293 38.112 86.7126 37.958 87.366 37.958C87.9913 37.958 88.5373 38.098 89.004 38.378C89.48 38.6487 89.8486 39.0407 90.11 39.554C90.3713 40.058 90.502 40.6507 90.502 41.332C90.502 41.5373 90.4506 41.696 90.348 41.808C90.2546 41.9107 90.1193 41.962 89.942 41.962H86.022C86.0873 42.5127 86.2553 42.914 86.526 43.166C86.7966 43.4087 87.184 43.53 87.688 43.53C87.9586 43.53 88.2013 43.4973 88.416 43.432C88.6306 43.3667 88.8686 43.278 89.13 43.166C89.2606 43.11 89.3866 43.0633 89.508 43.026C89.6293 42.9793 89.7366 42.956 89.83 42.956ZM87.422 39.414C87.0206 39.414 86.6986 39.5447 86.456 39.806C86.2133 40.058 86.0686 40.4267 86.022 40.912H88.724C88.696 40.4173 88.57 40.044 88.346 39.792C88.1313 39.54 87.8233 39.414 87.422 39.414Z" fill="#74A3EE"/>
<path d="M0 3C0 1.34315 1.34315 0 3 0H587C588.657 0 590 1.34315 590 3V20H0V3Z" fill="#74A3EE"/>
</svg>
