<svg width="50" height="50" viewBox="0 0 50 50" fill="none" xmlns="http://www.w3.org/2000/svg">
<path d="M30.8333 20.9336C30.7698 20.8419 30.6825 20.7656 30.5714 20.7045C30.4762 20.6434 30.3651 20.6052 30.2381 20.5899L12.8571 18.7801L12.2143 16.4204C12.1667 16.2829 12.0952 16.1684 12 16.0767C11.9048 15.9851 11.7937 15.9164 11.6667 15.8706L9.07143 15.0229C9.03968 15.0229 9 15.0229 8.95238 15.0229C8.92063 15.0076 8.88095 15 8.83333 15C8.61111 15 8.4127 15.084 8.2381 15.252C8.07937 15.4047 8 15.588 8 15.8018C8 15.9851 8.04762 16.1455 8.14286 16.2829C8.25397 16.4204 8.38889 16.5197 8.54762 16.5808L10.6905 17.268L14.1667 29.8225C14.2143 30.0057 14.3095 30.1585 14.4524 30.2806C14.6111 30.3876 14.7857 30.441 14.9762 30.441H15.0476L28.4286 29.5934C28.619 29.5934 28.7778 29.5323 28.9048 29.4101C29.0476 29.2879 29.1429 29.1428 29.1905 28.9748L30.9762 21.575C30.9762 21.5598 30.9762 21.5368 30.9762 21.5063C30.9921 21.4605 31 21.4223 31 21.3918C31 21.3001 30.9841 21.2161 30.9524 21.1397C30.9206 21.0634 30.881 20.9947 30.8333 20.9336ZM27.6905 28.0126L15.619 28.7686L13.3333 20.4525L29.0952 22.1019L27.6905 28.0126ZM17.6667 33.0985C17.6667 33.6178 17.4762 34.0683 17.0952 34.4502C16.7143 34.8167 16.254 35 15.7143 35C15.1746 35 14.7143 34.8167 14.3333 34.4502C13.9524 34.0683 13.7619 33.6178 13.7619 33.0985C13.7619 32.5792 13.9524 32.1363 14.3333 31.7698C14.7143 31.4032 15.1746 31.2199 15.7143 31.2199C16.254 31.2199 16.7143 31.4032 17.0952 31.7698C17.4762 32.1363 17.6667 32.5792 17.6667 33.0985ZM29.0952 33.0985C29.0952 33.6178 28.9048 34.0683 28.5238 34.4502C28.1429 34.8167 27.6746 35 27.119 35C26.5794 35 26.119 34.8167 25.7381 34.4502C25.3571 34.0683 25.1667 33.6178 25.1667 33.0985C25.1667 32.5792 25.3571 32.1363 25.7381 31.7698C26.119 31.4032 26.5794 31.2199 27.119 31.2199C27.6746 31.2199 28.1429 31.4032 28.5238 31.7698C28.9048 32.1363 29.0952 32.5792 29.0952 33.0985Z" fill="#545454"/>
<path d="M40.2681 27.625C40.8035 27.625 41.0711 27.8523 41.0711 28.307C41.0711 28.769 40.8035 29 40.2681 29H36.5061C35.9635 29 35.6921 28.769 35.6921 28.307C35.6921 27.8523 35.9635 27.625 36.5061 27.625H37.5291V23.126L36.5611 23.709C36.4511 23.775 36.3411 23.808 36.2311 23.808C36.0478 23.808 35.8901 23.731 35.7581 23.577C35.6335 23.423 35.5711 23.2507 35.5711 23.06C35.5711 22.8033 35.6848 22.609 35.9121 22.477L37.6501 21.432C37.9068 21.278 38.1635 21.201 38.4201 21.201C38.6621 21.201 38.8601 21.278 39.0141 21.432C39.1681 21.5787 39.2451 21.7803 39.2451 22.037V27.625H40.2681Z" fill="#545454"/>
</svg>
