<svg width="50" height="50" viewBox="0 0 50 50" fill="none" xmlns="http://www.w3.org/2000/svg">
<path d="M35.8333 20.9336C35.7698 20.8419 35.6825 20.7656 35.5714 20.7045C35.4762 20.6434 35.3651 20.6052 35.2381 20.5899L17.8571 18.7801L17.2143 16.4204C17.1667 16.2829 17.0952 16.1684 17 16.0767C16.9048 15.9851 16.7937 15.9164 16.6667 15.8706L14.0714 15.0229C14.0397 15.0229 14 15.0229 13.9524 15.0229C13.9206 15.0076 13.881 15 13.8333 15C13.6111 15 13.4127 15.084 13.2381 15.252C13.0794 15.4047 13 15.588 13 15.8018C13 15.9851 13.0476 16.1455 13.1429 16.2829C13.254 16.4204 13.3889 16.5197 13.5476 16.5808L15.6905 17.268L19.1667 29.8225C19.2143 30.0057 19.3095 30.1585 19.4524 30.2806C19.6111 30.3876 19.7857 30.441 19.9762 30.441H20.0476L33.4286 29.5934C33.619 29.5934 33.7778 29.5323 33.9048 29.4101C34.0476 29.2879 34.1429 29.1428 34.1905 28.9748L35.9762 21.575C35.9762 21.5598 35.9762 21.5368 35.9762 21.5063C35.9921 21.4605 36 21.4223 36 21.3918C36 21.3001 35.9841 21.2161 35.9524 21.1397C35.9206 21.0634 35.881 20.9947 35.8333 20.9336ZM32.6905 28.0126L20.619 28.7686L18.3333 20.4525L34.0952 22.1019L32.6905 28.0126ZM22.6667 33.0985C22.6667 33.6178 22.4762 34.0683 22.0952 34.4502C21.7143 34.8167 21.254 35 20.7143 35C20.1746 35 19.7143 34.8167 19.3333 34.4502C18.9524 34.0683 18.7619 33.6178 18.7619 33.0985C18.7619 32.5792 18.9524 32.1363 19.3333 31.7698C19.7143 31.4032 20.1746 31.2199 20.7143 31.2199C21.254 31.2199 21.7143 31.4032 22.0952 31.7698C22.4762 32.1363 22.6667 32.5792 22.6667 33.0985ZM34.0952 33.0985C34.0952 33.6178 33.9048 34.0683 33.5238 34.4502C33.1429 34.8167 32.6746 35 32.119 35C31.5794 35 31.119 34.8167 30.7381 34.4502C30.3571 34.0683 30.1667 33.6178 30.1667 33.0985C30.1667 32.5792 30.3571 32.1363 30.7381 31.7698C31.119 31.4032 31.5794 31.2199 32.119 31.2199C32.6746 31.2199 33.1429 31.4032 33.5238 31.7698C33.9048 32.1363 34.0952 32.5792 34.0952 33.0985Z" fill="#545454"/>
<circle cx="35" cy="15" r="7" fill="#74A3EE"/>
<path d="M36.6496 17C37.0389 17 37.2336 17.1653 37.2336 17.496C37.2336 17.832 37.0389 18 36.6496 18H33.9136C33.5189 18 33.3216 17.832 33.3216 17.496C33.3216 17.1653 33.5189 17 33.9136 17H34.6576V13.728L33.9536 14.152C33.8736 14.2 33.7936 14.224 33.7136 14.224C33.5802 14.224 33.4656 14.168 33.3696 14.056C33.2789 13.944 33.2336 13.8187 33.2336 13.68C33.2336 13.4933 33.3162 13.352 33.4816 13.256L34.7456 12.496C34.9322 12.384 35.1189 12.328 35.3056 12.328C35.4816 12.328 35.6256 12.384 35.7376 12.496C35.8496 12.6027 35.9056 12.7493 35.9056 12.936V17H36.6496Z" fill="#DFE8F5"/>
</svg>
