<svg width="50" height="50" viewBox="0 0 50 50" fill="none" xmlns="http://www.w3.org/2000/svg">
<path d="M27.8333 20.9336C27.7698 20.8419 27.6825 20.7656 27.5714 20.7045C27.4762 20.6434 27.3651 20.6052 27.2381 20.5899L9.85714 18.7801L9.21429 16.4204C9.16667 16.2829 9.09524 16.1684 9 16.0767C8.90476 15.9851 8.79365 15.9164 8.66667 15.8706L6.07143 15.0229C6.03968 15.0229 6 15.0229 5.95238 15.0229C5.92063 15.0076 5.88095 15 5.83333 15C5.61111 15 5.4127 15.084 5.2381 15.252C5.07937 15.4047 5 15.588 5 15.8018C5 15.9851 5.04762 16.1455 5.14286 16.2829C5.25397 16.4204 5.38889 16.5197 5.54762 16.5808L7.69048 17.268L11.1667 29.8225C11.2143 30.0057 11.3095 30.1585 11.4524 30.2806C11.6111 30.3876 11.7857 30.441 11.9762 30.441H12.0476L25.4286 29.5934C25.619 29.5934 25.7778 29.5323 25.9048 29.4101C26.0476 29.2879 26.1429 29.1428 26.1905 28.9748L27.9762 21.575C27.9762 21.5598 27.9762 21.5368 27.9762 21.5063C27.9921 21.4605 28 21.4223 28 21.3918C28 21.3001 27.9841 21.2161 27.9524 21.1397C27.9206 21.0634 27.881 20.9947 27.8333 20.9336ZM24.6905 28.0126L12.619 28.7686L10.3333 20.4525L26.0952 22.1019L24.6905 28.0126ZM14.6667 33.0985C14.6667 33.6178 14.4762 34.0683 14.0952 34.4502C13.7143 34.8167 13.254 35 12.7143 35C12.1746 35 11.7143 34.8167 11.3333 34.4502C10.9524 34.0683 10.7619 33.6178 10.7619 33.0985C10.7619 32.5792 10.9524 32.1363 11.3333 31.7698C11.7143 31.4032 12.1746 31.2199 12.7143 31.2199C13.254 31.2199 13.7143 31.4032 14.0952 31.7698C14.4762 32.1363 14.6667 32.5792 14.6667 33.0985ZM26.0952 33.0985C26.0952 33.6178 25.9048 34.0683 25.5238 34.4502C25.1429 34.8167 24.6746 35 24.119 35C23.5794 35 23.119 34.8167 22.7381 34.4502C22.3571 34.0683 22.1667 33.6178 22.1667 33.0985C22.1667 32.5792 22.3571 32.1363 22.7381 31.7698C23.119 31.4032 23.5794 31.2199 24.119 31.2199C24.6746 31.2199 25.1429 31.4032 25.5238 31.7698C25.9048 32.1363 26.0952 32.5792 26.0952 33.0985Z" fill="#545454"/>
<circle cx="38" cy="25" r="7" fill="#74A3EE"/>
<path d="M39.6496 27C40.0389 27 40.2336 27.1653 40.2336 27.496C40.2336 27.832 40.0389 28 39.6496 28H36.9136C36.5189 28 36.3216 27.832 36.3216 27.496C36.3216 27.1653 36.5189 27 36.9136 27H37.6576V23.728L36.9536 24.152C36.8736 24.2 36.7936 24.224 36.7136 24.224C36.5802 24.224 36.4656 24.168 36.3696 24.056C36.2789 23.944 36.2336 23.8187 36.2336 23.68C36.2336 23.4933 36.3162 23.352 36.4816 23.256L37.7456 22.496C37.9322 22.384 38.1189 22.328 38.3056 22.328C38.4816 22.328 38.6256 22.384 38.7376 22.496C38.8496 22.6027 38.9056 22.7493 38.9056 22.936V27H39.6496Z" fill="#DFE8F5"/>
</svg>
