<svg width="190" height="50" viewBox="0 0 190 50" fill="none" xmlns="http://www.w3.org/2000/svg">
<rect x="7" y="10" width="175" height="30" rx="3" fill="#DFE8F5"/>
<path fill-rule="evenodd" clip-rule="evenodd" d="M167.305 27.7996C166.317 28.6711 165.02 29.2 163.6 29.2C160.507 29.2 158 26.6928 158 23.6C158 20.5072 160.507 18 163.6 18C166.693 18 169.2 20.5072 169.2 23.6C169.2 25.0204 168.671 26.3174 167.8 27.3046L171.897 31.4025C172.034 31.5392 172.034 31.7608 171.897 31.8975C171.761 32.0342 171.539 32.0342 171.403 31.8975L167.305 27.7996ZM168.5 23.6C168.5 26.3062 166.306 28.5 163.6 28.5C160.894 28.5 158.7 26.3062 158.7 23.6C158.7 20.8938 160.894 18.7 163.6 18.7C166.306 18.7 168.5 20.8938 168.5 23.6Z" fill="#74A3EE"/>
</svg>
