<svg xmlns="http://www.w3.org/2000/svg" width="512" height="512" viewBox="0 0 512.001 512.001" enable-background="new 0 0 512.001 512.001"><path fill="#A8A8A8" d="M395.44 370.6c-4.14 0-7.5 3.36-7.5 7.5v61.25c0 1.46-1.18 2.65-2.64 2.65H126.7c-1.45 0-2.64-1.2-2.64-2.65v-61.4c0-4.14-3.36-7.5-7.5-7.5-4.14 0-7.5 3.36-7.5 7.5v61.4c0 9.73 7.92 17.64 17.65 17.64h258.6c9.72 0 17.64-7.92 17.64-17.65V378.1c0-4.14-3.36-7.5-7.5-7.5zM385.3 258.93H126.7c-9.72 0-17.63 7.9-17.63 17.64v61.4c0 4.14 3.35 7.5 7.5 7.5 4.13 0 7.5-3.36 7.5-7.5v-61.4c0-1.46 1.18-2.65 2.64-2.65h258.6c1.46 0 2.64 1.2 2.64 2.65v61.22c0 4.13 3.36 7.5 7.5 7.5s7.5-3.37 7.5-7.5v-61.23c0-9.73-7.92-17.64-17.64-17.64zM395.44 28.83c-4.14 0-7.5 3.35-7.5 7.5v65.95c0 4.14 3.36 7.5 7.5 7.5s7.5-3.36 7.5-7.5V36.32c0-4.14-3.36-7.5-7.5-7.5zM349.78 28.83c-4.14 0-7.5 3.35-7.5 7.5v65.95c0 4.14 3.36 7.5 7.5 7.5s7.5-3.36 7.5-7.5V36.32c0-4.14-3.36-7.5-7.5-7.5zM304.13 28.83c-4.14 0-7.5 3.35-7.5 7.5v65.95c0 4.14 3.36 7.5 7.5 7.5 4.14 0 7.5-3.36 7.5-7.5V36.32c0-4.14-3.36-7.5-7.5-7.5zM258.47 28.83c-4.14 0-7.5 3.35-7.5 7.5v65.95c0 4.14 3.36 7.5 7.5 7.5 4.14 0 7.5-3.36 7.5-7.5V36.32c0-4.14-3.36-7.5-7.5-7.5zM212.82 28.83c-4.14 0-7.5 3.35-7.5 7.5v65.95c0 4.14 3.36 7.5 7.5 7.5 4.14 0 7.5-3.36 7.5-7.5V36.32c0-4.14-3.36-7.5-7.5-7.5zM167.16 28.83c-4.14 0-7.5 3.35-7.5 7.5v65.95c0 4.14 3.36 7.5 7.5 7.5 4.14 0 7.5-3.36 7.5-7.5V36.32c0-4.14-3.36-7.5-7.5-7.5zM116.56 69.68c-4.14 0-7.5 3.36-7.5 7.5v25.1c0 4.14 3.36 7.5 7.5 7.5s7.5-3.36 7.5-7.5v-25.1c0-4.14-3.36-7.5-7.5-7.5zM444.9 180.65V82.1c6.1-.95 10.75-6.22 10.75-12.55v-45.9C455.65 10.6 445.05 0 432 0H144c-6.73 0-13.06 2.62-17.82 7.38L63.73 69.83c-4.76 4.76-7.38 11.1-7.38 17.8v69.82c0 8.36 6.8 15.16 15.17 15.16.1 0 .17.1.17.2v31.04c0 .1-.08.18-.18.18-8.36 0-15.17 6.8-15.17 15.16v269.17C56.35 501.4 66.95 512 80 512h94.15c6.98 0 13.25-3.88 16.37-10.12.06-.12.1-.24.17-.36.37-.9 1.25-1.47 2.22-1.47h126.16c.95 0 1.82.56 2.2 1.43 2.92 6.4 9.2 10.52 15.98 10.52H432c13.04 0 23.65-10.6 23.65-23.64V193.33c0-6.36-4.65-11.65-10.74-12.68zm-4.24 14.66v293.06c0 4.77-3.88 8.65-8.65 8.65h-94.74c-1.13 0-1.94-.9-2.32-1.73-2.82-6.2-9.05-10.2-15.86-10.2H192.93c-6.86 0-13.05 4-15.88 10.22-.58 1.05-1.68 1.7-2.9 1.7H80c-4.77 0-8.66-3.87-8.66-8.65V219.18c0-.1.08-.17.18-.17 8.36 0 15.17-6.8 15.17-15.16V172.8c0-8.38-6.82-15.18-15.18-15.18-.1 0-.18-.08-.18-.18v-69.8c0-2.72 1.07-5.28 3-7.2l62.44-62.46c1.93-1.93 4.5-3 7.22-3h288c4.77 0 8.65 3.9 8.66 8.67v43.8c-6.1 1-10.74 6.3-10.74 12.66v102.67c0 6.33 4.66 11.6 10.74 12.54z"/></svg>