<svg width="120" height="40" viewBox="0 0 120 40" fill="none" xmlns="http://www.w3.org/2000/svg">
<rect x="0.499969" y="0.500977" width="119" height="39" rx="6.5" fill="white" stroke="#000001"/>
<path d="M25 19.901C25 17.001 27.3 15.601 27.5 15.601C26.2 13.601 24.1 13.401 23.3 13.401C21.6 13.201 19.9 14.401 19 14.401C18.1 14.401 16.7 13.401 15.2 13.401C13.3 13.401 11.5 14.501 10.5 16.201C8.49997 19.701 9.99997 24.801 11.9 27.601C12.9 29.001 14 30.501 15.5 30.501C16.9 30.401 17.5 29.601 19.2 29.601C20.9 29.601 21.4 30.501 22.9 30.501C24.4 30.501 25.4 29.101 26.4 27.701C27.5 26.101 28 24.601 28 24.501C28 24.501 25 23.301 25 19.901Z" fill="#000001"/>
<path d="M22.2 11.501C23 10.501 23.5 9.201 23.4 7.901C22.3 7.901 20.9 8.701 20.1 9.601C19.4 10.401 18.7 11.801 18.9 13.101C20.1 13.201 21.3 12.401 22.2 11.501Z" fill="#000001"/>
<path d="M42.3 27.101H37.6L36.5 30.501H34.5L39 18.101H41L45.5 30.501H43.5L42.3 27.101ZM38.1 25.601H41.9L40 20.101H39.9L38.1 25.601Z" fill="#000001"/>
<path d="M55.2 26.001C55.2 28.801 53.7 30.601 51.4 30.601C50.1 30.601 49.1 30.001 48.6 29.001V33.501H46.7V21.501H48.5V23.001C49 22.001 50.1 21.401 51.4 21.401C53.6 21.301 55.2 23.201 55.2 26.001ZM53.2 26.001C53.2 24.201 52.3 23.001 50.8 23.001C49.4 23.001 48.4 24.201 48.4 26.001C48.4 27.801 49.4 29.001 50.8 29.001C52.3 29.001 53.2 27.801 53.2 26.001Z" fill="#000001"/>
<path d="M65.1 26.001C65.1 28.801 63.6 30.601 61.3 30.601C60 30.601 59 30.001 58.5 29.001V33.501H56.6V21.501H58.4V23.001C58.9 22.001 60 21.401 61.3 21.401C63.6 21.301 65.1 23.201 65.1 26.001ZM63.2 26.001C63.2 24.201 62.3 23.001 60.8 23.001C59.4 23.001 58.4 24.201 58.4 26.001C58.4 27.801 59.4 29.001 60.8 29.001C62.3 29.001 63.2 27.801 63.2 26.001Z" fill="#000001"/>
<path d="M71.7 27.001C71.8 28.201 73 29.001 74.7 29.001C76.3 29.001 77.4 28.201 77.4 27.101C77.4 26.101 76.7 25.601 75.1 25.201L73.5 24.801C71.2 24.201 70.2 23.201 70.2 21.501C70.2 19.401 72.1 17.901 74.7 17.901C77.3 17.901 79.1 19.401 79.2 21.501H77.3C77.2 20.301 76.2 19.501 74.7 19.501C73.2 19.501 72.2 20.301 72.2 21.401C72.2 22.301 72.9 22.801 74.5 23.201L75.9 23.501C78.4 24.101 79.5 25.101 79.5 26.901C79.5 29.201 77.7 30.701 74.7 30.701C71.9 30.701 70.1 29.301 70 27.001H71.7Z" fill="#000001"/>
<path d="M83.3 19.301V21.401H85V22.901H83.3V27.901C83.3 28.701 83.6 29.001 84.4 29.001C84.6 29.001 84.9 29.001 85 29.001V30.501C84.8 30.601 84.4 30.601 84 30.601C82.2 30.601 81.5 29.901 81.5 28.201V23.001H80.2V21.501H81.5V19.401H83.3V19.301Z" fill="#000001"/>
<path d="M86.1 26.001C86.1 23.201 87.8 21.401 90.4 21.401C93 21.401 94.7 23.201 94.7 26.001C94.7 28.901 93 30.601 90.4 30.601C87.7 30.601 86.1 28.801 86.1 26.001ZM92.8 26.001C92.8 24.001 91.9 22.901 90.4 22.901C88.9 22.901 88 24.001 88 26.001C88 28.001 88.9 29.101 90.4 29.101C91.9 29.101 92.8 27.901 92.8 26.001Z" fill="#000001"/>
<path d="M96.2 21.401H98V23.001C98.3 22.001 99.1 21.401 100.2 21.401C100.5 21.401 100.7 21.401 100.8 21.501V23.201C100.7 23.101 100.3 23.101 100 23.101C98.8 23.101 98.1 23.901 98.1 25.201V30.601H96.2V21.401Z" fill="#000001"/>
<path d="M109.4 27.801C109.1 29.401 107.5 30.601 105.5 30.601C102.9 30.601 101.2 28.801 101.2 26.001C101.2 23.201 102.8 21.301 105.4 21.301C107.9 21.301 109.5 23.001 109.5 25.801V26.401H103.1V26.501C103.1 28.001 104.1 29.101 105.5 29.101C106.5 29.101 107.3 28.601 107.6 27.801H109.4ZM103.1 25.101H107.6C107.6 23.701 106.7 22.801 105.4 22.801C104.1 22.801 103.2 23.801 103.1 25.101Z" fill="#000001"/>
<path d="M37.8 8.701C39.6 8.701 40.6 9.801 40.6 11.701C40.6 13.601 39.6 14.701 37.8 14.701H35.6V8.701H37.8ZM36.6 13.901H37.7C38.9 13.901 39.7 13.101 39.7 11.801C39.7 10.501 39 9.701 37.7 9.701H36.6V13.901Z" fill="#000001"/>
<path d="M41.7 12.401C41.7 10.901 42.5 10.101 43.8 10.101C45.1 10.101 45.9 11.001 45.9 12.401C45.9 13.901 45.1 14.701 43.8 14.701C42.5 14.801 41.7 13.901 41.7 12.401ZM45 12.401C45 11.401 44.6 10.901 43.8 10.901C43 10.901 42.6 11.501 42.6 12.401C42.6 13.401 43 14.001 43.8 14.001C44.6 14.001 45 13.401 45 12.401Z" fill="#000001"/>
<path d="M51.6 14.701H50.7L49.8 11.401H49.7L48.8 14.701H47.9L46.7 10.201H47.6L48.4 13.601H48.5L49.4 10.201H50.3L51.2 13.601H51.3L52.1 10.201H53L51.6 14.701Z" fill="#000001"/>
<path d="M53.9 10.201H54.8V10.901H54.9C55.1 10.401 55.6 10.101 56.2 10.101C57.2 10.101 57.8 10.701 57.8 11.801V14.701H56.9V12.001C56.9 11.301 56.6 10.901 55.9 10.901C55.2 10.901 54.8 11.301 54.8 12.001V14.601H53.9V10.201Z" fill="#000001"/>
<path d="M59.1 8.401H60V14.701H59.1V8.401Z" fill="#000001"/>
<path d="M61.2 12.401C61.2 10.901 62 10.101 63.3 10.101C64.6 10.101 65.4 11.001 65.4 12.401C65.4 13.901 64.6 14.701 63.3 14.701C62 14.801 61.2 13.901 61.2 12.401ZM64.6 12.401C64.6 11.401 64.2 10.901 63.4 10.901C62.6 10.901 62.2 11.501 62.2 12.401C62.2 13.401 62.6 14.001 63.4 14.001C64.1 14.001 64.6 13.401 64.6 12.401Z" fill="#000001"/>
<path d="M66.4 13.401C66.4 12.601 67 12.101 68.1 12.101L69.3 12.001V11.601C69.3 11.101 69 10.901 68.4 10.901C67.9 10.901 67.6 11.101 67.5 11.401H66.6C66.7 10.601 67.4 10.101 68.4 10.101C69.5 10.101 70.2 10.701 70.2 11.601V14.701H69.3V14.101H69.2C68.9 14.601 68.4 14.801 67.8 14.801C67 14.801 66.4 14.201 66.4 13.401ZM69.3 13.001V12.601L68.2 12.701C67.6 12.701 67.3 13.001 67.3 13.301C67.3 13.701 67.7 13.901 68.1 13.901C68.8 14.001 69.3 13.601 69.3 13.001Z" fill="#000001"/>
<path d="M71.3 12.401C71.3 11.001 72 10.101 73.2 10.101C73.8 10.101 74.3 10.401 74.6 10.901H74.7V8.401H75.6V14.701H74.7V14.001H74.6C74.3 14.501 73.8 14.801 73.2 14.801C72.1 14.801 71.3 13.901 71.3 12.401ZM72.3 12.401C72.3 13.401 72.8 13.901 73.5 13.901C74.2 13.901 74.7 13.301 74.7 12.401C74.7 11.501 74.2 10.901 73.5 10.901C72.7 10.901 72.3 11.501 72.3 12.401Z" fill="#000001"/>
<path d="M79.2 12.401C79.2 10.901 80 10.101 81.3 10.101C82.6 10.101 83.4 11.001 83.4 12.401C83.4 13.901 82.6 14.701 81.3 14.701C80 14.801 79.2 13.901 79.2 12.401ZM82.6 12.401C82.6 11.401 82.2 10.901 81.4 10.901C80.6 10.901 80.2 11.501 80.2 12.401C80.2 13.401 80.6 14.001 81.4 14.001C82.1 14.001 82.6 13.401 82.6 12.401Z" fill="#000001"/>
<path d="M84.7 10.201H85.6V10.901H85.7C85.9 10.401 86.4 10.101 87 10.101C88 10.101 88.6 10.701 88.6 11.801V14.701H87.7V12.001C87.7 11.301 87.4 10.901 86.7 10.901C86 10.901 85.6 11.301 85.6 12.001V14.601H84.7V10.201Z" fill="#000001"/>
<path d="M93.5 9.101V10.201H94.5V11.001H93.5V13.301C93.5 13.801 93.7 14.001 94.1 14.001C94.2 14.001 94.3 14.001 94.4 14.001V14.701C94.3 14.701 94.1 14.701 93.9 14.701C92.9 14.701 92.5 14.401 92.5 13.501V11.001H91.8V10.301H92.5V9.101H93.5Z" fill="#000001"/>
<path d="M95.7 8.401H96.6V10.901H96.7C96.9 10.401 97.4 10.101 98.1 10.101C99.1 10.101 99.7 10.701 99.7 11.801V14.701H98.8V12.001C98.8 11.301 98.5 10.901 97.8 10.901C97.1 10.901 96.7 11.401 96.7 12.001V14.601H95.8V8.401H95.7Z" fill="#000001"/>
<path d="M104.8 13.501C104.6 14.301 103.9 14.801 102.8 14.801C101.5 14.801 100.7 13.901 100.7 12.501C100.7 11.101 101.5 10.101 102.8 10.101C104.1 10.101 104.8 11.001 104.8 12.401V12.701H101.6C101.6 13.501 102.1 14.001 102.8 14.001C103.3 14.001 103.7 13.801 103.9 13.501H104.8ZM101.6 12.001H103.9C103.9 11.301 103.4 10.801 102.8 10.801C102.1 10.901 101.7 11.301 101.6 12.001Z" fill="#000001"/>
</svg>
