<svg width="135" height="40" viewBox="0 0 135 40" fill="none" xmlns="http://www.w3.org/2000/svg">
<path d="M130 39.501H4.99997C2.48259 39.501 0.499969 37.4314 0.499969 35.001V5.00098C0.499969 2.4836 2.56959 0.500977 4.99997 0.500977H130C132.517 0.500977 134.5 2.57059 134.5 5.00098V35.001C134.5 37.5248 132.524 39.501 130 39.501Z" fill="black" stroke="#A6A6A6"/>
<path d="M47.4 10.201C47.4 11.001 47.2 11.701 46.7 12.201C46.1 12.801 45.4 13.101 44.5 13.101C43.6 13.101 42.9 12.801 42.3 12.201C41.7 11.601 41.4 10.901 41.4 10.001C41.4 9.101 41.7 8.401 42.3 7.801C42.9 7.201 43.6 6.901 44.5 6.901C44.9 6.901 45.3 7.001 45.7 7.201C46.1 7.401 46.4 7.601 46.6 7.901L46.1 8.401C45.7 7.901 45.2 7.701 44.5 7.701C43.9 7.701 43.3 7.901 42.9 8.401C42.4 8.801 42.2 9.401 42.2 10.101C42.2 10.801 42.4 11.401 42.9 11.801C43.4 12.201 43.9 12.501 44.5 12.501C45.2 12.501 45.7 12.301 46.2 11.801C46.5 11.501 46.7 11.101 46.7 10.601H44.5V9.801H47.4C47.4 9.901 47.4 10.101 47.4 10.201Z" fill="white"/>
<path d="M52 7.701H49.3V9.601H51.8V10.301H49.3V12.201H52V13.001H48.5V7.001H52V7.701Z" fill="white"/>
<path d="M55.3 13.001H54.5V7.701H52.8V7.001H57V7.701H55.3V13.001Z" fill="white"/>
<path d="M59.9 13.001V7.001H60.7V13.001H59.9Z" fill="white"/>
<path d="M64.1 13.001H63.3V7.701H61.6V7.001H65.7V7.701H64V13.001H64.1Z" fill="white"/>
<path d="M73.6 12.201C73 12.801 72.3 13.101 71.4 13.101C70.5 13.101 69.8 12.801 69.2 12.201C68.6 11.601 68.3 10.901 68.3 10.001C68.3 9.101 68.6 8.401 69.2 7.801C69.8 7.201 70.5 6.901 71.4 6.901C72.3 6.901 73 7.201 73.6 7.801C74.2 8.401 74.5 9.101 74.5 10.001C74.5 10.901 74.2 11.601 73.6 12.201ZM69.8 11.701C70.2 12.101 70.8 12.401 71.4 12.401C72 12.401 72.6 12.201 73 11.701C73.4 11.301 73.7 10.701 73.7 10.001C73.7 9.301 73.5 8.701 73 8.301C72.6 7.901 72 7.601 71.4 7.601C70.8 7.601 70.2 7.801 69.8 8.301C69.4 8.701 69.1 9.301 69.1 10.001C69.1 10.701 69.3 11.301 69.8 11.701Z" fill="white"/>
<path d="M75.6 13.001V7.001H76.5L79.4 11.701V7.001H80.2V13.001H79.4L76.3 8.101V13.001H75.6Z" fill="white"/>
<path d="M47.4 10.201C47.4 11.001 47.2 11.701 46.7 12.201C46.1 12.801 45.4 13.101 44.5 13.101C43.6 13.101 42.9 12.801 42.3 12.201C41.7 11.601 41.4 10.901 41.4 10.001C41.4 9.101 41.7 8.401 42.3 7.801C42.9 7.201 43.6 6.901 44.5 6.901C44.9 6.901 45.3 7.001 45.7 7.201C46.1 7.401 46.4 7.601 46.6 7.901L46.1 8.401C45.7 7.901 45.2 7.701 44.5 7.701C43.9 7.701 43.3 7.901 42.9 8.401C42.4 8.801 42.2 9.401 42.2 10.101C42.2 10.801 42.4 11.401 42.9 11.801C43.4 12.201 43.9 12.501 44.5 12.501C45.2 12.501 45.7 12.301 46.2 11.801C46.5 11.501 46.7 11.101 46.7 10.601H44.5V9.801H47.4C47.4 9.901 47.4 10.101 47.4 10.201Z" stroke="white" stroke-width="0.2" stroke-miterlimit="10"/>
<path d="M52 7.701H49.3V9.601H51.8V10.301H49.3V12.201H52V13.001H48.5V7.001H52V7.701Z" stroke="white" stroke-width="0.2" stroke-miterlimit="10"/>
<path d="M55.3 13.001H54.5V7.701H52.8V7.001H57V7.701H55.3V13.001Z" stroke="white" stroke-width="0.2" stroke-miterlimit="10"/>
<path d="M59.9 13.001V7.001H60.7V13.001H59.9Z" stroke="white" stroke-width="0.2" stroke-miterlimit="10"/>
<path d="M64.1 13.001H63.3V7.701H61.6V7.001H65.7V7.701H64V13.001H64.1Z" stroke="white" stroke-width="0.2" stroke-miterlimit="10"/>
<path d="M73.6 12.201C73 12.801 72.3 13.101 71.4 13.101C70.5 13.101 69.8 12.801 69.2 12.201C68.6 11.601 68.3 10.901 68.3 10.001C68.3 9.101 68.6 8.401 69.2 7.801C69.8 7.201 70.5 6.901 71.4 6.901C72.3 6.901 73 7.201 73.6 7.801C74.2 8.401 74.5 9.101 74.5 10.001C74.5 10.901 74.2 11.601 73.6 12.201ZM69.8 11.701C70.2 12.101 70.8 12.401 71.4 12.401C72 12.401 72.6 12.201 73 11.701C73.4 11.301 73.7 10.701 73.7 10.001C73.7 9.301 73.5 8.701 73 8.301C72.6 7.901 72 7.601 71.4 7.601C70.8 7.601 70.2 7.801 69.8 8.301C69.4 8.701 69.1 9.301 69.1 10.001C69.1 10.701 69.3 11.301 69.8 11.701Z" stroke="white" stroke-width="0.2" stroke-miterlimit="10"/>
<path d="M75.6 13.001V7.001H76.5L79.4 11.701V7.001H80.2V13.001H79.4L76.3 8.101V13.001H75.6Z" stroke="white" stroke-width="0.2" stroke-miterlimit="10"/>
<path d="M68.1 21.801C65.7 21.801 63.8 23.601 63.8 26.101C63.8 28.501 65.7 30.401 68.1 30.401C70.5 30.401 72.4 28.601 72.4 26.101C72.4 23.501 70.5 21.801 68.1 21.801ZM68.1 28.601C66.8 28.601 65.7 27.501 65.7 26.001C65.7 24.501 66.8 23.401 68.1 23.401C69.4 23.401 70.5 24.401 70.5 26.001C70.5 27.501 69.4 28.601 68.1 28.601ZM58.8 21.801C56.4 21.801 54.5 23.601 54.5 26.101C54.5 28.501 56.4 30.401 58.8 30.401C61.2 30.401 63.1 28.601 63.1 26.101C63.1 23.501 61.2 21.801 58.8 21.801ZM58.8 28.601C57.5 28.601 56.4 27.501 56.4 26.001C56.4 24.501 57.5 23.401 58.8 23.401C60.1 23.401 61.2 24.401 61.2 26.001C61.2 27.501 60.1 28.601 58.8 28.601ZM47.7 23.101V24.901H52C51.9 25.901 51.5 26.701 51 27.201C50.4 27.801 49.4 28.501 47.7 28.501C45 28.501 43 26.401 43 23.701C43 21.001 45.1 18.901 47.7 18.901C49.1 18.901 50.2 19.501 51 20.201L52.3 18.901C51.2 17.901 49.8 17.101 47.8 17.101C44.2 17.101 41.1 20.101 41.1 23.701C41.1 27.301 44.2 30.301 47.8 30.301C49.8 30.301 51.2 29.701 52.4 28.401C53.6 27.201 54 25.501 54 24.201C54 23.801 54 23.401 53.9 23.101H47.7ZM93.1 24.501C92.7 23.501 91.7 21.801 89.5 21.801C87.3 21.801 85.5 23.501 85.5 26.101C85.5 28.501 87.3 30.401 89.7 30.401C91.6 30.401 92.8 29.201 93.2 28.501L91.8 27.501C91.3 28.201 90.7 28.701 89.7 28.701C88.7 28.701 88.1 28.301 87.6 27.401L93.3 25.001L93.1 24.501ZM87.3 25.901C87.3 24.301 88.6 23.401 89.5 23.401C90.2 23.401 90.9 23.801 91.1 24.301L87.3 25.901ZM82.6 30.001H84.5V17.501H82.6V30.001ZM79.6 22.701C79.1 22.201 78.3 21.701 77.3 21.701C75.2 21.701 73.2 23.601 73.2 26.001C73.2 28.401 75.1 30.201 77.3 30.201C78.3 30.201 79.1 29.701 79.5 29.201H79.6V29.801C79.6 31.401 78.7 32.301 77.3 32.301C76.2 32.301 75.4 31.501 75.2 30.801L73.6 31.501C74.1 32.601 75.3 34.001 77.4 34.001C79.6 34.001 81.4 32.701 81.4 29.601V22.001H79.6V22.701ZM77.4 28.601C76.1 28.601 75 27.501 75 26.001C75 24.501 76.1 23.401 77.4 23.401C78.7 23.401 79.7 24.501 79.7 26.001C79.7 27.501 78.7 28.601 77.4 28.601ZM101.8 17.501H97.3V30.001H99.2V25.301H101.8C103.9 25.301 105.9 23.801 105.9 21.401C105.9 19.001 103.9 17.501 101.8 17.501ZM101.9 23.501H99.2V19.201H101.9C103.3 19.201 104.1 20.401 104.1 21.301C104 22.401 103.2 23.501 101.9 23.501ZM113.4 21.701C112 21.701 110.6 22.301 110.1 23.601L111.8 24.301C112.2 23.601 112.8 23.401 113.5 23.401C114.5 23.401 115.4 24.001 115.5 25.001V25.101C115.2 24.901 114.4 24.601 113.6 24.601C111.8 24.601 110 25.601 110 27.401C110 29.101 111.5 30.201 113.1 30.201C114.4 30.201 115 29.601 115.5 29.001H115.6V30.001H117.4V25.201C117.2 23.001 115.5 21.701 113.4 21.701ZM113.2 28.601C112.6 28.601 111.7 28.301 111.7 27.501C111.7 26.501 112.8 26.201 113.7 26.201C114.5 26.201 114.9 26.401 115.4 26.601C115.2 27.801 114.2 28.601 113.2 28.601ZM123.7 22.001L121.6 27.401H121.5L119.3 22.001H117.3L120.6 29.601L118.7 33.801H120.6L125.7 22.001H123.7ZM106.9 30.001H108.8V17.501H106.9V30.001Z" fill="white"/>
<path d="M10.47 7.40093C10.144 7.79204 9.97951 8.29273 10.01 8.80093V30.9209C9.97951 31.4291 10.144 31.9298 10.47 32.3209L10.54 32.3909L22.93 20.0109V19.7209L10.54 7.33093L10.47 7.40093Z" fill="url(#paint0_linear)"/>
<path d="M27.03 24.1409L22.93 20.0109V19.7209L27.03 15.5809L27.12 15.6309L32.03 18.4209C33.43 19.2109 33.43 20.5109 32.03 21.3109L27.14 24.0909L27.03 24.1409Z" fill="url(#paint1_linear)"/>
<path d="M27.15 24.0808L22.93 19.8608L10.47 32.3208C10.7553 32.5717 11.1194 32.715 11.4991 32.7259C11.8789 32.7369 12.2506 32.6148 12.55 32.3808L27.16 24.0808" fill="url(#paint2_linear)"/>
<path d="M27.15 15.6409L12.54 7.34089C12.2406 7.1069 11.8689 6.98484 11.4891 6.9958C11.1094 7.00675 10.7453 7.15004 10.46 7.40089L22.93 19.8609L27.15 15.6409Z" fill="url(#paint3_linear)"/>
<path opacity="0.2" d="M27.03 23.991L12.54 32.241C12.2513 32.4568 11.9005 32.5735 11.54 32.5735C11.1795 32.5735 10.8287 32.4568 10.54 32.241L10.47 32.311L10.54 32.381C10.828 32.5984 11.1791 32.716 11.54 32.716C11.9009 32.716 12.2519 32.5984 12.54 32.381L27.15 24.081L27.03 23.991Z" fill="black"/>
<path opacity="0.12" d="M10.47 32.181C10.144 31.7899 9.97951 31.2892 10.01 30.781V30.931C9.97951 31.4392 10.144 31.9399 10.47 32.331L10.54 32.261L10.47 32.181Z" fill="black"/>
<path opacity="0.12" d="M32.03 21.1608L27.03 23.9908L27.12 24.0808L32.03 21.3008C32.3086 21.17 32.5477 20.9679 32.7233 20.7151C32.8989 20.4623 33.0047 20.1676 33.03 19.8608C32.9737 20.1395 32.8544 20.4017 32.681 20.627C32.5076 20.8524 32.2849 21.035 32.03 21.1608Z" fill="black"/>
<path opacity="0.25" d="M12.54 7.4809L32.03 18.5609C32.2849 18.6867 32.5076 18.8694 32.681 19.0947C32.8544 19.3201 32.9737 19.5822 33.03 19.8609C33.0047 19.5541 32.8989 19.2595 32.7233 19.0066C32.5477 18.7538 32.3086 18.5518 32.03 18.4209L12.54 7.3409C11.14 6.5509 9.99997 7.2109 9.99997 8.8109V8.9609C10.03 7.3509 11.15 6.6909 12.54 7.4809Z" fill="white"/>
<defs>
<linearGradient id="paint0_linear" x1="21.83" y1="8.57093" x2="5.04996" y2="25.3509" gradientUnits="userSpaceOnUse">
<stop stop-color="#00A0FF"/>
<stop offset="0.01" stop-color="#00A1FF"/>
<stop offset="0.26" stop-color="#00BEFF"/>
<stop offset="0.51" stop-color="#00D2FF"/>
<stop offset="0.76" stop-color="#00DFFF"/>
<stop offset="1" stop-color="#00E3FF"/>
</linearGradient>
<linearGradient id="paint1_linear" x1="33.86" y1="19.8609" x2="9.66996" y2="19.8609" gradientUnits="userSpaceOnUse">
<stop stop-color="#FFE000"/>
<stop offset="0.41" stop-color="#FFBD00"/>
<stop offset="0.78" stop-color="#FFA500"/>
<stop offset="1" stop-color="#FF9C00"/>
</linearGradient>
<linearGradient id="paint2_linear" x1="24.86" y1="22.1608" x2="2.09997" y2="44.9108" gradientUnits="userSpaceOnUse">
<stop stop-color="#FF3A44"/>
<stop offset="1" stop-color="#C31162"/>
</linearGradient>
<linearGradient id="paint3_linear" x1="7.32996" y1="0.0408883" x2="17.49" y2="10.2009" gradientUnits="userSpaceOnUse">
<stop stop-color="#32A071"/>
<stop offset="0.07" stop-color="#2DA771"/>
<stop offset="0.48" stop-color="#15CF74"/>
<stop offset="0.8" stop-color="#06E775"/>
<stop offset="1" stop-color="#00F076"/>
</linearGradient>
</defs>
</svg>
