<svg width="47" height="60" viewBox="0 0 47 60" fill="none" xmlns="http://www.w3.org/2000/svg">
<path d="M47 23.0769C47 35.822 37.6 48.4615 23.5 60C9.4 48.4615 0 35.822 0 23.0769C0 10.3319 10.5213 0 23.5 0C36.4787 0 47 10.3319 47 23.0769Z" fill="white"/>
<path d="M46.5 23.0769C46.5 35.4885 37.3997 47.9045 23.5 59.3531C9.60028 47.9045 0.5 35.4885 0.5 23.0769C0.5 10.6166 10.7888 0.5 23.5 0.5C36.2112 0.5 46.5 10.6166 46.5 23.0769Z" stroke="#333333" stroke-opacity="0.1"/>
<path d="M37.0999 23.0769C37.0999 30.4392 31.0196 36.423 23.4999 36.423C15.9802 36.423 9.8999 30.4392 9.8999 23.0769C9.8999 15.7145 15.9802 9.73071 23.4999 9.73071C31.0196 9.73071 37.0999 15.7145 37.0999 23.0769Z" fill="white" stroke="#333333"/>
</svg>
