<svg xmlns="http://www.w3.org/2000/svg" width="55" height="55" viewBox="0 0 55 55" fill="none"><path d="M54.7284 27.0417L48.3486 19.8732C48.1405 19.6396 47.8401 19.5054 47.5244 19.5054H42.2119V15.0783C42.2119 14.4828 41.7213 14 41.1163 14H18.4882C17.8832 14 17.3926 14.4828 17.3926 15.0783V16.5334H6.85541C6.25042 16.5334 5.75982 17.0161 5.75982 17.6117C5.75982 18.2073 6.25042 18.69 6.85541 18.69H17.3926V32.6684H11.0498C10.4448 32.6684 9.95421 33.1511 9.95421 33.7467C9.95421 34.3423 10.4448 34.825 11.0498 34.825H17.3926V35.9209C17.3926 36.5165 17.8832 36.9992 18.4882 36.9992H20.775C21.2568 38.7267 22.8653 40 24.7714 40C26.6775 40 28.286 38.7267 28.7679 36.9992H43.3869C43.8686 38.7267 45.4772 39.9999 47.3833 39.9999C49.2894 39.9999 50.8979 38.7266 51.3798 36.9991H53.9044C54.5094 36.9991 55 36.5164 55 35.9208V27.7521C54.9999 27.4908 54.9033 27.2383 54.7284 27.0417ZM24.7714 37.8434C23.6944 37.8434 22.8183 36.9809 22.8183 35.9209C22.8183 34.8609 23.6944 33.9984 24.7714 33.9984C25.8484 33.9984 26.7247 34.8609 26.7247 35.9209C26.7247 36.9809 25.8484 37.8434 24.7714 37.8434ZM28.7677 34.8426C28.2859 33.1151 26.6773 31.8418 24.7712 31.8418C22.8651 31.8418 21.2567 33.1151 20.7748 34.8426H19.5836V16.1565H40.0203V34.8426H28.7677ZM47.3831 37.8434C46.306 37.8434 45.4299 36.9809 45.4299 35.9209C45.4299 34.8609 46.306 33.9984 47.3831 33.9984C48.4601 33.9984 49.3363 34.8609 49.3363 35.9209C49.3363 36.9809 48.4602 37.8434 47.3831 37.8434ZM52.8087 34.8426H51.3796C50.8978 33.1151 49.2891 31.8418 47.3831 31.8418C45.477 31.8418 43.8685 33.1151 43.3866 34.8426H42.2116V21.662H47.0274L52.8086 28.1577L52.8087 34.8426Z" fill="#333333"></path><path d="M7.44014 32.6682H6.85555C6.25055 32.6682 5.75995 33.151 5.75995 33.7466C5.75995 34.3421 6.25055 34.8249 6.85555 34.8249H7.44014C8.04513 34.8249 8.53573 34.3421 8.53573 33.7466C8.53573 33.151 8.04524 32.6682 7.44014 32.6682Z" fill="#333333"></path><path d="M12.8369 24.4917H1.09559C0.490595 24.4917 0 24.9745 0 25.57C0 26.1656 0.490595 26.6484 1.09559 26.6484H12.8369C13.4419 26.6484 13.9325 26.1656 13.9325 25.57C13.9325 24.9745 13.4419 24.4917 12.8369 24.4917Z" fill="#333333"></path></svg>