<svg xmlns="http://www.w3.org/2000/svg" width="39" height="39" viewBox="0 0 39 39" fill="none"><path d="M38.6582 10.135L24.0428 0.161706C23.7777 -0.0190499 23.4196 -0.0510421 23.1193 0.0797451C22.819 0.210456 22.6287 0.48079 22.6287 0.776946V7.14377H0.877989C0.3932 7.14377 8.40601e-05 7.49157 8.40601e-05 7.92065V13.5798C8.40601e-05 14.0088 0.3932 14.3566 0.877989 14.3566H22.6287V20.7235C22.6287 21.0196 22.819 21.29 23.1193 21.4207C23.2421 21.4741 23.3746 21.5003 23.5066 21.5003C23.697 21.5003 23.8862 21.4455 24.0427 21.3387L38.6581 11.3655C38.8737 11.2184 39 10.9912 39 10.7503C39 10.5094 38.8737 10.2821 38.6582 10.135ZM24.3846 19.1433V13.5797C24.3846 13.1506 23.9915 12.8028 23.5067 12.8028H1.75589V8.69745H23.5066C23.9914 8.69745 24.3846 8.34965 24.3846 7.92057V2.35713L36.6843 10.7502L24.3846 19.1433Z" fill="#333333"></path><path d="M38.122 24.6435H16.3713V18.2767C16.3713 17.9805 16.181 17.7102 15.8807 17.5795C15.5805 17.4489 15.2223 17.4805 14.9572 17.6614L0.3419 27.6347C0.126276 27.7818 0 28.009 0 28.2499C0 28.4909 0.126362 28.7181 0.3419 28.8652L14.9572 38.8384C15.1138 38.9452 15.3028 39 15.4934 39C15.6252 39 15.7578 38.9737 15.8806 38.9203C16.1809 38.7896 16.3712 38.5193 16.3712 38.2231V31.8564H38.122C38.6068 31.8564 38.9999 31.5086 38.9999 31.0796V25.4205C38.9999 24.9913 38.6068 24.6435 38.122 24.6435ZM37.2441 30.3026H15.4934C15.0086 30.3026 14.6154 30.6504 14.6154 31.0795V36.643L2.31566 28.2499L14.6153 19.8569V25.4205C14.6153 25.8495 15.0084 26.1973 15.4932 26.1973H37.244L37.2441 30.3026Z" fill="#333333"></path><path d="M13.0563 32.3098L12.8594 32.1749C12.4762 31.9124 11.9247 31.9744 11.6278 32.3137C11.3311 32.653 11.4013 33.141 11.7847 33.4036L11.9816 33.5385C12.1415 33.648 12.3306 33.7011 12.5184 33.7011C12.7807 33.7011 13.0402 33.5974 13.2133 33.3997C13.5099 33.0604 13.4397 32.5723 13.0563 32.3098Z" fill="#333333"></path><path d="M10.5971 30.6249L6.95644 28.1307C6.57297 27.868 6.02173 27.9301 5.72485 28.2694C5.42805 28.6087 5.4982 29.0967 5.88159 29.3593L9.52224 31.8536C9.68217 31.9631 9.87128 32.0162 10.0591 32.0162C10.3214 32.0162 10.5808 31.9125 10.7539 31.7148C11.0505 31.3755 10.9805 30.8875 10.5971 30.6249Z" fill="#333333"></path></svg>