<svg xmlns="http://www.w3.org/2000/svg" width="46" height="46" viewBox="0 0 46 46" fill="none"><path d="M43.032 10H14.1509C12.5143 10 11.1828 11.404 11.1828 13.1294V14.2605H2.96808C1.3314 14.2605 0 15.6643 0 17.3899V33.8706C0 35.5961 1.3314 37 2.96808 37H31.8491C33.4857 37 34.8172 35.5961 34.8172 33.8706V32.7395H43.0319C44.6685 32.7395 46 31.3357 46 29.6101V13.1294C46.0001 11.4039 44.6687 10 43.032 10ZM32.9847 33.8706C32.9847 34.5307 32.4753 35.0677 31.8492 35.0677H2.96808C2.34205 35.0677 1.83264 34.5306 1.83264 33.8706V17.3899C1.83264 16.7299 2.34205 16.1928 2.96808 16.1928H31.8491C32.4753 16.1928 32.9846 16.7299 32.9846 17.3899L32.9847 33.8706ZM44.1675 29.6101C44.1675 30.2701 43.658 30.8072 43.032 30.8072H34.8173V28.0827H44.1675V29.6101ZM44.1675 26.1504H34.8173V23.3267H44.1675V26.1504ZM44.1675 21.3944H34.8173V17.3898C34.8173 15.6643 33.4858 14.2604 31.8492 14.2604H13.0154V13.1294C13.0154 12.4693 13.5248 11.9323 14.1509 11.9323H43.0319C43.6579 11.9323 44.1674 12.4694 44.1674 13.1294L44.1675 21.3944Z" fill="#333333"></path><path d="M8.41685 30.8073H4.72229C4.2162 30.8073 3.80597 31.2398 3.80597 31.7734C3.80597 32.307 4.2162 32.7395 4.72229 32.7395H8.41676C8.92285 32.7395 9.33308 32.307 9.33308 31.7734C9.33308 31.2398 8.92285 30.8073 8.41685 30.8073Z" fill="#333333"></path><path d="M15.2958 30.8073H11.6012C11.0951 30.8073 10.6849 31.2398 10.6849 31.7734C10.6849 32.307 11.0951 32.7395 11.6012 32.7395H15.2958C15.8018 32.7395 16.2121 32.307 16.2121 31.7734C16.2121 31.2398 15.8018 30.8073 15.2958 30.8073Z" fill="#333333"></path><path d="M22.2098 30.8073H18.5153C18.0092 30.8073 17.599 31.2398 17.599 31.7734C17.599 32.307 18.0092 32.7395 18.5153 32.7395H22.2098C22.7159 32.7395 23.1261 32.307 23.1261 31.7734C23.1261 31.2398 22.7159 30.8073 22.2098 30.8073Z" fill="#333333"></path><path d="M29.9071 30.8073H29.7707C29.2646 30.8073 28.8544 31.2398 28.8544 31.7734C28.8544 32.307 29.2646 32.7395 29.7707 32.7395H29.9071C30.4132 32.7395 30.8234 32.307 30.8234 31.7734C30.8234 31.2398 30.4132 30.8073 29.9071 30.8073Z" fill="#333333"></path><path d="M27.0431 30.8073H25.3943C24.8882 30.8073 24.478 31.2398 24.478 31.7734C24.478 32.307 24.8882 32.7395 25.3943 32.7395H27.0431C27.5492 32.7395 27.9594 32.307 27.9594 31.7734C27.9594 31.2398 27.5492 30.8073 27.0431 30.8073Z" fill="#333333"></path><path d="M7.56495 18.1248H5.82647C4.66056 18.1248 3.7119 19.1249 3.7119 20.3543V22.1873C3.7119 23.4166 4.66047 24.4168 5.82647 24.4168H7.56495C8.73085 24.4168 9.67951 23.4167 9.67951 22.1873V20.3543C9.67942 19.1248 8.73085 18.1248 7.56495 18.1248ZM7.84679 22.1872C7.84679 22.3511 7.72038 22.4844 7.56495 22.4844H5.82647C5.67104 22.4844 5.54463 22.351 5.54463 22.1872V20.3542C5.54463 20.1903 5.67113 20.057 5.82647 20.057H7.56495C7.72038 20.057 7.84679 20.1904 7.84679 20.3542V22.1872Z" fill="#333333"></path></svg>