<svg xmlns="http://www.w3.org/2000/svg" width="37" height="37" viewBox="0 0 37 37" fill="none"><path d="M36.0566 21.3154C35.6577 21.2347 35.2688 21.4928 35.1882 21.8919C33.5915 29.7919 26.5731 35.5259 18.5 35.5259C9.1119 35.5259 1.47407 27.8882 1.47407 18.5C1.47407 9.11183 9.1119 1.47407 18.5 1.47407C22.9289 1.47407 27.1748 3.20628 30.3384 6.26492H28.4334C28.0263 6.26492 27.6964 6.59489 27.6964 7.00196C27.6964 7.40903 28.0263 7.739 28.4334 7.739H32.1355C32.5426 7.739 32.8725 7.40903 32.8725 7.00196V3.29994C32.8725 2.89287 32.5426 2.5629 32.1355 2.5629C31.7284 2.5629 31.3985 2.89287 31.3985 3.29994V5.24013C27.9574 1.89538 23.329 0 18.5 0C13.5585 0 8.91273 1.92429 5.41848 5.41848C1.92429 8.91274 0 13.5585 0 18.5C0 23.4415 1.92429 28.0873 5.41848 31.5815C8.91273 35.0757 13.5585 37 18.5 37C22.7953 37 26.9805 35.4947 30.2846 32.7615C33.545 30.0645 35.7996 26.3079 36.6331 22.1838C36.7137 21.7848 36.4556 21.396 36.0566 21.3154Z" fill="#333333"></path><path d="M36.263 17.7629C35.8559 17.7629 35.5259 18.0929 35.5259 18.5C35.5259 18.6648 35.5235 18.8313 35.5188 18.9949C35.5072 19.4018 35.8276 19.7411 36.2345 19.7527C36.2417 19.7528 36.2488 19.753 36.2559 19.753C36.6532 19.753 36.9808 19.4368 36.9923 19.0371C36.9974 18.8595 37 18.6788 37 18.5001C37 18.0929 36.67 17.7629 36.263 17.7629Z" fill="#333333"></path><path d="M17.9839 25.323H10.4954V23.8676C10.4954 20.7454 18.383 19.1491 18.383 14.102C18.383 11.5668 16.4112 9.59491 13.7115 9.59491C11.2231 9.59491 9.29821 11.2382 9.29821 13.4918C9.29821 14.196 9.53293 14.4543 10.0024 14.4543C10.5423 14.4543 10.824 14.1256 10.824 13.8204C10.824 11.9659 12.0447 11.0503 13.6645 11.0503C15.8242 11.0503 16.8336 12.6701 16.8336 14.1491C16.8336 18.2571 8.89909 19.9708 8.89909 23.8677V26.1447C8.89909 26.5204 9.32162 26.7551 9.6268 26.7551H17.9839C18.2891 26.7551 18.5473 26.403 18.5473 26.0273C18.5473 25.6517 18.2891 25.323 17.9839 25.323Z" fill="#333333"></path><path d="M28.0779 21.2384H26.7868V16.7077C26.7868 16.3086 26.3877 16.1208 26.0121 16.1208C25.613 16.1208 25.2375 16.3086 25.2375 16.7077V21.2384H20.6365L26.0592 10.5339C26.1062 10.4165 26.1297 10.3226 26.1297 10.2287C26.1297 9.85308 25.6836 9.59487 25.3785 9.59487C25.0968 9.59487 24.8151 9.73572 24.6507 10.0644L18.7585 21.6845C18.6881 21.8019 18.6646 21.9427 18.6646 22.0836C18.6646 22.4357 18.8759 22.7174 19.275 22.7174H25.2376V26.1447C25.2376 26.5438 25.6132 26.7551 26.0122 26.7551C26.3879 26.7551 26.7869 26.5438 26.7869 26.1447V22.7174H28.078C28.4301 22.7174 28.6649 22.3418 28.6649 21.9662C28.6647 21.614 28.4769 21.2384 28.0779 21.2384Z" fill="#333333"></path></svg>