<svg width="70" height="30" viewBox="0 0 70 30" fill="none" xmlns="http://www.w3.org/2000/svg">
<rect x="7" y="4" width="56" height="22" fill="#74A3EE"/>
<rect x="7" y="24" width="56" height="2" fill="#5687D3"/>
<path d="M23.1844 14.445C23.4691 14.529 23.6884 14.676 23.8424 14.886C24.0011 15.0913 24.0804 15.3457 24.0804 15.649C24.0804 16.0643 23.9264 16.3933 23.6184 16.636C23.3151 16.8787 22.8951 17 22.3584 17H20.5244C20.3611 17 20.2351 16.9557 20.1464 16.867C20.0578 16.7783 20.0134 16.6523 20.0134 16.489V12.576C20.0134 12.4127 20.0578 12.2867 20.1464 12.198C20.2351 12.1093 20.3611 12.065 20.5244 12.065H22.2884C22.8018 12.065 23.2078 12.1793 23.5064 12.408C23.8098 12.6367 23.9614 12.9493 23.9614 13.346C23.9614 13.6027 23.8914 13.829 23.7514 14.025C23.6161 14.2163 23.4271 14.3563 23.1844 14.445ZM21.0774 14.074H22.1064C22.3864 14.074 22.5918 14.0273 22.7224 13.934C22.8578 13.836 22.9254 13.689 22.9254 13.493C22.9254 13.2877 22.8578 13.1383 22.7224 13.045C22.5918 12.947 22.3864 12.898 22.1064 12.898H21.0774V14.074ZM22.2324 16.167C22.5218 16.167 22.7318 16.118 22.8624 16.02C22.9931 15.922 23.0584 15.7633 23.0584 15.544C23.0584 15.3247 22.9931 15.1637 22.8624 15.061C22.7318 14.9583 22.5218 14.907 22.2324 14.907H21.0774V16.167H22.2324ZM27.2826 17.063C26.5919 17.063 26.0646 16.8857 25.7006 16.531C25.3413 16.1717 25.1616 15.649 25.1616 14.963V12.569C25.1616 12.4057 25.2106 12.275 25.3086 12.177C25.4066 12.079 25.5373 12.03 25.7006 12.03C25.8639 12.03 25.9923 12.079 26.0856 12.177C26.1836 12.275 26.2326 12.4057 26.2326 12.569V15.012C26.2326 15.404 26.3213 15.7027 26.4986 15.908C26.6806 16.1133 26.9419 16.216 27.2826 16.216C27.6233 16.216 27.8846 16.1133 28.0666 15.908C28.2486 15.698 28.3396 15.3993 28.3396 15.012V12.569C28.3396 12.4057 28.3863 12.275 28.4796 12.177C28.5776 12.079 28.7083 12.03 28.8716 12.03C29.0349 12.03 29.1656 12.079 29.2636 12.177C29.3616 12.275 29.4106 12.4057 29.4106 12.569V14.963C29.4106 15.6443 29.2286 16.1647 28.8646 16.524C28.5006 16.8833 27.9733 17.063 27.2826 17.063ZM32.4014 17.035C32.2381 17.035 32.1051 16.986 32.0024 16.888C31.9044 16.79 31.8554 16.6593 31.8554 16.496V12.954H30.7214C30.3761 12.954 30.2034 12.8047 30.2034 12.506C30.2034 12.212 30.3761 12.065 30.7214 12.065H34.0814C34.4267 12.065 34.5994 12.212 34.5994 12.506C34.5994 12.8047 34.4267 12.954 34.0814 12.954H32.9474V16.496C32.9474 16.6593 32.8984 16.79 32.8004 16.888C32.7024 16.986 32.5694 17.035 32.4014 17.035ZM37.1059 17.035C36.9426 17.035 36.8096 16.986 36.7069 16.888C36.6089 16.79 36.5599 16.6593 36.5599 16.496V12.954H35.4259C35.0806 12.954 34.9079 12.8047 34.9079 12.506C34.9079 12.212 35.0806 12.065 35.4259 12.065H38.7859C39.1312 12.065 39.3039 12.212 39.3039 12.506C39.3039 12.8047 39.1312 12.954 38.7859 12.954H37.6519V16.496C37.6519 16.6593 37.6029 16.79 37.5049 16.888C37.4069 16.986 37.2739 17.035 37.1059 17.035ZM42.1111 17.063C41.6211 17.063 41.1941 16.9603 40.8301 16.755C40.4708 16.545 40.1931 16.251 39.9971 15.873C39.8011 15.4903 39.7031 15.0423 39.7031 14.529C39.7031 14.0157 39.8011 13.57 39.9971 13.192C40.1931 12.8093 40.4708 12.5153 40.8301 12.31C41.1941 12.1047 41.6211 12.002 42.1111 12.002C42.6011 12.002 43.0258 12.1047 43.3851 12.31C43.7491 12.5153 44.0291 12.8093 44.2251 13.192C44.4211 13.57 44.5191 14.0157 44.5191 14.529C44.5191 15.0423 44.4211 15.4903 44.2251 15.873C44.0291 16.251 43.7491 16.545 43.3851 16.755C43.0258 16.9603 42.6011 17.063 42.1111 17.063ZM42.1111 16.216C42.5218 16.216 42.8438 16.0713 43.0771 15.782C43.3151 15.4927 43.4341 15.075 43.4341 14.529C43.4341 13.983 43.3175 13.5677 43.0841 13.283C42.8508 12.9937 42.5265 12.849 42.1111 12.849C41.6958 12.849 41.3715 12.9937 41.1381 13.283C40.9095 13.5677 40.7951 13.983 40.7951 14.529C40.7951 15.075 40.9118 15.4927 41.1451 15.782C41.3785 16.0713 41.7005 16.216 42.1111 16.216ZM49.4689 12.03C49.6229 12.03 49.7466 12.0813 49.8399 12.184C49.9379 12.282 49.9869 12.4103 49.9869 12.569V16.496C49.9869 16.6593 49.9379 16.7923 49.8399 16.895C49.7466 16.993 49.6229 17.042 49.4689 17.042C49.3009 17.042 49.1656 16.9813 49.0629 16.86L46.7179 13.857V16.496C46.7179 16.6593 46.6712 16.7923 46.5779 16.895C46.4892 16.993 46.3679 17.042 46.2139 17.042C46.0599 17.042 45.9362 16.993 45.8429 16.895C45.7496 16.7923 45.7029 16.6593 45.7029 16.496V12.569C45.7029 12.4103 45.7496 12.282 45.8429 12.184C45.9409 12.0813 46.0669 12.03 46.2209 12.03C46.3936 12.03 46.5266 12.0907 46.6199 12.212L48.9649 15.194V12.569C48.9649 12.4103 49.0116 12.282 49.1049 12.184C49.1982 12.0813 49.3196 12.03 49.4689 12.03Z" fill="#DFE8F5"/>
</svg>
