<svg width="70" height="30" viewBox="0 0 70 30" fill="none" xmlns="http://www.w3.org/2000/svg">
<rect x="20" y="19" width="30" height="1" rx="1" stroke="#74A3EE"/>
<path d="M23.1844 13.445C23.4691 13.529 23.6884 13.676 23.8424 13.886C24.0011 14.0913 24.0804 14.3457 24.0804 14.649C24.0804 15.0643 23.9264 15.3933 23.6184 15.636C23.3151 15.8787 22.8951 16 22.3584 16H20.5244C20.3611 16 20.2351 15.9557 20.1464 15.867C20.0578 15.7783 20.0134 15.6523 20.0134 15.489V11.576C20.0134 11.4127 20.0578 11.2867 20.1464 11.198C20.2351 11.1093 20.3611 11.065 20.5244 11.065H22.2884C22.8018 11.065 23.2078 11.1793 23.5064 11.408C23.8098 11.6367 23.9614 11.9493 23.9614 12.346C23.9614 12.6027 23.8914 12.829 23.7514 13.025C23.6161 13.2163 23.4271 13.3563 23.1844 13.445ZM21.0774 13.074H22.1064C22.3864 13.074 22.5918 13.0273 22.7224 12.934C22.8578 12.836 22.9254 12.689 22.9254 12.493C22.9254 12.2877 22.8578 12.1383 22.7224 12.045C22.5918 11.947 22.3864 11.898 22.1064 11.898H21.0774V13.074ZM22.2324 15.167C22.5218 15.167 22.7318 15.118 22.8624 15.02C22.9931 14.922 23.0584 14.7633 23.0584 14.544C23.0584 14.3247 22.9931 14.1637 22.8624 14.061C22.7318 13.9583 22.5218 13.907 22.2324 13.907H21.0774V15.167H22.2324ZM27.2826 16.063C26.5919 16.063 26.0646 15.8857 25.7006 15.531C25.3413 15.1717 25.1616 14.649 25.1616 13.963V11.569C25.1616 11.4057 25.2106 11.275 25.3086 11.177C25.4066 11.079 25.5373 11.03 25.7006 11.03C25.8639 11.03 25.9923 11.079 26.0856 11.177C26.1836 11.275 26.2326 11.4057 26.2326 11.569V14.012C26.2326 14.404 26.3213 14.7027 26.4986 14.908C26.6806 15.1133 26.9419 15.216 27.2826 15.216C27.6233 15.216 27.8846 15.1133 28.0666 14.908C28.2486 14.698 28.3396 14.3993 28.3396 14.012V11.569C28.3396 11.4057 28.3863 11.275 28.4796 11.177C28.5776 11.079 28.7083 11.03 28.8716 11.03C29.0349 11.03 29.1656 11.079 29.2636 11.177C29.3616 11.275 29.4106 11.4057 29.4106 11.569V13.963C29.4106 14.6443 29.2286 15.1647 28.8646 15.524C28.5006 15.8833 27.9733 16.063 27.2826 16.063ZM32.4014 16.035C32.2381 16.035 32.1051 15.986 32.0024 15.888C31.9044 15.79 31.8554 15.6593 31.8554 15.496V11.954H30.7214C30.3761 11.954 30.2034 11.8047 30.2034 11.506C30.2034 11.212 30.3761 11.065 30.7214 11.065H34.0814C34.4267 11.065 34.5994 11.212 34.5994 11.506C34.5994 11.8047 34.4267 11.954 34.0814 11.954H32.9474V15.496C32.9474 15.6593 32.8984 15.79 32.8004 15.888C32.7024 15.986 32.5694 16.035 32.4014 16.035ZM37.1059 16.035C36.9426 16.035 36.8096 15.986 36.7069 15.888C36.6089 15.79 36.5599 15.6593 36.5599 15.496V11.954H35.4259C35.0806 11.954 34.9079 11.8047 34.9079 11.506C34.9079 11.212 35.0806 11.065 35.4259 11.065H38.7859C39.1312 11.065 39.3039 11.212 39.3039 11.506C39.3039 11.8047 39.1312 11.954 38.7859 11.954H37.6519V15.496C37.6519 15.6593 37.6029 15.79 37.5049 15.888C37.4069 15.986 37.2739 16.035 37.1059 16.035ZM42.1111 16.063C41.6211 16.063 41.1941 15.9603 40.8301 15.755C40.4708 15.545 40.1931 15.251 39.9971 14.873C39.8011 14.4903 39.7031 14.0423 39.7031 13.529C39.7031 13.0157 39.8011 12.57 39.9971 12.192C40.1931 11.8093 40.4708 11.5153 40.8301 11.31C41.1941 11.1047 41.6211 11.002 42.1111 11.002C42.6011 11.002 43.0258 11.1047 43.3851 11.31C43.7491 11.5153 44.0291 11.8093 44.2251 12.192C44.4211 12.57 44.5191 13.0157 44.5191 13.529C44.5191 14.0423 44.4211 14.4903 44.2251 14.873C44.0291 15.251 43.7491 15.545 43.3851 15.755C43.0258 15.9603 42.6011 16.063 42.1111 16.063ZM42.1111 15.216C42.5218 15.216 42.8438 15.0713 43.0771 14.782C43.3151 14.4927 43.4341 14.075 43.4341 13.529C43.4341 12.983 43.3175 12.5677 43.0841 12.283C42.8508 11.9937 42.5265 11.849 42.1111 11.849C41.6958 11.849 41.3715 11.9937 41.1381 12.283C40.9095 12.5677 40.7951 12.983 40.7951 13.529C40.7951 14.075 40.9118 14.4927 41.1451 14.782C41.3785 15.0713 41.7005 15.216 42.1111 15.216ZM49.4689 11.03C49.6229 11.03 49.7466 11.0813 49.8399 11.184C49.9379 11.282 49.9869 11.4103 49.9869 11.569V15.496C49.9869 15.6593 49.9379 15.7923 49.8399 15.895C49.7466 15.993 49.6229 16.042 49.4689 16.042C49.3009 16.042 49.1656 15.9813 49.0629 15.86L46.7179 12.857V15.496C46.7179 15.6593 46.6712 15.7923 46.5779 15.895C46.4892 15.993 46.3679 16.042 46.2139 16.042C46.0599 16.042 45.9362 15.993 45.8429 15.895C45.7496 15.7923 45.7029 15.6593 45.7029 15.496V11.569C45.7029 11.4103 45.7496 11.282 45.8429 11.184C45.9409 11.0813 46.0669 11.03 46.2209 11.03C46.3936 11.03 46.5266 11.0907 46.6199 11.212L48.9649 14.194V11.569C48.9649 11.4103 49.0116 11.282 49.1049 11.184C49.1982 11.0813 49.3196 11.03 49.4689 11.03Z" fill="#74A3EE"/>
</svg>
