<svg width="120" height="30" viewBox="0 0 120 30" fill="none" xmlns="http://www.w3.org/2000/svg">
<path d="M47 14C47 12.8954 47.8954 12 49 12H91C92.1046 12 93 12.8954 93 14V16C93 17.1046 92.1046 18 91 18H49C47.8954 18 47 17.1046 47 16V14Z" fill="#8F959F" fill-opacity="0.2"/>
<path d="M47 14C47 12.8954 47.8954 12 49 12H70C71.1046 12 72 12.8954 72 14V16C72 17.1046 71.1046 18 70 18H49C47.8954 18 47 17.1046 47 16V14Z" fill="#8F959F" fill-opacity="0.2"/>
<path d="M26 14C26 12.8954 26.8954 12 28 12H49C50.1046 12 51 12.8954 51 14V16C51 17.1046 50.1046 18 49 18H28C26.8954 18 26 17.1046 26 16V14Z" fill="#74A3EE"/>
</svg>
