<svg width="70" height="40" viewBox="0 0 70 40" fill="none" xmlns="http://www.w3.org/2000/svg">
<rect x="23" y="8" width="24" height="24" fill="#00ACED"/>
<path d="M42 16.1837C41.5221 16.3848 41.0078 16.5205 40.4681 16.5812C41.0191 16.2689 41.4416 15.7743 41.6408 15.1843C41.1255 15.4738 40.5549 15.6839 39.9472 15.7973C39.4609 15.3067 38.7676 15 38.0005 15C36.5277 15 35.3336 16.1303 35.3336 17.5246C35.3336 17.7222 35.3571 17.9148 35.4028 18.0999C33.1861 17.9945 31.2206 16.9896 29.9051 15.4621C29.6756 15.8348 29.5441 16.2684 29.5441 16.7315C29.5441 17.6073 30.0149 18.3801 30.7306 18.8327C30.2936 18.8195 29.8822 18.7059 29.5225 18.5168C29.5222 18.5273 29.5222 18.538 29.5222 18.5487C29.5222 19.7717 30.4416 20.7918 31.6619 21.0241C31.4381 21.0816 31.2024 21.1126 30.9591 21.1126C30.7871 21.1126 30.62 21.0968 30.4572 21.0671C30.7968 22.07 31.7817 22.8001 32.9486 22.8204C32.0358 23.4975 30.886 23.9012 29.6362 23.9012C29.4212 23.9012 29.2087 23.8892 29 23.8657C30.1806 24.5824 31.5824 25 33.0884 25C37.9944 25 40.6769 21.1533 40.6769 17.8171C40.6769 17.7077 40.6745 17.5985 40.6695 17.4901C41.1904 17.1349 41.6427 16.6901 42 16.1837Z" fill="white"/>
</svg>
