<svg width="190" height="50" viewBox="0 0 190 50" fill="none" xmlns="http://www.w3.org/2000/svg">
<rect x="7" y="10" width="110" height="30" rx="3" fill="#DFE8F5"/>
<rect x="122" y="10" width="60" height="30" rx="3" fill="#74A3EE"/>
<path d="M138.069 28.072C137.647 28.072 137.255 28.024 136.893 27.928C136.53 27.8267 136.234 27.6853 136.005 27.504C135.925 27.4453 135.866 27.384 135.829 27.32C135.797 27.2507 135.781 27.1653 135.781 27.064C135.781 26.9307 135.821 26.8133 135.901 26.712C135.986 26.6107 136.082 26.56 136.189 26.56C136.247 26.56 136.303 26.5707 136.357 26.592C136.415 26.608 136.485 26.64 136.565 26.688C136.794 26.832 137.026 26.9387 137.261 27.008C137.495 27.072 137.754 27.104 138.037 27.104C138.389 27.104 138.658 27.0453 138.845 26.928C139.031 26.8107 139.125 26.6427 139.125 26.424C139.125 26.2587 139.037 26.1253 138.861 26.024C138.69 25.9227 138.383 25.8267 137.941 25.736C137.445 25.6347 137.047 25.512 136.749 25.368C136.455 25.224 136.239 25.0453 136.101 24.832C135.967 24.6187 135.901 24.36 135.901 24.056C135.901 23.72 135.997 23.4187 136.189 23.152C136.386 22.88 136.655 22.6693 136.997 22.52C137.343 22.3653 137.733 22.288 138.165 22.288C138.922 22.288 139.546 22.4773 140.037 22.856C140.117 22.92 140.173 22.9867 140.205 23.056C140.242 23.12 140.261 23.2 140.261 23.296C140.261 23.4293 140.218 23.5467 140.133 23.648C140.053 23.7493 139.959 23.8 139.853 23.8C139.794 23.8 139.738 23.792 139.685 23.776C139.637 23.76 139.567 23.7253 139.477 23.672C139.258 23.5333 139.055 23.4293 138.869 23.36C138.687 23.2907 138.455 23.256 138.173 23.256C137.847 23.256 137.591 23.32 137.405 23.448C137.218 23.5707 137.125 23.7413 137.125 23.96C137.125 24.088 137.159 24.1947 137.229 24.28C137.303 24.36 137.423 24.432 137.589 24.496C137.759 24.56 137.999 24.6267 138.309 24.696C139.034 24.856 139.554 25.0613 139.869 25.312C140.189 25.5627 140.349 25.9067 140.349 26.344C140.349 26.6853 140.253 26.9867 140.061 27.248C139.874 27.5093 139.607 27.712 139.261 27.856C138.919 28 138.522 28.072 138.069 28.072ZM141.832 28C141.645 28 141.501 27.9493 141.4 27.848C141.298 27.7467 141.248 27.6027 141.248 27.416V22.944C141.248 22.7573 141.298 22.6133 141.4 22.512C141.501 22.4107 141.645 22.36 141.832 22.36H144.664C145.058 22.36 145.256 22.52 145.256 22.84C145.256 23.1653 145.058 23.328 144.664 23.328H142.464V24.648H144.504C144.898 24.648 145.095 24.8107 145.095 25.136C145.095 25.456 144.898 25.616 144.504 25.616H142.464V27.032H144.664C145.058 27.032 145.256 27.1947 145.256 27.52C145.256 27.84 145.058 28 144.664 28H141.832ZM151.168 27.24C151.21 27.336 151.232 27.4213 151.232 27.496C151.232 27.6453 151.17 27.7733 151.048 27.88C150.93 27.9813 150.794 28.032 150.64 28.032C150.538 28.032 150.442 28.0053 150.352 27.952C150.261 27.8933 150.192 27.808 150.144 27.696L149.72 26.752H147.008L146.584 27.696C146.536 27.808 146.466 27.8933 146.376 27.952C146.29 28.0053 146.194 28.032 146.088 28.032C145.933 28.032 145.794 27.9813 145.672 27.88C145.549 27.7733 145.488 27.6453 145.488 27.496C145.488 27.4213 145.509 27.336 145.552 27.24L147.712 22.704C147.77 22.576 147.858 22.48 147.976 22.416C148.093 22.3467 148.218 22.312 148.352 22.312C148.49 22.312 148.618 22.3467 148.736 22.416C148.853 22.4853 148.944 22.5813 149.008 22.704L151.168 27.24ZM147.432 25.808H149.296L148.368 23.728L147.432 25.808ZM156.543 27.208C156.623 27.3253 156.663 27.44 156.663 27.552C156.663 27.7013 156.602 27.824 156.479 27.92C156.362 28.016 156.223 28.064 156.063 28.064C155.962 28.064 155.863 28.04 155.767 27.992C155.671 27.944 155.591 27.8693 155.527 27.768L154.471 26.2C154.381 26.0613 154.285 25.9627 154.183 25.904C154.082 25.84 153.954 25.808 153.799 25.808H153.151V27.424C153.151 27.616 153.095 27.768 152.983 27.88C152.877 27.992 152.73 28.048 152.543 28.048C152.351 28.048 152.199 27.992 152.087 27.88C151.975 27.768 151.919 27.616 151.919 27.424V22.944C151.919 22.7573 151.97 22.6133 152.071 22.512C152.173 22.4107 152.317 22.36 152.503 22.36H154.511C155.173 22.36 155.671 22.5067 156.007 22.8C156.349 23.088 156.519 23.5067 156.519 24.056C156.519 24.488 156.399 24.848 156.159 25.136C155.919 25.424 155.581 25.6133 155.143 25.704C155.303 25.736 155.445 25.8 155.567 25.896C155.695 25.9867 155.818 26.12 155.935 26.296L156.543 27.208ZM154.327 24.864C154.685 24.864 154.943 24.8027 155.103 24.68C155.263 24.552 155.343 24.3547 155.343 24.088C155.343 23.816 155.263 23.6187 155.103 23.496C154.943 23.3733 154.685 23.312 154.327 23.312H153.135V24.864H154.327ZM160.082 28.072C159.527 28.072 159.042 27.9547 158.626 27.72C158.21 27.4853 157.89 27.1493 157.666 26.712C157.442 26.2747 157.33 25.7627 157.33 25.176C157.33 24.5893 157.442 24.08 157.666 23.648C157.89 23.2107 158.21 22.8747 158.626 22.64C159.042 22.4053 159.527 22.288 160.082 22.288C160.78 22.288 161.383 22.48 161.89 22.864C161.97 22.928 162.026 22.992 162.058 23.056C162.09 23.12 162.106 23.2 162.106 23.296C162.106 23.4347 162.066 23.5547 161.986 23.656C161.911 23.752 161.818 23.8 161.706 23.8C161.631 23.8 161.564 23.792 161.506 23.776C161.452 23.7547 161.391 23.72 161.322 23.672C161.108 23.5333 160.911 23.4347 160.73 23.376C160.548 23.312 160.354 23.28 160.146 23.28C159.634 23.28 159.247 23.44 158.986 23.76C158.73 24.0747 158.602 24.5467 158.602 25.176C158.602 26.4453 159.116 27.08 160.146 27.08C160.343 27.08 160.53 27.0507 160.706 26.992C160.882 26.928 161.087 26.8267 161.322 26.688C161.402 26.64 161.468 26.608 161.522 26.592C161.575 26.5707 161.636 26.56 161.706 26.56C161.818 26.56 161.911 26.6107 161.986 26.712C162.066 26.808 162.106 26.9253 162.106 27.064C162.106 27.16 162.087 27.2427 162.05 27.312C162.018 27.376 161.964 27.4373 161.89 27.496C161.383 27.88 160.78 28.072 160.082 28.072ZM167.344 22.32C167.53 22.32 167.68 22.376 167.792 22.488C167.904 22.6 167.96 22.7493 167.96 22.936V27.424C167.96 27.6107 167.904 27.7627 167.792 27.88C167.68 27.992 167.53 28.048 167.344 28.048C167.157 28.048 167.008 27.992 166.896 27.88C166.789 27.768 166.736 27.616 166.736 27.424V25.632H164.136V27.424C164.136 27.6107 164.08 27.7627 163.968 27.88C163.856 27.992 163.709 28.048 163.528 28.048C163.341 28.048 163.192 27.992 163.08 27.88C162.968 27.768 162.912 27.616 162.912 27.424V22.936C162.912 22.7493 162.968 22.6 163.08 22.488C163.192 22.376 163.341 22.32 163.528 22.32C163.714 22.32 163.861 22.376 163.968 22.488C164.08 22.6 164.136 22.7493 164.136 22.936V24.64H166.736V22.936C166.736 22.7493 166.789 22.6 166.896 22.488C167.008 22.376 167.157 22.32 167.344 22.32Z" fill="#DFE8F5"/>
</svg>
