<svg width="190" height="50" viewBox="0 0 190 50" fill="none" xmlns="http://www.w3.org/2000/svg">
<rect x="7" y="10" width="175" height="30" rx="3" fill="#DFE8F5"/>
<path fill-rule="evenodd" clip-rule="evenodd" d="M26.3046 27.7996C25.3174 28.6711 24.0204 29.2 22.6 29.2C19.5072 29.2 17 26.6928 17 23.6C17 20.5072 19.5072 18 22.6 18C25.6928 18 28.2 20.5072 28.2 23.6C28.2 25.0204 27.6711 26.3174 26.7996 27.3046L30.8975 31.4025C31.0342 31.5392 31.0342 31.7608 30.8975 31.8975C30.7608 32.0342 30.5392 32.0342 30.4025 31.8975L26.3046 27.7996ZM27.5 23.6C27.5 26.3062 25.3062 28.5 22.6 28.5C19.8938 28.5 17.7 26.3062 17.7 23.6C17.7 20.8938 19.8938 18.7 22.6 18.7C25.3062 18.7 27.5 20.8938 27.5 23.6Z" fill="#74A3EE"/>
</svg>
