<svg width="190" height="50" viewBox="0 0 190 50" fill="none" xmlns="http://www.w3.org/2000/svg">
<rect x="7" y="10" width="175" height="30" rx="3" fill="#DFE8F5"/>
<rect x="152" y="10" width="30" height="30" rx="3" fill="#74A3EE"/>
<path fill-rule="evenodd" clip-rule="evenodd" d="M169.305 27.7996C168.317 28.6711 167.02 29.2 165.6 29.2C162.507 29.2 160 26.6928 160 23.6C160 20.5072 162.507 18 165.6 18C168.693 18 171.2 20.5072 171.2 23.6C171.2 25.0204 170.671 26.3174 169.8 27.3046L173.897 31.4025C174.034 31.5392 174.034 31.7608 173.897 31.8975C173.761 32.0342 173.539 32.0342 173.403 31.8975L169.305 27.7996ZM170.5 23.6C170.5 26.3062 168.306 28.5 165.6 28.5C162.894 28.5 160.7 26.3062 160.7 23.6C160.7 20.8938 162.894 18.7 165.6 18.7C168.306 18.7 170.5 20.8938 170.5 23.6Z" fill="#DFE8F5"/>
</svg>
