<svg width="50" height="50" viewBox="0 0 50 50" fill="none" xmlns="http://www.w3.org/2000/svg">
<path d="M24.4453 27.0938C24.3672 27.0312 24.2734 26.9766 24.164 26.9297C24.0703 26.8828 23.9687 26.8594 23.8593 26.8594C23.625 26.8594 23.4218 26.9453 23.25 27.1172C23.0937 27.2734 23.0156 27.4688 23.0156 27.7031C23.0156 27.8125 23.039 27.9219 23.0859 28.0312C23.1328 28.125 23.1953 28.2109 23.2734 28.2891L24.9609 29.9766H20.2734L9.7265 19.8984C9.6484 19.8203 9.5625 19.7656 9.4687 19.7344C9.375 19.6875 9.2734 19.6641 9.164 19.6641H6.8203C6.5859 19.6641 6.3906 19.75 6.2343 19.9219C6.0781 20.0781 6 20.2734 6 20.5078C6 20.7266 6.0781 20.9219 6.2343 21.0938C6.3906 21.25 6.5859 21.3281 6.8203 21.3281H8.8125L13.3359 25.6641L8.8125 30H6.8203C6.5859 30 6.3906 30.0859 6.2343 30.2578C6.0781 30.4141 6 30.6094 6 30.8438C6 31.0625 6.0781 31.2578 6.2343 31.4297C6.3906 31.5859 6.5859 31.6641 6.8203 31.6641H9.164C9.2734 31.6641 9.375 31.6484 9.4687 31.6172C9.5625 31.5703 9.6484 31.5078 9.7265 31.4297L14.5546 26.8125L19.3593 31.4062C19.4375 31.4844 19.5234 31.5469 19.6172 31.5938C19.7109 31.625 19.8203 31.6406 19.9453 31.6406H24.9843L23.2734 33.375C23.1953 33.4375 23.1328 33.5234 23.0859 33.6328C23.039 33.7266 23.0156 33.8359 23.0156 33.9609C23.0156 34.1797 23.0937 34.375 23.25 34.5469C23.4218 34.7031 23.625 34.7812 23.8593 34.7812C23.9687 34.7812 24.0703 34.7656 24.164 34.7344C24.2734 34.6875 24.3672 34.625 24.4453 34.5469L27.5625 31.4062C27.6406 31.3281 27.7031 31.2422 27.75 31.1484C27.7968 31.0391 27.8203 30.9297 27.8203 30.8203C27.8203 30.7109 27.7968 30.6094 27.75 30.5156C27.7031 30.4062 27.6406 30.3125 27.5625 30.2344L24.4453 27.0938ZM17.6718 23.4375C17.7812 23.4375 17.8828 23.4219 17.9765 23.3906C18.0859 23.3438 18.1796 23.2891 18.2578 23.2266L20.25 21.3281H24.9843L23.2734 23.0625C23.1953 23.125 23.1328 23.2109 23.0859 23.3203C23.039 23.4141 23.0156 23.5234 23.0156 23.6484C23.0156 23.8828 23.0937 24.0781 23.25 24.2344C23.4218 24.3906 23.625 24.4688 23.8593 24.4688C23.9687 24.4688 24.0703 24.4531 24.164 24.4219C24.2734 24.375 24.3672 24.3125 24.4453 24.2344L27.5625 21.0938C27.6406 21.0156 27.7031 20.9297 27.75 20.8359C27.7968 20.7266 27.8203 20.6172 27.8203 20.5078C27.8203 20.3984 27.7968 20.2969 27.75 20.2031C27.7031 20.0938 27.6406 20 27.5625 19.9219L24.4453 16.8047C24.3672 16.7266 24.2734 16.6641 24.164 16.6172C24.0703 16.5703 23.9687 16.5469 23.8593 16.5469C23.625 16.5469 23.4218 16.6328 23.25 16.8047C23.0937 16.9609 23.0156 17.1562 23.0156 17.3906C23.0156 17.5 23.039 17.6094 23.0859 17.7188C23.1328 17.8125 23.1953 17.8984 23.2734 17.9766L24.9609 19.6641H19.9453C19.8203 19.6641 19.7109 19.6875 19.6172 19.7344C19.5234 19.7656 19.4375 19.8203 19.3593 19.8984L17.1093 22.0078C17.0312 22.0859 16.9687 22.1797 16.9218 22.2891C16.875 22.3828 16.8515 22.4922 16.8515 22.6172C16.8515 22.8359 16.9296 23.0312 17.0859 23.2031C17.2578 23.3594 17.4531 23.4375 17.6718 23.4375Z" fill="#545454"/>
<circle cx="37.8984" cy="25" r="7" fill="#74A3EE"/>
<path d="M39.548 27C39.9373 27 40.132 27.1653 40.132 27.496C40.132 27.832 39.9373 28 39.548 28H36.812C36.4173 28 36.22 27.832 36.22 27.496C36.22 27.1653 36.4173 27 36.812 27H37.556V23.728L36.852 24.152C36.772 24.2 36.692 24.224 36.612 24.224C36.4786 24.224 36.364 24.168 36.268 24.056C36.1773 23.944 36.132 23.8187 36.132 23.68C36.132 23.4933 36.2146 23.352 36.38 23.256L37.644 22.496C37.8306 22.384 38.0173 22.328 38.204 22.328C38.38 22.328 38.524 22.384 38.636 22.496C38.748 22.6027 38.804 22.7493 38.804 22.936V27H39.548Z" fill="#DFE8F5"/>
</svg>
