<svg width="50" height="50" viewBox="0 0 50 50" fill="none" xmlns="http://www.w3.org/2000/svg">
<path d="M26.4453 26.5469C26.3672 26.4843 26.2734 26.4297 26.164 26.3828C26.0703 26.3359 25.9687 26.3125 25.8593 26.3125C25.625 26.3125 25.4218 26.3984 25.25 26.5703C25.0937 26.7265 25.0156 26.9219 25.0156 27.1562C25.0156 27.2656 25.039 27.375 25.0859 27.4843C25.1328 27.5781 25.1953 27.664 25.2734 27.7422L26.9609 29.4297H22.2734L11.7265 19.3515C11.6484 19.2734 11.5625 19.2187 11.4687 19.1875C11.375 19.1406 11.2734 19.1172 11.164 19.1172H8.8203C8.5859 19.1172 8.3906 19.2031 8.2343 19.375C8.0781 19.5312 8 19.7265 8 19.9609C8 20.1797 8.0781 20.375 8.2343 20.5469C8.3906 20.7031 8.5859 20.7812 8.8203 20.7812H10.8125L15.3359 25.1172L10.8125 29.4531H8.8203C8.5859 29.4531 8.3906 29.539 8.2343 29.7109C8.0781 29.8672 8 30.0625 8 30.2969C8 30.5156 8.0781 30.7109 8.2343 30.8828C8.3906 31.039 8.5859 31.1172 8.8203 31.1172H11.164C11.2734 31.1172 11.375 31.1015 11.4687 31.0703C11.5625 31.0234 11.6484 30.9609 11.7265 30.8828L16.5546 26.2656L21.3593 30.8593C21.4375 30.9375 21.5234 31 21.6172 31.0469C21.7109 31.0781 21.8203 31.0937 21.9453 31.0937H26.9843L25.2734 32.8281C25.1953 32.8906 25.1328 32.9765 25.0859 33.0859C25.039 33.1797 25.0156 33.289 25.0156 33.414C25.0156 33.6328 25.0937 33.8281 25.25 34C25.4218 34.1562 25.625 34.2343 25.8593 34.2343C25.9687 34.2343 26.0703 34.2187 26.164 34.1875C26.2734 34.1406 26.3672 34.0781 26.4453 34L29.5625 30.8593C29.6406 30.7812 29.7031 30.6953 29.75 30.6015C29.7968 30.4922 29.8203 30.3828 29.8203 30.2734C29.8203 30.164 29.7968 30.0625 29.75 29.9687C29.7031 29.8593 29.6406 29.7656 29.5625 29.6875L26.4453 26.5469ZM19.6718 22.8906C19.7812 22.8906 19.8828 22.875 19.9765 22.8437C20.0859 22.7969 20.1796 22.7422 20.2578 22.6797L22.25 20.7812H26.9843L25.2734 22.5156C25.1953 22.5781 25.1328 22.664 25.0859 22.7734C25.039 22.8672 25.0156 22.9765 25.0156 23.1015C25.0156 23.3359 25.0937 23.5312 25.25 23.6875C25.4218 23.8437 25.625 23.9219 25.8593 23.9219C25.9687 23.9219 26.0703 23.9062 26.164 23.875C26.2734 23.8281 26.3672 23.7656 26.4453 23.6875L29.5625 20.5469C29.6406 20.4687 29.7031 20.3828 29.75 20.289C29.7968 20.1797 29.8203 20.0703 29.8203 19.9609C29.8203 19.8515 29.7968 19.75 29.75 19.6562C29.7031 19.5469 29.6406 19.4531 29.5625 19.375L26.4453 16.2578C26.3672 16.1797 26.2734 16.1172 26.164 16.0703C26.0703 16.0234 25.9687 16 25.8593 16C25.625 16 25.4218 16.0859 25.25 16.2578C25.0937 16.414 25.0156 16.6093 25.0156 16.8437C25.0156 16.9531 25.039 17.0625 25.0859 17.1719C25.1328 17.2656 25.1953 17.3515 25.2734 17.4297L26.9609 19.1172H21.9453C21.8203 19.1172 21.7109 19.1406 21.6172 19.1875C21.5234 19.2187 21.4375 19.2734 21.3593 19.3515L19.1093 21.4609C19.0312 21.539 18.9687 21.6328 18.9218 21.7422C18.875 21.8359 18.8515 21.9453 18.8515 22.0703C18.8515 22.289 18.9296 22.4843 19.0859 22.6562C19.2578 22.8125 19.4531 22.8906 19.6718 22.8906Z" fill="#545454"/>
<path d="M40.2681 27.625C40.8035 27.625 41.0711 27.8523 41.0711 28.307C41.0711 28.769 40.8035 29 40.2681 29H36.5061C35.9635 29 35.6921 28.769 35.6921 28.307C35.6921 27.8523 35.9635 27.625 36.5061 27.625H37.5291V23.126L36.5611 23.709C36.4511 23.775 36.3411 23.808 36.2311 23.808C36.0478 23.808 35.8901 23.731 35.7581 23.577C35.6335 23.423 35.5711 23.2507 35.5711 23.06C35.5711 22.8033 35.6848 22.609 35.9121 22.477L37.6501 21.432C37.9068 21.278 38.1635 21.201 38.4201 21.201C38.6621 21.201 38.8601 21.278 39.0141 21.432C39.1681 21.5787 39.2451 21.7803 39.2451 22.037V27.625H40.2681Z" fill="#545454"/>
</svg>
