<svg width="50" height="50" viewBox="0 0 50 50" fill="none" xmlns="http://www.w3.org/2000/svg">
<path d="M32.5469 27.0938C32.4688 27.0312 32.375 26.9766 32.2656 26.9297C32.1719 26.8828 32.0703 26.8594 31.9609 26.8594C31.7266 26.8594 31.5234 26.9453 31.3516 27.1172C31.1953 27.2734 31.1172 27.4688 31.1172 27.7031C31.1172 27.8125 31.1406 27.9219 31.1875 28.0312C31.2344 28.125 31.2969 28.2109 31.375 28.2891L33.0625 29.9766H28.375L17.8281 19.8984C17.75 19.8203 17.6641 19.7656 17.5703 19.7344C17.4766 19.6875 17.375 19.6641 17.2656 19.6641H14.9219C14.6875 19.6641 14.4922 19.75 14.3359 19.9219C14.1797 20.0781 14.1016 20.2734 14.1016 20.5078C14.1016 20.7266 14.1797 20.9219 14.3359 21.0938C14.4922 21.25 14.6875 21.3281 14.9219 21.3281H16.9141L21.4375 25.6641L16.9141 30H14.9219C14.6875 30 14.4922 30.0859 14.3359 30.2578C14.1797 30.4141 14.1016 30.6094 14.1016 30.8438C14.1016 31.0625 14.1797 31.2578 14.3359 31.4297C14.4922 31.5859 14.6875 31.6641 14.9219 31.6641H17.2656C17.375 31.6641 17.4766 31.6484 17.5703 31.6172C17.6641 31.5703 17.75 31.5078 17.8281 31.4297L22.6562 26.8125L27.4609 31.4062C27.5391 31.4844 27.625 31.5469 27.7188 31.5938C27.8125 31.625 27.9219 31.6406 28.0469 31.6406H33.0859L31.375 33.375C31.2969 33.4375 31.2344 33.5234 31.1875 33.6328C31.1406 33.7266 31.1172 33.8359 31.1172 33.9609C31.1172 34.1797 31.1953 34.375 31.3516 34.5469C31.5234 34.7031 31.7266 34.7812 31.9609 34.7812C32.0703 34.7812 32.1719 34.7656 32.2656 34.7344C32.375 34.6875 32.4688 34.625 32.5469 34.5469L35.6641 31.4062C35.7422 31.3281 35.8047 31.2422 35.8516 31.1484C35.8984 31.0391 35.9219 30.9297 35.9219 30.8203C35.9219 30.7109 35.8984 30.6094 35.8516 30.5156C35.8047 30.4062 35.7422 30.3125 35.6641 30.2344L32.5469 27.0938ZM25.7734 23.4375C25.8828 23.4375 25.9844 23.4219 26.0781 23.3906C26.1875 23.3438 26.2812 23.2891 26.3594 23.2266L28.3516 21.3281H33.0859L31.375 23.0625C31.2969 23.125 31.2344 23.2109 31.1875 23.3203C31.1406 23.4141 31.1172 23.5234 31.1172 23.6484C31.1172 23.8828 31.1953 24.0781 31.3516 24.2344C31.5234 24.3906 31.7266 24.4688 31.9609 24.4688C32.0703 24.4688 32.1719 24.4531 32.2656 24.4219C32.375 24.375 32.4688 24.3125 32.5469 24.2344L35.6641 21.0938C35.7422 21.0156 35.8047 20.9297 35.8516 20.8359C35.8984 20.7266 35.9219 20.6172 35.9219 20.5078C35.9219 20.3984 35.8984 20.2969 35.8516 20.2031C35.8047 20.0938 35.7422 20 35.6641 19.9219L32.5469 16.8047C32.4688 16.7266 32.375 16.6641 32.2656 16.6172C32.1719 16.5703 32.0703 16.5469 31.9609 16.5469C31.7266 16.5469 31.5234 16.6328 31.3516 16.8047C31.1953 16.9609 31.1172 17.1562 31.1172 17.3906C31.1172 17.5 31.1406 17.6094 31.1875 17.7188C31.2344 17.8125 31.2969 17.8984 31.375 17.9766L33.0625 19.6641H28.0469C27.9219 19.6641 27.8125 19.6875 27.7188 19.7344C27.625 19.7656 27.5391 19.8203 27.4609 19.8984L25.2109 22.0078C25.1328 22.0859 25.0703 22.1797 25.0234 22.2891C24.9766 22.3828 24.9531 22.4922 24.9531 22.6172C24.9531 22.8359 25.0312 23.0312 25.1875 23.2031C25.3594 23.3594 25.5547 23.4375 25.7734 23.4375Z" fill="#545454"/>
<circle cx="36" cy="17" r="7" fill="#74A3EE"/>
<path d="M37.6495 19C38.0389 19 38.2335 19.1653 38.2335 19.496C38.2335 19.832 38.0389 20 37.6495 20H34.9135C34.5189 20 34.3215 19.832 34.3215 19.496C34.3215 19.1653 34.5189 19 34.9135 19H35.6575V15.728L34.9535 16.152C34.8735 16.2 34.7935 16.224 34.7135 16.224C34.5802 16.224 34.4655 16.168 34.3695 16.056C34.2789 15.944 34.2335 15.8187 34.2335 15.68C34.2335 15.4933 34.3162 15.352 34.4815 15.256L35.7455 14.496C35.9322 14.384 36.1189 14.328 36.3055 14.328C36.4815 14.328 36.6255 14.384 36.7375 14.496C36.8495 14.6027 36.9055 14.7493 36.9055 14.936V19H37.6495Z" fill="#DFE8F5"/>
</svg>
