<svg width="120" height="30" viewBox="0 0 120 30" fill="none" xmlns="http://www.w3.org/2000/svg">
<circle cx="26" cy="15" r="5" fill="#74A3EE"/>
<path d="M33 14C33 12.8954 33.8954 12 35 12H56C57.1046 12 58 12.8954 58 14V16C58 17.1046 57.1046 18 56 18H35C33.8954 18 33 17.1046 33 16V14Z" fill="#8F959F" fill-opacity="0.2"/>
<circle cx="67" cy="15" r="5" fill="#74A3EE"/>
<path d="M74 14C74 12.8954 74.8954 12 76 12H97C98.1046 12 99 12.8954 99 14V16C99 17.1046 98.1046 18 97 18H76C74.8954 18 74 17.1046 74 16V14Z" fill="#8F959F" fill-opacity="0.2"/>
</svg>
