<svg width="70" height="40" viewBox="0 0 70 40" fill="none" xmlns="http://www.w3.org/2000/svg">
<rect x="23" y="9" width="23" height="23" rx="11.5" fill="#00ACED"/>
<path d="M41 17.1837C40.5221 17.3848 40.0078 17.5205 39.4681 17.5812C40.0191 17.2689 40.4416 16.7743 40.6408 16.1843C40.1255 16.4738 39.5549 16.6839 38.9472 16.7973C38.4609 16.3067 37.7676 16 37.0005 16C35.5277 16 34.3336 17.1303 34.3336 18.5246C34.3336 18.7222 34.3571 18.9148 34.4028 19.0999C32.1861 18.9945 30.2206 17.9896 28.9051 16.4621C28.6756 16.8348 28.5441 17.2684 28.5441 17.7315C28.5441 18.6073 29.0149 19.3801 29.7306 19.8327C29.2936 19.8195 28.8822 19.7059 28.5225 19.5168C28.5222 19.5273 28.5222 19.538 28.5222 19.5487C28.5222 20.7717 29.4416 21.7918 30.6619 22.0241C30.4381 22.0816 30.2024 22.1126 29.9591 22.1126C29.7871 22.1126 29.62 22.0968 29.4572 22.0671C29.7968 23.07 30.7817 23.8001 31.9486 23.8204C31.0358 24.4975 29.886 24.9012 28.6362 24.9012C28.4212 24.9012 28.2087 24.8892 28 24.8657C29.1806 25.5824 30.5824 26 32.0884 26C36.9944 26 39.6769 22.1533 39.6769 18.8171C39.6769 18.7077 39.6745 18.5985 39.6695 18.4901C40.1904 18.1349 40.6427 17.6901 41 17.1837Z" fill="white"/>
</svg>
