<svg width="50" height="50" viewBox="0 0 50 50" fill="none" xmlns="http://www.w3.org/2000/svg">
<path d="M31.575 21.0332C31.5417 20.806 31.4417 20.6195 31.275 20.4735C31.1083 20.3274 30.9083 20.2544 30.675 20.2544H18.325C18.0917 20.2544 17.8917 20.3274 17.725 20.4735C17.5583 20.6195 17.4583 20.7979 17.425 21.0088V21.0332L16.025 35.0509C16.0083 35.0509 16 35.059 16 35.0752C16 35.0914 16 35.1077 16 35.1239C16 35.3673 16.0833 35.5701 16.25 35.7323C16.4333 35.9108 16.65 36 16.9 36H32.1C32.35 36 32.5583 35.9108 32.725 35.7323C32.9083 35.5701 33 35.3673 33 35.1239C33 35.1077 33 35.0914 33 35.0752C33 35.059 33 35.0428 33 35.0265V35.0509L31.575 21.0332ZM17.875 34.2721L19.125 21.9823H29.875L31.125 34.2721H17.875ZM20.975 19.573C21.2083 19.5568 21.4083 19.4676 21.575 19.3053C21.7417 19.1268 21.825 18.924 21.825 18.6969C21.825 18.6807 21.825 18.6645 21.825 18.6482V18.6726C21.825 18.6726 21.85 18.4049 21.9 17.8695C21.9667 17.3178 22.2 16.8311 22.6 16.4093C22.8333 16.1984 23.0917 16.0361 23.375 15.9226C23.675 15.7928 23.9917 15.7279 24.325 15.7279C24.3583 15.7279 24.3917 15.736 24.425 15.7522C24.4583 15.7522 24.4833 15.7522 24.5 15.7522C24.5167 15.7522 24.5417 15.7522 24.575 15.7522C24.6083 15.736 24.6417 15.7279 24.675 15.7279C25.0083 15.7279 25.3167 15.7928 25.6 15.9226C25.9 16.0361 26.1583 16.1984 26.375 16.4093C26.7917 16.8311 27.025 17.3097 27.075 17.8451C27.1417 18.3805 27.175 18.6563 27.175 18.6726C27.175 18.6726 27.175 18.6807 27.175 18.6969C27.175 18.924 27.2583 19.1268 27.425 19.3053C27.5917 19.4676 27.7917 19.5568 28.025 19.573H28.05C28.3 19.573 28.5083 19.4919 28.675 19.3296C28.8417 19.1674 28.9333 18.9727 28.95 18.7456C28.95 18.6969 28.9 18.267 28.8 17.4558C28.7167 16.6445 28.3333 15.8982 27.65 15.2168C27.2833 14.8437 26.8417 14.5516 26.325 14.3407C25.8083 14.1136 25.2583 14 24.675 14C24.6417 14 24.6083 14 24.575 14C24.5583 14 24.5333 14.0081 24.5 14.0243C24.4667 14.0081 24.4333 14 24.4 14C24.3667 14 24.3333 14 24.3 14C23.7167 14 23.1667 14.1136 22.65 14.3407C22.15 14.5516 21.7083 14.8437 21.325 15.2168C20.6417 15.9145 20.2583 16.6689 20.175 17.4801C20.0917 18.2751 20.05 18.6969 20.05 18.7456C20.0667 18.9727 20.1583 19.1674 20.325 19.3296C20.4917 19.4919 20.7 19.573 20.95 19.573C20.9667 19.573 20.975 19.573 20.975 19.573Z" fill="#545454"/>
</svg>
