<svg height="20px" width="20px" viewBox="-46 0 512 512"  xmlns="http://www.w3.org/2000/svg"><path d="m405.351562 14.648438c-9.363281-9.359376-21.800781-14.5585942-35.023437-14.648438h-320.328125c-27.570312 0-50 22.429688-50 50v412c0 27.570312 22.429688 50 50 50h240c27.570312 0 50-22.429688 50-50v-196h30c27.570312 0 50-22.429688 50-50v-166c0-13.351562-5.199219-25.898438-14.648438-35.351562zm-85.351562 35.351562v412c0 16.539062-13.460938 30-30 30h-240c-16.539062 0-30-13.460938-30-30v-412c0-16.539062 13.460938-30 30-30h280.019531c-6.289062 8.359375-10.019531 18.75-10.019531 30zm80 166c0 16.539062-13.460938 30-30 30h-30v-196c0-14.988281 11.050781-27.449219 25.441406-29.648438.019532-.011718.039063-.011718.058594-.011718.378906-.058594.769531-.109375 1.160156-.140625 1.089844-.140625 2.210938-.199219 3.339844-.199219h.199219c7.929687.050781 15.390625 3.171875 21.011719 8.789062 5.667968 5.671876 8.789062 13.199219 8.789062 21.210938zm0 0"/><path d="m270 200h-200c-5.523438 0-10-4.476562-10-10v-120c0-5.523438 4.476562-10 10-10h200c5.523438 0 10 4.476562 10 10v120c0 5.523438-4.476562 10-10 10zm-190-20h180v-100h-180zm0 0"/><path d="m230 260h-160c-5.523438 0-10-4.476562-10-10s4.476562-10 10-10h160c5.523438 0 10 4.476562 10 10s-4.476562 10-10 10zm0 0"/><path d="m270.019531 260c-5.523437 0-10.003906-4.476562-10.003906-10s4.472656-10 9.996094-10h.007812c5.523438 0 10 4.476562 10 10s-4.476562 10-10 10zm0 0"/><path d="m270 299h-200c-5.523438 0-10-4.476562-10-10s4.476562-10 10-10h200c5.523438 0 10 4.476562 10 10s-4.476562 10-10 10zm0 0"/><path d="m269 451h-69c-5.523438 0-10-4.476562-10-10v-92c0-5.523438 4.476562-10 10-10h69c5.523438 0 10 4.476562 10 10v92c0 5.523438-4.476562 10-10 10zm-59-20h49v-72h-49zm0 0"/><path d="m140 451h-70c-5.523438 0-10-4.476562-10-10v-92c0-5.523438 4.476562-10 10-10h70c5.523438 0 10 4.476562 10 10v92c0 5.523438-4.476562 10-10 10zm-60-20h50v-72h-50zm0 0"/></svg>