<svg width="50" height="50" viewBox="0 0 50 50" fill="none" xmlns="http://www.w3.org/2000/svg">
<path d="M35.3359 34.8047L30.9297 30.4219C31.6016 29.6094 32.1328 28.6953 32.5234 27.6797C32.9141 26.6641 33.1094 25.5781 33.1094 24.4219C33.1094 23.1406 32.8594 21.9297 32.3594 20.7891C31.875 19.6641 31.2109 18.6797 30.3672 17.8359C29.5234 16.9922 28.5312 16.3281 27.3906 15.8438C26.2656 15.3438 25.0547 15.0938 23.7578 15.0938C22.4766 15.0938 21.2656 15.3438 20.125 15.8438C19 16.3281 18.0156 16.9922 17.1719 17.8359C16.3281 18.6797 15.6562 19.6641 15.1562 20.7891C14.6719 21.9297 14.4297 23.1406 14.4297 24.4219C14.4297 25.7188 14.6719 26.9297 15.1562 28.0547C15.6562 29.1953 16.3281 30.1875 17.1719 31.0312C18.0156 31.875 19 32.5391 20.125 33.0234C21.2656 33.5234 22.4766 33.7734 23.7578 33.7734C24.8984 33.7734 25.9766 33.5781 26.9922 33.1875C28.0234 32.7969 28.9453 32.2656 29.7578 31.5938L34.1406 36C34.2188 36.0781 34.3047 36.1406 34.3984 36.1875C34.5078 36.2344 34.6172 36.2578 34.7266 36.2578C34.9609 36.2578 35.1562 36.1719 35.3125 36C35.4844 35.8281 35.5703 35.6328 35.5703 35.4141C35.5703 35.2891 35.5469 35.1797 35.5 35.0859C35.4688 34.9766 35.4141 34.8828 35.3359 34.8047ZM18.3438 29.8594C17.6406 29.1562 17.0859 28.3438 16.6797 27.4219C16.2891 26.4844 16.0938 25.4922 16.0938 24.4453C16.0938 23.3828 16.2891 22.3828 16.6797 21.4453C17.0859 20.5234 17.6328 19.7188 18.3203 19.0312C19.0234 18.3281 19.8438 17.7734 20.7812 17.3672C21.7031 16.9609 22.6953 16.7578 23.7578 16.7578C24.8203 16.7578 25.8125 16.9609 26.7344 17.3672C27.6719 17.7734 28.4844 18.3281 29.1719 19.0312C29.875 19.7188 30.4219 20.5234 30.8125 21.4453C31.2188 22.3828 31.4219 23.3828 31.4219 24.4453C31.4219 25.4922 31.2188 26.4844 30.8125 27.4219C30.4219 28.3438 29.875 29.1562 29.1719 29.8594C28.4844 30.5469 27.6719 31.0938 26.7344 31.5C25.8125 31.9062 24.8203 32.1094 23.7578 32.1094C22.6953 32.1094 21.6953 31.9062 20.7578 31.5C19.8359 31.0938 19.0312 30.5469 18.3438 29.8594Z" fill="#545454"/>
</svg>
