<svg width="120" height="30" viewBox="0 0 120 30" fill="none" xmlns="http://www.w3.org/2000/svg">
<path d="M28 16C28 14.8954 28.8954 14 30 14H61C62.1046 14 63 14.8954 63 16V18C63 19.1046 62.1046 20 61 20H30C28.8954 20 28 19.1046 28 18V16Z" fill="#74A3EE"/>
<path d="M67 16C67 14.8954 67.8954 14 69 14H90C91.1046 14 92 14.8954 92 16V18C92 19.1046 91.1046 20 90 20H69C67.8954 20 67 19.1046 67 18V16Z" fill="#74A3EE"/>
<path d="M21 10L99 10C99.5523 10 100 10.4477 100 11C100 11.5523 99.5523 12 99 12L21 12C20.4477 12 20 11.5523 20 11C20 10.4477 20.4477 10 21 10Z" fill="#8F959F" fill-opacity="0.2"/>
</svg>
