<svg width="120" height="30" viewBox="0 0 120 30" fill="none" xmlns="http://www.w3.org/2000/svg">
<path d="M42 10C42 8.89543 42.8954 8 44 8H75C76.1046 8 77 8.89543 77 10V12C77 13.1046 76.1046 14 75 14H44C42.8954 14 42 13.1046 42 12V10Z" fill="#74A3EE"/>
<path d="M42 18C42 16.8954 42.8954 16 44 16H65C66.1046 16 67 16.8954 67 18V20C67 21.1046 66.1046 22 65 22H44C42.8954 22 42 21.1046 42 20V18Z" fill="#74A3EE"/>
<path d="M38 28V2C38 1.44772 38.4477 1 39 1C39.5523 1 40 1.44771 40 2V28C40 28.5523 39.5523 29 39 29C38.4477 29 38 28.5523 38 28Z" fill="#8F959F" fill-opacity="0.2"/>
</svg>
