<svg width="120" height="30" viewBox="0 0 120 30" fill="none" xmlns="http://www.w3.org/2000/svg">
<circle cx="46" cy="14" r="5" fill="#74A3EE"/>
<path d="M57 13C55.8954 13 55 12.1046 55 11V9C55 7.89543 55.8954 7 57 7H77C78.1046 7 79 7.89543 79 9V11C79 12.1046 78.1046 13 77 13H57Z" fill="#8F959F" fill-opacity="0.2"/>
<path d="M57 21C55.8954 21 55 20.1045 55 19V17C55 15.8954 55.8954 15 57 15H71C72.1046 15 73 15.8954 73 17V19C73 20.1045 72.1046 21 71 21H57Z" fill="#8F959F" fill-opacity="0.2"/>
</svg>
