<svg width="50" height="50" viewBox="0 0 50 50" fill="none" xmlns="http://www.w3.org/2000/svg">
<path d="M16.5742 35.2266C16.4648 35.2266 16.3554 35.2031 16.2461 35.1562C16.1523 35.1094 16.0664 35.0547 15.9883 34.9922L8.27733 27.2812C7.85543 26.8594 7.43363 26.2969 7.01173 25.5938C6.57423 24.9062 6.26953 24.1406 6.09763 23.2969C5.94143 22.4531 5.97263 21.5703 6.19143 20.6484C6.41013 19.7266 6.95703 18.8281 7.83203 17.9531C8.98833 16.8125 10.1367 16.2188 11.2773 16.1719C12.418 16.1094 13.4023 16.2344 14.2304 16.5469C14.6836 16.7188 15.1054 16.9219 15.4961 17.1562C15.8867 17.375 16.2539 17.6172 16.5976 17.8828H16.5742C16.9023 17.6172 17.2539 17.375 17.6289 17.1562C18.0195 16.9219 18.4258 16.7266 18.8476 16.5703L18.918 16.5469C19.7461 16.2344 20.7304 16.1094 21.8711 16.1719C23.0117 16.2188 24.1601 16.8125 25.3164 17.9531C26.1914 18.8281 26.7383 19.7266 26.957 20.6484C27.1758 21.5703 27.1992 22.4531 27.0273 23.2969C26.8711 24.1406 26.5742 24.9141 26.1367 25.6172C25.7148 26.3047 25.293 26.8594 24.8711 27.2812L17.1601 34.9922C17.082 35.0547 16.9883 35.1094 16.8789 35.1562C16.7851 35.2031 16.6836 35.2266 16.5742 35.2266ZM12.0039 17.7891C11.4101 17.7891 10.8554 17.9141 10.3398 18.1641C9.82423 18.3984 9.37893 18.7188 9.00393 19.125C8.20703 19.9219 7.76953 20.7266 7.69143 21.5391C7.62893 22.3516 7.72263 23.0938 7.97263 23.7656C8.22263 24.4219 8.52733 24.9609 8.88673 25.3828C9.23043 25.8203 9.42583 26.0547 9.47263 26.0859L16.5742 33.2109L23.6758 26.1094C23.7226 26.0625 23.918 25.8281 24.2617 25.4062C24.6211 24.9688 24.9258 24.4219 25.1758 23.7656C25.4258 23.1094 25.5117 22.375 25.4336 21.5625C25.3711 20.75 24.9414 19.9375 24.1445 19.125C23.332 18.3281 22.5195 17.8984 21.707 17.8359C20.8945 17.7578 20.1601 17.8438 19.5039 18.0938C18.8476 18.3438 18.3008 18.6484 17.8633 19.0078C17.4414 19.3516 17.207 19.5469 17.1601 19.5938C17.082 19.6719 16.9883 19.7344 16.8789 19.7812C16.7851 19.8125 16.6836 19.8281 16.5742 19.8281C16.4648 19.8281 16.3554 19.8125 16.2461 19.7812C16.1523 19.7344 16.0664 19.6719 15.9883 19.5938C15.9258 19.5312 15.5117 19.2188 14.7461 18.6562C13.9804 18.0781 13.0664 17.7891 12.0039 17.7891Z" fill="#545454"/>
<circle cx="37.5742" cy="25" r="7" fill="#74A3EE"/>
<path d="M39.2237 27C39.6131 27 39.8077 27.1653 39.8077 27.496C39.8077 27.832 39.6131 28 39.2237 28H36.4877C36.0931 28 35.8957 27.832 35.8957 27.496C35.8957 27.1653 36.0931 27 36.4877 27H37.2317V23.728L36.5277 24.152C36.4477 24.2 36.3677 24.224 36.2877 24.224C36.1544 24.224 36.0397 24.168 35.9437 24.056C35.8531 23.944 35.8077 23.8187 35.8077 23.68C35.8077 23.4933 35.8904 23.352 36.0557 23.256L37.3197 22.496C37.5064 22.384 37.6931 22.328 37.8797 22.328C38.0557 22.328 38.1997 22.384 38.3117 22.496C38.4237 22.6027 38.4797 22.7493 38.4797 22.936V27H39.2237Z" fill="#DFE8F5"/>
</svg>
