<svg width="50" height="50" viewBox="0 0 50 50" fill="none" xmlns="http://www.w3.org/2000/svg">
<path d="M18.5742 34.0703C18.4648 34.0703 18.3554 34.0468 18.2461 33.9999C18.1523 33.9531 18.0664 33.8984 17.9883 33.8359L10.2773 26.1249C9.85543 25.7031 9.43363 25.1406 9.01173 24.4375C8.57423 23.7499 8.26953 22.9843 8.09763 22.1406C7.94143 21.2968 7.97263 20.414 8.19143 19.4921C8.41013 18.5703 8.95703 17.6718 9.83203 16.7968C10.9883 15.6562 12.1367 15.0625 13.2773 15.0156C14.418 14.9531 15.4023 15.0781 16.2304 15.3906C16.6836 15.5625 17.1054 15.7656 17.4961 15.9999C17.8867 16.2187 18.2539 16.4609 18.5976 16.7265H18.5742C18.9023 16.4609 19.2539 16.2187 19.6289 15.9999C20.0195 15.7656 20.4258 15.5703 20.8476 15.414L20.918 15.3906C21.7461 15.0781 22.7304 14.9531 23.8711 15.0156C25.0117 15.0625 26.1601 15.6562 27.3164 16.7968C28.1914 17.6718 28.7383 18.5703 28.957 19.4921C29.1758 20.414 29.1992 21.2968 29.0273 22.1406C28.8711 22.9843 28.5742 23.7578 28.1367 24.4609C27.7148 25.1484 27.293 25.7031 26.8711 26.1249L19.1601 33.8359C19.082 33.8984 18.9883 33.9531 18.8789 33.9999C18.7851 34.0468 18.6836 34.0703 18.5742 34.0703ZM14.0039 16.6328C13.4101 16.6328 12.8554 16.7578 12.3398 17.0078C11.8242 17.2421 11.3789 17.5625 11.0039 17.9687C10.207 18.7656 9.76953 19.5703 9.69143 20.3828C9.62893 21.1953 9.72263 21.9375 9.97263 22.6093C10.2226 23.2656 10.5273 23.8046 10.8867 24.2265C11.2304 24.664 11.4258 24.8984 11.4726 24.9296L18.5742 32.0546L25.6758 24.9531C25.7226 24.9062 25.918 24.6718 26.2617 24.2499C26.6211 23.8125 26.9258 23.2656 27.1758 22.6093C27.4258 21.9531 27.5117 21.2187 27.4336 20.4062C27.3711 19.5937 26.9414 18.7812 26.1445 17.9687C25.332 17.1718 24.5195 16.7421 23.707 16.6796C22.8945 16.6015 22.1601 16.6875 21.5039 16.9375C20.8476 17.1875 20.3008 17.4921 19.8633 17.8515C19.4414 18.1953 19.207 18.3906 19.1601 18.4375C19.082 18.5156 18.9883 18.5781 18.8789 18.6249C18.7851 18.6562 18.6836 18.6718 18.5742 18.6718C18.4648 18.6718 18.3554 18.6562 18.2461 18.6249C18.1523 18.5781 18.0664 18.5156 17.9883 18.4375C17.9258 18.3749 17.5117 18.0625 16.7461 17.4999C15.9804 16.9218 15.0664 16.6328 14.0039 16.6328Z" fill="#545454"/>
<path d="M40.2681 27.625C40.8035 27.625 41.0711 27.8523 41.0711 28.307C41.0711 28.769 40.8035 29 40.2681 29H36.5061C35.9635 29 35.6921 28.769 35.6921 28.307C35.6921 27.8523 35.9635 27.625 36.5061 27.625H37.5291V23.126L36.5611 23.709C36.4511 23.775 36.3411 23.808 36.2311 23.808C36.0478 23.808 35.8901 23.731 35.7581 23.577C35.6335 23.423 35.5711 23.2507 35.5711 23.06C35.5711 22.8033 35.6848 22.609 35.9121 22.477L37.6501 21.432C37.9068 21.278 38.1635 21.201 38.4201 21.201C38.6621 21.201 38.8601 21.278 39.0141 21.432C39.1681 21.5787 39.2451 21.7803 39.2451 22.037V27.625H40.2681Z" fill="#545454"/>
</svg>
